<svg width="40" height="40" viewBox="0 0 40 40" fill="none" xmlns="http://www.w3.org/2000/svg">
  <path d="M20 3.75C16.5674 3.75 13.75 6.56738 13.75 10V11.25H7.57812L7.5 12.4219L6.25 34.9219L6.17188 36.25H33.8281L33.75 34.9219L32.5 12.4219L32.4219 11.25H26.25V10C26.25 6.56738 23.4326 3.75 20 3.75ZM20 6.25C22.0703 6.25 23.75 7.92969 23.75 10V11.25H16.25V10C16.25 7.92969 17.9297 6.25 20 6.25ZM9.92188 13.75H13.75V17.5H16.25V13.75H23.75V17.5H26.25V13.75H30.0781L31.1719 33.75H8.82812L9.92188 13.75Z" fill="#2A56A7" />
</svg>