<svg width="12" height="12" viewBox="0 0 12 12" fill="none" xmlns="http://www.w3.org/2000/svg">
                                            <path fill-rule="evenodd" clip-rule="evenodd" d="M6.00393 1.89825C4.8357 0.852085 3.10333 0.637695 1.7611 1.81779C0.314318 3.0898 0.107744 5.2231 1.24772 6.73256C1.95957 7.67513 3.82142 9.43674 4.86892 10.4057L4.8816 10.4175C5.00796 10.5344 5.12392 10.6416 5.22929 10.7242C5.34426 10.8143 5.4743 10.8978 5.63639 10.9477C5.87322 11.0206 6.13499 11.0206 6.37182 10.9477C6.53391 10.8978 6.66395 10.8143 6.77892 10.7242C6.8843 10.6416 7.00026 10.5344 7.12663 10.4174L7.13929 10.4057C8.18679 9.43674 10.0486 7.67513 10.7605 6.73256C11.8962 5.22873 11.7218 3.07899 10.2419 1.81331C8.88492 0.65271 7.17118 0.851433 6.00393 1.89825ZM5.68154 2.22506C5.68115 2.22549 5.68118 2.22544 5.68158 2.22501L5.68154 2.22506ZM6.32656 2.22495C6.32678 2.22518 6.32689 2.2253 6.32688 2.22529C6.32687 2.22528 6.32678 2.22519 6.32661 2.225L6.32656 2.22495ZM5.56618 2.87466C4.71119 1.90369 3.40272 1.70601 2.42139 2.5688C1.36718 3.49565 1.22165 5.03874 2.04571 6.12989C2.69144 6.98491 4.47417 8.67832 5.54798 9.67164C5.69119 9.80412 5.77689 9.88286 5.84607 9.93707C5.90917 9.98651 5.92939 9.99159 5.93056 9.99195C5.97572 10.0059 6.0325 10.0059 6.07765 9.99195L6.07777 9.99192C6.07986 9.99131 6.10062 9.98527 6.16215 9.93707C6.23132 9.88286 6.31702 9.80412 6.46023 9.67164C7.53404 8.67832 9.31677 6.98491 9.9625 6.12989C10.7908 5.03312 10.6561 3.48333 9.59199 2.57327C8.58453 1.71165 7.29231 1.90862 6.4421 2.87456C6.4416 2.87512 6.44097 2.87584 6.44022 2.87671C6.43225 2.88581 6.41049 2.91068 6.38776 2.93269C6.36204 2.9576 6.29427 3.02053 6.18735 3.05831C6.06845 3.10033 5.93987 3.10034 5.82096 3.05835C5.71404 3.02059 5.64627 2.95769 5.62053 2.93277C5.59779 2.91076 5.57602 2.88589 5.56806 2.8768C5.5673 2.87594 5.56667 2.87522 5.56618 2.87466Z" fill="#1976D2" />
                                        </svg>