<svg width="12" height="12" viewBox="0 0 12 12" fill="none" xmlns="http://www.w3.org/2000/svg">
                                            <path fill-rule="evenodd" clip-rule="evenodd" d="M6 1.5C3.51472 1.5 1.5 3.51472 1.5 6C1.5 8.48528 3.51472 10.5 6 10.5C8.48528 10.5 10.5 8.48528 10.5 6C10.5 3.51472 8.48528 1.5 6 1.5ZM0.5 6C0.5 2.96243 2.96243 0.5 6 0.5C9.03757 0.5 11.5 2.96243 11.5 6C11.5 9.03757 9.03757 11.5 6 11.5C2.96243 11.5 0.5 9.03757 0.5 6ZM6 2.75C6.27614 2.75 6.5 2.97386 6.5 3.25V5.79289L7.85355 7.14645C8.04882 7.34171 8.04882 7.65829 7.85355 7.85355C7.65829 8.04882 7.34171 8.04882 7.14645 7.85355L5.64645 6.35355C5.55268 6.25979 5.5 6.13261 5.5 6V3.25C5.5 2.97386 5.72386 2.75 6 2.75Z" fill="#5D6B82" fill-opacity="0.5" />
                                        </svg>