<svg width="12" height="12" viewBox="0 0 12 12" fill="none" xmlns="http://www.w3.org/2000/svg">
                                            <path fill-rule="evenodd" clip-rule="evenodd" d="M5.99945 3C3.35061 3 2.16605 4.67002 1.70728 5.59083C1.68132 5.64292 1.67705 5.65278 1.67194 5.66779C1.66585 5.68566 1.65515 5.72287 1.6377 5.81616C1.63809 5.81409 1.63808 5.81421 1.6378 5.81682C1.63724 5.82223 1.63556 5.8383 1.634 5.86771C1.63199 5.90554 1.63086 5.95179 1.63086 6C1.63086 6.04821 1.63199 6.09446 1.634 6.1323C1.63556 6.1617 1.63724 6.17777 1.6378 6.18318C1.63808 6.18579 1.63809 6.18591 1.6377 6.18384C1.65515 6.27713 1.66585 6.31434 1.67194 6.33221C1.67706 6.34722 1.68132 6.35708 1.70728 6.40917C2.16605 7.32998 3.35061 9 5.99945 9C8.6483 9 9.83286 7.32998 10.2916 6.40917C10.3176 6.35708 10.3219 6.34722 10.327 6.33221C10.3331 6.31434 10.3438 6.27713 10.3612 6.18384C10.3608 6.18591 10.3608 6.18579 10.3611 6.18317C10.3617 6.17776 10.3633 6.16169 10.3649 6.13229C10.3669 6.09446 10.368 6.04821 10.368 6C10.368 5.95179 10.3669 5.90554 10.3649 5.8677C10.3633 5.83831 10.3617 5.82223 10.3611 5.81683C10.3608 5.81421 10.3608 5.81409 10.3612 5.81616C10.3438 5.72287 10.3331 5.68566 10.327 5.66779C10.3219 5.65278 10.3176 5.64292 10.2916 5.59083C9.83286 4.67002 8.6483 3 5.99945 3ZM0.812214 5.14489C1.35808 4.04926 2.81693 2 5.99945 2C9.18198 2 10.6408 4.04926 11.1867 5.14489L11.1898 5.15114C11.2136 5.1988 11.2453 5.26233 11.2735 5.34528C11.3021 5.42906 11.3231 5.51984 11.3442 5.63232C11.3639 5.73784 11.368 5.8907 11.368 6C11.368 6.1093 11.3639 6.26216 11.3442 6.36768C11.3231 6.48016 11.3021 6.57094 11.2735 6.65472C11.2453 6.73767 11.2136 6.8012 11.1898 6.84886L11.1867 6.85511C10.6408 7.95074 9.18198 10 5.99945 10C2.81693 10 1.35808 7.95074 0.812214 6.85511C0.811192 6.85306 0.810153 6.85098 0.809098 6.84886C0.785326 6.8012 0.75364 6.73768 0.725376 6.65472C0.696829 6.57094 0.675784 6.48016 0.654746 6.36768C0.635012 6.26216 0.630859 6.1093 0.630859 6C0.630859 5.8907 0.635012 5.73784 0.654746 5.63232C0.675784 5.51984 0.696829 5.42906 0.725376 5.34528C0.75364 5.26233 0.785325 5.1988 0.809097 5.15114C0.810152 5.14902 0.811191 5.14694 0.812214 5.14489ZM5.99945 5C5.44717 5 4.99945 5.44772 4.99945 6C4.99945 6.55228 5.44717 7 5.99945 7C6.55174 7 6.99945 6.55228 6.99945 6C6.99945 5.44772 6.55174 5 5.99945 5ZM3.99945 6C3.99945 4.89543 4.89488 4 5.99945 4C7.10402 4 7.99945 4.89543 7.99945 6C7.99945 7.10457 7.10402 8 5.99945 8C4.89488 8 3.99945 7.10457 3.99945 6Z" fill="#5D6B82" fill-opacity="0.5" />
                                        </svg>