<svg width="106" height="36" viewBox="0 0 106 36" fill="none" xmlns="http://www.w3.org/2000/svg">
  <path d="M17.9949 23.5808C17.9949 23.4004 18.1451 23.25 18.3554 23.25H22.4109C24.6039 23.25 26.1961 24.6934 26.1961 26.6179C26.1961 28.0312 25.1747 29.0235 24.3035 29.5047C25.2648 29.8956 26.5566 30.7977 26.5566 32.4816C26.5566 34.5264 24.8743 35.9999 22.5912 35.9999H18.3253C18.115 35.9999 17.9648 35.8495 17.9648 35.639V23.6108L17.9949 23.5808ZM22.5912 34.2859C23.7027 34.2859 24.5438 33.4439 24.5438 32.3012C24.5438 31.1585 23.4924 30.4068 22.3208 30.4068H19.8274V34.2859H22.5912ZM22.2907 28.7529C23.4623 28.7529 24.1533 27.9109 24.1533 26.7983C24.1533 25.6857 23.4323 24.9339 22.2907 24.9339H19.8274V28.7529H22.2907Z" fill="#6AABF7" />
  <path d="M28.9004 23.5816C28.9004 23.4007 29.0864 23.25 29.3467 23.25H30.8345C31.0576 23.25 31.2436 23.4007 31.2436 23.5816V35.6382C31.2436 35.819 31.0576 35.9999 30.8345 35.9999H29.3467C29.1236 35.9999 28.9004 35.8492 28.9004 35.6382V23.5816V23.5816Z" fill="#6AABF7" />
  <path d="M40.2097 23.25C43.9032 23.25 46.8641 26.0931 46.8641 29.6396C46.8641 33.1861 43.9032 35.9999 40.2097 35.9999C36.5163 35.9999 33.5859 33.1861 33.5859 29.6396C33.5859 26.0931 36.5163 23.25 40.2097 23.25V23.25ZM40.2097 34.2413C42.8348 34.2413 45.0021 32.1896 45.0021 29.6689C45.0021 27.1482 42.8348 25.0379 40.2097 25.0379C37.5846 25.0379 35.4479 27.1482 35.4479 29.6689C35.4479 32.1896 37.6152 34.2413 40.2097 34.2413Z" fill="#6AABF7" />
  <path d="M50.6815 24.9379H47.9491C47.7559 24.9379 47.6455 24.7872 47.6455 24.6064V23.5816C47.6455 23.4007 47.7835 23.25 47.9491 23.25H55.125C55.3182 23.25 55.4562 23.4007 55.4562 23.5816V24.6064C55.4562 24.7872 55.3182 24.9379 55.125 24.9379H52.3926V35.6382C52.3926 35.819 52.2546 35.9999 52.089 35.9999H50.985C50.8194 35.9999 50.6539 35.8492 50.6539 35.6382V24.9379H50.6815Z" fill="#6AABF7" />
  <path d="M57.7988 23.5816C57.7988 23.4007 57.9209 23.25 58.0917 23.25H59.0681C59.2145 23.25 59.361 23.4007 59.361 23.5816V35.6382C59.361 35.819 59.2389 35.9999 59.0681 35.9999H58.0917C57.9453 35.9999 57.7988 35.8492 57.7988 35.6382V23.5816V23.5816Z" fill="#6AABF7" />
  <path d="M68.9916 23.25C70.7956 23.25 72.0968 23.8655 73.3094 24.8914C73.4572 25.0379 73.4572 25.2431 73.3094 25.3896L72.5109 26.181C72.3926 26.3276 72.2151 26.3276 72.0673 26.181C71.2392 25.4483 70.0858 24.9793 68.962 24.9793C66.4187 24.9793 64.4668 27.1189 64.4668 29.581C64.4668 32.043 66.4187 34.1827 68.962 34.1827C70.2633 34.1827 71.1801 33.6551 72.0377 33.0103C72.1856 32.893 72.363 32.893 72.4517 33.0103L73.2798 33.8016C73.2798 33.8016 73.3981 34.1534 73.2798 34.2706C72.0673 35.443 70.5294 35.9999 68.9324 35.9999C65.354 35.9999 62.4854 33.1861 62.4854 29.6396C62.4854 26.0931 65.354 23.25 68.9324 23.25H68.9916Z" fill="#6AABF7" />
  <path d="M75.0325 34.0361C75.1762 33.8016 75.3199 33.5378 75.4924 33.3034C75.6361 33.0689 75.8948 33.0103 76.096 33.1568C76.211 33.2447 77.5331 34.3878 78.884 34.3878C80.0913 34.3878 80.8386 33.6551 80.8386 32.7465C80.8386 31.6913 79.9475 31.0172 78.223 30.2844C76.4409 29.5224 75.0612 28.5844 75.0612 26.5327C75.0612 25.1552 76.096 23.25 78.8553 23.25C80.5799 23.25 81.902 24.1586 82.0745 24.3052C82.2182 24.3931 82.3619 24.6569 82.1895 24.9207C82.0458 25.1258 81.9021 25.3896 81.7583 25.5948C81.6146 25.8293 81.3847 25.9465 81.1547 25.7707C81.0398 25.712 79.8038 24.8914 78.7978 24.8914C77.3319 24.8914 76.8433 25.8293 76.8433 26.4741C76.8433 27.4707 77.6194 28.1155 79.0565 28.7017C81.0685 29.5224 82.7931 30.5189 82.7931 32.6585C82.7931 34.5051 81.1835 35.9999 78.9128 35.9999C76.7858 35.9999 75.4636 34.8568 75.1762 34.593C75.0325 34.4465 74.8888 34.3292 75.0612 34.0361H75.0325Z" fill="#6AABF7" />
  <path d="M0 0.442411C0 0.206458 0.177805 0 0.414876 0H5.86752C8.65311 0 10.9349 2.24155 10.9349 4.98451C10.9349 7.72746 8.6531 10.0575 5.89715 10.0575H3.52644V15.3369C3.52644 15.5729 3.319 15.7499 3.11156 15.7499H0.444509C0.207438 15.7499 0.0296346 15.5434 0.0296346 15.3369V0.442411H0ZM5.68971 6.75416C6.66763 6.75416 7.46775 5.98731 7.46775 4.98451C7.46775 4.04069 6.66763 3.33284 5.68971 3.33284H3.52644V6.78365H5.68971V6.75416Z" fill="#6AABF7" />
  <path d="M14.0596 0.442411C14.0596 0.206458 14.2314 0 14.4893 0H21.0204C23.6558 0 25.7756 2.18256 25.7756 4.86653C25.7756 6.93112 24.4292 8.61228 22.5386 9.37913L25.5464 15.101C25.6896 15.3959 25.5464 15.7499 25.174 15.7499H22.2808C22.1089 15.7499 21.9657 15.6319 21.9371 15.5434L19.0439 9.58559H17.5257V15.3369C17.5257 15.5729 17.3251 15.7499 17.096 15.7499H14.4893C14.2601 15.7499 14.0596 15.5434 14.0596 15.3369V0.442411V0.442411ZM20.734 6.75416C21.622 6.75416 22.3954 5.89883 22.3954 4.95501C22.3954 4.0112 21.622 3.24435 20.734 3.24435H17.497V6.75416H20.734V6.75416Z" fill="#6AABF7" />
  <path d="M28.9004 0.441584C28.9004 0.206072 29.077 0 29.3419 0H38.6422C38.8777 0 39.0542 0.206072 39.0542 0.441584V2.88502C39.0542 3.12053 38.8777 3.32661 38.6422 3.32661H32.4322V6.12331H37.5532C37.7887 6.12331 37.9947 6.32939 37.9947 6.5649V9.00833C37.9947 9.24385 37.7887 9.44992 37.5532 9.44992H32.4322V12.4821H38.6422C38.8777 12.4821 39.0542 12.6882 39.0542 12.8943V15.3377C39.0542 15.5732 38.8777 15.7499 38.6422 15.7499H29.3419C29.1064 15.7499 28.9004 15.5438 28.9004 15.3377V0.441584V0.441584Z" fill="#6AABF7" />
  <path d="M49.1142 9.09004H45.7296C45.4857 9.09004 45.3027 8.88509 45.3027 8.65085V7.09906C45.3027 6.86483 45.5162 6.68916 45.7296 6.68916H49.1142V3.40991C49.1142 3.17567 49.3277 3 49.5411 3H51.1572C51.4011 3 51.6146 3.17567 51.6146 3.40991V6.68916H55.0297C55.2736 6.68916 55.4566 6.89411 55.4566 7.09906V8.65085C55.4566 8.88509 55.2736 9.09004 55.0297 9.09004H51.6146V12.34C51.6146 12.5742 51.4011 12.7499 51.1572 12.7499H49.5411C49.2972 12.7499 49.1142 12.5742 49.1142 12.34V9.09004Z" fill="#6AABF7" />
  <path d="M61.7051 0.442411C61.7051 0.206458 61.8824 0 62.1484 0H67.5863C70.3644 0 72.64 2.24155 72.64 4.98451C72.64 7.72746 70.3644 10.0575 67.6158 10.0575H65.2515V15.3369C65.2515 15.5729 65.0447 15.7499 64.8082 15.7499H62.1484C61.912 15.7499 61.7051 15.5434 61.7051 15.3369V0.442411V0.442411ZM67.3794 6.75416C68.3547 6.75416 69.1526 5.98731 69.1526 4.98451C69.1526 4.04069 68.3547 3.33284 67.3794 3.33284H65.2515V6.78365H67.3794V6.75416Z" fill="#6AABF7" />
  <path d="M74.9824 0.442411C74.9824 0.206458 75.1547 0 75.3844 0H81.9316C84.5734 0 86.6984 2.18256 86.6984 4.86653C86.6984 6.93112 85.3775 8.61228 83.4535 9.37913L86.44 15.101C86.5835 15.3959 86.44 15.7499 86.0667 15.7499H83.1664C82.9941 15.7499 82.8505 15.6319 82.8218 15.5434L79.9215 9.58559H78.3996V15.3369C78.3996 15.5729 78.1986 15.7499 77.9976 15.7499H75.3844C75.1547 15.7499 74.9824 15.5434 74.9824 15.3369V0.442411V0.442411ZM81.6732 6.75416C82.5634 6.75416 83.3387 5.89883 83.3387 4.95501C83.3387 4.0112 82.5634 3.24435 81.6732 3.24435H78.4283V6.75416H81.6732Z" fill="#6AABF7" />
  <path d="M97.2273 0C101.798 0 105.443 3.52866 105.443 7.88928C105.443 12.2499 101.798 15.7499 97.2273 15.7499C92.6561 15.7499 89.041 12.2786 89.041 7.88928C89.041 3.49997 92.6561 0 97.2273 0ZM97.2273 12.2499C99.7369 12.2499 101.798 10.2704 101.798 7.88928C101.798 5.50815 99.7369 3.49997 97.2273 3.49997C94.7176 3.49997 92.686 5.47946 92.686 7.88928C92.686 10.2991 94.7475 12.2499 97.2273 12.2499Z" fill="#6AABF7" />
</svg>