<svg width="47" height="41" viewBox="0 0 47 41" fill="none" xmlns="http://www.w3.org/2000/svg">
  <path d="M21.144 40.1405C32.4209 40.1405 41.5625 31.3182 41.5625 20.4355C41.5625 9.5527 32.4209 0.730469 21.144 0.730469C9.86724 0.730469 0.725586 9.5527 0.725586 20.4355C0.725586 31.3182 9.86724 40.1405 21.144 40.1405Z" fill="white" />
  <path d="M21.8193 18.5755C20.8553 18.3218 19.8037 18.7728 19.8037 18.7728C19.8037 18.7728 19.9498 19.9004 20.4463 20.0414C21.2935 20.3233 22.1698 20.0696 22.1698 20.0696C22.1698 20.0696 22.4911 20.436 22.6372 20.5488C22.8124 20.6897 23.1045 20.8025 23.1338 20.577C23.163 20.3515 22.608 18.801 21.8193 18.5755Z" fill="#6AABF7" />
  <path d="M23.5695 0.137296C11.9727 -1.15946 1.45677 6.87477 0.142278 18.0945C-1.20143 29.3142 7.1237 39.4345 18.7205 40.7031C30.3464 41.9999 40.8332 33.9374 42.1477 22.7459C43.4914 11.5544 35.1662 1.40586 23.5695 0.137296ZM18.8665 39.6883C16.5881 39.4345 14.4264 38.8144 12.4693 37.8841C12.9659 35.7698 13.7838 32.3024 14.0175 31.5695C14.368 30.4418 15.6241 28.2148 15.6241 28.2148C18.8373 31.203 18.9834 30.8083 20.3271 33.3454C21.1158 34.8395 21.3494 38.8707 21.3494 38.8707C21.3494 38.8707 21.3787 39.2372 21.4079 39.7728C20.5608 39.801 19.7136 39.7728 18.8665 39.6883ZM39.2558 17.2206C38.73 17.4461 37.3571 17.5025 36.1886 17.4461C35.0202 17.3897 32.4788 17.1078 30.7262 16.0648C29.4117 15.2755 28.5353 14.458 28.1848 14.1197C28.7106 15.2191 29.2948 16.4031 29.4993 16.7132C29.9667 17.4179 29.9083 18.9402 29.2364 19.9832C28.5353 21.0263 29.2364 26.4106 29.2656 27.1154C29.2948 27.8202 29.6454 29.2297 29.2656 29.7371C29.2364 29.7935 26.9287 29.4834 26.8119 29.1451C26.7535 28.9196 26.4906 28.835 26.2861 28.9196C26.0524 29.0041 25.9648 29.2297 26.0232 29.427C26.0816 29.5679 26.549 30.8083 27.0456 31.3439C27.4545 31.795 28.1264 32.1333 28.623 32.1896C28.4769 32.3024 27.104 32.8098 26.1693 32.0205C25.1761 31.1748 24.8548 30.2445 24.2705 29.6807C24.2121 29.6243 24.1537 29.5961 24.1245 29.5398C23.7447 29.7653 24.1537 30.4137 24.3582 30.7519C24.8548 31.5695 25.7603 32.4715 25.7603 32.4715C25.7603 32.4715 25.5558 32.8944 24.475 32.3306C23.3942 31.795 23.8324 31.0902 23.3358 30.3573C22.956 29.7653 22.2258 28.835 21.5831 27.9893C21.145 27.6792 20.6776 27.3691 20.3271 27.1436C18.6912 26.0442 18.0778 24.6346 17.4936 23.4225C17.406 23.1969 17.2891 22.8868 17.1723 22.5486L17.0262 22.8305C17.0262 22.8305 14.0467 26.7207 13.1996 28.9196C12.5277 30.611 11.739 34.6422 11.5053 37.3485C5.66315 34.2757 1.69046 28.5249 1.13545 21.9848C3.35548 19.2503 6.0429 16.2621 7.18212 15.5292C9.66506 13.9223 12.703 12.8511 14.7478 12.2591C14.1928 12.9075 13.6085 13.7532 13.0535 14.5143C12.5569 15.1909 12.0311 15.952 11.8267 16.1212C11.5638 16.3185 10.9796 16.6004 10.4538 16.8541C9.84033 17.1642 9.19768 17.4743 8.75951 17.7844C8.14608 18.1791 7.32818 19.0812 7.3866 19.8141C7.41582 20.096 7.59107 20.3497 7.85397 20.4625C8.37977 20.688 9.46058 21.0545 10.7167 20.9981C11.4761 20.9699 12.2064 20.7726 12.8491 20.4343C14.0175 19.8423 15.2444 18.8556 16.2083 18.0099C16.1499 17.6716 16.1791 17.8972 16.0915 17.277C15.3904 17.4743 14.0759 18.1791 13.5209 18.2355C12.6738 18.3482 9.92796 17.9254 8.84715 18.2918C8.93479 18.2636 10.7166 17.5871 10.8043 17.5589C11.3885 17.2488 11.9727 16.9669 12.294 16.7414C12.6154 16.5158 13.0243 15.9239 13.6962 14.9372C14.3388 14.0069 15.1567 12.8229 15.7994 12.2873C16.1791 11.949 16.6173 11.7517 17.1139 11.7235C17.4936 11.3288 17.8733 11.1033 18.516 10.7368C18.6036 10.6805 18.6912 10.6241 18.7789 10.5959C18.5452 10.0321 18.1947 9.10181 17.5228 7.94601C16.0038 5.26793 13.1119 4.16851 13.1119 4.16851C13.1119 4.16851 12.6446 3.57651 13.6085 3.52013C14.5433 3.49194 16.7049 4.50679 18.0486 5.77535C18.9834 6.64925 20.1226 8.73533 20.736 9.91933C21.5831 9.72199 22.401 9.58104 22.9853 9.52466C23.4818 9.49647 24.2121 9.66561 24.8548 9.86294C24.884 9.21457 24.9132 8.11514 24.9132 7.60772C24.884 6.67744 24.329 4.16851 23.8616 3.46375C23.3942 2.75899 23.0729 2.39252 23.5987 2.4489C24.1245 2.53347 25.585 4.30946 26.3153 6.19821C27.0456 8.11514 26.8703 11.1597 26.8703 11.1597L27.0164 11.6671C27.0164 11.6671 29.0319 11.5825 30.7554 12.5128C32.4788 13.4431 34.2607 15.2191 35.546 15.8675C36.8605 16.5159 39.5771 16.5158 39.5771 16.5158C39.5771 16.5158 39.7816 16.9951 39.2558 17.2206Z" fill="#6AABF7" />
</svg>