<svg width="56" height="41" viewBox="0 0 56 41" fill="none" xmlns="http://www.w3.org/2000/svg">
  <path d="M1.04522 0.564453H7.67486C8.24226 0.564453 8.72008 1.03874 8.72008 1.60196V37.8258C8.72008 38.389 8.24226 38.8633 7.67486 38.8633H1.04522C0.477813 38.8633 0 38.389 0 37.8258V1.60196C0 1.03874 0.477813 0.564453 1.04522 0.564453Z" fill="#6AABF7" />
  <path d="M33.5367 0C44.5562 0 53.3957 8.80398 53.3957 19.7423C53.3957 30.6806 44.5562 39.3956 33.5367 39.3956C22.5171 39.3956 13.7373 30.7102 13.7373 19.7423C13.7373 8.77434 22.5171 0 33.5367 0ZM33.5367 30.6509C39.5989 30.6509 44.5562 25.7302 44.5562 19.7719C44.5562 13.8137 39.5989 8.77435 33.5367 8.77435C27.4744 8.77435 22.547 13.7544 22.547 19.7719C22.547 25.7895 27.5043 30.6509 33.5367 30.6509Z" fill="#6AABF7" />
  <path d="M35.3279 25.76C34.9098 25.345 34.9396 24.6632 35.3279 24.2778L39.6282 20.0092C40.0164 19.6239 40.6734 19.5942 41.1213 20.0092L55.2168 34.0007C55.605 34.3861 55.605 35.0975 55.2168 35.4829L50.9165 39.7515C50.5283 40.1369 49.8115 40.1369 49.4233 39.7515L35.3279 25.76Z" fill="#6AABF7" />
</svg>