<svg width="113" height="40" viewBox="0 0 113 40" fill="none" xmlns="http://www.w3.org/2000/svg">
  <path d="M0.0367901 37.8164C3.38461 33.5591 11.9197 22.2896 15.3043 17.2452C16.0401 16.1361 16.8127 14.562 16.8127 12.9878C16.8127 10.8413 14.9732 8.94514 11.7358 8.94514C9.38126 8.94514 7.24748 10.5551 6.1438 11.7357C5.70233 12.2008 5.00334 12.2008 4.52508 11.7357L0.993311 8.26539C0.58863 7.94341 0.551839 7.26366 0.919731 6.79857C0.919731 6.79857 5.59197 1.28906 12.4348 1.28906C20.6756 1.28906 25.5317 6.40504 25.5317 12.6301C25.5317 15.5995 24.6488 17.281 23.2876 19.9284C21.4481 23.1124 16.7023 29.1228 14.0167 32.8078H24.1705C24.7592 32.8078 25.2742 33.3086 25.2742 33.881V38.9255C25.2742 39.4979 24.7592 39.9987 24.1705 39.9987H1.10368C0.478261 39.9987 0 39.4979 0 38.9255V37.8164H0.0367901Z" fill="#6AABF7" />
  <path d="M30.6784 14.1935C29.8675 14.1935 29.4621 13.7168 29.5837 13.0566L31.246 1.02693C31.3271 0.403437 31.8136 0 32.5028 0H39.2328C40.0437 0 40.4897 0.476786 40.2464 1.24698L36.1111 13.2766C35.9084 13.8635 35.4219 14.1935 34.7326 14.1935H30.6784V14.1935Z" fill="#6AABF7" />
  <path d="M41.6592 28.599V23.0911C41.6592 22.4363 41.9894 21.9355 42.4297 21.9355H51.6389C52.0792 21.9355 52.4094 22.4363 52.4094 23.0911V28.599C52.4094 29.2153 52.0792 29.6775 51.6389 29.6775H42.4297C41.9894 29.6775 41.6592 29.2153 41.6592 28.599Z" fill="#6AABF7" />
  <path d="M57.7842 1.0919C57.7842 0.509551 58.2391 0 58.9214 0H83.5225C84.1669 0 84.6597 0.509551 84.6597 1.0919V7.31574C84.6597 7.89809 84.2048 8.40764 83.5225 8.40764H67.0712V16.6333H80.6037C81.2102 16.6333 81.7409 17.1429 81.7409 17.7252V23.949C81.7409 24.5314 81.2102 25.0409 80.6037 25.0409H67.0712V38.9081C67.0712 39.4904 66.5405 40 65.934 40H58.9214C58.277 40 57.7842 39.4904 57.7842 38.9081V1.0919V1.0919Z" fill="#6AABF7" />
  <path d="M88.6885 1.09289C88.6885 0.510015 89.1722 0 89.8048 0H96.7635C97.3589 0 97.8799 0.510015 97.8799 1.09289V31.5847H111.76C112.393 31.5847 112.876 32.0947 112.876 32.6776V38.9071C112.876 39.49 112.393 40 111.76 40H89.8421C89.2095 40 88.7257 39.49 88.7257 38.9071V1.09289H88.6885Z" fill="#6AABF7" />
</svg>