<svg width="37" height="44" viewBox="0 0 37 44" fill="none" xmlns="http://www.w3.org/2000/svg">
  <path d="M35.3967 15.1889C32.4347 4.26235 19.0911 -0.0512524 10.437 7.24734C6.58447 10.4965 3.01517 15.1843 1.04379 21.9308C-1.86831 31.8892 3.22339 41.9075 12.7994 43.4817C25.9842 45.6548 33.9344 35.4653 35.2029 31.1107C36.9526 25.1198 36.6279 19.7306 35.3967 15.1889Z" fill="#9DC41A" />
  <path d="M35.3967 15.1889C32.4347 4.26235 19.0911 -0.0512501 10.437 7.24734C6.58447 10.4965 3.01517 15.1843 1.04379 21.9308C-1.86831 31.8892 3.22339 41.9075 12.7994 43.4817C25.9842 45.6548 33.9344 35.4653 35.2029 31.1107C36.9526 25.1198 36.6279 19.7306 35.3967 15.1889Z" fill="#9DC41A" />
  <path d="M17.9319 43.8203C17.934 43.8143 17.9287 43.8082 17.9224 43.809C17.1325 43.9092 17.1278 43.8501 16.3286 43.8757C15.5246 43.8585 15.5157 43.9099 14.7207 43.8072C13.9346 43.7302 13.9078 43.7302 13.1127 43.6618C12.3088 43.5677 12.3267 43.465 11.5406 43.311C10.7455 43.157 10.7723 43.0886 10.0041 42.849C9.2359 42.6009 9.25377 42.5667 8.53021 42.2245C7.80665 41.8823 7.77985 41.9165 7.10989 41.4802C6.431 41.0524 6.42207 41.0609 5.8057 40.5476L5.10894 39.9659L4.49258 39.3156C4.28712 39.0932 4.07274 38.8879 3.88515 38.6569L3.34025 37.9468C2.99187 37.5361 2.68815 37.0913 2.43803 36.6293C2.23258 36.2614 2.06285 35.9363 1.89313 35.5427C1.57155 34.8155 1.51795 34.8326 1.24103 34.0883C0.981982 33.3354 0.901587 33.3611 0.678267 32.5911C0.0708353 30.5207 -0.0899554 28.3648 0.0440369 26.2773C0.0708353 25.4816 0.142298 25.4902 0.249492 24.7031C0.347753 23.8219 0.535342 22.9835 0.758662 22.1194C0.946251 21.4777 1.24103 20.8703 1.45542 20.2457L2.07179 18.5176C2.30404 17.9529 2.59882 17.4139 2.85787 16.8664L3.66183 15.2237L4.65337 13.6752C5.05535 13.0678 5.06428 13.0507 5.46626 12.4518C5.76997 12.064 6.07666 11.6761 6.38634 11.2883C6.83298 10.7664 6.89551 10.6894 7.34215 10.1675C7.85132 9.63709 7.82452 9.60287 8.35155 9.08099C8.86966 8.55056 8.86966 8.55056 9.38776 8.02012C9.39031 8.01784 9.39285 8.01561 9.39538 8.01343C9.54086 7.88832 9.66452 8.02882 9.52175 8.15701C9.17635 8.51063 8.83393 8.8614 8.49448 9.20932C7.98531 9.73975 8.01211 9.76542 7.51187 10.2959C7.0563 10.852 7.03843 10.8776 6.58286 11.4252C6.12728 11.9984 6.12728 11.9984 5.67171 12.5716C5.2876 13.1876 5.2876 13.1961 4.90349 13.8121C4.51044 14.4281 4.51938 14.4281 4.12633 15.0441C3.74222 15.6601 3.84048 15.7114 3.50997 16.3616C3.19732 17.0204 3.14372 16.9947 2.83108 17.6535C2.52736 18.3122 2.49163 18.2951 2.26831 18.9881C2.03605 19.664 2.03605 19.6811 1.8038 20.357C1.57155 21.0414 1.57155 21.0414 1.33929 21.7258C1.00878 22.8637 0.696132 24.0187 0.571073 25.1822C0.490678 25.6271 0.490678 26.0805 0.472812 26.5339C0.472812 26.9874 0.410282 27.4322 0.454946 27.8857C0.49961 28.6642 0.508543 28.6642 0.580006 29.4428C0.669334 30.1871 0.678267 30.247 0.758662 30.9913L1.12491 32.5056C1.34823 33.2499 1.37503 33.2499 1.62515 33.9857C1.90206 34.7129 1.94673 34.6958 2.26831 35.4144C2.59882 36.1245 2.66135 36.0903 3.0544 36.7747C3.44744 37.4591 3.50104 37.4249 3.95661 38.0666C4.40325 38.6911 4.41218 38.674 4.93029 39.2472C5.44839 39.8204 5.50199 39.7691 6.09155 40.2738C6.67219 40.7872 6.67219 40.7786 7.32428 41.2149C7.87812 41.6256 8.45875 41.925 9.09298 42.2245C10.3513 42.8615 11.7572 43.2354 13.1574 43.4051C13.881 43.5078 14.006 43.5249 14.7296 43.6361C15.5157 43.7473 15.5246 43.6275 16.3196 43.6532C17.1146 43.6361 17.1146 43.7045 17.9097 43.619C18.0465 43.6065 18.1263 43.635 18.1595 43.668C18.179 43.6873 18.1707 43.7175 18.1515 43.7371C18.1191 43.7701 18.0539 43.8181 17.9408 43.8315C17.9346 43.8322 17.9299 43.8262 17.9319 43.8203Z" fill="#9DC41A" />
  <path d="M36.2181 25.7976C36.2208 25.7924 36.2267 25.7891 36.2316 25.7922C36.3265 25.851 36.2735 26.7254 36.1868 27.6884C36.1153 28.1332 35.9188 28.638 35.8027 29.2369C35.7044 29.7074 35.5883 30.2464 35.4722 30.794C35.4275 31.0421 35.356 31.2902 35.2488 31.5468C35.1506 31.8035 35.0702 32.0687 34.9362 32.3254C34.7307 32.8045 34.4806 33.2836 34.1858 33.7627C33.9446 34.2247 33.6409 34.6695 33.3283 35.1401C33.0246 35.5764 32.6047 35.9443 32.2653 36.3806C31.9258 36.7742 31.5507 37.2019 31.1933 37.604C30.8003 37.989 30.3805 38.3398 29.9874 38.7077C29.3353 39.221 28.8083 39.7856 28.0758 40.2476C27.5041 40.6326 26.9413 41.0176 26.325 41.3342L25.4227 41.8304L24.4759 42.241C24.2079 42.3523 23.9399 42.4635 23.6808 42.5747C23.4129 42.6602 23.1627 42.7372 22.9216 42.8142C22.3141 42.9853 21.796 43.2249 21.3315 43.2848C20.3132 43.4816 19.6611 43.7297 19.67 43.5243C19.67 43.2335 20.3221 43.2848 21.3226 43.0367C21.7782 42.9511 22.2605 42.7971 22.8501 42.6089C23.0823 42.5234 23.3325 42.4464 23.5826 42.3437C23.8327 42.2239 24.0918 42.1041 24.3508 41.9844C24.8153 41.7705 25.3334 41.5823 25.8158 41.2743C26.2624 41.0005 26.7537 40.7781 27.2093 40.4444C27.8257 40.0081 28.2723 39.6402 28.8797 39.1269C29.6926 38.5109 30.4519 37.8179 31.1665 37.0993C31.8365 36.4234 32.3725 35.6962 32.9352 34.9433C33.8732 33.66 34.7754 32.2826 35.1684 30.7426C35.2935 30.178 35.4096 29.6818 35.5168 29.2027C35.6597 28.6123 35.7491 28.0819 35.8473 27.6541C35.9861 26.7076 36.0995 25.8496 36.2041 25.8077C36.2095 25.8055 36.2153 25.8028 36.2181 25.7976Z" fill="#9DC41A" />
  <path d="M35.5626 15.771C35.5626 15.771 35.6965 16.0277 35.8216 16.5068C35.8841 16.7634 35.9109 17.0372 35.9735 17.2939C36.0539 17.619 36.1342 17.9441 36.2057 18.2264C36.304 18.5857 36.2861 18.9622 36.3308 19.33C36.3933 19.9717 36.4648 20.6134 36.5273 21.255C36.5541 21.948 36.4826 22.6239 36.4558 23.2997C36.4382 23.5453 36.4467 23.8496 36.3949 24.0714C36.3939 24.076 36.3933 24.0822 36.3927 24.0868C36.3895 24.1097 36.3617 24.1206 36.3387 24.1201C36.3349 24.12 36.3314 24.1195 36.3285 24.1183C36.323 24.116 36.3211 24.1096 36.3197 24.1038C36.269 23.8897 36.2949 23.5615 36.2861 23.3083C36.2772 23.0687 36.2593 22.7607 36.2504 22.4613C36.2504 22.1875 36.2504 21.9138 36.2504 21.6058C36.2504 21.332 36.2057 21.0497 36.1789 20.7588C36.1432 20.4936 36.1075 20.1941 36.0717 19.9118C36.0539 19.6295 36.0271 19.33 36.0092 19.0648C35.9824 18.774 35.9645 18.4831 35.902 18.2179C35.8573 17.927 35.8037 17.6361 35.7591 17.3794C35.6965 17.0458 35.6519 16.8062 35.5983 16.5324C35.5355 16.1037 35.521 15.8337 35.5427 15.7689C35.5463 15.7581 35.5573 15.761 35.5626 15.771Z" fill="#9DC41A" />
  <path d="M33.2663 9.60254C33.2608 9.59725 33.2526 9.59636 33.245 9.59772C33.1403 9.6167 33.0122 9.24569 32.6854 8.65266C32.5067 8.34467 32.3192 8.01956 32.0869 7.62602C31.8993 7.31802 31.6849 6.98437 31.4527 6.6336C31.2472 6.31705 31.0418 5.97483 30.8184 5.63262C30.613 5.30751 30.3986 4.97386 30.1574 4.64875C29.9252 4.31509 29.6929 3.98999 29.4696 3.68199C29.2195 3.35689 28.9694 3.04034 28.7371 2.74091C28.478 2.39869 28.2011 2.10781 27.9689 1.83404C27.683 1.48327 27.4061 1.19238 27.1828 0.935723C26.7094 0.396735 26.3967 0.131519 26.4682 0.0630761C26.5664 -0.0310329 26.8344 0.294071 27.3525 0.798837C27.5937 1.03839 27.8706 1.34638 28.1654 1.6886C28.4155 1.96237 28.7282 2.21903 28.9962 2.56124C29.3892 3.04034 29.7376 3.51944 30.077 4.02421C30.6755 4.82841 31.2383 5.63262 31.7653 6.4796C31.9976 6.83892 32.1673 7.19825 32.346 7.52335C32.5603 7.92546 32.7122 8.28478 32.8641 8.58422C33.1508 9.21669 33.4037 9.53346 33.2858 9.60539C33.2795 9.60919 33.2716 9.60759 33.2663 9.60254Z" fill="#9DC41A" />
  <path d="M33.7431 10.6582C33.7459 10.6554 33.7493 10.653 33.7532 10.6525C33.8223 10.6442 34.0292 10.9132 34.194 11.2871C34.3102 11.5352 34.4263 11.8689 34.5603 12.2025C34.6853 12.5362 34.8551 12.887 34.9355 13.1436C35.0337 13.5543 35.0605 14.0163 35.0069 14.0334C34.9444 14.0505 34.8015 13.4944 34.6228 13.118C34.5067 12.8784 34.3816 12.6389 34.2566 12.3137C34.1315 11.9886 34.0422 11.7234 33.9618 11.4668C33.8506 11.0816 33.7065 10.7122 33.7338 10.6667C33.736 10.6631 33.74 10.6611 33.7431 10.6582Z" fill="#9DC41A" />
  <path d="M18.1311 2.45842C18.1288 2.45842 18.1277 2.45559 18.1296 2.45422C18.1673 2.42599 18.3977 2.25889 18.8208 2.05631C19.0709 1.93654 19.3389 1.85954 19.589 1.74832C19.8838 1.60288 20.1875 1.4831 20.5002 1.37188C20.8664 1.25211 21.2237 1.13233 21.59 1.004C22.2331 0.824341 22.8673 0.610457 23.5105 0.447905C24.2073 0.276798 24.904 0.165578 25.6008 0.0714693C25.8598 0.0458032 26.1725 -0.0140844 26.4047 0.00302636C26.4362 0.00302636 26.4701 0.0302676 26.4548 0.0577299C26.4536 0.0599602 26.4518 0.0617524 26.4494 0.0629139C26.235 0.139912 25.8956 0.174134 25.6365 0.225466C25.3953 0.285353 25.0827 0.353796 24.7879 0.430795C24.511 0.499237 24.243 0.559125 23.9304 0.636123C23.6624 0.704566 23.3676 0.764454 23.0817 0.858563C22.8227 0.944116 22.519 1.03823 22.242 1.12378C21.9473 1.20078 21.6614 1.27778 21.3934 1.37188C21.1076 1.46599 20.8217 1.5601 20.5627 1.64566C20.2679 1.74832 19.982 1.81676 19.7319 1.91943C19.4103 2.04776 19.1692 2.14187 18.9101 2.25309C18.4362 2.42121 18.1519 2.49022 18.1337 2.46011C18.1331 2.45917 18.1322 2.45842 18.1311 2.45842Z" fill="#9DC41A" />
  <path d="M11.478 6.65034C11.0349 7.02886 10.8334 6.79201 11.2815 6.41935C11.612 6.12846 11.9872 6.0258 12.0229 6.07713C12.0765 6.14557 11.7996 6.35946 11.478 6.65034Z" fill="#9DC41A" />
  <path d="M13.4143 5.11102C13.4155 5.11102 13.4164 5.11057 13.417 5.10958C13.431 5.08597 13.6179 4.77697 13.97 4.55492C14.2022 4.40093 14.5238 4.22126 14.8365 4.0416C15.1491 3.86194 15.4796 3.63094 15.7298 3.51117C16.1228 3.3315 16.5962 3.22028 16.623 3.26306C16.6588 3.32295 16.1139 3.55394 15.7566 3.80205C15.5332 3.95605 15.3099 4.1186 14.9973 4.29826C14.6846 4.47792 14.4256 4.61481 14.1844 4.73458C13.8048 4.9081 13.4752 5.14546 13.4128 5.11525C13.4103 5.11405 13.4115 5.11102 13.4143 5.11102Z" fill="#9DC41A" />
  <path d="M17.9319 43.8203C17.934 43.8143 17.9287 43.8082 17.9224 43.809C17.1325 43.9092 17.1278 43.8501 16.3286 43.8757C15.5246 43.8585 15.5157 43.9099 14.7207 43.8072C13.9346 43.7302 13.9078 43.7302 13.1127 43.6618C12.3088 43.5677 12.3267 43.465 11.5406 43.311C10.7455 43.157 10.7723 43.0886 10.0041 42.849C9.2359 42.6009 9.25377 42.5667 8.53021 42.2245C7.80665 41.8823 7.77985 41.9165 7.10989 41.4802C6.431 41.0524 6.42207 41.0609 5.8057 40.5476L5.10894 39.9659L4.49258 39.3156C4.28712 39.0932 4.07274 38.8879 3.88515 38.6569L3.34025 37.9468C2.99187 37.5361 2.68815 37.0913 2.43803 36.6293C2.23258 36.2614 2.06285 35.9363 1.89313 35.5427C1.57155 34.8155 1.51795 34.8326 1.24103 34.0883C0.981982 33.3354 0.901587 33.3611 0.678267 32.5911C0.0708353 30.5207 -0.0899554 28.3648 0.0440369 26.2773C0.0708353 25.4816 0.142298 25.4902 0.249492 24.7031C0.347753 23.8219 0.535342 22.9835 0.758662 22.1194C0.946251 21.4777 1.24103 20.8703 1.45542 20.2457L2.07179 18.5176C2.30404 17.9529 2.59882 17.4139 2.85787 16.8664L3.66183 15.2237L4.65337 13.6752C5.05535 13.0678 5.06428 13.0507 5.46626 12.4518C5.76997 12.064 6.07666 11.6761 6.38634 11.2883C6.83298 10.7664 6.89551 10.6894 7.34215 10.1675C7.85132 9.63709 7.82452 9.60287 8.35155 9.08099C8.86966 8.55056 8.86966 8.55056 9.38776 8.02012C9.39031 8.01784 9.39285 8.01561 9.39538 8.01343C9.54086 7.88832 9.66452 8.02882 9.52175 8.15701C9.17635 8.51063 8.83393 8.8614 8.49448 9.20932C7.98531 9.73975 8.01211 9.76542 7.51187 10.2959C7.0563 10.852 7.03843 10.8776 6.58286 11.4252C6.12728 11.9984 6.12728 11.9984 5.67171 12.5716C5.2876 13.1876 5.2876 13.1961 4.90349 13.8121C4.51044 14.4281 4.51938 14.4281 4.12633 15.0441C3.74222 15.6601 3.84048 15.7114 3.50997 16.3616C3.19732 17.0204 3.14372 16.9947 2.83108 17.6535C2.52736 18.3122 2.49163 18.2951 2.26831 18.9881C2.03605 19.664 2.03605 19.6811 1.8038 20.357C1.57155 21.0414 1.57155 21.0414 1.33929 21.7258C1.00878 22.8637 0.696132 24.0187 0.571073 25.1822C0.490678 25.6271 0.490678 26.0805 0.472812 26.5339C0.472812 26.9874 0.410282 27.4322 0.454946 27.8857C0.49961 28.6642 0.508543 28.6642 0.580006 29.4428C0.669334 30.1871 0.678267 30.247 0.758662 30.9913L1.12491 32.5056C1.34823 33.2499 1.37503 33.2499 1.62515 33.9857C1.90206 34.7129 1.94673 34.6958 2.26831 35.4144C2.59882 36.1245 2.66135 36.0903 3.0544 36.7747C3.44744 37.4591 3.50104 37.4249 3.95661 38.0666C4.40325 38.6911 4.41218 38.674 4.93029 39.2472C5.44839 39.8204 5.50199 39.7691 6.09155 40.2738C6.67219 40.7872 6.67219 40.7786 7.32428 41.2149C7.87812 41.6256 8.45875 41.925 9.09298 42.2245C10.3513 42.8615 11.7572 43.2354 13.1574 43.4051C13.881 43.5078 14.006 43.5249 14.7296 43.6361C15.5157 43.7473 15.5246 43.6275 16.3196 43.6532C17.1146 43.6361 17.1146 43.7045 17.9097 43.619C18.0465 43.6065 18.1263 43.635 18.1595 43.668C18.179 43.6873 18.1707 43.7175 18.1515 43.7371C18.1191 43.7701 18.0539 43.8181 17.9408 43.8315C17.9346 43.8322 17.9299 43.8262 17.9319 43.8203Z" fill="#9DC41A" />
  <path d="M36.2181 25.7976C36.2208 25.7924 36.2267 25.7891 36.2316 25.7922C36.3265 25.851 36.2735 26.7254 36.1868 27.6884C36.1153 28.1332 35.9188 28.638 35.8027 29.2369C35.7044 29.7074 35.5883 30.2464 35.4722 30.794C35.4275 31.0421 35.356 31.2902 35.2488 31.5468C35.1506 31.8035 35.0702 32.0687 34.9362 32.3254C34.7307 32.8045 34.4806 33.2836 34.1858 33.7627C33.9446 34.2247 33.6409 34.6695 33.3283 35.1401C33.0246 35.5764 32.6047 35.9443 32.2653 36.3806C31.9258 36.7742 31.5507 37.2019 31.1933 37.604C30.8003 37.989 30.3805 38.3398 29.9874 38.7077C29.3353 39.221 28.8083 39.7856 28.0758 40.2476C27.5041 40.6326 26.9413 41.0176 26.325 41.3342L25.4227 41.8304L24.4759 42.241C24.2079 42.3523 23.9399 42.4635 23.6808 42.5747C23.4129 42.6602 23.1627 42.7372 22.9216 42.8142C22.3141 42.9853 21.796 43.2249 21.3315 43.2848C20.3132 43.4816 19.6611 43.7297 19.67 43.5243C19.67 43.2335 20.3221 43.2848 21.3226 43.0367C21.7782 42.9511 22.2605 42.7971 22.8501 42.6089C23.0823 42.5234 23.3325 42.4464 23.5826 42.3437C23.8327 42.2239 24.0918 42.1041 24.3508 41.9844C24.8153 41.7705 25.3334 41.5823 25.8158 41.2743C26.2624 41.0005 26.7537 40.7781 27.2093 40.4444C27.8257 40.0081 28.2723 39.6402 28.8797 39.1269C29.6926 38.5109 30.4519 37.8179 31.1665 37.0993C31.8365 36.4234 32.3725 35.6962 32.9352 34.9433C33.8732 33.66 34.7754 32.2826 35.1684 30.7426C35.2935 30.178 35.4096 29.6818 35.5168 29.2027C35.6597 28.6123 35.7491 28.0819 35.8473 27.6541C35.9861 26.7076 36.0995 25.8496 36.2041 25.8077C36.2095 25.8055 36.2153 25.8028 36.2181 25.7976Z" fill="#9DC41A" />
  <path d="M35.5626 15.771C35.5626 15.771 35.6965 16.0277 35.8216 16.5068C35.8841 16.7634 35.9109 17.0372 35.9735 17.2939C36.0539 17.619 36.1342 17.9441 36.2057 18.2264C36.304 18.5857 36.2861 18.9622 36.3308 19.33C36.3933 19.9717 36.4648 20.6134 36.5273 21.255C36.5541 21.948 36.4826 22.6239 36.4558 23.2997C36.4382 23.5453 36.4467 23.8496 36.3949 24.0714C36.3939 24.076 36.3933 24.0822 36.3927 24.0868C36.3895 24.1097 36.3617 24.1206 36.3387 24.1201C36.3349 24.12 36.3314 24.1195 36.3285 24.1183C36.323 24.116 36.3211 24.1096 36.3197 24.1038C36.269 23.8897 36.2949 23.5615 36.2861 23.3083C36.2772 23.0687 36.2593 22.7607 36.2504 22.4613C36.2504 22.1875 36.2504 21.9138 36.2504 21.6058C36.2504 21.332 36.2057 21.0497 36.1789 20.7588C36.1432 20.4936 36.1075 20.1941 36.0717 19.9118C36.0539 19.6295 36.0271 19.33 36.0092 19.0648C35.9824 18.774 35.9645 18.4831 35.902 18.2179C35.8573 17.927 35.8037 17.6361 35.7591 17.3794C35.6965 17.0458 35.6519 16.8062 35.5983 16.5324C35.5355 16.1037 35.521 15.8337 35.5427 15.7689C35.5463 15.7581 35.5573 15.761 35.5626 15.771Z" fill="#9DC41A" />
  <path d="M33.2663 9.60254C33.2608 9.59725 33.2526 9.59636 33.245 9.59772C33.1403 9.6167 33.0122 9.24569 32.6854 8.65266C32.5067 8.34467 32.3192 8.01956 32.0869 7.62602C31.8993 7.31802 31.6849 6.98437 31.4527 6.6336C31.2472 6.31705 31.0418 5.97483 30.8184 5.63262C30.613 5.30751 30.3986 4.97386 30.1574 4.64875C29.9252 4.31509 29.6929 3.98999 29.4696 3.68199C29.2195 3.35689 28.9694 3.04034 28.7371 2.74091C28.478 2.39869 28.2011 2.10781 27.9689 1.83404C27.683 1.48327 27.4061 1.19238 27.1828 0.935723C26.7094 0.396735 26.3967 0.131519 26.4682 0.0630761C26.5664 -0.0310329 26.8344 0.294071 27.3525 0.798837C27.5937 1.03839 27.8706 1.34638 28.1654 1.6886C28.4155 1.96237 28.7282 2.21903 28.9962 2.56124C29.3892 3.04034 29.7376 3.51944 30.077 4.02421C30.6755 4.82841 31.2383 5.63262 31.7653 6.4796C31.9976 6.83892 32.1673 7.19825 32.346 7.52335C32.5603 7.92546 32.7122 8.28478 32.8641 8.58422C33.1508 9.21669 33.4037 9.53346 33.2858 9.60539C33.2795 9.60919 33.2716 9.60759 33.2663 9.60254Z" fill="#9DC41A" />
  <path d="M33.7431 10.6582C33.7459 10.6554 33.7493 10.653 33.7532 10.6525C33.8223 10.6442 34.0292 10.9132 34.194 11.2871C34.3102 11.5352 34.4263 11.8689 34.5603 12.2025C34.6853 12.5362 34.8551 12.887 34.9355 13.1436C35.0337 13.5543 35.0605 14.0163 35.0069 14.0334C34.9444 14.0505 34.8015 13.4944 34.6228 13.118C34.5067 12.8784 34.3816 12.6389 34.2566 12.3137C34.1315 11.9886 34.0422 11.7234 33.9618 11.4668C33.8506 11.0816 33.7065 10.7122 33.7338 10.6667C33.736 10.6631 33.74 10.6611 33.7431 10.6582Z" fill="#9DC41A" />
  <path d="M18.1311 2.45842C18.1288 2.45842 18.1277 2.45559 18.1296 2.45422C18.1673 2.42599 18.3977 2.25889 18.8208 2.05631C19.0709 1.93654 19.3389 1.85954 19.589 1.74832C19.8838 1.60288 20.1875 1.4831 20.5002 1.37188C20.8664 1.25211 21.2237 1.13233 21.59 1.004C22.2331 0.824341 22.8673 0.610457 23.5105 0.447905C24.2073 0.276798 24.904 0.165578 25.6008 0.0714693C25.8598 0.0458032 26.1725 -0.0140844 26.4047 0.00302636C26.4362 0.00302636 26.4701 0.0302676 26.4548 0.0577299C26.4536 0.0599602 26.4518 0.0617524 26.4494 0.0629139C26.235 0.139912 25.8956 0.174134 25.6365 0.225466C25.3953 0.285353 25.0827 0.353796 24.7879 0.430795C24.511 0.499237 24.243 0.559125 23.9304 0.636123C23.6624 0.704566 23.3676 0.764454 23.0817 0.858563C22.8227 0.944116 22.519 1.03823 22.242 1.12378C21.9473 1.20078 21.6614 1.27778 21.3934 1.37188C21.1076 1.46599 20.8217 1.5601 20.5627 1.64566C20.2679 1.74832 19.982 1.81676 19.7319 1.91943C19.4103 2.04776 19.1692 2.14187 18.9101 2.25309C18.4362 2.42121 18.1519 2.49022 18.1337 2.46011C18.1331 2.45917 18.1322 2.45842 18.1311 2.45842Z" fill="#9DC41A" />
  <path d="M11.478 6.65034C11.0349 7.02886 10.8334 6.79201 11.2815 6.41935C11.612 6.12846 11.9872 6.0258 12.0229 6.07713C12.0765 6.14557 11.7996 6.35946 11.478 6.65034Z" fill="#9DC41A" />
  <path d="M13.4143 5.11102C13.4155 5.11102 13.4164 5.11057 13.417 5.10958C13.431 5.08597 13.6179 4.77697 13.97 4.55492C14.2022 4.40093 14.5238 4.22126 14.8365 4.0416C15.1491 3.86194 15.4796 3.63094 15.7298 3.51117C16.1228 3.3315 16.5962 3.22028 16.623 3.26306C16.6588 3.32295 16.1139 3.55394 15.7566 3.80205C15.5332 3.95605 15.3099 4.1186 14.9973 4.29826C14.6846 4.47792 14.4256 4.61481 14.1844 4.73458C13.8048 4.9081 13.4752 5.14546 13.4128 5.11525C13.4103 5.11405 13.4115 5.11102 13.4143 5.11102Z" fill="#9DC41A" />
  <path d="M3.2054 31.7426C3.1518 31.7426 3.125 31.717 3.125 31.6656V28.868C3.125 28.8167 3.1518 28.791 3.2054 28.791H5.51899C5.57259 28.791 5.59939 28.8252 5.59939 28.868V31.6656C5.59939 31.717 5.57259 31.7426 5.51899 31.7426H5.01876C4.96516 31.7426 4.93836 31.717 4.93836 31.6656V29.9876C4.93836 29.667 4.6784 29.407 4.35773 29.407C4.03705 29.407 3.7771 29.667 3.7771 29.9876V31.6656C3.7771 31.717 3.7503 31.7426 3.6967 31.7426H3.19646H3.2054Z" fill="white" />
  <path d="M9.24334 31.7776C9.18974 31.7776 9.17188 31.7434 9.17188 31.692V31.23C9.17188 31.1787 9.19867 31.153 9.25227 31.153C9.49346 31.1359 9.52919 30.8536 9.52919 30.2633V28.8602C9.52919 28.8089 9.55599 28.7832 9.60958 28.7832H11.8428C11.8964 28.7832 11.9232 28.8174 11.9232 28.8602V31.6578C11.9232 31.7091 11.8964 31.7348 11.8428 31.7348H11.3425C11.289 31.7348 11.2622 31.7091 11.2622 31.6578V29.9352C11.2622 29.6391 11.0222 29.3992 10.7262 29.3992C10.4302 29.3992 10.1902 29.6391 10.1902 29.9352V30.2462C10.1902 31.6065 9.78824 31.7776 9.3684 31.7776H9.25227H9.24334Z" fill="white" />
  <path d="M-nan -nanL12.72 31.7426C12.6664 31.7426 12.6396 31.717 12.6396 31.6656V28.868C12.6396 28.8167 12.6664 28.791 12.72 28.791H13.2203C13.2739 28.791 13.3007 28.8252 13.3007 28.868V29.3959C13.3007 29.6525 13.5086 29.8604 13.7652 29.8604C14.319 29.8604 14.7031 30.2882 14.7031 30.8101C14.7031 31.332 14.319 31.7426 13.7652 31.7426H12.72L-nan -nanL-nan -nanZM13.7205 31.1181C13.8992 31.1181 14.0242 30.9812 14.0242 30.8015C14.0242 30.6133 13.8992 30.4679 13.7205 30.4679H13.6168C13.4373 30.4679 13.2917 30.6134 13.2917 30.793C13.2917 30.9725 13.4373 31.1181 13.6168 31.1181H13.7205Z" fill="white" />
  <path d="M15.5079 28.8087C15.5032 28.8087 15.5004 28.8035 15.5031 28.7997C15.5163 28.7812 15.5477 28.7402 15.5684 28.7402H15.5855C15.6216 28.7402 15.6544 28.7411 15.6859 28.7588C15.704 28.7689 15.7163 28.7922 15.726 28.8105L15.808 28.9647C16.1816 29.6673 17.1885 29.6673 17.5621 28.9647L17.6193 28.8572C17.6453 28.8083 17.6748 28.7402 17.7302 28.7402C17.777 28.7402 17.8223 28.74 17.8556 28.7729C17.8716 28.7887 17.875 28.8198 17.8786 28.8419L18.3236 31.5115C18.3389 31.6031 18.3589 31.7432 18.2662 31.7432H17.8828C17.8117 31.7432 17.7124 31.7435 17.6945 31.6747C17.6361 31.2676 17.0894 31.1755 16.9009 31.5411L16.8397 31.6599C16.8143 31.7092 16.7851 31.7774 16.7297 31.7774C16.6825 31.7774 16.6321 31.7734 16.5953 31.7438C16.5913 31.7406 16.5883 31.7375 16.5868 31.7346L16.4556 31.4802C16.2769 31.1336 15.7585 31.2209 15.7032 31.6069C15.6968 31.6518 15.6864 31.6996 15.6509 31.7278C15.6396 31.7367 15.6268 31.7432 15.6131 31.7432H15.1218C15.0682 31.7432 15.0325 31.7089 15.0414 31.6491L15.5137 28.8155C15.5143 28.812 15.5115 28.8087 15.5079 28.8087Z" fill="white" />
  <path d="M20.1874 28.7402C21.0271 28.7402 21.697 29.4247 21.697 30.2631C21.697 31.1015 21.0271 31.7859 20.1874 31.7859C19.3477 31.7859 18.6777 31.1101 18.6777 30.2631C18.6777 29.4161 19.3477 28.7402 20.1874 28.7402ZM20.1874 31.1101C20.6519 31.1101 21.0271 30.7251 21.0271 30.2716C21.0271 29.8182 20.6519 29.4247 20.1874 29.4247C19.7229 29.4247 19.3566 29.8097 19.3566 30.2716C19.3566 30.7336 19.7318 31.1101 20.1874 31.1101Z" fill="white" />
  <path d="M22.2148 28.8688C22.2148 28.8631 22.216 28.8576 22.2187 28.8526C22.2291 28.8332 22.2593 28.7832 22.2952 28.7832H23.2689C23.7602 28.7832 24.1711 29.1254 24.1711 29.5703C24.1711 29.9143 24.2005 30.5035 24.2459 30.8445C24.2496 30.8722 24.2515 30.9008 24.2515 30.9306C24.2515 31.4011 23.8317 31.7434 23.3404 31.7434H22.2952C22.2506 31.7434 22.2148 31.7091 22.2148 31.6664V28.8688ZM23.1975 29.9767C23.1975 29.979 23.1994 29.981 23.2017 29.9809C23.3606 29.9785 23.4922 29.8425 23.4922 29.673C23.4922 29.5019 23.3582 29.3821 23.1975 29.3821H23.1621C22.9991 29.3821 22.8669 29.5142 22.8669 29.6772V29.8071C22.8669 29.8984 22.9409 29.9724 23.0322 29.9724H23.1932C23.1955 29.9724 23.1975 29.9743 23.1975 29.9767ZM23.2511 31.1359C23.4118 31.1359 23.5548 30.999 23.5548 30.8279C23.5548 30.6568 23.3761 30.5285 23.2064 30.5285H23.1707C23.0029 30.5285 22.8669 30.6645 22.8669 30.8322C22.8669 30.9999 23.0029 31.1359 23.1707 31.1359H23.2511Z" fill="white" />
  <path d="M26.1356 28.7402C26.9753 28.7402 27.6453 29.4247 27.6453 30.2631C27.6453 31.1015 26.9753 31.7859 26.1356 31.7859C25.2959 31.7859 24.626 31.1101 24.626 30.2631C24.626 29.4161 25.2959 28.7402 26.1356 28.7402ZM26.1356 31.1101C26.6001 31.1101 26.9753 30.7251 26.9753 30.2716C26.9753 29.8182 26.6001 29.4247 26.1356 29.4247C25.6711 29.4247 25.2959 29.8097 25.2959 30.2716C25.2959 30.7336 25.6711 31.1101 26.1356 31.1101Z" fill="white" />
  <path d="M-nan -nanL28.2435 31.7426C28.1899 31.7426 28.1631 31.717 28.1631 31.6656V28.868C28.1631 28.8167 28.1899 28.791 28.2435 28.791H29.8961C29.9496 28.791 29.9764 28.8252 29.9764 28.868V29.33C29.9764 29.3813 29.9496 29.407 29.8961 29.407C29.304 29.407 28.8241 29.8869 28.8241 30.4789V31.6656C28.8241 31.717 28.7973 31.7426 28.7437 31.7426H28.2435L-nan -nanL-nan -nanZ" fill="white" />
  <path d="M31.7196 28.7402C32.5593 28.7402 33.2293 29.4247 33.2293 30.2631C33.2293 31.1015 32.5593 31.7859 31.7196 31.7859C30.8799 31.7859 30.21 31.1101 30.21 30.2631C30.21 29.4161 30.8799 28.7402 31.7196 28.7402ZM31.7196 31.1101C32.1841 31.1101 32.5593 30.7251 32.5593 30.2716C32.5593 29.8182 32.1841 29.4247 31.7196 29.4247C31.2551 29.4247 30.8799 29.8097 30.8799 30.2716C30.8799 30.7336 31.2551 31.1101 31.7196 31.1101Z" fill="white" />
  <path d="M-nan -nanL7.08308 33.4535C7.08308 33.4022 7.12775 33.3594 7.19028 33.3594H7.28854C7.3332 33.3594 7.37787 33.385 7.39573 33.4193L8.73191 36.3114C8.73419 36.3164 8.73914 36.3195 8.74459 36.3195C8.75003 36.3195 8.75498 36.3164 8.75727 36.3114L10.0403 33.5344C10.0756 33.4578 10.1163 33.3594 10.2006 33.3594H10.2989C10.4058 33.3594 10.4153 33.5065 10.4335 33.6118L11.1207 37.5772C11.1386 37.6627 11.0939 37.7226 11.0135 37.7226H10.4597C10.4061 37.7226 10.3525 37.6713 10.3436 37.6285L9.98779 35.3115C9.9869 35.3057 9.98194 35.3014 9.9761 35.3014C9.97141 35.3014 9.96716 35.3042 9.96527 35.3085L8.95858 37.5933C8.92317 37.6737 8.886 37.7825 8.79818 37.7825H8.69099C8.63739 37.7825 8.60166 37.7483 8.5838 37.7141L7.50607 35.3085C7.50416 35.3042 7.49992 35.3014 7.49524 35.3014C7.48938 35.3014 7.4844 35.3057 7.48352 35.3115L7.15018 37.4824C7.13535 37.579 7.11825 37.7226 7.02055 37.7226H6.47565C6.39526 37.7226 6.35059 37.6713 6.35953 37.5772L7.08308 33.4535L-nan -nanL-nan -nanZ" fill="white" />
  <path d="M11.6347 37.5601C11.6326 37.5601 11.6312 37.5579 11.6321 37.5559L13.469 33.5478C13.5056 33.4679 13.5433 33.3594 13.6311 33.3594H13.6937C13.7562 33.3594 13.783 33.3936 13.8009 33.4278L15.6768 37.5601C15.7125 37.6371 15.6678 37.7226 15.5696 37.7226H15.0425C14.9532 37.7226 14.9085 37.6884 14.8639 37.6028C14.6845 37.2021 14.2864 36.9441 13.8474 36.9441H13.4685C13.0294 36.9441 12.6313 37.2021 12.452 37.6028C12.4252 37.6627 12.3716 37.7226 12.2734 37.7226H11.7463C11.6584 37.7226 11.6051 37.6481 11.6375 37.5642C11.6382 37.5622 11.6368 37.5601 11.6347 37.5601ZM13.6516 36.2511C13.9397 36.2511 14.1319 35.954 14.0138 35.6913L13.6616 34.9075C13.6594 34.9025 13.6545 34.8993 13.649 34.8993C13.6436 34.8993 13.6387 34.9026 13.6364 34.9075L13.2886 35.6933C13.1723 35.9558 13.3645 36.2511 13.6516 36.2511Z" fill="white" />
  <path d="M18.0652 33.3637C18.0681 33.3609 18.0719 33.3594 18.0759 33.3594C18.6891 33.3607 19.1341 33.5574 19.5436 33.9326C19.5972 33.9839 19.5972 34.0524 19.5436 34.1037L19.1684 34.4887C19.1238 34.54 19.0612 34.54 19.0166 34.4887C18.7575 34.2577 18.4181 34.1294 18.0786 34.1294C17.3015 34.1294 16.7208 34.7881 16.7208 35.5581C16.7208 36.3281 17.3104 36.9783 18.0876 36.9783C18.4538 36.9783 18.7664 36.8414 19.0166 36.6275C19.0612 36.5847 19.1327 36.5933 19.1684 36.6275L19.5436 37.0211C19.5883 37.0638 19.5793 37.1408 19.5436 37.1836C19.1327 37.5857 18.6057 37.7825 18.0608 37.7825C16.8459 37.7825 15.8633 36.8072 15.8633 35.5838C15.8633 34.3624 16.8425 33.3713 18.0545 33.3679C18.0585 33.3679 18.0624 33.3664 18.0652 33.3637Z" fill="white" />
  <path d="M20.2894 37.766C20.2866 37.7608 20.2812 37.7576 20.2753 37.7571C20.2179 37.7521 20.1777 37.7026 20.1777 37.6377V37.1158C20.1777 37.0388 20.2224 37.0046 20.3028 37.0046C20.6333 36.979 20.7316 36.6453 20.7316 35.7128V33.5397C20.7316 33.4627 20.7762 33.4199 20.8477 33.4199H24.0099C24.0814 33.4199 24.126 33.4627 24.126 33.5397V37.6035C24.126 37.6805 24.0814 37.7233 24.0099 37.7233H23.4471C23.3757 37.7233 23.331 37.6805 23.331 37.6035V35.0791C23.331 34.5833 22.9291 34.1813 22.4333 34.1813C21.9375 34.1813 21.5355 34.5833 21.5355 35.0791V35.7042C21.5355 37.5179 21.0085 37.7746 20.4547 37.7746C20.3959 37.7746 20.3529 37.7746 20.3035 37.7746C20.2976 37.7746 20.2921 37.7713 20.2894 37.766Z" fill="white" />
  <path d="M24.792 37.5601C24.7898 37.5601 24.7884 37.5579 24.7893 37.5559L26.6262 33.5478C26.6628 33.4679 26.7005 33.3594 26.7884 33.3594H26.8509C26.9134 33.3594 26.9402 33.3936 26.9581 33.4278L28.834 37.5601C28.8697 37.6371 28.825 37.7226 28.7268 37.7226H28.1998C28.1104 37.7226 28.0658 37.6884 28.0211 37.6028C27.8418 37.2021 27.4437 36.9441 27.0046 36.9441H26.6257C26.1867 36.9441 25.7886 37.2021 25.6092 37.6028C25.5824 37.6627 25.5288 37.7226 25.4306 37.7226H24.9035C24.8156 37.7226 24.7623 37.6481 24.7947 37.5642C24.7955 37.5622 24.794 37.5601 24.792 37.5601ZM26.8089 36.2511C27.0969 36.2511 27.2891 35.954 27.171 35.6913L26.8188 34.9075C26.8166 34.9025 26.8117 34.8993 26.8063 34.8993C26.8008 34.8993 26.7959 34.9026 26.7937 34.9075L26.4458 35.6933C26.3295 35.9558 26.5218 36.2511 26.8089 36.2511Z" fill="white" />
  <path d="M17.4986 14.8302C16.3642 15.3949 14.5419 15.2751 13.6218 13.0593C12.5247 10.4016 16.4401 8.3459 18.1426 10.6628C18.1697 10.6996 18.1962 10.737 18.2222 10.775C19.5889 12.7769 18.6331 14.2656 17.4986 14.8302Z" stroke="#DDE8B3" stroke-width="0.5" stroke-linecap="round" stroke-linejoin="round" />
  <path d="M14.6396 9.54268L15.3275 8.78125" stroke="#DDE8B3" stroke-width="0.5" stroke-linecap="round" stroke-linejoin="round" />
  <path d="M15.095 10.3899L13.4424 10.2188" stroke="#DDE8B3" stroke-width="0.5" stroke-linecap="round" stroke-linejoin="round" />
  <path d="M15.5322 9.82459L16.1933 9.12305" stroke="#DDE8B3" stroke-width="0.5" stroke-linecap="round" stroke-linejoin="round" />
  <path d="M15.5869 11.0472L16.9894 9.55859" stroke="#DDE8B3" stroke-width="0.5" stroke-linecap="round" stroke-linejoin="round" />
  <path d="M14.7998 11.1852L13.4062 11.0996" stroke="#DDE8B3" stroke-width="0.5" stroke-linecap="round" stroke-linejoin="round" />
  <path d="M15.9622 11.9883L13.3984 12.0054" stroke="#DDE8B3" stroke-width="0.5" stroke-linecap="round" stroke-linejoin="round" />
  <path d="M16.5068 11.4156L17.6413 10.1836" stroke="#DDE8B3" stroke-width="0.5" stroke-linecap="round" stroke-linejoin="round" />
  <path d="M16.498 12.6482L18.2578 10.8516" stroke="#DDE8B3" stroke-width="0.5" stroke-linecap="round" stroke-linejoin="round" />
  <path d="M15.6572 12.8535L13.6562 12.9818" stroke="#DDE8B3" stroke-width="0.5" stroke-linecap="round" stroke-linejoin="round" />
  <path d="M16.7927 13.5625L14.0771 13.8705" stroke="#DDE8B3" stroke-width="0.5" stroke-linecap="round" stroke-linejoin="round" />
  <path d="M17.3633 13.0764L18.7032 11.7246" stroke="#DDE8B3" stroke-width="0.5" stroke-linecap="round" stroke-linejoin="round" />
  <path d="M17.373 14.3156L18.7844 12.75" stroke="#DDE8B3" stroke-width="0.5" stroke-linecap="round" stroke-linejoin="round" />
  <path d="M16.5965 14.418L14.9082 14.6233" stroke="#DDE8B3" stroke-width="0.5" stroke-linecap="round" stroke-linejoin="round" />
  <path d="M-nan -nanL20.0077 16.7019C17.7388 15.8977 15.5949 13.2969 17.6673 9.25021C17.6993 9.18785 17.732 9.12618 17.7653 9.0652C20.3848 4.27822 28.288 7.24336 26.8592 12.5098C25.6801 16.8559 22.2856 17.5061 20.0077 16.7019L-nan -nanL-nan -nanZ" fill="#9DC41A" />
  <path d="M20.0077 16.7019C17.7388 15.8977 15.5949 13.2969 17.6673 9.25021C17.6993 9.18785 17.732 9.12618 17.7653 9.0652C20.3848 4.27822 28.288 7.24336 26.8592 12.5098C25.6801 16.8559 22.2856 17.5061 20.0077 16.7019ZM20.0077 16.7019L-nan -nanL-nan -nanL20.0077 16.7019Z" stroke="#9DC41A" stroke-width="1.81" stroke-linecap="round" stroke-linejoin="round" />
  <path d="M20.0077 16.7019C17.7388 15.8977 15.5949 13.2969 17.6673 9.25021C17.6993 9.18785 17.732 9.12618 17.7653 9.0652C20.3848 4.27822 28.288 7.24336 26.8592 12.5098C25.6801 16.8559 22.2856 17.5061 20.0077 16.7019ZM20.0077 16.7019L-nan -nanL-nan -nanL20.0077 16.7019Z" stroke="#DDE8B3" stroke-width="0.75" stroke-linecap="round" stroke-linejoin="round" />
  <path d="M24.0898 6.13699L26.0729 6.11133" stroke="#DDE8B3" stroke-width="0.75" stroke-linecap="round" stroke-linejoin="round" />
  <path d="M23.4391 7.83941L21.5811 5.39258" stroke="#DDE8B3" stroke-width="0.75" stroke-linecap="round" stroke-linejoin="round" />
  <path d="M24.8135 7.71047L26.6804 7.69336" stroke="#DDE8B3" stroke-width="0.75" stroke-linecap="round" stroke-linejoin="round" />
  <path d="M23.0986 9.33621L27.0559 9.31055" stroke="#DDE8B3" stroke-width="0.75" stroke-linecap="round" stroke-linejoin="round" />
  <path d="M21.9016 8.45555L20.249 6.4707" stroke="#DDE8B3" stroke-width="0.75" stroke-linecap="round" stroke-linejoin="round" />
  <path d="M22.1963 11.03L18.918 7.625" stroke="#DDE8B3" stroke-width="0.75" stroke-linecap="round" stroke-linejoin="round" />
  <path d="M23.7324 11.0311L26.975 10.9883" stroke="#DDE8B3" stroke-width="0.75" stroke-linecap="round" stroke-linejoin="round" />
  <path d="M21.9209 12.5879L26.7803 12.6563" stroke="#DDE8B3" stroke-width="0.75" stroke-linecap="round" stroke-linejoin="round" />
  <path d="M20.5617 11.7243L17.8193 9.20898" stroke="#DDE8B3" stroke-width="0.75" stroke-linecap="round" stroke-linejoin="round" />
  <path d="M20.9645 14.1448L17.043 10.9023" stroke="#DDE8B3" stroke-width="0.75" stroke-linecap="round" stroke-linejoin="round" />
  <path d="M22.4023 14.2988L26.0737 14.3758" stroke="#DDE8B3" stroke-width="0.75" stroke-linecap="round" stroke-linejoin="round" />
  <path d="M20.6064 15.882L24.6798 15.7793" stroke="#DDE8B3" stroke-width="0.75" stroke-linecap="round" stroke-linejoin="round" />
  <path d="M19.4634 14.9739L17.0068 12.9805" stroke="#DDE8B3" stroke-width="0.75" stroke-linecap="round" stroke-linejoin="round" />
  <path d="M11.2733 20.9258C11.2733 20.9281 11.2752 20.93 11.2776 20.93C13.1601 20.9322 14.4712 22.3173 14.4712 24.0271C14.4712 25.7382 13.1492 27.0642 11.2554 27.0642H7.7984C7.62868 27.0642 7.52148 26.9701 7.52148 26.799V17.6961C7.52148 17.5336 7.61974 17.4395 7.7984 17.4395H13.2921C13.4618 17.4395 13.569 17.5336 13.569 17.6961V19.1933C13.569 19.3559 13.4707 19.45 13.2921 19.45H10.4994C10.093 19.45 9.76362 19.7794 9.76362 20.1857C9.76362 20.5921 10.093 20.9215 10.4994 20.9215H11.269C11.2714 20.9215 11.2733 20.9234 11.2733 20.9258ZM11.2197 25.0366C11.836 25.0366 12.2648 24.6003 12.2648 24.0185C12.2648 23.4025 11.836 22.932 11.2197 22.932H10.8249C10.2437 22.932 9.77255 23.4031 9.77255 23.9843C9.77255 24.5655 10.2437 25.0366 10.8249 25.0366H11.2197Z" stroke="#9DC41A" stroke-width="2.35" />
  <path d="M15.6855 17.7039C15.6855 17.567 15.8017 17.4473 15.9625 17.4473H21.9028C22.0636 17.4473 22.1797 17.567 22.1797 17.7039V19.2011C22.1797 19.338 22.0636 19.4578 21.9028 19.4578H18.7789C18.3088 19.4578 17.9277 19.8389 17.9277 20.309C17.9277 20.7792 18.3088 21.1603 18.7789 21.1603H21.1971C21.34 21.1603 21.474 21.2801 21.474 21.417V22.9141C21.474 23.0681 21.349 23.1708 21.1971 23.1708H18.8559C18.3433 23.1708 17.9277 23.5864 17.9277 24.0991C17.9277 24.6117 18.3433 25.0273 18.8559 25.0273H21.9028C22.0636 25.0273 22.1797 25.1471 22.1797 25.2925V26.7897C22.1797 26.9266 22.0636 27.0549 21.9028 27.0549H15.9625C15.8017 27.0549 15.6855 26.9352 15.6855 26.7897V17.6868V17.7039Z" stroke="#9DC41A" stroke-width="2.35" />
  <path d="M24.4447 21.5968C24.4472 21.5968 24.4492 21.5947 24.4492 21.5923C24.451 21.4323 24.5491 21.3316 24.7261 21.3316H25.7713C26.9236 21.3316 27.3613 20.861 27.3613 20.2621C27.3613 19.6633 26.9057 19.1927 26.0571 19.1927C25.4854 19.1927 24.9405 19.4152 24.5028 19.783C24.3777 19.8943 24.2438 19.8943 24.1276 19.783L23.2522 18.9275C23.1361 18.8077 23.1182 18.6794 23.2343 18.5596C23.8954 17.9009 24.8958 17.3105 26.2804 17.3105C28.2367 17.3105 29.6124 18.3115 29.6124 19.9114C29.6124 20.9857 28.9573 21.7673 28.3036 22.0577C28.2901 22.0637 28.2814 22.0769 28.2814 22.0917C28.2814 22.1078 28.2917 22.1219 28.3069 22.127C29.1019 22.391 29.8714 23.1249 29.8714 24.4115C29.8714 25.9515 28.4511 27.2005 26.2983 27.2005C24.7619 27.2005 23.7614 26.6188 23.0825 25.9771C22.9664 25.8574 22.9842 25.729 23.0825 25.6093L23.9311 24.6596C24.0472 24.5227 24.1723 24.5227 24.3152 24.6339C24.9048 25.1045 25.4318 25.3184 26.1196 25.3184C27.0129 25.3184 27.531 24.8906 27.531 24.1891C27.531 23.4875 26.9147 23.0341 25.7623 23.0341H24.7172C24.5475 23.0341 24.4403 22.94 24.4403 22.7774V21.6013C24.4403 21.5988 24.4423 21.5968 24.4447 21.5968Z" stroke="#9DC41A" stroke-width="2.35" />
  <path d="M11.2733 20.9258C11.2733 20.9281 11.2752 20.93 11.2776 20.93C13.1601 20.9322 14.4712 22.3173 14.4712 24.0271C14.4712 25.7382 13.1492 27.0642 11.2554 27.0642H7.7984C7.62868 27.0642 7.52148 26.9701 7.52148 26.799V17.6961C7.52148 17.5336 7.61974 17.4395 7.7984 17.4395H13.2921C13.4618 17.4395 13.569 17.5336 13.569 17.6961V19.1933C13.569 19.3559 13.4707 19.45 13.2921 19.45H10.4994C10.093 19.45 9.76362 19.7794 9.76362 20.1857C9.76362 20.5921 10.093 20.9215 10.4994 20.9215H11.269C11.2714 20.9215 11.2733 20.9234 11.2733 20.9258ZM11.2197 25.0366C11.836 25.0366 12.2648 24.6003 12.2648 24.0185C12.2648 23.4025 11.836 22.932 11.2197 22.932H10.8249C10.2437 22.932 9.77255 23.4031 9.77255 23.9843C9.77255 24.5655 10.2437 25.0366 10.8249 25.0366H11.2197Z" fill="white" />
  <path d="M15.6855 17.7039C15.6855 17.567 15.8017 17.4473 15.9625 17.4473H21.9028C22.0636 17.4473 22.1797 17.567 22.1797 17.7039V19.2011C22.1797 19.338 22.0636 19.4578 21.9028 19.4578H18.7789C18.3088 19.4578 17.9277 19.8389 17.9277 20.309C17.9277 20.7792 18.3088 21.1603 18.7789 21.1603H21.1971C21.34 21.1603 21.474 21.2801 21.474 21.417V22.9141C21.474 23.0681 21.349 23.1708 21.1971 23.1708H18.8559C18.3433 23.1708 17.9277 23.5864 17.9277 24.0991C17.9277 24.6117 18.3433 25.0273 18.8559 25.0273H21.9028C22.0636 25.0273 22.1797 25.1471 22.1797 25.2925V26.7897C22.1797 26.9266 22.0636 27.0549 21.9028 27.0549H15.9625C15.8017 27.0549 15.6855 26.9352 15.6855 26.7897V17.6868V17.7039Z" fill="white" />
  <path d="M24.4447 21.5968C24.4472 21.5968 24.4492 21.5947 24.4492 21.5923C24.451 21.4323 24.5491 21.3316 24.7261 21.3316H25.7713C26.9236 21.3316 27.3613 20.861 27.3613 20.2621C27.3613 19.6633 26.9057 19.1927 26.0571 19.1927C25.4854 19.1927 24.9405 19.4152 24.5028 19.783C24.3777 19.8943 24.2438 19.8943 24.1276 19.783L23.2522 18.9275C23.1361 18.8077 23.1182 18.6794 23.2343 18.5596C23.8954 17.9009 24.8958 17.3105 26.2804 17.3105C28.2367 17.3105 29.6124 18.3115 29.6124 19.9114C29.6124 20.9857 28.9573 21.7673 28.3036 22.0577C28.2901 22.0637 28.2814 22.0769 28.2814 22.0917C28.2814 22.1078 28.2917 22.1219 28.3069 22.127C29.1019 22.391 29.8714 23.1249 29.8714 24.4115C29.8714 25.9515 28.4511 27.2005 26.2983 27.2005C24.7619 27.2005 23.7614 26.6188 23.0825 25.9771C22.9664 25.8574 22.9842 25.729 23.0825 25.6093L23.9311 24.6596C24.0472 24.5227 24.1723 24.5227 24.3152 24.6339C24.9048 25.1045 25.4318 25.3184 26.1196 25.3184C27.0129 25.3184 27.531 24.8906 27.531 24.1891C27.531 23.4875 26.9147 23.0341 25.7623 23.0341H24.7172C24.5475 23.0341 24.4403 22.94 24.4403 22.7774V21.6013C24.4403 21.5988 24.4423 21.5968 24.4447 21.5968Z" fill="white" />
  <path d="M-nan -nanL-nan -nanL7.30524 28.8599C7.32866 28.8091 7.35619 28.7402 7.41214 28.7402C7.44179 28.7402 7.47204 28.7428 7.49837 28.7564C7.51201 28.7635 7.52462 28.7725 7.52827 28.783L8.84139 31.6319C8.86819 31.6833 8.84139 31.7432 8.76993 31.7432H8.30542C8.23396 31.7432 8.19823 31.7175 8.1625 31.6405C8.07001 31.4373 7.86732 31.3068 7.64405 31.3068H7.23383C7.01056 31.3068 6.80787 31.4373 6.71538 31.6405C6.69752 31.6918 6.64392 31.7432 6.56353 31.7432H6.09902C6.03649 31.7432 6.00076 31.6918 6.02756 31.6319L-nan -nanL-nan -nanZM7.43264 30.7251C7.58177 30.7251 7.68082 30.5707 7.61868 30.4351C7.54529 30.275 7.31739 30.2762 7.2457 30.4371C7.18537 30.5725 7.28444 30.7251 7.43264 30.7251Z" fill="white" />
</svg>