<svg width="26" height="24" viewBox="0 0 26 24" fill="none" xmlns="http://www.w3.org/2000/svg">
  <g clip-path="url(#clip0_3066_22214)">
    <mask id="mask0_3066_22214" style="mask-type:luminance" maskUnits="userSpaceOnUse" x="0" y="0" width="26" height="24">
      <path d="M25.3714 0H0V24H25.3714V0Z" fill="white" />
    </mask>
    <g mask="url(#mask0_3066_22214)">
      <path d="M2.28477 17.2539H1.88963C1.69956 17.2539 1.55951 17.2864 1.39445 17.3699L0.224034 17.9408C-0.00604857 18.0521 -0.0610683 18.2332 0.0689781 18.4466L0.15901 18.5905C0.284055 18.7947 0.474123 18.8457 0.699202 18.7344L1.5245 18.3306V23.3799C1.5245 23.6212 1.66455 23.7512 1.92464 23.7512H2.28477C2.54486 23.7512 2.68491 23.6212 2.68491 23.3799V17.6252C2.68491 17.3838 2.54486 17.2539 2.28477 17.2539Z" fill="#6EA1E7" />
      <path d="M4.57129 20.5026C4.57129 22.3868 5.34156 23.8626 6.97215 23.8626C8.5927 23.8626 9.37298 22.3868 9.37298 20.5026C9.37298 18.6184 8.5927 17.1426 6.97215 17.1426C5.34156 17.1426 4.57129 18.6184 4.57129 20.5026ZM5.7317 20.5026C5.7317 19.0825 6.09183 18.1264 6.97215 18.1264C7.85247 18.1264 8.21261 19.0825 8.21261 20.5026C8.21261 21.9227 7.85247 22.8787 6.97215 22.8787C6.09183 22.8787 5.7317 21.9227 5.7317 20.5026Z" fill="#6EA1E7" />
      <path d="M9.76953 20.5026C9.76953 22.3868 10.5398 23.8626 12.1704 23.8626C13.791 23.8626 14.5712 22.3868 14.5712 20.5026C14.5712 18.6184 13.791 17.1426 12.1704 17.1426C10.5398 17.1426 9.76953 18.6184 9.76953 20.5026ZM10.93 20.5026C10.93 19.0825 11.29 18.1264 12.1704 18.1264C13.0507 18.1264 13.4108 19.0825 13.4108 20.5026C13.4108 21.9227 13.0507 22.8787 12.1704 22.8787C11.29 22.8787 10.93 21.9227 10.93 20.5026Z" fill="#6EA1E7" />
      <path d="M17.2873 18.3956C17.2873 18.0986 17.5274 17.8666 17.8575 17.8666C18.1876 17.8666 18.4277 18.0986 18.4277 18.3956C18.4277 18.6926 18.1876 18.9247 17.8575 18.9247C17.5274 18.9247 17.2873 18.6926 17.2873 18.3956ZM16.457 18.3956C16.457 19.101 17.0672 19.6487 17.8575 19.6487C18.6478 19.6487 19.258 19.101 19.258 18.3956C19.258 17.6902 18.6478 17.1426 17.8575 17.1426C17.0672 17.1426 16.457 17.6902 16.457 18.3956Z" fill="#6EA1E7" />
      <path d="M25.394 22.7813L25.234 22.5677C25.0839 22.3729 24.8988 22.3496 24.6788 22.4796C24.2436 22.7302 23.7334 22.8973 23.1932 22.8973C21.7827 22.8973 20.6623 21.8577 20.6623 20.5026C20.6623 19.1475 21.7827 18.1079 23.1932 18.1079C23.7584 18.1079 24.1935 18.2656 24.6188 18.4977C24.8438 18.6184 25.0339 18.5859 25.1739 18.3863L25.324 18.1729C25.464 17.9733 25.439 17.7876 25.219 17.6577C24.6287 17.3235 23.9485 17.1426 23.1932 17.1426C21.0825 17.1426 19.4619 18.6091 19.4619 20.5026C19.4619 22.396 21.0825 23.8626 23.1932 23.8626C23.9885 23.8626 24.7088 23.6584 25.304 23.301C25.519 23.1664 25.5441 22.9808 25.394 22.7813Z" fill="#6EA1E7" />
      <path d="M12.8436 0C12.8436 0 14.4001 0.796313 14.4001 3.38433C14.4001 5.97235 11.8782 6.47928 11.6762 8.95851C11.4817 11.3475 12.8436 12.3429 12.8436 12.3429" stroke="#1B4489" stroke-width="0.685714" stroke-linecap="round" />
      <path d="M18.329 0C18.329 0 19.8855 0.796313 19.8855 3.38433C19.8855 5.97235 17.3635 6.47928 17.1616 8.95851C16.9671 11.3475 18.329 12.3429 18.329 12.3429" stroke="#1B4489" stroke-width="0.685714" stroke-linecap="round" />
      <path d="M7.35823 0C7.35823 0 8.91473 0.796313 8.91473 3.38433C8.91473 5.97235 6.39281 6.47928 6.1909 8.95851C5.99634 11.3475 7.35823 12.3429 7.35823 12.3429" stroke="#1B4489" stroke-width="0.685714" stroke-linecap="round" />
    </g>
  </g>
  <defs>
    <clipPath id="clip0_3066_22214">
      <rect width="25.3714" height="24" fill="white" />
    </clipPath>
  </defs>
</svg>