<svg width="58" height="58" viewBox="0 0 58 58" fill="none" xmlns="http://www.w3.org/2000/svg">
<path d="M0 28.6154C0 12.8116 12.8116 0 28.6154 0C44.4192 0 57.2308 12.8116 57.2308 28.6154C57.2308 44.4192 44.4192 57.2308 28.6154 57.2308C12.8116 57.2308 0 44.4192 0 28.6154Z" fill="black" fill-opacity="0.55"/>
<path d="M24.6152 19.6172L35.6152 26.6172L36.6152 28.6172L35.6152 30.6172L24.6152 37.6172H22.6152L21.6152 35.6172V21.6172L22.6152 19.6172H24.6152Z" fill="white"/>
<path fill-rule="evenodd" clip-rule="evenodd" d="M29.3972 21.2245L33.2359 23.8636C34.1672 24.5038 34.9223 25.0229 35.4824 25.4877C36.0532 25.9613 36.5286 26.4624 36.7905 27.1041C37.1857 28.0728 37.1857 29.1577 36.7905 30.1264C36.5286 30.7681 36.0532 31.2692 35.4824 31.7428C34.9223 32.2076 34.1672 32.7267 33.236 33.3669L29.3973 36.006C28.2154 36.8186 27.2706 37.4681 26.4947 37.9031C25.7194 38.3378 24.9546 38.6536 24.156 38.6139C22.9799 38.5554 21.8893 37.9817 21.1748 37.0457C20.6897 36.4101 20.5166 35.601 20.4356 34.7158C20.3545 33.83 20.3545 32.6835 20.3545 31.2493V25.9813C20.3545 24.547 20.3545 23.4005 20.4356 22.5147C20.5166 21.6295 20.6897 20.8205 21.1748 20.1848C21.8893 19.2488 22.9799 18.6751 24.156 18.6166C24.9546 18.577 25.7194 18.8927 26.4947 19.3274C27.2706 19.7624 28.2153 20.4119 29.3972 21.2245ZM25.5166 21.0719C24.8204 20.6815 24.4695 20.6035 24.2553 20.6142C23.6672 20.6434 23.1219 20.9302 22.7647 21.3983C22.6345 21.5688 22.5 21.9021 22.4272 22.697C22.3555 23.4807 22.3545 24.535 22.3545 26.0336V31.1969C22.3545 32.6955 22.3555 33.7499 22.4272 34.5335C22.5 35.3284 22.6345 35.6618 22.7647 35.8322C23.1219 36.3003 23.6672 36.5871 24.2553 36.6163C24.4695 36.627 24.8204 36.549 25.5166 36.1586C26.203 35.7738 27.0725 35.1773 28.3073 34.3283L32.0625 31.7466C33.0438 31.072 33.7233 30.6037 34.2053 30.2037C34.6849 29.8058 34.8617 29.5597 34.9387 29.3708C35.1363 28.8865 35.1363 28.344 34.9387 27.8597C34.8617 27.6709 34.6849 27.4247 34.2053 27.0269C33.7233 26.6269 33.0438 26.1585 32.0625 25.4839L28.3073 22.9022C27.0725 22.0533 26.203 21.4567 25.5166 21.0719Z" fill="white"/>
</svg>