<?xml version="1.0" standalone="no"?>
<!DOCTYPE svg PUBLIC "-//W3C//DTD SVG 1.1//EN" "http://www.w3.org/Graphics/SVG/1.1/DTD/svg11.dtd" >
<svg xmlns="http://www.w3.org/2000/svg" xmlns:xlink="http://www.w3.org/1999/xlink" version="1.1">
<metadata>
Created by FontForge 20201107 at Sun Dec 28 20:57:37 2025
 By 
Copyright (c) 2016 by S-Core Co., Ltd.. All rights reserved.
</metadata>
<defs>
<font id="CoreSansCR-45Regular" horiz-adv-x="811" >
  <font-face 
    font-family="Core Sans CR 45 Regular"
    font-weight="400"
    font-stretch="normal"
    units-per-em="2048"
    panose-1="2 15 5 3 3 3 2 2 2 4"
    ascent="1638"
    descent="-410"
    x-height="1061"
    cap-height="1434"
    bbox="-759.939 -532 2544 1997"
    underline-thickness="49"
    underline-position="-423"
    unicode-range="U+0009-FB04"
  />
<missing-glyph horiz-adv-x="1024" 
d="M201 0q-32 0 -50 17.5t-18 50.5v1400q0 68 68 68h622q32 0 50 -17.5t18 -50.5v-1400q0 -68 -68 -68h-622zM734 150v1235h-444v-1235h444z" />
    <glyph glyph-name="ff" unicode="ff" horiz-adv-x="1460" 
d="M1414 1396q0 -69 -46 -66q-16 1 -47 1q-111 0 -160 -51t-49 -157v-62h235q67 0 67 -68v-28q0 -68 -67 -68h-235v-829q0 -68 -68 -68h-51q-67 0 -67 68v829h-510v-829q0 -68 -68 -68h-51q-32 0 -50 17.5t-18 50.5v829h-115q-32 0 -50 17.5t-18 50.5v28q0 32 17.5 50
t50.5 18h115v64q0 188 95.5 279t295.5 91q46 0 91 -6q32 -4 45.5 -25.5t7.5 -53.5l-5 -27q-12 -63 -71 -55q-28 3 -59 3q-114 0 -163.5 -51t-49.5 -157v-62h510v64q0 188 93 279t287 91q15 0 45 -2q63 -3 63 -71v-26z" />
    <glyph glyph-name="fi" unicode="fi" horiz-adv-x="1286" 
d="M416 1061h628q68 0 68 -68v-925q0 -32 -17.5 -50t-50.5 -18h-51q-67 0 -67 68v829h-510v-829q0 -68 -68 -68h-51q-32 0 -50 17.5t-18 50.5v829h-115q-32 0 -50 17.5t-18 50.5v28q0 32 17.5 50t50.5 18h115v64q0 188 93.5 279t289.5 91q32 0 47 -1q64 -5 64 -71v-27
q0 -69 -47 -66q-16 1 -48 1q-113 0 -162.5 -51t-49.5 -157v-62zM896 1357q0 53 35 88t88 35t88 -35t35 -88q0 -52 -35.5 -87t-87.5 -35t-87.5 35t-35.5 87z" />
    <glyph glyph-name="fl" unicode="fl" horiz-adv-x="1286" 
d="M718 1396q0 -69 -46 -66q-16 1 -47 1q-111 0 -160 -51t-49 -157v-62h234q68 0 68 -68v-28q0 -32 -17.5 -50t-50.5 -18h-234v-829q0 -68 -68 -68h-51q-32 0 -50 17.5t-18 50.5v829h-115q-32 0 -50 17.5t-18 50.5v28q0 32 17.5 50t50.5 18h115v64q0 188 93 279t287 91
q15 0 45 -2q31 -1 47.5 -20t16.5 -51v-26zM926 1427q0 68 67 68h51q32 0 50 -17.5t18 -50.5v-1359q0 -68 -68 -68h-51q-67 0 -67 68v1359z" />
    <glyph glyph-name="ffi" unicode="ffi" horiz-adv-x="1982" 
d="M1592 1357q0 53 35 88t88 35t88 -35t35 -88q0 -52 -35.5 -87t-87.5 -35t-87.5 35t-35.5 87zM416 1061h510v64q0 188 93.5 279t289.5 91q32 0 47 -1q63 -4 63 -71v-27q0 -69 -47 -66q-16 1 -48 1q-113 0 -162.5 -51t-49.5 -157v-62h629q67 0 67 -68v-925q0 -68 -67 -68
h-51q-32 0 -50 17.5t-18 50.5v829h-510v-829q0 -68 -68 -68h-51q-67 0 -67 68v829h-510v-829q0 -68 -68 -68h-51q-32 0 -50 17.5t-18 50.5v829h-115q-32 0 -50 17.5t-18 50.5v28q0 32 17.5 50t50.5 18h115v64q0 188 95.5 279t295.5 91q46 0 91 -6q32 -4 45.5 -25.5
t7.5 -53.5l-5 -27q-12 -63 -71 -55q-28 3 -59 3q-114 0 -163.5 -51t-49.5 -157v-62z" />
    <glyph glyph-name="ffl" unicode="ffl" horiz-adv-x="1982" 
d="M1414 1396q0 -69 -46 -66q-16 1 -47 1q-111 0 -160 -51t-49 -157v-62h235q67 0 67 -68v-28q0 -68 -67 -68h-235v-829q0 -68 -68 -68h-51q-67 0 -67 68v829h-510v-829q0 -68 -68 -68h-51q-32 0 -50 17.5t-18 50.5v829h-115q-32 0 -50 17.5t-18 50.5v28q0 32 17.5 50
t50.5 18h115v64q0 188 95.5 279t295.5 91q46 0 91 -6q32 -4 45.5 -25.5t7.5 -53.5l-5 -27q-12 -63 -71 -55q-28 3 -59 3q-114 0 -163.5 -51t-49.5 -157v-62h510v64q0 188 93 279t287 91q15 0 45 -2q63 -3 63 -71v-26zM1622 1427q0 32 17.5 50t50.5 18h51q67 0 67 -68v-1359
q0 -68 -67 -68h-51q-32 0 -50 17.5t-18 50.5v1359z" />
    <glyph glyph-name=".notdef" horiz-adv-x="1024" 
d="M201 0q-32 0 -50 17.5t-18 50.5v1400q0 68 68 68h622q32 0 50 -17.5t18 -50.5v-1400q0 -68 -68 -68h-622zM734 150v1235h-444v-1235h444z" />
    <glyph glyph-name=".null" horiz-adv-x="0" 
 />
    <glyph glyph-name=".null" horiz-adv-x="0" 
 />
    <glyph glyph-name="nonmarkingreturn" horiz-adv-x="682" 
 />
    <glyph glyph-name="CR" unicode="&#x9;" horiz-adv-x="0" 
 />
    <glyph glyph-name="space" unicode=" " horiz-adv-x="608" 
 />
    <glyph glyph-name="exclam" unicode="!" horiz-adv-x="632" 
d="M220 1366q0 68 68 68h57q68 0 68 -68v-895q0 -68 -68 -68h-57q-68 0 -68 68v895zM189 102q0 54 36 90.5t91 36.5t91 -36.5t36 -90.5q0 -55 -36 -91t-91 -36t-91 36t-36 91z" />
    <glyph glyph-name="quotedbl" unicode="&#x22;" horiz-adv-x="986" 
d="M571 1366q0 32 17.5 50t50.5 18h51q32 0 50 -17.5t18 -50.5v-444q0 -32 -17.5 -50t-50.5 -18h-51q-32 0 -50 17.5t-18 50.5v444zM228 1366q0 32 17.5 50t50.5 18h51q32 0 50 -17.5t18 -50.5v-444q0 -32 -17.5 -50t-50.5 -18h-51q-32 0 -50 17.5t-18 50.5v444z" />
    <glyph glyph-name="numbersign" unicode="#" horiz-adv-x="1399" 
d="M292 368h-147q-67 0 -67 67v22q0 67 67 67h173l67 385h-164q-67 0 -67 68v21q0 68 67 68h191l53 306q11 62 73 62h47q35 0 51 -19.5t10 -53.5l-51 -295h329l53 306q11 62 73 62h47q35 0 51 -19.5t10 -53.5l-51 -295h147q68 0 68 -68v-21q0 -32 -17.5 -50t-50.5 -18h-174
l-66 -385h165q67 0 67 -67v-22q0 -67 -67 -67h-192l-52 -307q-10 -61 -73 -61h-47q-35 0 -51 19.5t-10 53.5l50 295h-329l-52 -307q-10 -61 -73 -61h-47q-35 0 -51 19.5t-10 53.5zM502 524h328l67 385h-329z" />
    <glyph glyph-name="dollar" unicode="$" horiz-adv-x="1204" 
d="M181 287q44 49 95 1q130 -121 279 -140v518q-208 47 -313.5 150t-105.5 254q0 164 116 270t303 117v118q0 67 68 67q66 0 66 -67v-124q172 -23 304 -131q50 -42 6 -95l-28 -35q-42 -51 -95 -7q-94 74 -187 95v-466q224 -56 325.5 -162t101.5 -267q0 -164 -115 -274
t-312 -129v-121q0 -68 -67 -68t-67 68v119q-115 10 -220.5 57.5t-183.5 123.5q-45 44 0 94zM921 382q0 173 -232 249v-478q106 19 169 79.5t63 149.5zM332 1083q0 -159 223 -234v436q-101 -11 -162 -66t-61 -136z" />
    <glyph glyph-name="percent" unicode="%" horiz-adv-x="1854" 
d="M1175 1385q25 49 78 49h51q39 0 53 -23t-4 -57l-673 -1306q-25 -48 -79 -48h-50q-39 0 -53 23t4 57zM94 1089q0 149 107 254t268 105t268 -105t107 -254t-107 -254.5t-268 -105.5t-268 105.5t-107 254.5zM275 1089q0 -81 54.5 -141.5t139.5 -60.5t139.5 60.5t54.5 141.5
t-54.5 141t-139.5 60t-139.5 -60t-54.5 -141zM1011 345q0 149 106.5 254.5t267.5 105.5t268 -105.5t107 -254.5t-107 -254t-268 -105t-267.5 105t-106.5 254zM1192 345q0 -81 54 -141.5t139 -60.5t139.5 60.5t54.5 141.5t-54.5 141.5t-139.5 60.5t-139 -60.5t-54 -141.5z
" />
    <glyph glyph-name="ampersand" unicode="&#x26;" horiz-adv-x="1500" 
d="M906 1168q-52 -20 -88 35q-68 101 -196 101q-86 0 -145.5 -56t-59.5 -132q0 -64 45 -129t159 -169l417 -384q56 109 76 238q12 66 77 57l47 -7q69 -10 58 -76q-29 -192 -120 -340l242 -223q34 -31 24 -57t-56 -26h-89q-48 0 -84 33l-150 137q-91 -93 -206.5 -144
t-246.5 -51q-208 0 -346 117.5t-138 290.5q0 245 268 409q-87 90 -124 163.5t-37 158.5q0 97 53 176.5t142 123.5t194 44q123 0 216 -48.5t146 -136.5q16 -30 6 -53t-42 -35zM610 139q87 0 171 39t153 112l-420 386q-202 -120 -202 -281q0 -107 84.5 -181.5t213.5 -74.5z
" />
    <glyph glyph-name="quotesingle" unicode="'" horiz-adv-x="643" 
d="M228 1366q0 32 17.5 50t50.5 18h51q32 0 50 -17.5t18 -50.5v-444q0 -32 -17.5 -50t-50.5 -18h-51q-32 0 -50 17.5t-18 50.5v444z" />
    <glyph glyph-name="parenleft" unicode="(" horiz-adv-x="850" 
d="M246 625q0 255 88 491t247 414q42 48 95 8l25 -20q54 -42 11 -95q-132 -164 -203 -371.5t-71 -426.5t71 -427t203 -372q42 -53 -11 -94l-25 -21q-52 -41 -92 4q-161 179 -249.5 416t-88.5 494z" />
    <glyph glyph-name="parenright" unicode=")" horiz-adv-x="850" 
d="M605 625q0 -255 -88 -491.5t-247 -414.5q-42 -48 -95 -8l-25 21q-53 41 -11 94q132 164 203 372t71 427t-71 426.5t-203 371.5q-43 53 11 95l25 20q52 41 92 -4q161 -179 249.5 -415.5t88.5 -493.5z" />
    <glyph glyph-name="asterisk" unicode="*" horiz-adv-x="1136" 
d="M493 813l-4 252q-1 33 16.5 50.5t50.5 17.5h25q68 0 66 -68l-3 -252l218 129q58 35 92 -24l12 -20q33 -58 -26 -92l-222 -126l222 -126q59 -34 26 -92l-12 -20q-34 -59 -92 -24l-218 129l3 -252q2 -68 -66 -68h-25q-33 0 -50.5 17.5t-16.5 50.5l4 252l-219 -129
q-58 -35 -92 24l-11 20q-33 58 26 92l222 126l-222 126q-59 34 -26 92l11 20q34 59 92 24z" />
    <glyph glyph-name="plus" unicode="+" horiz-adv-x="1175" 
d="M495 600h-306q-67 0 -67 68v25q0 68 67 68h306v316q0 68 67 68h51q32 0 50 -17.5t18 -50.5v-316h305q68 0 68 -68v-25q0 -68 -68 -68h-305v-317q0 -32 -17.5 -50t-50.5 -18h-51q-67 0 -67 68v317z" />
    <glyph glyph-name="comma" unicode="," horiz-adv-x="608" 
d="M176 103q0 55 36.5 91.5t91.5 36.5t91.5 -36.5t36.5 -91.5q0 -30 -13 -58l-112 -246q-21 -50 -79 -50q-30 0 -38.5 22t6.5 57l68 154q-39 12 -63.5 45t-24.5 76z" />
    <glyph glyph-name="hyphen" unicode="-" horiz-adv-x="823" 
d="M188 592q-67 0 -67 67v41q0 68 67 68h447q67 0 67 -68v-41q0 -67 -67 -67h-447z" />
    <glyph glyph-name="period" unicode="." horiz-adv-x="608" 
d="M176 103q0 55 36.5 91.5t91.5 36.5t91.5 -36.5t36.5 -91.5t-36.5 -91.5t-91.5 -36.5t-91.5 36.5t-36.5 91.5z" />
    <glyph glyph-name="slash" unicode="/" horiz-adv-x="935" 
d="M238 -233q-21 -54 -78 -54h-57q-38 0 -52.5 21.5t-1.5 56.5l649 1692q21 53 78 53h57q38 0 52.5 -21.5t1.5 -56.5z" />
    <glyph glyph-name="zero" unicode="0" horiz-adv-x="1216" 
d="M124 717q0 214 51.5 378t162.5 263.5t270 99.5q120 0 213.5 -57t152.5 -157.5t89 -234t30 -292.5t-30 -292.5t-89 -234.5t-152.5 -158t-213.5 -57t-213.5 57t-152 158t-88.5 234.5t-30 292.5zM313 717q0 -171 30 -295.5t97.5 -199t167.5 -74.5t167.5 74.5t97.5 199
t30 295.5t-30 295.5t-97.5 198.5t-167.5 74t-167.5 -74t-97.5 -198.5t-30 -295.5z" />
    <glyph glyph-name="one" unicode="1" horiz-adv-x="1216" 
d="M710 1434q67 0 67 -68v-1298q0 -68 -67 -68h-55q-67 0 -67 68v1175l-213 -117q-57 -32 -91 27l-14 23q-35 60 27 92l267 144q41 22 84 22h62z" />
    <glyph glyph-name="two" unicode="2" horiz-adv-x="1216" 
d="M440 164h534q67 0 67 -68v-28q0 -68 -67 -68h-715q-32 0 -50 17.5t-18 50.5v40q0 46 33 83l481 530q86 95 123.5 172t37.5 157q0 108 -72 176t-185 68q-171 0 -252 -155q-30 -61 -89 -36l-36 15q-63 27 -37 88q53 117 159.5 184.5t254.5 67.5q195 0 321 -112.5
t126 -294.5q0 -115 -48 -212.5t-156 -218.5z" />
    <glyph glyph-name="three" unicode="3" horiz-adv-x="1216" 
d="M860 444q0 127 -91 216.5t-226 89.5q-10 0 -30 -2q-31 -3 -51 3.5t-37 28.5l-2 3q-39 50 1 96l329 388h-500q-68 0 -68 67v32q0 32 17.5 50t50.5 18h662q32 0 50 -17.5t18 -50.5v-51q0 -49 -31 -84l-311 -360q182 -13 295.5 -138.5t113.5 -305.5q0 -86 -36 -167
t-99.5 -144.5t-159 -102t-206.5 -38.5q-251 0 -405 185q-41 49 12 94l26 22q50 43 96 -11q111 -126 265 -126q135 0 226 88.5t91 216.5z" />
    <glyph glyph-name="four" unicode="4" horiz-adv-x="1216" 
d="M81 416q0 46 25 84l600 891q29 43 81 43h70q68 0 68 -68v-902h101q68 0 68 -68v-38q0 -67 -68 -67h-101v-223q0 -68 -68 -68h-54q-68 0 -68 68v223h-587q-67 0 -67 67v58zM735 462v660l-444 -660h444z" />
    <glyph glyph-name="five" unicode="5" horiz-adv-x="1216" 
d="M569 -25q-121 0 -224.5 46.5t-177.5 133.5q-43 51 11 95l31 25q50 41 95 -12q108 -124 259 -124q135 0 225 87.5t90 217.5t-90 218t-225 88q-119 0 -199 -75q-41 -39 -86 -34l-15 2q-67 8 -59 75l71 652q6 64 72 64h599q32 0 50 -17.5t18 -50.5v-32q0 -67 -68 -67h-495
l-51 -425q80 68 208 68q92 0 175.5 -32.5t146.5 -91t100 -146t37 -191.5q0 -208 -137 -341t-361 -133z" />
    <glyph glyph-name="six" unicode="6" horiz-adv-x="1216" 
d="M501 884q52 31 130 31q125 0 233 -59t173.5 -167.5t65.5 -242.5q0 -100 -41 -188.5t-109 -150t-159 -97t-188 -35.5q-131 0 -244.5 59.5t-183 169t-69.5 242.5q0 139 70 248l447 696q27 44 81 44h52q41 0 53.5 -23.5t-9.5 -58.5zM913 446q0 130 -89.5 219.5t-217.5 89.5
t-218 -89.5t-90 -219.5q0 -129 89.5 -218t218.5 -89q128 0 217.5 89t89.5 218z" />
    <glyph glyph-name="seven" unicode="7" horiz-adv-x="1216" 
d="M983 1434q68 0 68 -68v-49q0 -41 -17 -83l-496 -1182q-21 -52 -78 -52h-72q-38 0 -52 22t0 57l502 1188h-597q-68 0 -68 67v32q0 32 17.5 50t50.5 18h742z" />
    <glyph glyph-name="eight" unicode="8" horiz-adv-x="1216" 
d="M608 -25q-207 0 -348 127.5t-141 315.5q0 129 73 229t199 141q-87 35 -142.5 117t-55.5 178q0 158 118 266.5t297 108.5q180 0 298 -108.5t118 -266.5q0 -95 -55.5 -177.5t-143.5 -117.5q126 -41 199.5 -141t73.5 -229q0 -123 -64.5 -225t-177 -160t-248.5 -58zM608 703
q-127 0 -213.5 -82.5t-86.5 -199.5t86.5 -199.5t213.5 -82.5t213.5 82.5t86.5 199.5t-86.5 199.5t-213.5 82.5zM608 861q97 0 165 64.5t68 153.5t-67.5 152t-165.5 63t-165 -63t-67 -152t67.5 -153.5t164.5 -64.5z" />
    <glyph glyph-name="nine" unicode="9" horiz-adv-x="1216" 
d="M716 550q-54 -32 -130 -32q-125 0 -233 59t-173.5 167.5t-65.5 242.5q0 133 69.5 242.5t182.5 169t244 59.5q98 0 188.5 -35.5t159 -97t109.5 -150t41 -188.5q0 -138 -71 -248l-446 -695q-27 -44 -81 -44h-52q-41 0 -53.5 23.5t9.5 58.5zM303 987q0 -130 89.5 -219
t217.5 -89t218.5 89t90.5 219q0 129 -90 218t-219 89q-128 0 -217.5 -89t-89.5 -218z" />
    <glyph glyph-name="colon" unicode=":" horiz-adv-x="608" 
d="M176 103q0 55 36.5 91.5t91.5 36.5t91.5 -36.5t36.5 -91.5t-36.5 -91.5t-91.5 -36.5t-91.5 36.5t-36.5 91.5zM176 957q0 55 36.5 91.5t91.5 36.5t91.5 -36.5t36.5 -91.5t-36.5 -91.5t-91.5 -36.5t-91.5 36.5t-36.5 91.5z" />
    <glyph glyph-name="semicolon" unicode=";" horiz-adv-x="608" 
d="M176 957q0 55 36.5 91.5t91.5 36.5t91.5 -36.5t36.5 -91.5t-36.5 -91.5t-91.5 -36.5t-91.5 36.5t-36.5 91.5zM176 103q0 55 36.5 91.5t91.5 36.5t91.5 -36.5t36.5 -91.5q0 -30 -13 -58l-112 -246q-21 -50 -79 -50q-30 0 -38.5 22t6.5 57l68 154q-39 12 -63.5 45t-24.5 76
z" />
    <glyph glyph-name="less" unicode="&#x3c;" horiz-adv-x="1175" 
d="M1018 206q0 -40 -23 -53.5t-58 6.5l-758 426q-47 26 -47 81v26q0 55 47 81l758 426q35 20 58 6.5t23 -53.5v-65q0 -53 -47 -79l-603 -329l603 -329q47 -26 47 -80v-64z" />
    <glyph glyph-name="equal" unicode="=" horiz-adv-x="1175" 
d="M189 831q-67 0 -67 68v26q0 67 67 67h797q68 0 68 -67v-26q0 -68 -68 -68h-797zM189 369q-67 0 -67 67v26q0 67 67 67h797q68 0 68 -67v-26q0 -67 -68 -67h-797z" />
    <glyph glyph-name="greater" unicode="&#x3e;" horiz-adv-x="1175" 
d="M158 270q0 54 47 80l603 329l-603 329q-47 26 -47 79v65q0 40 23 53.5t58 -6.5l757 -426q47 -26 47 -81v-26q0 -55 -47 -81l-757 -426q-35 -20 -58 -6.5t-23 53.5v64z" />
    <glyph glyph-name="question" unicode="?" horiz-adv-x="1119" 
d="M390 705q0 63 68 69q158 14 248.5 90.5t90.5 187.5q0 101 -88 168.5t-225 67.5q-121 0 -245 -84q-56 -40 -95 14l-22 30q-40 55 13 94q167 116 371 116q107 0 199 -33.5t154 -89.5t97.5 -130t35.5 -154q0 -151 -111.5 -263t-297.5 -139v-173q0 -67 -68 -67h-57
q-68 0 -68 67v229zM361 102q0 54 36 90.5t91 36.5t91 -36.5t36 -90.5q0 -55 -36 -91t-91 -36t-91 36t-36 91z" />
    <glyph glyph-name="at" unicode="@" horiz-adv-x="1966" 
d="M977 257q82 0 148.5 46t99.5 122v252q-33 75 -99.5 121.5t-148.5 46.5q-117 0 -196.5 -85t-79.5 -209t79.5 -209t196.5 -85zM1478 115q-74 0 -141.5 41t-100.5 105q-52 -68 -125.5 -107t-158.5 -39q-175 0 -292.5 127.5t-117.5 308.5t117.5 308.5t292.5 127.5
q162 0 273 -134v46q0 68 67 68h23q67 0 67 -68v-561q13 -36 45 -58.5t70 -22.5q98 0 166.5 94t68.5 256q0 196 -102 359.5t-274.5 256.5t-375.5 93t-374.5 -99.5t-271.5 -273t-100 -380.5q0 -156 59 -295t161 -239.5t245.5 -159t305.5 -58.5q242 0 437 116q62 39 92 -25
l4 -8q29 -61 -28 -92q-240 -134 -505 -134q-195 0 -367.5 68.5t-295.5 187t-194.5 284.5t-71.5 355q0 188 71.5 355t193 285t288 186.5t351.5 68.5q192 0 361 -65t289.5 -177.5t190 -270.5t69.5 -338q0 -221 -115 -356.5t-297 -135.5z" />
    <glyph glyph-name="A" unicode="A" horiz-adv-x="1394" 
d="M1193 0q-58 0 -77 54l-114 316h-610l-113 -316q-19 -54 -77 -54h-70q-37 0 -51.5 21.5t-1.5 56.5l490 1302q19 54 78 54h101q58 0 77 -54l491 -1302q13 -35 -1.5 -56.5t-51.5 -21.5h-70zM945 537l-248 684l-247 -684h495z" />
    <glyph glyph-name="B" unicode="B" horiz-adv-x="1264" 
d="M240 0q-68 0 -68 68v1298q0 68 68 68h436q191 0 299.5 -103t108.5 -277q0 -111 -52.5 -186t-140.5 -107q117 -26 196 -120t79 -232q0 -183 -117 -296t-312 -113h-497zM889 1044q0 104 -62 163.5t-164 59.5h-298v-444h298q102 0 164 58.5t62 162.5zM971 415
q0 113 -69.5 180.5t-180.5 67.5h-356v-496h356q111 0 180.5 68t69.5 180z" />
    <glyph glyph-name="C" unicode="C" horiz-adv-x="1400" 
d="M837 145q172 0 333 105q56 41 95 -14l24 -35q40 -57 -15 -95q-193 -131 -437 -131q-157 0 -297 57.5t-240 156t-158.5 236.5t-58.5 292t58.5 291.5t158.5 236t240 156t297 57.5q230 0 418 -121q56 -36 18 -93l-23 -34q-38 -54 -94 -19q-157 97 -319 97q-115 0 -218 -44.5
t-177.5 -120.5t-118.5 -182t-44 -224q0 -158 74 -289.5t202.5 -207t281.5 -75.5z" />
    <glyph glyph-name="D" unicode="D" horiz-adv-x="1446" 
d="M658 1434q324 0 515 -194.5t191 -522.5q0 -329 -191 -523t-515 -194h-418q-32 0 -50 17.5t-18 50.5v1298q0 68 68 68h418zM365 1264v-1094h293q233 0 371.5 142t138.5 405t-138.5 405t-371.5 142h-293z" />
    <glyph glyph-name="E" unicode="E" horiz-adv-x="1156" 
d="M172 1366q0 32 17.5 50t50.5 18h711q68 0 68 -68v-32q0 -67 -68 -67h-586v-463h534q32 0 50 -17.5t18 -50.5v-31q0 -32 -17.5 -50t-50.5 -18h-534v-470h605q67 0 67 -68v-31q0 -68 -67 -68h-730q-32 0 -50 17.5t-18 50.5v1298z" />
    <glyph glyph-name="F" unicode="F" horiz-adv-x="1082" 
d="M172 1366q0 32 17.5 50t50.5 18h691q67 0 67 -68v-32q0 -67 -67 -67h-566v-462h514q67 0 67 -68v-31q0 -68 -67 -68h-514v-570q0 -68 -68 -68h-57q-68 0 -68 68v1298z" />
    <glyph glyph-name="G" unicode="G" horiz-adv-x="1474" 
d="M837 1288q-115 0 -218 -44.5t-177.5 -120.5t-118.5 -182t-44 -224q0 -158 74 -289.5t202.5 -207t281.5 -75.5q82 0 163.5 25.5t144.5 70.5v349h-325q-67 0 -67 67v32q0 68 67 68h450q67 0 67 -68v-482q0 -52 -39 -82q-201 -150 -461 -150q-157 0 -297 57.5t-240 156
t-158.5 236.5t-58.5 292t58.5 291.5t158.5 236t240 156t297 57.5q230 0 418 -121q56 -36 18 -93l-23 -34q-38 -55 -90 -21q-161 99 -323 99z" />
    <glyph glyph-name="H" unicode="H" horiz-adv-x="1427" 
d="M172 1366q0 32 17.5 50t50.5 18h57q68 0 68 -68v-562h698v562q0 68 67 68h58q67 0 67 -68v-1298q0 -68 -67 -68h-58q-67 0 -67 68v569h-698v-569q0 -32 -17.5 -50t-50.5 -18h-57q-68 0 -68 68v1298z" />
    <glyph glyph-name="I" unicode="I" horiz-adv-x="583" 
d="M321 1434q67 0 67 -68v-1298q0 -68 -67 -68h-58q-67 0 -67 68v1298q0 68 67 68h58z" />
    <glyph glyph-name="J" unicode="J" horiz-adv-x="930" 
d="M580 1366q0 68 67 68h58q67 0 67 -68v-925q0 -466 -438 -466q-120 0 -226 42q-60 22 -35 88l14 37q22 60 88 35q83 -32 155 -32q250 0 250 296v925z" />
    <glyph glyph-name="K" unicode="K" horiz-adv-x="1229" 
d="M365 804h122l409 587q29 43 82 43h68q41 0 54 -24t-11 -58l-438 -628l511 -641q27 -34 15 -58.5t-55 -24.5h-69q-51 0 -83 40l-476 597h-129v-569q0 -32 -17.5 -50t-50.5 -18h-57q-68 0 -68 68v1298q0 68 68 68h57q68 0 68 -68v-562z" />
    <glyph glyph-name="L" unicode="L" horiz-adv-x="1054" 
d="M172 1366q0 32 17.5 50t50.5 18h57q68 0 68 -68v-1199h574q68 0 68 -68v-31q0 -32 -17.5 -50t-50.5 -18h-699q-32 0 -50 17.5t-18 50.5v1298z" />
    <glyph glyph-name="M" unicode="M" horiz-adv-x="1738" 
d="M860 454q-54 0 -82 43l-420 618v-1047q0 -68 -67 -68h-51q-32 0 -50 17.5t-18 50.5v1298q0 68 68 68h59q53 0 82 -43l488 -724l489 724q29 43 82 43h59q68 0 68 -68v-1298q0 -68 -68 -68h-51q-32 0 -50 17.5t-18 50.5v1047l-419 -618q-28 -43 -82 -43h-19z" />
    <glyph glyph-name="N" unicode="N" horiz-adv-x="1432" 
d="M172 1366q0 32 17.5 50t50.5 18h65q54 0 81 -44l688 -1056v1032q0 68 68 68h51q32 0 50 -17.5t18 -50.5v-1298q0 -68 -68 -68h-66q-53 0 -80 44l-689 1056v-1032q0 -68 -67 -68h-51q-32 0 -50 17.5t-18 50.5v1298z" />
    <glyph glyph-name="O" unicode="O" horiz-adv-x="1673" 
d="M837 145q153 0 281.5 75.5t202.5 207t74 289.5q0 118 -44 224t-118.5 182t-177.5 120.5t-218 44.5t-218 -44.5t-177.5 -120.5t-118.5 -182t-44 -224q0 -158 74 -289.5t202.5 -207t281.5 -75.5zM837 1458q209 0 382 -97.5t272 -267.5t99 -376q0 -154 -58.5 -291.5
t-158.5 -236.5t-239.5 -156.5t-296.5 -57.5t-297 57.5t-240 156t-158.5 236.5t-58.5 292t58.5 291.5t158.5 236t240 156t297 57.5z" />
    <glyph glyph-name="P" unicode="P" horiz-adv-x="1198" 
d="M365 541v-473q0 -68 -68 -68h-57q-68 0 -68 68v1298q0 68 68 68h390q227 0 359.5 -121.5t132.5 -325.5t-132.5 -325t-359.5 -121h-265zM927 987q0 129 -80.5 204.5t-223.5 75.5h-258v-559h258q143 0 223.5 75t80.5 204z" />
    <glyph glyph-name="Q" unicode="Q" horiz-adv-x="1673" 
d="M837 1458q209 0 382 -97.5t272 -267.5t99 -376q0 -151 -55 -284t-154 -235l158 -170q46 -49 -4 -96l-25 -22q-49 -46 -95 4l-166 178q-187 -117 -412 -117q-157 0 -297 57.5t-240 156t-158.5 236.5t-58.5 292t58.5 291.5t158.5 236t240 156t297 57.5zM837 145
q155 0 288 81l-205 223q-46 49 4 96l23 22q50 47 96 -4l211 -228q141 162 141 382q0 118 -44 224t-118.5 182t-177.5 120.5t-218 44.5t-218 -44.5t-177.5 -120.5t-118.5 -182t-44 -224q0 -158 74 -289.5t202.5 -207t281.5 -75.5z" />
    <glyph glyph-name="R" unicode="R" horiz-adv-x="1228" 
d="M365 541v-473q0 -68 -68 -68h-57q-68 0 -68 68v1298q0 68 68 68h390q227 0 359.5 -121.5t132.5 -325.5q0 -171 -96 -286t-265 -148l331 -471q24 -34 11 -58t-54 -24h-61q-53 0 -82 43l-349 498h-192zM927 987q0 129 -80.5 204.5t-223.5 75.5h-258v-559h258
q143 0 223.5 75t80.5 204z" />
    <glyph glyph-name="S" unicode="S" horiz-adv-x="1204" 
d="M181 287q44 49 95 1q155 -143 327 -143q141 0 229.5 65.5t88.5 171.5q0 101 -80 171t-261 107q-219 45 -331.5 150.5t-112.5 259.5q0 172 127 280t328 108q233 0 402 -138q50 -42 6 -95l-28 -35q-42 -51 -95 -7q-134 105 -276 105q-119 0 -193.5 -57t-74.5 -148
q0 -97 80.5 -161.5t247.5 -102.5q240 -54 348 -161.5t108 -274.5q0 -181 -137 -294.5t-367 -113.5q-131 0 -251.5 49t-209.5 135q-46 44 0 95z" />
    <glyph glyph-name="T" unicode="T" horiz-adv-x="1124" 
d="M466 1267h-335q-68 0 -68 67v32q0 32 17.5 50t50.5 18h862q32 0 50 -17.5t18 -50.5v-32q0 -67 -68 -67h-335v-1199q0 -68 -67 -68h-57q-68 0 -68 68v1199z" />
    <glyph glyph-name="U" unicode="U" horiz-adv-x="1357" 
d="M1199 501q0 -155 -69 -275.5t-187 -184.5t-264 -64t-264 64t-187 184.5t-69 275.5v865q0 68 67 68h58q67 0 67 -68v-887q0 -148 93.5 -240t234.5 -92t234.5 92t93.5 240v887q0 68 67 68h58q67 0 67 -68v-865z" />
    <glyph glyph-name="V" unicode="V" horiz-adv-x="1392" 
d="M696 243l422 1136q20 55 77 55h67q37 0 51.5 -21.5t1.5 -56.5l-491 -1303q-19 -53 -78 -53h-100q-59 0 -78 53l-490 1303q-13 35 1.5 56.5t51.5 21.5h67q56 0 76 -55z" />
    <glyph glyph-name="W" unicode="W" horiz-adv-x="1980" 
d="M1027 1434q59 0 76 -58l315 -1094l296 1094q15 58 75 58h64q36 0 52 -21t6 -55l-374 -1301q-17 -57 -76 -57h-73q-60 0 -76 57l-322 1111l-321 -1111q-17 -57 -76 -57h-74q-59 0 -76 57l-373 1301q-10 35 5.5 55.5t51.5 20.5h64q60 0 75 -58l296 -1094l316 1094
q17 58 75 58h74z" />
    <glyph glyph-name="X" unicode="X" horiz-adv-x="1290" 
d="M138 0q-41 0 -53.5 24t10.5 58l435 647l-416 623q-23 34 -10.5 58t53.5 24h60q52 0 81 -44l347 -521l347 521q29 44 81 44h61q41 0 53.5 -24t-10.5 -58l-417 -623l435 -647q23 -34 10.5 -58t-53.5 -24h-60q-52 0 -81 43l-366 546l-365 -546q-29 -43 -81 -43h-61z" />
    <glyph glyph-name="Y" unicode="Y" horiz-adv-x="1316" 
d="M658 776l375 613q28 45 81 45h60q41 0 54 -23t-8 -58l-465 -765v-520q0 -32 -17.5 -50t-50.5 -18h-57q-68 0 -68 68v520l-465 765q-21 35 -8 58t54 23h60q53 0 81 -45z" />
    <glyph glyph-name="Z" unicode="Z" horiz-adv-x="1229" 
d="M865 1267h-643q-67 0 -67 67v32q0 68 67 68h806q32 0 50 -17.5t18 -50.5v-53q0 -45 -26 -84l-716 -1062h695q67 0 67 -68v-31q0 -68 -67 -68h-858q-67 0 -67 68v53q0 45 26 84z" />
    <glyph glyph-name="bracketleft" unicode="[" horiz-adv-x="850" 
d="M240 1468q0 68 67 68h425q68 0 68 -68v-31q0 -32 -17.5 -50t-50.5 -18h-300v-1489h300q68 0 68 -67v-32q0 -32 -17.5 -50t-50.5 -18h-425q-67 0 -67 68v1687z" />
    <glyph glyph-name="backslash" unicode="\" horiz-adv-x="935" 
d="M49 1458q-13 35 1.5 56.5t52.5 21.5h57q57 0 78 -53l649 -1692q13 -35 -1.5 -56.5t-52.5 -21.5h-57q-57 0 -78 54z" />
    <glyph glyph-name="bracketright" unicode="]" horiz-adv-x="850" 
d="M611 -219q0 -68 -67 -68h-425q-68 0 -68 68v32q0 67 68 67h300v1489h-300q-68 0 -68 68v31q0 32 17.5 50t50.5 18h425q67 0 67 -68v-1687z" />
    <glyph glyph-name="asciicircum" unicode="^" horiz-adv-x="1257" 
d="M675 1434q54 0 81 -44l336 -511q23 -35 10 -58.5t-54 -23.5h-59q-54 0 -81 44l-279 427l-280 -427q-27 -44 -81 -44h-58q-41 0 -54 23.5t9 58.5l337 511q27 44 81 44h92z" />
    <glyph glyph-name="underscore" unicode="_" horiz-adv-x="1024" 
d="M0 -273q0 67 68 67h888q68 0 68 -67v-11q0 -67 -68 -67h-888q-68 0 -68 67v11z" />
    <glyph glyph-name="grave" unicode="`" horiz-adv-x="851" 
d="M532 1233q27 -34 16 -58.5t-54 -24.5h-28q-49 0 -82 39l-186 223q-28 34 -16 58.5t55 24.5h32q50 0 82 -39z" />
    <glyph glyph-name="a" unicode="a" horiz-adv-x="1328" 
d="M649 142q112 0 204 57.5t139 152.5v354q-47 96 -139 154.5t-204 58.5q-162 0 -273 -113.5t-111 -275.5q0 -161 111 -274.5t273 -113.5zM618 1085q227 0 374 -161v69q0 68 68 68h51q32 0 50 -17.5t18 -50.5v-925q0 -32 -17.5 -50t-50.5 -18h-51q-32 0 -50 17.5t-18 50.5
v69q-147 -162 -374 -162q-154 0 -279 76t-194 203t-69 276t69 276t194 203t279 76z" />
    <glyph glyph-name="b" unicode="b" horiz-adv-x="1328" 
d="M679 142q162 0 273 113.5t111 274.5q0 162 -111 275.5t-273 113.5q-112 0 -204 -58.5t-139 -154.5v-354q47 -95 139 -152.5t204 -57.5zM710 1085q154 0 279 -76t194 -203t69 -276t-69 -276t-194 -203t-279 -76q-227 0 -374 162v-69q0 -68 -68 -68h-51q-67 0 -67 68v1359
q0 68 67 68h51q32 0 50 -17.5t18 -50.5v-503q147 161 374 161z" />
    <glyph glyph-name="c" unicode="c" horiz-adv-x="1124" 
d="M649 -25q-122 0 -229 44t-182 118.5t-118.5 177t-43.5 215.5t43.5 215.5t118.5 177t182 118.5t229 44q185 0 335 -100q53 -38 15 -94l-22 -34q-36 -55 -94 -15q-114 77 -234 77q-162 0 -273 -113.5t-111 -275.5q0 -161 111 -274.5t273 -113.5q131 0 244 84q54 41 95 -9
l25 -32q42 -53 -3 -90q-152 -120 -361 -120z" />
    <glyph glyph-name="d" unicode="d" horiz-adv-x="1328" 
d="M649 142q112 0 204 57.5t139 152.5v354q-47 96 -139 154.5t-204 58.5q-162 0 -273 -113.5t-111 -275.5q0 -161 111 -274.5t273 -113.5zM618 1085q227 0 374 -161v503q0 32 17.5 50t50.5 18h51q32 0 50 -17.5t18 -50.5v-1359q0 -68 -68 -68h-51q-32 0 -50 17.5t-18 50.5
v69q-147 -162 -374 -162q-154 0 -279 76t-194 203t-69 276t69 276t194 203t279 76z" />
    <glyph glyph-name="e" unicode="e" horiz-adv-x="1253" 
d="M266 472q15 -144 122 -240t259 -96q160 0 288 109q49 42 95 0l30 -27q53 -49 1 -95q-168 -148 -409 -148q-127 0 -235.5 43.5t-182.5 118.5t-116 177t-42 216q0 152 72 279t201.5 201.5t287.5 74.5q116 0 217.5 -42t172 -113.5t111 -169.5t40.5 -206q0 -13 -1 -19
q-1 -31 -20 -47t-51 -16h-840zM637 925q-131 0 -233.5 -85t-130.5 -213h709q-22 130 -117.5 214t-227.5 84z" />
    <glyph glyph-name="f" unicode="f" horiz-adv-x="763" 
d="M718 1396q0 -69 -46 -66q-16 1 -47 1q-111 0 -160 -51t-49 -157v-62h234q68 0 68 -68v-28q0 -32 -17.5 -50t-50.5 -18h-234v-829q0 -68 -68 -68h-51q-32 0 -50 17.5t-18 50.5v829h-115q-32 0 -50 17.5t-18 50.5v28q0 32 17.5 50t50.5 18h115v64q0 188 93 279t287 91
q15 0 45 -2q31 -1 47.5 -20t16.5 -51v-26z" />
    <glyph glyph-name="g" unicode="g" horiz-adv-x="1328" 
d="M992 137q-147 -162 -374 -162q-154 0 -279 76t-194 203t-69 276t69 276t194 203t279 76q227 0 374 -161v69q0 68 68 68h51q32 0 50 -17.5t18 -50.5v-959q0 -233 -140.5 -371t-396.5 -138q-252 0 -433 165q-48 46 1 95l27 27q45 45 95 -1q140 -125 309 -125
q160 0 255.5 90.5t95.5 245.5v115zM649 142q112 0 204 57.5t139 152.5v354q-47 96 -139 154.5t-204 58.5q-162 0 -273 -113.5t-111 -275.5q0 -161 111 -274.5t273 -113.5z" />
    <glyph glyph-name="h" unicode="h" horiz-adv-x="1235" 
d="M336 68q0 -68 -68 -68h-51q-67 0 -67 68v1359q0 68 67 68h51q32 0 50 -17.5t18 -50.5v-529q63 82 151.5 134.5t192.5 52.5q189 0 308 -120.5t119 -312.5v-584q0 -32 -17.5 -50t-50.5 -18h-51q-67 0 -67 68v574q0 120 -77.5 198.5t-198.5 78.5q-93 0 -173.5 -62.5
t-135.5 -153.5v-635z" />
    <glyph glyph-name="i" unicode="i" horiz-adv-x="534" 
d="M174 993q0 32 17.5 50t50.5 18h51q67 0 67 -68v-925q0 -68 -67 -68h-51q-32 0 -50 17.5t-18 50.5v925zM144 1357q0 53 35 88t88 35t88 -35t35 -88q0 -52 -35.5 -87t-87.5 -35t-87.5 35t-35.5 87z" />
    <glyph glyph-name="j" unicode="j" horiz-adv-x="534" 
d="M174 993q0 32 17.5 50t50.5 18h51q67 0 67 -68v-1130q0 -178 -76.5 -258t-237.5 -80h-14q-66 2 -66 69v27q0 68 29 68h30q75 0 112 40t37 131v1133zM144 1357q0 53 35 88t88 35t88 -35t35 -88q0 -52 -35.5 -87t-87.5 -35t-87.5 35t-35.5 87z" />
    <glyph glyph-name="k" unicode="k" horiz-adv-x="1053" 
d="M467 509h-131v-441q0 -32 -17.5 -50t-50.5 -18h-51q-67 0 -67 68v1359q0 68 67 68h51q32 0 50 -17.5t18 -50.5v-757h133l269 350q31 41 82 41h66q43 0 54.5 -24.5t-14.5 -58.5l-302 -388l363 -508q25 -34 12 -58t-55 -24h-61q-54 0 -82 42z" />
    <glyph glyph-name="l" unicode="l" horiz-adv-x="534" 
d="M174 1427q0 32 17.5 50t50.5 18h51q67 0 67 -68v-1359q0 -68 -67 -68h-51q-32 0 -50 17.5t-18 50.5v1359z" />
    <glyph glyph-name="m" unicode="m" horiz-adv-x="1916" 
d="M336 68q0 -68 -68 -68h-51q-67 0 -67 68v925q0 68 67 68h51q32 0 50 -17.5t18 -50.5v-91q57 79 139.5 131t180.5 52q121 0 215 -59t141 -159q62 99 159 158.5t211 59.5q180 0 293 -119.5t113 -305.5v-592q0 -32 -17.5 -50t-50.5 -18h-51q-67 0 -67 68v582
q0 116 -68 192.5t-179 76.5q-87 0 -162.5 -61t-132.5 -157q2 -24 2 -41v-592q0 -32 -17.5 -50t-50.5 -18h-51q-67 0 -67 68v582q0 116 -68 192.5t-179 76.5q-87 0 -162 -60t-131 -154v-637z" />
    <glyph glyph-name="n" unicode="n" horiz-adv-x="1235" 
d="M336 68q0 -68 -68 -68h-51q-67 0 -67 68v925q0 68 67 68h51q32 0 50 -17.5t18 -50.5v-95q63 82 151.5 134.5t192.5 52.5q189 0 308 -120.5t119 -312.5v-584q0 -32 -17.5 -50t-50.5 -18h-51q-67 0 -67 68v574q0 120 -77.5 198.5t-198.5 78.5q-93 0 -173.5 -62.5
t-135.5 -153.5v-635z" />
    <glyph glyph-name="o" unicode="o" horiz-adv-x="1298" 
d="M649 142q162 0 273 113.5t111 274.5q0 162 -111 275.5t-273 113.5t-273 -113.5t-111 -275.5q0 -161 111 -274.5t273 -113.5zM649 1085q122 0 229 -44t182.5 -118.5t119 -177t43.5 -215.5t-43.5 -215.5t-119 -177t-182.5 -118.5t-229 -44t-229 44t-182 118.5t-118.5 177
t-43.5 215.5t43.5 215.5t118.5 177t182 118.5t229 44z" />
    <glyph glyph-name="p" unicode="p" horiz-adv-x="1328" 
d="M679 142q162 0 273 113.5t111 274.5q0 162 -111 275.5t-273 113.5q-112 0 -204 -58.5t-139 -154.5v-354q47 -95 139 -152.5t204 -57.5zM710 1085q154 0 279 -76t194 -203t69 -276t-69 -276t-194 -203t-279 -76q-227 0 -374 162v-545q0 -67 -68 -67h-51q-67 0 -67 67v1401
q0 68 67 68h51q32 0 50 -17.5t18 -50.5v-69q147 161 374 161z" />
    <glyph glyph-name="q" unicode="q" horiz-adv-x="1328" 
d="M649 142q112 0 204 57.5t139 152.5v354q-47 96 -139 154.5t-204 58.5q-162 0 -273 -113.5t-111 -275.5q0 -161 111 -274.5t273 -113.5zM618 1085q227 0 374 -161v69q0 68 68 68h51q32 0 50 -17.5t18 -50.5v-1401q0 -67 -68 -67h-51q-68 0 -68 67v545q-147 -162 -374 -162
q-154 0 -279 76t-194 203t-69 276t69 276t194 203t279 76z" />
    <glyph glyph-name="r" unicode="r" 
d="M641 919q-88 0 -168 -65.5t-137 -172.5v-613q0 -32 -17.5 -50t-50.5 -18h-51q-67 0 -67 68v925q0 68 67 68h51q32 0 50 -17.5t18 -50.5v-106q148 198 330 198q22 0 41 -3q60 -10 53 -77l-3 -34q-6 -64 -78 -55q-36 3 -38 3z" />
    <glyph glyph-name="s" unicode="s" horiz-adv-x="954" 
d="M135 223q42 50 94 4q109 -91 246 -91q100 0 158.5 43t58.5 114q0 68 -56 111.5t-179 67.5q-345 67 -345 320q0 127 100.5 210t264.5 83q167 0 305 -99q54 -40 11 -94l-18 -23q-40 -50 -95 -10q-94 66 -190 66q-83 0 -137.5 -38.5t-54.5 -98.5q0 -58 55.5 -101.5
t163.5 -65.5q183 -36 272.5 -117.5t89.5 -213.5q0 -138 -105.5 -226.5t-286.5 -88.5q-221 0 -367 130q-48 44 -4 96z" />
    <glyph glyph-name="t" unicode="t" horiz-adv-x="782" 
d="M424 339q0 -103 48.5 -151.5t158.5 -48.5h25q70 3 70 -64v-28q0 -67 -55 -70q-36 -2 -56 -2q-193 0 -285 88.5t-92 273.5v560h-124q-68 0 -68 68v28q0 32 17.5 50t50.5 18h124v226q0 65 64 71l51 4q34 3 52.5 -14t18.5 -51v-236h222q32 0 50 -17.5t18 -50.5v-28
q0 -32 -17.5 -50t-50.5 -18h-222v-558z" />
    <glyph glyph-name="u" unicode="u" horiz-adv-x="1235" 
d="M900 993q0 68 68 68h51q67 0 67 -68v-925q0 -68 -67 -68h-51q-32 0 -50 17.5t-18 50.5v95q-63 -82 -151.5 -135t-192.5 -53q-188 0 -307.5 121t-119.5 313v584q0 32 17.5 50t50.5 18h51q67 0 67 -68v-574q0 -120 77.5 -198.5t198.5 -78.5q93 0 173.5 62t135.5 153v636z
" />
    <glyph glyph-name="v" unicode="v" horiz-adv-x="1071" 
d="M652 53q-20 -53 -78 -53h-77q-58 0 -78 53l-361 930q-13 35 1.5 56.5t52.5 21.5h53q57 0 78 -53l293 -764l292 764q21 53 78 53h53q38 0 52.5 -21.5t1.5 -56.5z" />
    <glyph glyph-name="w" unicode="w" horiz-adv-x="1597" 
d="M836 1061q59 0 75 -56l221 -755l226 755q16 56 77 56h54q37 0 52 -21t4 -56l-298 -929q-17 -55 -76 -55h-74q-60 0 -76 56l-222 759l-222 -759q-16 -56 -76 -56h-75q-59 0 -76 55l-298 929q-11 34 4.5 55.5t52.5 21.5h54q61 0 77 -56l226 -755l220 755q16 56 76 56h74z
" />
    <glyph glyph-name="x" unicode="x" horiz-adv-x="1071" 
d="M129 0q-42 0 -54.5 24t12.5 58l331 460l-306 437q-24 35 -11 58.5t54 23.5h55q53 0 82 -43l244 -350l243 350q29 43 82 43h55q41 0 54 -23.5t-11 -58.5l-306 -437l331 -460q25 -34 12.5 -58t-54.5 -24h-55q-53 0 -82 42l-269 374l-270 -374q-29 -42 -82 -42h-55z" />
    <glyph glyph-name="y" unicode="y" horiz-adv-x="1075" 
d="M442 4l-384 979q-13 35 1.5 56.5t52.5 21.5h53q57 0 78 -53l295 -767l295 767q21 53 77 53h54q37 0 52 -21.5t1 -56.5l-548 -1405q-20 -53 -78 -53h-53q-37 0 -52 21.5t-1 56.5z" />
    <glyph glyph-name="z" unicode="z" horiz-adv-x="1036" 
d="M100 117q0 45 30 84l556 696h-491q-68 0 -68 68v28q0 32 17.5 50t50.5 18h648q67 0 67 -68v-49q0 -46 -29 -84l-555 -696h537q68 0 68 -68v-28q0 -32 -17.5 -50t-50.5 -18h-695q-68 0 -68 68v49z" />
    <glyph glyph-name="braceleft" unicode="{" horiz-adv-x="850" 
d="M153 644q0 56 63 71q68 15 105.5 63.5t37.5 122.5v313q0 136 98 229t246 93h33q32 0 50 -17.5t18 -50.5v-31q0 -32 -17.5 -50t-50.5 -18h-20q-71 0 -117.5 -47.5t-46.5 -119.5v-329q0 -197 -187 -248q187 -51 187 -249v-329q0 -72 46.5 -119.5t117.5 -47.5h20
q68 0 68 -67v-32q0 -32 -17.5 -50t-50.5 -18h-33q-148 0 -246 93t-98 229v313q0 74 -37.5 123t-105.5 64q-32 8 -47.5 24t-15.5 46v39z" />
    <glyph glyph-name="bar" unicode="|" horiz-adv-x="664" 
d="M244 1468q0 68 67 68h42q32 0 50 -17.5t18 -50.5v-1687q0 -68 -68 -68h-42q-67 0 -67 68v1687z" />
    <glyph glyph-name="braceright" unicode="}" horiz-adv-x="850" 
d="M698 605q0 -30 -15.5 -46t-47.5 -24q-68 -15 -105.5 -64t-37.5 -123v-313q0 -136 -98.5 -229t-246.5 -93h-32q-32 0 -50 17.5t-18 50.5v32q0 67 68 67h20q71 0 117.5 47.5t46.5 119.5v329q0 198 187 249q-187 51 -187 248v329q0 72 -46.5 119.5t-117.5 47.5h-20
q-68 0 -68 68v31q0 32 17.5 50t50.5 18h32q148 0 246.5 -93t98.5 -229v-313q0 -74 37.5 -122.5t105.5 -63.5q63 -15 63 -71v-39z" />
    <glyph glyph-name="asciitilde" unicode="~" horiz-adv-x="1175" 
d="M555 589q-36 35 -57.5 54t-55 37.5t-61.5 18.5q-87 0 -124 -116q-20 -68 -81 -52l-46 12q-32 8 -45 29.5t-5 52.5q33 117 104.5 179t177.5 62q141 0 258 -114q37 -37 58 -55.5t54.5 -37t61.5 -18.5q87 0 124 117q20 66 80 51l46 -11q32 -8 45.5 -29.5t5.5 -52.5
q-33 -117 -105 -179.5t-178 -62.5q-140 0 -257 115z" />
    <glyph glyph-name="uni00A0" unicode="&#xa0;" horiz-adv-x="608" 
 />
    <glyph glyph-name="exclamdown" unicode="&#xa1;" horiz-adv-x="632" 
d="M220 590q0 67 68 67h57q68 0 68 -67v-895q0 -68 -68 -68h-57q-68 0 -68 68v895zM189 958q0 55 36 91t91 36t91 -36t36 -91q0 -54 -36 -90.5t-91 -36.5t-91 36.5t-36 90.5z" />
    <glyph glyph-name="cent" unicode="&#xa2;" horiz-adv-x="1124" 
d="M702 1083q155 -13 281 -98q54 -37 16 -94l-22 -34q-36 -55 -94 -15q-85 59 -181 72v-768q104 15 191 80q54 41 95 -9l25 -31q44 -55 -8 -95q-135 -101 -303 -114v-98q0 -67 -67 -67q-68 0 -68 67v102q-216 28 -353.5 182.5t-137.5 366.5q0 139 62 257.5t174.5 196
t254.5 96.5v102q0 67 68 67q67 0 67 -67v-99zM265 530q0 -139 85 -245t217 -134v759q-132 -29 -217 -135t-85 -245z" />
    <glyph glyph-name="sterling" unicode="&#xa3;" horiz-adv-x="1175" 
d="M144 658q0 32 17.5 50t50.5 18h70q-3 7 -18 42.5t-19.5 46.5t-16 42t-15.5 47.5t-11 43.5t-9 50.5t-2 48.5q0 173 126 292t310 119q125 0 223.5 -56t153.5 -146q34 -56 -30 -90l-45 -23q-54 -28 -91 27q-76 118 -211 118q-102 0 -171 -69t-69 -172q0 -47 13 -95.5
t43.5 -124.5t39.5 -101h318q67 0 67 -68v-15q0 -68 -67 -68h-287q10 -56 10 -81q0 -95 -40 -178.5t-109 -145.5h618q68 0 68 -68v-34q0 -68 -68 -68h-775q-67 0 -67 68v47q0 48 39 83q139 124 139 296q0 27 -12 81h-105q-68 0 -68 68v15z" />
    <glyph glyph-name="currency" unicode="&#xa4;" horiz-adv-x="1282" 
d="M641 949q-118 0 -199.5 -82t-81.5 -199t81.5 -199.5t199.5 -82.5t199.5 82.5t81.5 199.5t-81.5 199t-199.5 82zM641 225q-137 0 -250 69l-147 -144q-48 -48 -96 0l-24 24q-48 48 0 96l139 140q-86 113 -86 258t86 258l-139 139q-48 48 0 96l24 25q48 48 96 0l147 -145
q113 69 250 69t250 -69l147 145q48 48 96 0l24 -25q48 -48 0 -96l-139 -139q86 -113 86 -258t-86 -258l139 -140q48 -48 0 -96l-24 -24q-48 -48 -96 0l-147 144q-113 -69 -250 -69z" />
    <glyph glyph-name="yen" unicode="&#xa5;" horiz-adv-x="1316" 
d="M658 776l375 613q28 45 81 45h60q41 0 54 -23t-8 -58l-378 -622h230q68 0 68 -62q0 -32 -17 -45.5t-51 -13.5h-304l-13 -22v-93h317q68 0 68 -63q0 -32 -16.5 -45t-51.5 -13h-317v-306q0 -32 -17.5 -50t-50.5 -18h-57q-68 0 -68 68v306h-317q-34 0 -51 12.5t-17 44.5
q0 64 68 64h317v93l-14 22h-303q-35 0 -51.5 13t-16.5 45q0 27 18 45t50 18h230l-378 622q-21 35 -8 58t54 23h60q53 0 81 -45z" />
    <glyph glyph-name="brokenbar" unicode="&#xa6;" horiz-adv-x="664" 
d="M244 1468q0 68 67 68h42q32 0 50 -17.5t18 -50.5v-684q0 -67 -68 -67h-42q-67 0 -67 67v684zM244 465q0 67 67 67h42q68 0 68 -67v-684q0 -32 -17.5 -50t-50.5 -18h-42q-67 0 -67 68v684z" />
    <glyph glyph-name="section" unicode="&#xa7;" horiz-adv-x="1032" 
d="M966 534q0 -94 -57 -169t-155 -112q130 -93 130 -239q0 -137 -108.5 -229t-270.5 -92q-118 0 -211.5 51t-137.5 141q-14 32 -1.5 53.5t46.5 29.5l42 10q29 6 47.5 -4t36.5 -39q58 -85 178 -85q85 0 141.5 47t56.5 117q0 98 -113 148l-256 111q-130 56 -198.5 145.5
t-68.5 197.5q0 94 56.5 168.5t154.5 111.5q-130 95 -130 241q0 137 108.5 229t270.5 92q118 0 212 -51t138 -142q13 -32 0 -53.5t-47 -29.5l-42 -10q-29 -6 -47 4t-36 39q-26 40 -73 62.5t-105 22.5q-85 0 -141.5 -46.5t-56.5 -116.5q0 -99 112 -149l256 -110
q130 -56 199.5 -146t69.5 -198zM453 806q-89 -5 -147.5 -59t-58.5 -131q0 -128 171 -202l160 -70q89 5 148 59t59 131q0 61 -43.5 114t-128.5 89z" />
    <glyph glyph-name="dieresis" unicode="&#xa8;" horiz-adv-x="851" 
d="M127 1323q0 49 33.5 82.5t82.5 33.5t82 -33.5t33 -82.5q0 -50 -33 -83t-82 -33t-82.5 33.5t-33.5 82.5zM494 1323q0 49 33 82.5t82 33.5t82.5 -33.5t33.5 -82.5t-33.5 -82.5t-82.5 -33.5t-82 33t-33 83z" />
    <glyph glyph-name="copyright" unicode="&#xa9;" horiz-adv-x="1640" 
d="M857 450q83 0 152 39q63 35 91 -25l1 -2q27 -60 -24 -91q-99 -61 -220 -61q-173 0 -292.5 117t-119.5 288q0 170 119.5 287t292.5 117q115 0 209 -54q52 -32 26 -91v-1q-27 -61 -92 -29q-67 36 -143 36q-109 0 -184 -77t-75 -188t75 -188t184 -77zM79 717q0 153 58 290
t157 236t236 157t290 58t290.5 -58t236.5 -157t157 -236t58 -290t-58 -290.5t-157 -236.5t-236.5 -157t-290.5 -58t-290 58t-236 157t-157 236.5t-58 290.5zM191 717q0 -175 83.5 -321t228.5 -230.5t317 -84.5t317 84.5t228.5 230.5t83.5 321t-83.5 321t-228.5 230.5
t-317 84.5t-317 -84.5t-228.5 -230.5t-83.5 -321z" />
    <glyph glyph-name="ordfeminine" unicode="&#xaa;" horiz-adv-x="933" 
d="M672 1181q-30 54 -83.5 86.5t-121.5 32.5q-100 0 -167.5 -69t-67.5 -170t68 -170.5t167 -69.5q67 0 121 33t84 87v240zM672 775q-81 -103 -227 -103q-159 0 -268.5 112.5t-109.5 276.5t109.5 276.5t268.5 112.5q146 0 227 -103v19q0 68 67 68h31q68 0 68 -68v-610
q0 -68 -68 -68h-31q-67 0 -67 68v19z" />
    <glyph glyph-name="guillemotleft" unicode="&#xab;" horiz-adv-x="1301" 
d="M108 639q0 49 45 77l439 276q35 22 58.5 9t23.5 -54v-23q0 -53 -45 -81l-332 -204l332 -204q45 -28 45 -81v-23q0 -41 -23.5 -54t-58.5 9l-439 276q-45 28 -45 77zM609 639q0 49 45 77l440 276q35 22 58.5 9t23.5 -54v-23q0 -53 -46 -81l-331 -204l331 -204
q46 -28 46 -81v-23q0 -41 -23.5 -54t-58.5 9l-440 276q-45 28 -45 77z" />
    <glyph glyph-name="logicalnot" unicode="&#xac;" horiz-adv-x="1175" 
d="M867 600h-678q-67 0 -67 68v25q0 68 67 68h797q32 0 50 -17.5t18 -50.5v-384q0 -67 -68 -67h-51q-68 0 -68 67v291z" />
    <glyph glyph-name="uni00AD" unicode="&#xad;" horiz-adv-x="823" 
d="M188 592q-67 0 -67 67v41q0 68 67 68h447q67 0 67 -68v-41q0 -67 -67 -67h-447z" />
    <glyph glyph-name="registered" unicode="&#xae;" horiz-adv-x="1640" 
d="M79 717q0 153 58 290t157 236t236 157t290 58t290.5 -58t236.5 -157t157 -236t58 -290t-58 -290.5t-157 -236.5t-236.5 -157t-290.5 -58t-290 58t-236 157t-157 236.5t-58 290.5zM191 717q0 -175 83.5 -321t228.5 -230.5t317 -84.5t317 84.5t228.5 230.5t83.5 321
t-83.5 321t-228.5 230.5t-317 84.5t-317 -84.5t-228.5 -230.5t-83.5 -321zM716 391q0 -67 -68 -67h-8q-68 0 -68 67v648q0 68 68 68h210q120 0 197 -70.5t77 -179.5q0 -85 -48.5 -148t-131.5 -87l143 -216q23 -34 10 -58t-54 -24h-7q-54 0 -81 44l-157 238h-82v-215z
M981 851q0 54 -39.5 88.5t-103.5 34.5h-122v-247h122q64 0 103.5 34.5t39.5 89.5z" />
    <glyph glyph-name="macron" unicode="&#xaf;" horiz-adv-x="851" 
d="M129 1324q0 68 68 68h458q32 0 50 -17.5t18 -50.5v-10q0 -68 -68 -68h-458q-32 0 -50 17.5t-18 50.5v10z" />
    <glyph glyph-name="degree" unicode="&#xb0;" 
d="M262 1182q0 -60 41.5 -102t102.5 -42t102 42t41 102t-41 101.5t-102 41.5t-102.5 -41.5t-41.5 -101.5zM124 1182q0 115 81.5 194t200.5 79t200 -78.5t81 -194.5t-81 -195t-200 -79t-200.5 79t-81.5 195z" />
    <glyph glyph-name="plusminus" unicode="&#xb1;" horiz-adv-x="1175" 
d="M495 679h-306q-67 0 -67 67v26q0 68 67 68h306v309q0 68 67 68h51q32 0 50 -17.5t18 -50.5v-309h305q68 0 68 -68v-26q0 -67 -68 -67h-305v-309q0 -68 -68 -68h-51q-67 0 -67 68v309zM189 0q-67 0 -67 68v25q0 68 67 68h797q32 0 50 -17.5t18 -50.5v-25q0 -68 -68 -68
h-797z" />
    <glyph glyph-name="twosuperior" unicode="&#xb2;" 
d="M315 599h318q67 0 67 -68v-1q0 -67 -67 -67h-470q-68 0 -68 67v6q0 48 33 84l313 344q56 62 79.5 110t23.5 100q0 65 -42.5 106.5t-109.5 41.5q-94 0 -144 -89q-33 -58 -87 -38l-20 7q-31 12 -42 34.5t3 52.5q39 81 114.5 125t175.5 44q138 0 228.5 -78.5t90.5 -205.5
q0 -78 -33.5 -146t-107.5 -149z" />
    <glyph glyph-name="threesuperior" unicode="&#xb3;" 
d="M559 764q0 78 -54.5 132.5t-135.5 54.5h-12q-60 -5 -89 32q-28 37 12 83l195 229h-297q-67 0 -67 68v3q0 68 67 68h434q32 0 50 -17.5t18 -50.5v-10q0 -48 -32 -84l-185 -214q116 -20 189 -104.5t73 -201.5q0 -126 -98.5 -220t-253.5 -94q-167 0 -277 121q-43 49 10 95
l11 9q48 41 94 -11q73 -78 158 -78q81 0 135.5 55t54.5 135z" />
    <glyph glyph-name="acute" unicode="&#xb4;" horiz-adv-x="851" 
d="M501 1456q32 39 82 39h32q43 0 55 -24.5t-16 -58.5l-185 -223q-33 -39 -83 -39h-28q-43 0 -54.5 24.5t15.5 58.5z" />
    <glyph glyph-name="mu" unicode="&#xb5;" horiz-adv-x="1256" 
d="M150 993q0 68 67 68h51q32 0 50 -17.5t18 -50.5v-656q29 -86 105 -140.5t169 -54.5q89 0 172.5 60.5t138.5 149.5v641q0 68 67 68h51q32 0 50 -17.5t18 -50.5v-925q0 -32 -17.5 -50t-50.5 -18h-51q-67 0 -67 68v89q-60 -79 -146.5 -130.5t-182.5 -51.5q-77 0 -145 38
t-111 97v-518q0 -67 -68 -67h-51q-67 0 -67 67v1401z" />
    <glyph glyph-name="paragraph" unicode="&#xb6;" horiz-adv-x="1187" 
d="M544 549q-192 0 -323.5 127.5t-131.5 314.5t131.5 315t323.5 128h396q32 0 50 -17.5t18 -50.5v-1567q0 -67 -68 -67h-5q-68 0 -68 67v1503h-125v-1503q0 -67 -67 -67h-5q-68 0 -68 67v750h-58z" />
    <glyph glyph-name="periodcentered" unicode="&#xb7;" horiz-adv-x="608" 
d="M176 669q0 55 36.5 91.5t91.5 36.5t91.5 -36.5t36.5 -91.5t-36.5 -91.5t-91.5 -36.5t-91.5 36.5t-36.5 91.5z" />
    <glyph glyph-name="cedilla" unicode="&#xb8;" horiz-adv-x="851" 
d="M373 -214q-16 0 -34 -2q-24 -3 -40 16q-8 10 -7 26t9 30l66 119q14 25 47 25h62q25 0 30.5 -12.5t-3.5 -22.5l-52 -83q86 -16 137.5 -72t51.5 -129q0 -91 -74 -152t-184 -61q-77 0 -140 31q-22 10 -26 32t7 32l20 27q19 27 51 10q34 -18 79 -18q53 0 87.5 29.5t34.5 72.5
t-34.5 72.5t-87.5 29.5z" />
    <glyph glyph-name="onesuperior" unicode="&#xb9;" 
d="M478 1434q68 0 68 -68v-836q0 -67 -68 -67h-31q-67 0 -67 67v735l-113 -61q-60 -32 -91 28l-1 2q-31 60 28 91l163 87q41 22 83 22h29z" />
    <glyph glyph-name="ordmasculine" unicode="&#xba;" horiz-adv-x="933" 
d="M66 1061q0 163 116.5 276t284.5 113t284.5 -113t116.5 -276t-116.5 -276t-284.5 -113t-284.5 113t-116.5 276zM231 1061q0 -102 68 -171t168 -69t167.5 69t67.5 171t-67.5 170.5t-167.5 68.5q-101 0 -168.5 -68.5t-67.5 -170.5z" />
    <glyph glyph-name="guillemotright" unicode="&#xbb;" horiz-adv-x="1301" 
d="M1194 639q0 -49 -45 -77l-439 -276q-35 -22 -58.5 -9t-23.5 54v23q0 53 45 81l332 204l-332 204q-45 28 -45 81v23q0 41 23.5 54t58.5 -9l439 -276q45 -28 45 -77zM692 639q0 -49 -45 -77l-439 -276q-35 -22 -58.5 -9t-23.5 54v23q0 53 45 81l332 204l-332 204
q-45 28 -45 81v23q0 41 23.5 54t58.5 -9l439 -276q45 -28 45 -77z" />
    <glyph glyph-name="onequarter" unicode="&#xbc;" horiz-adv-x="1956" 
d="M478 1434q68 0 68 -68v-836q0 -67 -68 -67h-31q-67 0 -67 67v735l-113 -61q-60 -32 -91 28l-1 2q-31 60 28 91l163 87q41 22 83 22h29zM1223 1384q23 50 80 50h18q39 0 53 -22.5t-3 -57.5l-637 -1305q-22 -49 -80 -49h-18q-39 0 -53 22.5t3 57.5zM1186 274q0 46 25 84
l388 570q28 43 82 43h38q32 0 50 -17.5t18 -50.5v-569h44q67 0 67 -68v-7q0 -68 -67 -68h-44v-123q0 -68 -68 -68h-30q-68 0 -68 68v123h-368q-67 0 -67 68v15zM1621 333v377l-252 -377h252z" />
    <glyph glyph-name="onehalf" unicode="&#xbd;" horiz-adv-x="1956" 
d="M478 1434q68 0 68 -68v-836q0 -67 -68 -67h-31q-67 0 -67 67v735l-113 -61q-60 -32 -91 28l-1 2q-31 60 28 91l163 87q41 22 83 22h29zM1223 1384q23 50 80 50h18q39 0 53 -22.5t-3 -57.5l-637 -1305q-22 -49 -80 -49h-18q-39 0 -53 22.5t3 57.5zM1461 136h318
q67 0 67 -67v-1q0 -68 -67 -68h-470q-68 0 -68 68v5q0 48 33 84l313 344q56 62 79.5 110t23.5 100q0 65 -42.5 106.5t-109.5 41.5q-94 0 -144 -89q-33 -58 -87 -38l-20 7q-31 12 -42 34.5t3 52.5q39 81 114.5 125t175.5 44q138 0 228.5 -78.5t90.5 -205.5q0 -78 -33.5 -146
t-107.5 -149z" />
    <glyph glyph-name="threequarters" unicode="&#xbe;" horiz-adv-x="1956" 
d="M559 764q0 78 -54.5 132.5t-135.5 54.5h-12q-60 -5 -89 32q-28 37 12 83l195 229h-297q-67 0 -67 68v3q0 68 67 68h434q32 0 50 -17.5t18 -50.5v-10q0 -48 -32 -84l-185 -214q116 -20 189 -104.5t73 -201.5q0 -126 -98.5 -220t-253.5 -94q-167 0 -277 121q-43 49 10 95
l11 9q48 41 94 -11q73 -78 158 -78q81 0 135.5 55t54.5 135zM1223 1384q23 50 80 50h18q39 0 53 -22.5t-3 -57.5l-637 -1305q-22 -49 -80 -49h-18q-39 0 -53 22.5t3 57.5zM1186 274q0 46 25 84l388 570q28 43 82 43h38q32 0 50 -17.5t18 -50.5v-569h44q67 0 67 -68v-7
q0 -68 -67 -68h-44v-123q0 -68 -68 -68h-30q-68 0 -68 68v123h-368q-67 0 -67 68v15zM1621 333v377l-252 -377h252z" />
    <glyph glyph-name="questiondown" unicode="&#xbf;" horiz-adv-x="1119" 
d="M729 356q0 -63 -67 -69q-158 -14 -248.5 -90.5t-90.5 -187.5q0 -101 87.5 -168.5t224.5 -67.5q122 0 246 84q56 39 94 -14l22 -30q40 -56 -13 -95q-166 -115 -371 -115q-107 0 -199 33.5t-154 89.5t-97.5 130t-35.5 154q0 151 112 263t298 139v173q0 67 67 67h58
q67 0 67 -67v-229zM758 958q0 -54 -36 -90.5t-91 -36.5t-91 36.5t-36 90.5q0 55 36 91t91 36t91 -36t36 -91z" />
    <glyph glyph-name="Agrave" unicode="&#xc0;" horiz-adv-x="1394" 
d="M1193 0q-58 0 -77 54l-114 316h-610l-113 -316q-19 -54 -77 -54h-70q-37 0 -51.5 21.5t-1.5 56.5l490 1302q19 54 78 54h101q58 0 77 -54l491 -1302q13 -35 -1.5 -56.5t-51.5 -21.5h-70zM945 537l-248 684l-247 -684h495zM783 1629q27 -34 15.5 -58.5t-54.5 -24.5h-27
q-49 0 -82 39l-186 223q-28 34 -16.5 58.5t54.5 24.5h33q50 0 82 -39z" />
    <glyph glyph-name="Aacute" unicode="&#xc1;" horiz-adv-x="1394" 
d="M1193 0q-58 0 -77 54l-114 316h-610l-113 -316q-19 -54 -77 -54h-70q-37 0 -51.5 21.5t-1.5 56.5l490 1302q19 54 78 54h101q58 0 77 -54l491 -1302q13 -35 -1.5 -56.5t-51.5 -21.5h-70zM945 537l-248 684l-247 -684h495zM788 1852q32 39 82 39h33q43 0 55 -24.5
t-16 -58.5l-185 -223q-33 -39 -83 -39h-28q-43 0 -54.5 24.5t15.5 58.5z" />
    <glyph glyph-name="Acircumflex" unicode="&#xc2;" horiz-adv-x="1394" 
d="M1193 0q-58 0 -77 54l-114 316h-610l-113 -316q-19 -54 -77 -54h-70q-37 0 -51.5 21.5t-1.5 56.5l490 1302q19 54 78 54h101q58 0 77 -54l491 -1302q13 -35 -1.5 -56.5t-51.5 -21.5h-70zM945 537l-248 684l-247 -684h495zM989 1629q28 -33 17 -58t-55 -25h-24
q-49 0 -83 38l-147 166l-146 -166q-34 -38 -83 -38h-25q-43 0 -54.5 25t17.5 58l194 224q32 38 83 38h29q51 0 83 -38z" />
    <glyph glyph-name="Atilde" unicode="&#xc3;" horiz-adv-x="1394" 
d="M1193 0q-58 0 -77 54l-114 316h-610l-113 -316q-19 -54 -77 -54h-70q-37 0 -51.5 21.5t-1.5 56.5l490 1302q19 54 78 54h101q58 0 77 -54l491 -1302q13 -35 -1.5 -56.5t-51.5 -21.5h-70zM945 537l-248 684l-247 -684h495zM692 1618q-5 4 -22.5 17t-25 18t-21 13t-24 11
t-21.5 3q-34 0 -52 -40q-27 -62 -82 -51l-25 5q-34 7 -47.5 28.5t-2.5 53.5q52 150 174 150q78 0 159 -60q3 -2 22.5 -16.5t25.5 -18.5t20.5 -12.5t25 -11.5t21.5 -3q33 0 51 40q27 62 82 51l26 -5q34 -7 47.5 -28.5t2.5 -53.5q-51 -149 -174 -149q-80 0 -160 59z" />
    <glyph glyph-name="Adieresis" unicode="&#xc4;" horiz-adv-x="1394" 
d="M1193 0q-58 0 -77 54l-114 316h-610l-113 -316q-19 -54 -77 -54h-70q-37 0 -51.5 21.5t-1.5 56.5l490 1302q19 54 78 54h101q58 0 77 -54l491 -1302q13 -35 -1.5 -56.5t-51.5 -21.5h-70zM945 537l-248 684l-247 -684h495zM398 1704q0 49 33.5 82.5t82.5 33.5t82.5 -33.5
t33.5 -82.5q0 -50 -33 -83t-83 -33t-83 33t-33 83zM765 1704q0 49 33.5 82.5t82.5 33.5t82 -33.5t33 -82.5q0 -50 -33 -83t-82 -33t-82.5 33t-33.5 83z" />
    <glyph glyph-name="Aring" unicode="&#xc5;" horiz-adv-x="1394" 
d="M1193 0q-58 0 -77 54l-114 316h-610l-113 -316q-19 -54 -77 -54h-70q-37 0 -51.5 21.5t-1.5 56.5l490 1302q19 54 78 54h101q58 0 77 -54l491 -1302q13 -35 -1.5 -56.5t-51.5 -21.5h-70zM945 537l-248 684l-247 -684h495zM604 1726q0 -39 26.5 -65t66.5 -26t67 26t27 65
t-27 65.5t-67 26.5t-66.5 -26.5t-26.5 -65.5zM482 1726q0 86 61.5 143t153.5 57t153.5 -57t61.5 -143q0 -85 -61.5 -142t-153.5 -57t-153.5 57t-61.5 142z" />
    <glyph glyph-name="AE" unicode="&#xc6;" horiz-adv-x="1890" 
d="M112 0q-40 0 -53.5 23t6.5 58l750 1307q26 46 80 46h791q67 0 67 -68v-32q0 -67 -67 -67h-569v-463h517q68 0 68 -68v-31q0 -32 -17.5 -50t-50.5 -18h-517v-470h587q68 0 68 -68v-31q0 -32 -17.5 -50t-50.5 -18h-712q-67 0 -67 68v302h-479l-182 -323q-26 -47 -81 -47
h-71zM925 537v681l-385 -681h385z" />
    <glyph glyph-name="Ccedilla" unicode="&#xc7;" horiz-adv-x="1400" 
d="M773 -214q-16 0 -34 -2q-24 -3 -40 16q-8 10 -7 26t9 30l68 122q-194 16 -350.5 116.5t-246 264t-89.5 358.5q0 154 58.5 291.5t158.5 236t240 156t297 57.5q230 0 418 -121q56 -36 18 -93l-23 -34q-38 -54 -94 -19q-157 97 -319 97q-115 0 -218 -44.5t-177.5 -120.5
t-118.5 -182t-44 -224q0 -158 74 -289.5t202.5 -207t281.5 -75.5q172 0 333 105q56 41 95 -14l24 -35q40 -57 -15 -95q-161 -110 -365 -128l-58 -96q86 -16 137.5 -72t51.5 -129q0 -91 -74 -152t-184 -61q-77 0 -140 31q-22 10 -25.5 32t7.5 32l19 27q19 27 51 10
q34 -18 79 -18q53 0 87.5 29.5t34.5 72.5t-34.5 72.5t-87.5 29.5z" />
    <glyph glyph-name="Egrave" unicode="&#xc8;" horiz-adv-x="1156" 
d="M172 1366q0 32 17.5 50t50.5 18h711q68 0 68 -68v-32q0 -67 -68 -67h-586v-463h534q32 0 50 -17.5t18 -50.5v-31q0 -32 -17.5 -50t-50.5 -18h-534v-470h605q67 0 67 -68v-31q0 -68 -67 -68h-730q-32 0 -50 17.5t-18 50.5v1298zM667 1629q27 -34 15.5 -58.5t-54.5 -24.5
h-28q-49 0 -82 39l-186 223q-28 34 -16 58.5t55 24.5h32q50 0 82 -39z" />
    <glyph glyph-name="Eacute" unicode="&#xc9;" horiz-adv-x="1156" 
d="M172 1366q0 32 17.5 50t50.5 18h711q68 0 68 -68v-32q0 -67 -68 -67h-586v-463h534q32 0 50 -17.5t18 -50.5v-31q0 -32 -17.5 -50t-50.5 -18h-534v-470h605q67 0 67 -68v-31q0 -68 -67 -68h-730q-32 0 -50 17.5t-18 50.5v1298zM710 1852q32 39 82 39h32q43 0 55 -24.5
t-16 -58.5l-185 -223q-33 -39 -83 -39h-28q-43 0 -54.5 24.5t15.5 58.5z" />
    <glyph glyph-name="Ecircumflex" unicode="&#xca;" horiz-adv-x="1156" 
d="M172 1366q0 32 17.5 50t50.5 18h711q68 0 68 -68v-32q0 -67 -68 -67h-586v-463h534q32 0 50 -17.5t18 -50.5v-31q0 -32 -17.5 -50t-50.5 -18h-534v-470h605q67 0 67 -68v-31q0 -68 -67 -68h-730q-32 0 -50 17.5t-18 50.5v1298zM888 1629q28 -33 17 -58t-55 -25h-25
q-49 0 -83 38l-146 166l-146 -166q-34 -38 -83 -38h-25q-44 0 -55 25t17 58l195 224q32 38 83 38h28q51 0 83 -38z" />
    <glyph glyph-name="Edieresis" unicode="&#xcb;" horiz-adv-x="1156" 
d="M172 1366q0 32 17.5 50t50.5 18h711q68 0 68 -68v-32q0 -67 -68 -67h-586v-463h534q32 0 50 -17.5t18 -50.5v-31q0 -32 -17.5 -50t-50.5 -18h-534v-470h605q67 0 67 -68v-31q0 -68 -67 -68h-730q-32 0 -50 17.5t-18 50.5v1298zM295 1704q0 49 33.5 82.5t82.5 33.5
t82 -33.5t33 -82.5q0 -50 -33 -83t-82 -33t-82.5 33t-33.5 83zM662 1704q0 49 33 82.5t82 33.5t82.5 -33.5t33.5 -82.5q0 -50 -33.5 -83t-82.5 -33t-82 33t-33 83z" />
    <glyph glyph-name="Igrave" unicode="&#xcc;" horiz-adv-x="583" 
d="M321 1434q67 0 67 -68v-1298q0 -68 -67 -68h-58q-67 0 -67 68v1298q0 68 67 68h58zM377 1629q27 -34 15.5 -58.5t-54.5 -24.5h-28q-49 0 -82 39l-186 223q-28 34 -16 58.5t55 24.5h33q50 0 82 -39z" />
    <glyph glyph-name="Iacute" unicode="&#xcd;" horiz-adv-x="583" 
d="M321 1434q67 0 67 -68v-1298q0 -68 -67 -68h-58q-67 0 -67 68v1298q0 68 67 68h58zM388 1852q32 39 82 39h33q43 0 55 -24.5t-16 -58.5l-186 -223q-33 -39 -83 -39h-27q-43 0 -54.5 24.5t15.5 58.5z" />
    <glyph glyph-name="Icircumflex" unicode="&#xce;" horiz-adv-x="583" 
d="M321 1434q67 0 67 -68v-1298q0 -68 -67 -68h-58q-67 0 -67 68v1298q0 68 67 68h58zM584 1629q28 -33 17 -58t-55 -25h-25q-49 0 -83 38l-146 166l-147 -166q-34 -38 -83 -38h-24q-44 0 -55 25t17 58l195 224q32 38 83 38h28q51 0 83 -38z" />
    <glyph glyph-name="Idieresis" unicode="&#xcf;" horiz-adv-x="583" 
d="M321 1434q67 0 67 -68v-1298q0 -68 -67 -68h-58q-67 0 -67 68v1298q0 68 67 68h58zM-7 1704q0 49 33.5 82.5t82.5 33.5t82 -33.5t33 -82.5q0 -50 -33 -83t-82 -33t-82.5 33t-33.5 83zM359 1704q0 49 33.5 82.5t82.5 33.5t82.5 -33.5t33.5 -82.5q0 -50 -33.5 -83
t-82.5 -33t-82.5 33t-33.5 83z" />
    <glyph glyph-name="Eth" unicode="&#xd0;" horiz-adv-x="1486" 
d="M698 1434q324 0 515 -194.5t191 -522.5q0 -329 -191 -523t-515 -194h-418q-32 0 -50 17.5t-18 50.5v576h-120q-67 0 -67 68v10q0 68 67 68h120v576q0 32 17.5 50t50.5 18h418zM404 1264v-474h247q68 0 68 -68v-10q0 -68 -68 -68h-247v-474h294q233 0 371.5 142t138.5 405
t-138.5 405t-371.5 142h-294z" />
    <glyph glyph-name="Ntilde" unicode="&#xd1;" horiz-adv-x="1432" 
d="M172 1366q0 32 17.5 50t50.5 18h65q54 0 81 -44l688 -1056v1032q0 68 68 68h51q32 0 50 -17.5t18 -50.5v-1298q0 -68 -68 -68h-66q-53 0 -80 44l-689 1056v-1032q0 -68 -67 -68h-51q-32 0 -50 17.5t-18 50.5v1298zM711 1618q-3 2 -22.5 16.5t-25.5 18.5t-20.5 12.5
t-25 11.5t-21.5 3q-33 0 -51 -40q-27 -62 -82 -51l-26 5q-34 7 -47.5 28.5t-2.5 53.5q52 150 174 150q79 0 160 -60q3 -2 22.5 -16.5t25.5 -18.5t20.5 -12.5t25 -11.5t21.5 -3q33 0 51 40q27 62 82 51l25 -5q34 -7 47.5 -28.5t2.5 -53.5q-51 -149 -174 -149q-79 0 -159 59z
" />
    <glyph glyph-name="Ograve" unicode="&#xd2;" horiz-adv-x="1673" 
d="M837 145q153 0 281.5 75.5t202.5 207t74 289.5q0 118 -44 224t-118.5 182t-177.5 120.5t-218 44.5t-218 -44.5t-177.5 -120.5t-118.5 -182t-44 -224q0 -158 74 -289.5t202.5 -207t281.5 -75.5zM837 1458q209 0 382 -97.5t272 -267.5t99 -376q0 -154 -58.5 -291.5
t-158.5 -236.5t-239.5 -156.5t-296.5 -57.5t-297 57.5t-240 156t-158.5 236.5t-58.5 292t58.5 291.5t158.5 236t240 156t297 57.5zM918 1629q27 -34 15.5 -58.5t-54.5 -24.5h-28q-49 0 -82 39l-186 223q-28 34 -16 58.5t55 24.5h32q50 0 82 -39z" />
    <glyph glyph-name="Oacute" unicode="&#xd3;" horiz-adv-x="1673" 
d="M837 145q153 0 281.5 75.5t202.5 207t74 289.5q0 118 -44 224t-118.5 182t-177.5 120.5t-218 44.5t-218 -44.5t-177.5 -120.5t-118.5 -182t-44 -224q0 -158 74 -289.5t202.5 -207t281.5 -75.5zM837 1458q209 0 382 -97.5t272 -267.5t99 -376q0 -154 -58.5 -291.5
t-158.5 -236.5t-239.5 -156.5t-296.5 -57.5t-297 57.5t-240 156t-158.5 236.5t-58.5 292t58.5 291.5t158.5 236t240 156t297 57.5zM938 1852q32 39 82 39h33q43 0 55 -24.5t-16 -58.5l-186 -223q-33 -39 -83 -39h-27q-43 0 -54.5 24.5t15.5 58.5z" />
    <glyph glyph-name="Ocircumflex" unicode="&#xd4;" horiz-adv-x="1673" 
d="M837 145q153 0 281.5 75.5t202.5 207t74 289.5q0 118 -44 224t-118.5 182t-177.5 120.5t-218 44.5t-218 -44.5t-177.5 -120.5t-118.5 -182t-44 -224q0 -158 74 -289.5t202.5 -207t281.5 -75.5zM837 1458q209 0 382 -97.5t272 -267.5t99 -376q0 -154 -58.5 -291.5
t-158.5 -236.5t-239.5 -156.5t-296.5 -57.5t-297 57.5t-240 156t-158.5 236.5t-58.5 292t58.5 291.5t158.5 236t240 156t297 57.5zM1128 1629q29 -33 17.5 -58t-54.5 -25h-25q-49 0 -83 38l-146 166l-147 -166q-34 -38 -83 -38h-24q-44 0 -55 25t17 58l194 224q32 38 83 38
h29q51 0 83 -38z" />
    <glyph glyph-name="Otilde" unicode="&#xd5;" horiz-adv-x="1673" 
d="M837 145q153 0 281.5 75.5t202.5 207t74 289.5q0 118 -44 224t-118.5 182t-177.5 120.5t-218 44.5t-218 -44.5t-177.5 -120.5t-118.5 -182t-44 -224q0 -158 74 -289.5t202.5 -207t281.5 -75.5zM837 1458q209 0 382 -97.5t272 -267.5t99 -376q0 -154 -58.5 -291.5
t-158.5 -236.5t-239.5 -156.5t-296.5 -57.5t-297 57.5t-240 156t-158.5 236.5t-58.5 292t58.5 291.5t158.5 236t240 156t297 57.5zM831 1618q-5 4 -22.5 17t-25 18t-21 13t-24 11t-21.5 3q-33 0 -51 -40q-27 -62 -82 -51l-26 5q-34 7 -47.5 28.5t-2.5 53.5q52 150 174 150
q79 0 160 -60q5 -4 22.5 -17t25 -18t21 -13t24 -11t21.5 -3q34 0 52 40q27 62 82 51l25 -5q34 -7 47.5 -28.5t2.5 -53.5q-51 -149 -174 -149q-80 0 -160 59z" />
    <glyph glyph-name="Odieresis" unicode="&#xd6;" horiz-adv-x="1673" 
d="M837 145q153 0 281.5 75.5t202.5 207t74 289.5q0 118 -44 224t-118.5 182t-177.5 120.5t-218 44.5t-218 -44.5t-177.5 -120.5t-118.5 -182t-44 -224q0 -158 74 -289.5t202.5 -207t281.5 -75.5zM837 1458q209 0 382 -97.5t272 -267.5t99 -376q0 -154 -58.5 -291.5
t-158.5 -236.5t-239.5 -156.5t-296.5 -57.5t-297 57.5t-240 156t-158.5 236.5t-58.5 292t58.5 291.5t158.5 236t240 156t297 57.5zM538 1704q0 49 33 82.5t82 33.5t82.5 -33.5t33.5 -82.5q0 -50 -33.5 -83t-82.5 -33t-82 33t-33 83zM904 1704q0 49 33.5 82.5t82.5 33.5
t82.5 -33.5t33.5 -82.5q0 -50 -33 -83t-83 -33t-83 33t-33 83z" />
    <glyph glyph-name="multiply" unicode="&#xd7;" horiz-adv-x="1175" 
d="M462 676l-264 266q-47 48 1 96l29 30q49 49 97 0l263 -266l263 266q47 49 96 0l30 -30q48 -48 1 -96l-265 -266l265 -266q47 -49 -1 -97l-30 -29q-48 -48 -96 0l-263 265l-263 -265q-49 -48 -97 0l-29 29q-48 48 -1 97z" />
    <glyph glyph-name="Oslash" unicode="&#xd8;" horiz-adv-x="1673" 
d="M837 1458q219 0 396 -107l82 104q31 40 83 40h19q43 0 55 -24.5t-14 -58.5l-112 -142q116 -103 180 -246t64 -307q0 -154 -58.5 -291.5t-158.5 -236.5t-239.5 -156.5t-296.5 -57.5q-231 0 -417 119l-90 -116q-31 -39 -83 -39h-20q-43 0 -54.5 24.5t14.5 58.5l124 157
q-108 101 -168 240t-60 298q0 154 58.5 291.5t158.5 236t240 156t297 57.5zM837 145q153 0 281.5 75.5t202.5 207t74 289.5q0 118 -43.5 223t-120.5 184l-700 -888q139 -91 306 -91zM279 717q0 -230 147 -391l696 883q-133 79 -285 79q-115 0 -218 -44.5t-177.5 -120.5
t-118.5 -182t-44 -224z" />
    <glyph glyph-name="Ugrave" unicode="&#xd9;" horiz-adv-x="1357" 
d="M1199 501q0 -155 -69 -275.5t-187 -184.5t-264 -64t-264 64t-187 184.5t-69 275.5v865q0 68 67 68h58q67 0 67 -68v-887q0 -148 93.5 -240t234.5 -92t234.5 92t93.5 240v887q0 68 67 68h58q67 0 67 -68v-865zM752 1629q27 -34 15.5 -58.5t-54.5 -24.5h-28q-49 0 -82 39
l-186 223q-28 34 -16 58.5t55 24.5h32q50 0 82 -39z" />
    <glyph glyph-name="Uacute" unicode="&#xda;" horiz-adv-x="1357" 
d="M1199 501q0 -155 -69 -275.5t-187 -184.5t-264 -64t-264 64t-187 184.5t-69 275.5v865q0 68 67 68h58q67 0 67 -68v-887q0 -148 93.5 -240t234.5 -92t234.5 92t93.5 240v887q0 68 67 68h58q67 0 67 -68v-865zM791 1852q32 39 81 39h33q43 0 55 -24.5t-16 -58.5l-185 -223
q-33 -39 -83 -39h-28q-43 0 -54.5 24.5t15.5 58.5z" />
    <glyph glyph-name="Ucircumflex" unicode="&#xdb;" horiz-adv-x="1357" 
d="M1199 501q0 -155 -69 -275.5t-187 -184.5t-264 -64t-264 64t-187 184.5t-69 275.5v865q0 68 67 68h58q67 0 67 -68v-887q0 -148 93.5 -240t234.5 -92t234.5 92t93.5 240v887q0 68 67 68h58q67 0 67 -68v-865zM971 1629q28 -33 17 -58t-55 -25h-25q-49 0 -83 38l-146 166
l-147 -166q-34 -38 -82 -38h-25q-44 0 -55 25t17 58l195 224q32 38 83 38h28q51 0 83 -38z" />
    <glyph glyph-name="Udieresis" unicode="&#xdc;" horiz-adv-x="1357" 
d="M1199 501q0 -155 -69 -275.5t-187 -184.5t-264 -64t-264 64t-187 184.5t-69 275.5v865q0 68 67 68h58q67 0 67 -68v-887q0 -148 93.5 -240t234.5 -92t234.5 92t93.5 240v887q0 68 67 68h58q67 0 67 -68v-865zM380 1704q0 49 33.5 82.5t82.5 33.5t82 -33.5t33 -82.5
q0 -50 -33 -83t-82 -33q-50 0 -83 33t-33 83zM746 1704q0 49 33.5 82.5t82.5 33.5t82.5 -33.5t33.5 -82.5q0 -50 -33 -83t-83 -33t-83 33t-33 83z" />
    <glyph glyph-name="Yacute" unicode="&#xdd;" horiz-adv-x="1316" 
d="M658 776l375 613q28 45 81 45h60q41 0 54 -23t-8 -58l-465 -765v-520q0 -32 -17.5 -50t-50.5 -18h-57q-68 0 -68 68v520l-465 765q-21 35 -8 58t54 23h60q53 0 81 -45zM773 1852q32 39 82 39h33q43 0 55 -24.5t-16 -58.5l-186 -223q-33 -39 -83 -39h-27q-43 0 -54.5 24.5
t15.5 58.5z" />
    <glyph glyph-name="Thorn" unicode="&#xde;" horiz-adv-x="1198" 
d="M365 270v-202q0 -68 -68 -68h-57q-68 0 -68 68v1298q0 68 68 68h57q68 0 68 -68v-203h265q227 0 359.5 -121t132.5 -325t-132.5 -325.5t-359.5 -121.5h-265zM927 717q0 129 -80.5 204t-223.5 75h-258v-559h258q143 0 223.5 75.5t80.5 204.5z" />
    <glyph glyph-name="germandbls" unicode="&#xdf;" horiz-adv-x="1244" 
d="M159 1051q0 181 119 294t301 113q177 0 297 -107t120 -260q0 -107 -66 -191.5t-175 -122.5q173 -26 285.5 -135t112.5 -261q0 -172 -135.5 -289t-336.5 -117q-98 0 -185 34q-57 20 -39 86l10 37q17 64 86 37t128 -27q117 0 196.5 69t79.5 170q0 119 -99 200.5t-271 99.5
q-67 6 -67 70v31q0 59 64 73q97 22 157 82t60 145q0 87 -64.5 148t-157.5 61q-98 0 -163 -65.5t-65 -166.5v-991q0 -68 -67 -68h-58q-67 0 -67 68v983z" />
    <glyph glyph-name="agrave" unicode="&#xe0;" horiz-adv-x="1328" 
d="M649 142q112 0 204 57.5t139 152.5v354q-47 96 -139 154.5t-204 58.5q-162 0 -273 -113.5t-111 -275.5q0 -161 111 -274.5t273 -113.5zM618 1085q227 0 374 -161v69q0 68 68 68h51q32 0 50 -17.5t18 -50.5v-925q0 -32 -17.5 -50t-50.5 -18h-51q-32 0 -50 17.5t-18 50.5
v69q-147 -162 -374 -162q-154 0 -279 76t-194 203t-69 276t69 276t194 203t279 76zM724 1297q27 -34 15.5 -58.5t-54.5 -24.5h-28q-49 0 -82 39l-186 224q-28 34 -16 58.5t55 24.5h33q50 0 82 -39z" />
    <glyph glyph-name="aacute" unicode="&#xe1;" horiz-adv-x="1328" 
d="M649 142q112 0 204 57.5t139 152.5v354q-47 96 -139 154.5t-204 58.5q-162 0 -273 -113.5t-111 -275.5q0 -161 111 -274.5t273 -113.5zM618 1085q227 0 374 -161v69q0 68 68 68h51q32 0 50 -17.5t18 -50.5v-925q0 -32 -17.5 -50t-50.5 -18h-51q-32 0 -50 17.5t-18 50.5
v69q-147 -162 -374 -162q-154 0 -279 76t-194 203t-69 276t69 276t194 203t279 76zM719 1521q32 39 82 39h33q43 0 54.5 -24.5t-16.5 -58.5l-185 -224q-33 -39 -83 -39h-27q-43 0 -54.5 24.5t15.5 58.5z" />
    <glyph glyph-name="acircumflex" unicode="&#xe2;" horiz-adv-x="1328" 
d="M649 142q112 0 204 57.5t139 152.5v354q-47 96 -139 154.5t-204 58.5q-162 0 -273 -113.5t-111 -275.5q0 -161 111 -274.5t273 -113.5zM618 1085q227 0 374 -161v69q0 68 68 68h51q32 0 50 -17.5t18 -50.5v-925q0 -32 -17.5 -50t-50.5 -18h-51q-32 0 -50 17.5t-18 50.5
v69q-147 -162 -374 -162q-154 0 -279 76t-194 203t-69 276t69 276t194 203t279 76zM938 1297q28 -33 17 -58t-55 -25h-24q-49 0 -83 38l-147 166l-146 -166q-34 -38 -83 -38h-25q-44 0 -55 25t17 58l195 225q32 38 83 38h28q51 0 83 -38z" />
    <glyph glyph-name="atilde" unicode="&#xe3;" horiz-adv-x="1328" 
d="M649 142q112 0 204 57.5t139 152.5v354q-47 96 -139 154.5t-204 58.5q-162 0 -273 -113.5t-111 -275.5q0 -161 111 -274.5t273 -113.5zM618 1085q227 0 374 -161v69q0 68 68 68h51q32 0 50 -17.5t18 -50.5v-925q0 -32 -17.5 -50t-50.5 -18h-51q-32 0 -50 17.5t-18 50.5
v69q-147 -162 -374 -162q-154 0 -279 76t-194 203t-69 276t69 276t194 203t279 76zM628 1286q-6 4 -23 17t-25 18.5t-21.5 13.5t-24 11t-21.5 3q-33 0 -51 -40q-27 -63 -82 -52l-26 6q-34 7 -47.5 28.5t-2.5 53.5q51 149 174 149q80 0 160 -59q6 -4 23 -17t25 -18.5
t21.5 -13.5t24 -11t21.5 -3q33 0 51 40q27 62 82 51l25 -5q34 -7 48 -28.5t3 -53.5q-51 -149 -175 -149q-79 0 -159 59z" />
    <glyph glyph-name="adieresis" unicode="&#xe4;" horiz-adv-x="1328" 
d="M649 142q112 0 204 57.5t139 152.5v354q-47 96 -139 154.5t-204 58.5q-162 0 -273 -113.5t-111 -275.5q0 -161 111 -274.5t273 -113.5zM618 1085q227 0 374 -161v69q0 68 68 68h51q32 0 50 -17.5t18 -50.5v-925q0 -32 -17.5 -50t-50.5 -18h-51q-32 0 -50 17.5t-18 50.5
v69q-147 -162 -374 -162q-154 0 -279 76t-194 203t-69 276t69 276t194 203t279 76zM332 1372q0 49 33 82.5t82 33.5t82.5 -33.5t33.5 -82.5q0 -50 -33.5 -83t-82.5 -33t-82 33t-33 83zM698 1372q0 49 33.5 82.5t82.5 33.5t82.5 -33.5t33.5 -82.5q0 -50 -33 -83t-83 -33
t-83 33t-33 83z" />
    <glyph glyph-name="aring" unicode="&#xe5;" horiz-adv-x="1328" 
d="M649 142q112 0 204 57.5t139 152.5v354q-47 96 -139 154.5t-204 58.5q-162 0 -273 -113.5t-111 -275.5q0 -161 111 -274.5t273 -113.5zM618 1085q227 0 374 -161v69q0 68 68 68h51q32 0 50 -17.5t18 -50.5v-925q0 -32 -17.5 -50t-50.5 -18h-51q-32 0 -50 17.5t-18 50.5
v69q-147 -162 -374 -162q-154 0 -279 76t-194 203t-69 276t69 276t194 203t279 76zM538 1395q0 -39 26.5 -65t66.5 -26t66.5 26t26.5 65t-26.5 65t-66.5 26t-66.5 -26t-26.5 -65zM416 1395q0 85 61.5 142t153.5 57t153.5 -57t61.5 -142q0 -86 -61.5 -143t-153.5 -57
t-153.5 57t-61.5 143z" />
    <glyph glyph-name="ae" unicode="&#xe6;" horiz-adv-x="2072" 
d="M1096 472q15 -144 121 -240t256 -96q156 0 281 108q49 43 95 1l30 -27q52 -49 2 -96q-162 -147 -404 -147q-147 0 -268 62.5t-191 167.5q-69 -106 -187 -168t-258 -62q-213 0 -355 100.5t-142 248.5q0 141 139 237t337 96q98 0 196.5 -27.5t163.5 -70.5q-1 8 -1 26
q0 2 3 41q-7 133 -105 216t-241 83q-147 0 -283 -86q-62 -41 -92 21l-12 23q-27 58 23 92q167 110 369 110q146 0 264.5 -63t178.5 -175q68 109 186 173.5t259 64.5q115 0 215.5 -42t170.5 -113.5t110 -169.5t40 -206v-19q-3 -63 -72 -63h-829zM583 136q115 0 204.5 49
t136.5 134q-10 63 -11 97q-59 46 -146.5 71t-182.5 25q-138 0 -230 -54.5t-92 -133.5q0 -78 92 -133t229 -55zM1461 925q-129 0 -229.5 -85t-128.5 -213h699q-23 130 -116.5 214t-224.5 84z" />
    <glyph glyph-name="ccedilla" unicode="&#xe7;" horiz-adv-x="1124" 
d="M579 -214q-16 0 -34 -2q-24 -3 -40 16q-8 10 -7 26t9 30l70 124q-219 25 -360 180.5t-141 369.5q0 113 43.5 215.5t118.5 177t182 118.5t229 44q185 0 335 -100q53 -38 15 -94l-22 -34q-36 -55 -94 -15q-114 77 -234 77q-162 0 -273 -113.5t-111 -275.5
q0 -161 111 -274.5t273 -113.5q131 0 244 84q54 41 95 -9l25 -32q42 -53 -3 -90q-127 -99 -293 -115l-61 -98q86 -16 138 -72t52 -129q0 -91 -74 -152t-184 -61q-78 0 -141 31q-22 10 -25.5 32t7.5 32l20 27q19 27 51 10q34 -18 79 -18q53 0 87 29.5t34 72.5t-34 72.5
t-87 29.5z" />
    <glyph glyph-name="egrave" unicode="&#xe8;" horiz-adv-x="1253" 
d="M266 472q15 -144 122 -240t259 -96q160 0 288 109q49 42 95 0l30 -27q53 -49 1 -95q-168 -148 -409 -148q-127 0 -235.5 43.5t-182.5 118.5t-116 177t-42 216q0 152 72 279t201.5 201.5t287.5 74.5q116 0 217.5 -42t172 -113.5t111 -169.5t40.5 -206q0 -13 -1 -19
q-1 -31 -20 -47t-51 -16h-840zM637 925q-131 0 -233.5 -85t-130.5 -213h709q-22 130 -117.5 214t-227.5 84zM722 1297q27 -34 15.5 -58.5t-54.5 -24.5h-28q-49 0 -82 39l-186 224q-28 34 -16 58.5t55 24.5h33q50 0 82 -39z" />
    <glyph glyph-name="eacute" unicode="&#xe9;" horiz-adv-x="1253" 
d="M266 472q15 -144 122 -240t259 -96q160 0 288 109q49 42 95 0l30 -27q53 -49 1 -95q-168 -148 -409 -148q-127 0 -235.5 43.5t-182.5 118.5t-116 177t-42 216q0 152 72 279t201.5 201.5t287.5 74.5q116 0 217.5 -42t172 -113.5t111 -169.5t40.5 -206q0 -13 -1 -19
q-1 -31 -20 -47t-51 -16h-840zM637 925q-131 0 -233.5 -85t-130.5 -213h709q-22 130 -117.5 214t-227.5 84zM714 1521q32 39 82 39h32q43 0 55 -24.5t-16 -58.5l-185 -224q-33 -39 -83 -39h-28q-43 0 -54.5 24.5t15.5 58.5z" />
    <glyph glyph-name="ecircumflex" unicode="&#xea;" horiz-adv-x="1253" 
d="M266 472q15 -144 122 -240t259 -96q160 0 288 109q49 42 95 0l30 -27q53 -49 1 -95q-168 -148 -409 -148q-127 0 -235.5 43.5t-182.5 118.5t-116 177t-42 216q0 152 72 279t201.5 201.5t287.5 74.5q116 0 217.5 -42t172 -113.5t111 -169.5t40.5 -206q0 -13 -1 -19
q-1 -31 -20 -47t-51 -16h-840zM637 925q-131 0 -233.5 -85t-130.5 -213h709q-22 130 -117.5 214t-227.5 84zM919 1297q28 -33 17 -58t-55 -25h-25q-49 0 -83 38l-146 166l-147 -166q-34 -38 -83 -38h-24q-44 0 -55 25t17 58l194 225q32 38 83 38h29q51 0 83 -38z" />
    <glyph glyph-name="edieresis" unicode="&#xeb;" horiz-adv-x="1253" 
d="M266 472q15 -144 122 -240t259 -96q160 0 288 109q49 42 95 0l30 -27q53 -49 1 -95q-168 -148 -409 -148q-127 0 -235.5 43.5t-182.5 118.5t-116 177t-42 216q0 152 72 279t201.5 201.5t287.5 74.5q116 0 217.5 -42t172 -113.5t111 -169.5t40.5 -206q0 -13 -1 -19
q-1 -31 -20 -47t-51 -16h-840zM637 925q-131 0 -233.5 -85t-130.5 -213h709q-22 130 -117.5 214t-227.5 84zM328 1372q0 49 33 82.5t82 33.5t82.5 -33.5t33.5 -82.5q0 -50 -33.5 -83t-82.5 -33t-82 33t-33 83zM694 1372q0 49 33.5 82.5t82.5 33.5t82.5 -33.5t33.5 -82.5
q0 -50 -33 -83t-83 -33t-83 33t-33 83z" />
    <glyph glyph-name="igrave" unicode="&#xec;" horiz-adv-x="534" 
d="M174 993q0 32 17.5 50t50.5 18h51q67 0 67 -68v-925q0 -68 -67 -68h-51q-32 0 -50 17.5t-18 50.5v925zM342 1297q27 -34 15.5 -58.5t-54.5 -24.5h-28q-48 0 -81 39l-187 224q-28 34 -16 58.5t55 24.5h33q50 0 82 -39z" />
    <glyph glyph-name="iacute" unicode="&#xed;" horiz-adv-x="534" 
d="M174 993q0 32 17.5 50t50.5 18h51q67 0 67 -68v-925q0 -68 -67 -68h-51q-32 0 -50 17.5t-18 50.5v925zM374 1521q32 39 82 39h32q43 0 55 -24.5t-16 -58.5l-185 -224q-33 -39 -83 -39h-28q-43 0 -54 24.5t16 58.5z" />
    <glyph glyph-name="icircumflex" unicode="&#xee;" horiz-adv-x="534" 
d="M174 993q0 32 17.5 50t50.5 18h51q67 0 67 -68v-925q0 -68 -67 -68h-51q-32 0 -50 17.5t-18 50.5v925zM559 1297q28 -33 17 -58t-55 -25h-24q-49 0 -83 38l-147 166l-146 -166q-34 -38 -83 -38h-25q-44 0 -55 25t17 58l195 225q32 38 83 38h29q51 0 83 -38z" />
    <glyph glyph-name="idieresis" unicode="&#xef;" horiz-adv-x="534" 
d="M174 993q0 32 17.5 50t50.5 18h51q67 0 67 -68v-925q0 -68 -67 -68h-51q-32 0 -50 17.5t-18 50.5v925zM-32 1372q0 49 33.5 82.5t82.5 33.5t82.5 -33.5t33.5 -82.5q0 -50 -33 -83t-83 -33t-83 33t-33 83zM335 1372q0 49 33.5 82.5t82.5 33.5t82 -33.5t33 -82.5
q0 -50 -33 -83t-82 -33t-82.5 33t-33.5 83z" />
    <glyph glyph-name="eth" unicode="&#xf0;" horiz-adv-x="1258" 
d="M375 1090q-63 -28 -90 32q-24 54 37 82l189 89q-48 32 -121 69q-37 19 -38.5 44.5t33.5 47.5l22 13q45 28 92 7q105 -53 179 -104l171 81q62 29 90 -33q23 -53 -37 -81l-114 -53q180 -157 282 -362.5t102 -427.5q0 -143 -72.5 -262.5t-198.5 -188t-277 -68.5t-277.5 68.5
t-199 188t-72.5 262.5q0 140 72.5 258.5t192.5 186t259 67.5q181 0 309 -134q-97 196 -278 337zM626 851q-152 0 -257 -102.5t-105 -251.5t105 -252t257 -103q151 0 255.5 103t104.5 252t-104 251.5t-256 102.5z" />
    <glyph glyph-name="ntilde" unicode="&#xf1;" horiz-adv-x="1235" 
d="M336 68q0 -68 -68 -68h-51q-67 0 -67 68v925q0 68 67 68h51q32 0 50 -17.5t18 -50.5v-95q63 82 151.5 134.5t192.5 52.5q189 0 308 -120.5t119 -312.5v-584q0 -32 -17.5 -50t-50.5 -18h-51q-67 0 -67 68v574q0 120 -77.5 198.5t-198.5 78.5q-93 0 -173.5 -62.5
t-135.5 -153.5v-635zM623 1286q-6 4 -23 17t-25 18.5t-21.5 13.5t-24 11t-21.5 3q-33 0 -51 -40q-27 -63 -82 -52l-26 6q-34 7 -47.5 28.5t-2.5 53.5q51 149 174 149q80 0 160 -59q6 -4 23 -17t25 -18.5t21.5 -13.5t24 -11t21.5 -3q33 0 51 40q27 62 82 51l25 -5
q34 -7 47.5 -28.5t2.5 -53.5q-51 -149 -174 -149q-79 0 -159 59z" />
    <glyph glyph-name="ograve" unicode="&#xf2;" horiz-adv-x="1298" 
d="M649 142q162 0 273 113.5t111 274.5q0 162 -111 275.5t-273 113.5t-273 -113.5t-111 -275.5q0 -161 111 -274.5t273 -113.5zM649 1085q122 0 229 -44t182.5 -118.5t119 -177t43.5 -215.5t-43.5 -215.5t-119 -177t-182.5 -118.5t-229 -44t-229 44t-182 118.5t-118.5 177
t-43.5 215.5t43.5 215.5t118.5 177t182 118.5t229 44zM731 1297q27 -34 15.5 -58.5t-54.5 -24.5h-27q-49 0 -82 39l-187 224q-28 34 -16 58.5t55 24.5h33q50 0 82 -39z" />
    <glyph glyph-name="oacute" unicode="&#xf3;" horiz-adv-x="1298" 
d="M649 142q162 0 273 113.5t111 274.5q0 162 -111 275.5t-273 113.5t-273 -113.5t-111 -275.5q0 -161 111 -274.5t273 -113.5zM649 1085q122 0 229 -44t182.5 -118.5t119 -177t43.5 -215.5t-43.5 -215.5t-119 -177t-182.5 -118.5t-229 -44t-229 44t-182 118.5t-118.5 177
t-43.5 215.5t43.5 215.5t118.5 177t182 118.5t229 44zM751 1521q32 39 82 39h32q43 0 55 -24.5t-16 -58.5l-185 -224q-33 -39 -83 -39h-28q-43 0 -54.5 24.5t15.5 58.5z" />
    <glyph glyph-name="ocircumflex" unicode="&#xf4;" horiz-adv-x="1298" 
d="M649 142q162 0 273 113.5t111 274.5q0 162 -111 275.5t-273 113.5t-273 -113.5t-111 -275.5q0 -161 111 -274.5t273 -113.5zM649 1085q122 0 229 -44t182.5 -118.5t119 -177t43.5 -215.5t-43.5 -215.5t-119 -177t-182.5 -118.5t-229 -44t-229 44t-182 118.5t-118.5 177
t-43.5 215.5t43.5 215.5t118.5 177t182 118.5t229 44zM941 1297q28 -33 17 -58t-55 -25h-24q-49 0 -83 38l-147 166l-146 -166q-34 -38 -83 -38h-25q-44 0 -55 25t17 58l195 225q32 38 83 38h29q50 0 82 -38z" />
    <glyph glyph-name="otilde" unicode="&#xf5;" horiz-adv-x="1298" 
d="M649 142q162 0 273 113.5t111 274.5q0 162 -111 275.5t-273 113.5t-273 -113.5t-111 -275.5q0 -161 111 -274.5t273 -113.5zM649 1085q122 0 229 -44t182.5 -118.5t119 -177t43.5 -215.5t-43.5 -215.5t-119 -177t-182.5 -118.5t-229 -44t-229 44t-182 118.5t-118.5 177
t-43.5 215.5t43.5 215.5t118.5 177t182 118.5t229 44zM644 1286q-6 4 -23 17t-25 18.5t-21.5 13.5t-24 11t-21.5 3q-33 0 -51 -40q-27 -63 -82 -52l-25 6q-34 7 -47.5 28.5t-2.5 53.5q51 149 174 149q79 0 159 -59q6 -4 23 -17t25 -18.5t21.5 -13.5t24 -11t21.5 -3
q33 0 51 40q27 62 82 51l26 -5q34 -7 47.5 -28.5t2.5 -53.5q-51 -149 -174 -149q-80 0 -160 59z" />
    <glyph glyph-name="odieresis" unicode="&#xf6;" horiz-adv-x="1298" 
d="M649 142q162 0 273 113.5t111 274.5q0 162 -111 275.5t-273 113.5t-273 -113.5t-111 -275.5q0 -161 111 -274.5t273 -113.5zM649 1085q122 0 229 -44t182.5 -118.5t119 -177t43.5 -215.5t-43.5 -215.5t-119 -177t-182.5 -118.5t-229 -44t-229 44t-182 118.5t-118.5 177
t-43.5 215.5t43.5 215.5t118.5 177t182 118.5t229 44zM350 1372q0 49 33.5 82.5t82.5 33.5t82.5 -33.5t33.5 -82.5q0 -50 -33 -83t-83 -33t-83 33t-33 83zM717 1372q0 49 33.5 82.5t82.5 33.5t82 -33.5t33 -82.5q0 -50 -33 -83t-82 -33t-82.5 33t-33.5 83z" />
    <glyph glyph-name="divide" unicode="&#xf7;" horiz-adv-x="1175" 
d="M189 600q-67 0 -67 68v25q0 68 67 68h797q32 0 50 -17.5t18 -50.5v-25q0 -68 -68 -68h-797zM460 1067q0 55 36.5 91.5t91.5 36.5t91.5 -36.5t36.5 -91.5t-36.5 -91.5t-91.5 -36.5t-91.5 36.5t-36.5 91.5zM460 294q0 55 36.5 91.5t91.5 36.5t91.5 -36.5t36.5 -91.5
t-36.5 -91.5t-91.5 -36.5t-91.5 36.5t-36.5 91.5z" />
    <glyph glyph-name="oslash" unicode="&#xf8;" horiz-adv-x="1298" 
d="M649 1085q162 0 295 -75l58 72q32 40 83 40h12q43 0 55 -24.5t-15 -58.5l-86 -108q82 -76 127 -180t45 -221q0 -113 -43.5 -215.5t-119 -177t-182.5 -118.5t-229 -44q-163 0 -297 77l-58 -74q-31 -39 -83 -39h-11q-43 0 -55 24.5t15 58.5l87 108q-82 77 -126.5 180
t-44.5 220q0 113 43.5 215.5t118.5 177t182 118.5t229 44zM649 142q162 0 273 113.5t111 274.5q0 148 -96 258l-475 -598q84 -48 187 -48zM265 530q0 -147 94 -257l476 598q-86 48 -186 48q-162 0 -273 -113.5t-111 -275.5z" />
    <glyph glyph-name="ugrave" unicode="&#xf9;" horiz-adv-x="1235" 
d="M900 993q0 68 68 68h51q67 0 67 -68v-925q0 -68 -67 -68h-51q-32 0 -50 17.5t-18 50.5v95q-63 -82 -151.5 -135t-192.5 -53q-188 0 -307.5 121t-119.5 313v584q0 32 17.5 50t50.5 18h51q67 0 67 -68v-574q0 -120 77.5 -198.5t198.5 -78.5q93 0 173.5 62t135.5 153v636z
M671 1297q27 -34 15.5 -58.5t-54.5 -24.5h-28q-49 0 -82 39l-186 224q-28 34 -16 58.5t55 24.5h33q49 0 81 -39z" />
    <glyph glyph-name="uacute" unicode="&#xfa;" horiz-adv-x="1235" 
d="M900 993q0 68 68 68h51q67 0 67 -68v-925q0 -68 -67 -68h-51q-32 0 -50 17.5t-18 50.5v95q-63 -82 -151.5 -135t-192.5 -53q-188 0 -307.5 121t-119.5 313v584q0 32 17.5 50t50.5 18h51q67 0 67 -68v-574q0 -120 77.5 -198.5t198.5 -78.5q93 0 173.5 62t135.5 153v636z
M714 1521q32 39 82 39h32q43 0 55 -24.5t-16 -58.5l-185 -224q-33 -39 -83 -39h-28q-43 0 -54.5 24.5t15.5 58.5z" />
    <glyph glyph-name="ucircumflex" unicode="&#xfb;" horiz-adv-x="1235" 
d="M900 993q0 68 68 68h51q67 0 67 -68v-925q0 -68 -67 -68h-51q-32 0 -50 17.5t-18 50.5v95q-63 -82 -151.5 -135t-192.5 -53q-188 0 -307.5 121t-119.5 313v584q0 32 17.5 50t50.5 18h51q67 0 67 -68v-574q0 -120 77.5 -198.5t198.5 -78.5q93 0 173.5 62t135.5 153v636z
M899 1297q28 -33 17 -58t-55 -25h-24q-49 0 -83 38l-147 166l-146 -166q-34 -38 -83 -38h-25q-44 0 -55 25t17 58l195 225q32 38 83 38h29q51 0 83 -38z" />
    <glyph glyph-name="udieresis" unicode="&#xfc;" horiz-adv-x="1235" 
d="M900 993q0 68 68 68h51q67 0 67 -68v-925q0 -68 -67 -68h-51q-32 0 -50 17.5t-18 50.5v95q-63 -82 -151.5 -135t-192.5 -53q-188 0 -307.5 121t-119.5 313v584q0 32 17.5 50t50.5 18h51q67 0 67 -68v-574q0 -120 77.5 -198.5t198.5 -78.5q93 0 173.5 62t135.5 153v636z
M308 1372q0 49 33.5 82.5t82.5 33.5t82.5 -33.5t33.5 -82.5q0 -50 -33 -83t-83 -33t-83 33t-33 83zM675 1372q0 49 33.5 82.5t82.5 33.5t82 -33.5t33 -82.5q0 -50 -33 -83t-82 -33t-82.5 33t-33.5 83z" />
    <glyph glyph-name="yacute" unicode="&#xfd;" horiz-adv-x="1075" 
d="M442 4l-384 979q-13 35 1.5 56.5t52.5 21.5h53q57 0 78 -53l295 -767l295 767q21 53 77 53h54q37 0 52 -21.5t1 -56.5l-548 -1405q-20 -53 -78 -53h-53q-37 0 -52 21.5t-1 56.5zM642 1521q32 39 82 39h33q43 0 55 -24.5t-16 -58.5l-186 -224q-33 -39 -83 -39h-27
q-43 0 -54.5 24.5t15.5 58.5z" />
    <glyph glyph-name="thorn" unicode="&#xfe;" horiz-adv-x="1328" 
d="M679 142q162 0 273 113.5t111 274.5q0 162 -111 275.5t-273 113.5q-112 0 -204 -58.5t-139 -154.5v-354q47 -95 139 -152.5t204 -57.5zM710 1085q154 0 279 -76t194 -203t69 -276t-69 -276t-194 -203t-279 -76q-227 0 -374 162v-545q0 -67 -68 -67h-51q-67 0 -67 67v1835
q0 68 67 68h51q32 0 50 -17.5t18 -50.5v-503q147 161 374 161z" />
    <glyph glyph-name="ydieresis" unicode="&#xff;" horiz-adv-x="1075" 
d="M442 4l-384 979q-13 35 1.5 56.5t52.5 21.5h53q57 0 78 -53l295 -767l295 767q21 53 77 53h54q37 0 52 -21.5t1 -56.5l-548 -1405q-20 -53 -78 -53h-53q-37 0 -52 21.5t-1 56.5zM239 1372q0 49 33 82.5t82 33.5t82.5 -33.5t33.5 -82.5q0 -50 -33 -83t-83 -33
q-49 0 -82 33t-33 83zM605 1372q0 49 33.5 82.5t82.5 33.5t82.5 -33.5t33.5 -82.5q0 -50 -33.5 -83t-82.5 -33t-82.5 33t-33.5 83z" />
    <glyph glyph-name="Amacron" unicode="&#x100;" horiz-adv-x="1394" 
d="M1193 0q-58 0 -77 54l-114 316h-610l-113 -316q-19 -54 -77 -54h-70q-37 0 -51.5 21.5t-1.5 56.5l490 1302q19 54 78 54h101q58 0 77 -54l491 -1302q13 -35 -1.5 -56.5t-51.5 -21.5h-70zM945 537l-248 684l-247 -684h495zM400 1703q0 67 68 67h459q67 0 67 -67v-10
q0 -68 -67 -68h-459q-32 0 -50 17.5t-18 50.5v10z" />
    <glyph glyph-name="amacron" unicode="&#x101;" horiz-adv-x="1328" 
d="M649 142q112 0 204 57.5t139 152.5v354q-47 96 -139 154.5t-204 58.5q-162 0 -273 -113.5t-111 -275.5q0 -161 111 -274.5t273 -113.5zM618 1085q227 0 374 -161v69q0 68 68 68h51q32 0 50 -17.5t18 -50.5v-925q0 -32 -17.5 -50t-50.5 -18h-51q-32 0 -50 17.5t-18 50.5
v69q-147 -162 -374 -162q-154 0 -279 76t-194 203t-69 276t69 276t194 203t279 76zM345 1371q0 68 68 68h458q32 0 50 -17.5t18 -50.5v-10q0 -68 -68 -68h-458q-32 0 -50 17.5t-18 50.5v10z" />
    <glyph glyph-name="Abreve" unicode="&#x102;" horiz-adv-x="1394" 
d="M1193 0q-58 0 -77 54l-114 316h-610l-113 -316q-19 -54 -77 -54h-70q-37 0 -51.5 21.5t-1.5 56.5l490 1302q19 54 78 54h101q58 0 77 -54l491 -1302q13 -35 -1.5 -56.5t-51.5 -21.5h-70zM945 537l-248 684l-247 -684h495zM697 1526q-116 0 -204.5 67t-117.5 176
q-9 33 9 53t53 20h31q30 0 46.5 -14.5t26.5 -45.5q18 -54 58.5 -85.5t97.5 -31.5t98 31.5t59 85.5q10 31 26.5 45.5t46.5 14.5h30q36 0 54 -20t8 -54q-29 -108 -118 -175t-204 -67z" />
    <glyph glyph-name="abreve" unicode="&#x103;" horiz-adv-x="1328" 
d="M649 142q112 0 204 57.5t139 152.5v354q-47 96 -139 154.5t-204 58.5q-162 0 -273 -113.5t-111 -275.5q0 -161 111 -274.5t273 -113.5zM618 1085q227 0 374 -161v69q0 68 68 68h51q32 0 50 -17.5t18 -50.5v-925q0 -32 -17.5 -50t-50.5 -18h-51q-32 0 -50 17.5t-18 50.5
v69q-147 -162 -374 -162q-154 0 -279 76t-194 203t-69 276t69 276t194 203t279 76zM641 1194q-116 0 -205 67.5t-118 176.5q-9 33 9.5 52.5t53.5 19.5h31q29 0 45.5 -14.5t26.5 -45.5q18 -54 59 -85.5t98 -31.5t98 31.5t59 85.5q10 31 26.5 45.5t45.5 14.5h31
q36 0 53.5 -19.5t8.5 -53.5q-29 -108 -118 -175.5t-204 -67.5z" />
    <glyph glyph-name="Aogonek" unicode="&#x104;" horiz-adv-x="1394" 
d="M1171 0q-36 0 -55 54l-114 316h-610l-113 -316q-19 -54 -77 -54h-70q-37 0 -51.5 21.5t-1.5 56.5l490 1302q19 54 78 54h101q58 0 77 -54l500 -1326q19 -53 -25 -92q-129 -116 -129 -201q0 -49 32.5 -80t79.5 -31q27 0 51 8q43 13 56 -17l10 -24q17 -41 -22 -60
q-54 -26 -126 -26q-95 0 -160 60t-65 149q0 135 179 260h-35zM945 537l-248 684l-247 -684h495z" />
    <glyph glyph-name="aogonek" unicode="&#x105;" horiz-adv-x="1328" 
d="M1039 0h-8q-16 0 -27.5 18.5t-11.5 49.5v69q-147 -162 -374 -162q-154 0 -279 76t-194 203t-69 276t69 276t194 203t279 76q227 0 374 -161v69q0 68 68 68h51q32 0 50 -17.5t18 -50.5v-943q0 -48 -39 -83q-135 -118 -135 -206q0 -49 32 -80t79 -31q29 0 51 8
q41 15 57 -19l9 -22q18 -43 -27 -62q-57 -24 -121 -24q-95 0 -160 60t-65 149q0 135 179 260zM649 142q112 0 204 57.5t139 152.5v354q-47 96 -139 154.5t-204 58.5q-162 0 -273 -113.5t-111 -275.5q0 -161 111 -274.5t273 -113.5z" />
    <glyph glyph-name="Cacute" unicode="&#x106;" horiz-adv-x="1400" 
d="M837 145q172 0 333 105q56 41 95 -14l24 -35q40 -57 -15 -95q-193 -131 -437 -131q-157 0 -297 57.5t-240 156t-158.5 236.5t-58.5 292t58.5 291.5t158.5 236t240 156t297 57.5q230 0 418 -121q56 -36 18 -93l-23 -34q-38 -54 -94 -19q-157 97 -319 97q-115 0 -218 -44.5
t-177.5 -120.5t-118.5 -182t-44 -224q0 -158 74 -289.5t202.5 -207t281.5 -75.5zM886 1852q32 39 82 39h32q43 0 55 -24.5t-16 -58.5l-185 -223q-33 -39 -83 -39h-28q-43 0 -54 24.5t16 58.5z" />
    <glyph glyph-name="cacute" unicode="&#x107;" horiz-adv-x="1124" 
d="M649 -25q-122 0 -229 44t-182 118.5t-118.5 177t-43.5 215.5t43.5 215.5t118.5 177t182 118.5t229 44q185 0 335 -100q53 -38 15 -94l-22 -34q-36 -55 -94 -15q-114 77 -234 77q-162 0 -273 -113.5t-111 -275.5q0 -161 111 -274.5t273 -113.5q131 0 244 84q54 41 95 -9
l25 -32q42 -53 -3 -90q-152 -120 -361 -120zM700 1521q32 39 82 39h33q43 0 55 -24.5t-16 -58.5l-185 -224q-33 -39 -83 -39h-28q-43 0 -54.5 24.5t15.5 58.5z" />
    <glyph glyph-name="Ccircumflex" unicode="&#x108;" horiz-adv-x="1400" 
d="M837 145q172 0 333 105q56 41 95 -14l24 -35q40 -57 -15 -95q-193 -131 -437 -131q-157 0 -297 57.5t-240 156t-158.5 236.5t-58.5 292t58.5 291.5t158.5 236t240 156t297 57.5q230 0 418 -121q56 -36 18 -93l-23 -34q-38 -54 -94 -19q-157 97 -319 97q-115 0 -218 -44.5
t-177.5 -120.5t-118.5 -182t-44 -224q0 -158 74 -289.5t202.5 -207t281.5 -75.5zM1075 1629q28 -33 17 -58t-55 -25h-24q-49 0 -83 38l-147 166l-146 -166q-34 -38 -83 -38h-25q-43 0 -54.5 25t17.5 58l194 224q32 38 83 38h29q51 0 83 -38z" />
    <glyph glyph-name="ccircumflex" unicode="&#x109;" horiz-adv-x="1124" 
d="M649 -25q-122 0 -229 44t-182 118.5t-118.5 177t-43.5 215.5t43.5 215.5t118.5 177t182 118.5t229 44q185 0 335 -100q53 -38 15 -94l-22 -34q-36 -55 -94 -15q-114 77 -234 77q-162 0 -273 -113.5t-111 -275.5q0 -161 111 -274.5t273 -113.5q131 0 244 84q54 41 95 -9
l25 -32q42 -53 -3 -90q-152 -120 -361 -120zM887 1297q28 -33 17 -58t-55 -25h-25q-49 0 -83 38l-146 166l-146 -166q-34 -38 -83 -38h-25q-44 0 -55 25t17 58l195 225q32 38 83 38h28q51 0 83 -38z" />
    <glyph glyph-name="Cdotaccent" unicode="&#x10a;" horiz-adv-x="1400" 
d="M837 145q172 0 333 105q56 41 95 -14l24 -35q40 -57 -15 -95q-193 -131 -437 -131q-157 0 -297 57.5t-240 156t-158.5 236.5t-58.5 292t58.5 291.5t158.5 236t240 156t297 57.5q230 0 418 -121q56 -36 18 -93l-23 -34q-38 -54 -94 -19q-157 97 -319 97q-115 0 -218 -44.5
t-177.5 -120.5t-118.5 -182t-44 -224q0 -158 74 -289.5t202.5 -207t281.5 -75.5zM669 1704q0 49 33 82.5t82 33.5t82.5 -33.5t33.5 -82.5t-33.5 -82.5t-82.5 -33.5t-82 33.5t-33 82.5z" />
    <glyph glyph-name="cdotaccent" unicode="&#x10b;" horiz-adv-x="1124" 
d="M649 -25q-122 0 -229 44t-182 118.5t-118.5 177t-43.5 215.5t43.5 215.5t118.5 177t182 118.5t229 44q185 0 335 -100q53 -38 15 -94l-22 -34q-36 -55 -94 -15q-114 77 -234 77q-162 0 -273 -113.5t-111 -275.5q0 -161 111 -274.5t273 -113.5q131 0 244 84q54 41 95 -9
l25 -32q42 -53 -3 -90q-152 -120 -361 -120zM500 1372q0 49 33 82.5t82 33.5t82.5 -33.5t33.5 -82.5t-33.5 -82.5t-82.5 -33.5t-82 33.5t-33 82.5z" />
    <glyph glyph-name="Ccaron" unicode="&#x10c;" horiz-adv-x="1400" 
d="M837 145q172 0 333 105q56 41 95 -14l24 -35q40 -57 -15 -95q-193 -131 -437 -131q-157 0 -297 57.5t-240 156t-158.5 236.5t-58.5 292t58.5 291.5t158.5 236t240 156t297 57.5q230 0 418 -121q56 -36 18 -93l-23 -34q-38 -54 -94 -19q-157 97 -319 97q-115 0 -218 -44.5
t-177.5 -120.5t-118.5 -182t-44 -224q0 -158 74 -289.5t202.5 -207t281.5 -75.5zM881 1584q-32 -38 -83 -38h-29q-51 0 -83 38l-194 224q-29 33 -17.5 58t54.5 25h25q49 0 83 -38l146 -165l147 165q34 38 83 38h24q44 0 55 -25t-17 -58z" />
    <glyph glyph-name="ccaron" unicode="&#x10d;" horiz-adv-x="1124" 
d="M649 -25q-122 0 -229 44t-182 118.5t-118.5 177t-43.5 215.5t43.5 215.5t118.5 177t182 118.5t229 44q185 0 335 -100q53 -38 15 -94l-22 -34q-36 -55 -94 -15q-114 77 -234 77q-162 0 -273 -113.5t-111 -275.5q0 -161 111 -274.5t273 -113.5q131 0 244 84q54 41 95 -9
l25 -32q42 -53 -3 -90q-152 -120 -361 -120zM693 1232q-32 -38 -83 -38h-28q-51 0 -83 38l-195 224q-28 33 -17 58t55 25h25q49 0 83 -38l146 -166l146 166q34 38 83 38h25q44 0 55 -25t-17 -58z" />
    <glyph glyph-name="Dcaron" unicode="&#x10e;" horiz-adv-x="1446" 
d="M658 1434q324 0 515 -194.5t191 -522.5q0 -329 -191 -523t-515 -194h-418q-32 0 -50 17.5t-18 50.5v1298q0 68 68 68h418zM365 1264v-1094h293q233 0 371.5 142t138.5 405t-138.5 405t-371.5 142h-293zM778 1584q-32 -38 -83 -38h-28q-51 0 -83 38l-195 224
q-28 33 -17 58t55 25h25q49 0 83 -38l146 -165l146 165q34 38 83 38h25q44 0 55 -25t-17 -58z" />
    <glyph glyph-name="dcaron" unicode="&#x10f;" horiz-adv-x="1640" 
d="M649 142q112 0 204 57.5t139 152.5v354q-47 96 -139 154.5t-204 58.5q-162 0 -273 -113.5t-111 -275.5q0 -161 111 -274.5t273 -113.5zM618 1085q227 0 374 -161v503q0 32 17.5 50t50.5 18h51q32 0 50 -17.5t18 -50.5v-1359q0 -68 -68 -68h-51q-32 0 -50 17.5t-18 50.5
v69q-147 -162 -374 -162q-154 0 -279 76t-194 203t-69 276t69 276t194 203t279 76zM1345 1396q0 53 35 88.5t87 35.5q53 0 88.5 -36t35.5 -88q0 -28 -13 -57l-108 -236q-21 -50 -78 -50q-29 0 -37.5 22t6.5 57l65 147q-36 12 -58.5 43.5t-22.5 73.5z" />
    <glyph glyph-name="Dcroat" unicode="&#x110;" horiz-adv-x="1486" 
d="M698 1434q324 0 515 -194.5t191 -522.5q0 -329 -191 -523t-515 -194h-418q-32 0 -50 17.5t-18 50.5v576h-120q-67 0 -67 68v10q0 68 67 68h120v576q0 32 17.5 50t50.5 18h418zM404 1264v-474h247q68 0 68 -68v-10q0 -68 -68 -68h-247v-474h294q233 0 371.5 142t138.5 405
t-138.5 405t-371.5 142h-294z" />
    <glyph glyph-name="dcroat" unicode="&#x111;" horiz-adv-x="1359" 
d="M618 1085q227 0 374 -161v277h-286q-68 0 -68 68q0 61 68 61h286v97q0 68 68 68h51q32 0 50 -17.5t18 -50.5v-97h86q67 0 67 -67q0 -62 -67 -62h-86v-1133q0 -32 -17.5 -50t-50.5 -18h-51q-32 0 -50 17.5t-18 50.5v69q-147 -162 -374 -162q-154 0 -279 76t-194 203
t-69 276t69 276t194 203t279 76zM649 142q112 0 204 57.5t139 152.5v354q-47 96 -139 154.5t-204 58.5q-162 0 -273 -113.5t-111 -275.5q0 -161 111 -274.5t273 -113.5z" />
    <glyph glyph-name="Emacron" unicode="&#x112;" horiz-adv-x="1156" 
d="M172 1366q0 32 17.5 50t50.5 18h711q68 0 68 -68v-32q0 -67 -68 -67h-586v-463h534q32 0 50 -17.5t18 -50.5v-31q0 -32 -17.5 -50t-50.5 -18h-534v-470h605q67 0 67 -68v-31q0 -68 -67 -68h-730q-32 0 -50 17.5t-18 50.5v1298zM297 1703q0 67 68 67h458q68 0 68 -67v-10
q0 -68 -68 -68h-458q-32 0 -50 17.5t-18 50.5v10z" />
    <glyph glyph-name="emacron" unicode="&#x113;" horiz-adv-x="1253" 
d="M266 472q15 -144 122 -240t259 -96q160 0 288 109q49 42 95 0l30 -27q53 -49 1 -95q-168 -148 -409 -148q-127 0 -235.5 43.5t-182.5 118.5t-116 177t-42 216q0 152 72 279t201.5 201.5t287.5 74.5q116 0 217.5 -42t172 -113.5t111 -169.5t40.5 -206q0 -13 -1 -19
q-1 -31 -20 -47t-51 -16h-840zM637 925q-131 0 -233.5 -85t-130.5 -213h709q-22 130 -117.5 214t-227.5 84zM330 1371q0 68 67 68h459q32 0 50 -17.5t18 -50.5v-10q0 -68 -68 -68h-459q-67 0 -67 68v10z" />
    <glyph glyph-name="Ebreve" unicode="&#x114;" horiz-adv-x="1156" 
d="M172 1366q0 32 17.5 50t50.5 18h711q68 0 68 -68v-32q0 -67 -68 -67h-586v-463h534q32 0 50 -17.5t18 -50.5v-31q0 -32 -17.5 -50t-50.5 -18h-534v-470h605q67 0 67 -68v-31q0 -68 -67 -68h-730q-32 0 -50 17.5t-18 50.5v1298zM592 1526q-116 0 -205 67.5t-118 175.5
q-9 33 9.5 53t53.5 20h30q30 0 46.5 -14.5t26.5 -45.5q18 -54 59 -85.5t98 -31.5t98 31.5t59 85.5q10 31 26.5 45.5t45.5 14.5h31q35 0 53 -20t8 -54q-29 -108 -117.5 -175t-203.5 -67z" />
    <glyph glyph-name="ebreve" unicode="&#x115;" horiz-adv-x="1253" 
d="M266 472q15 -144 122 -240t259 -96q160 0 288 109q49 42 95 0l30 -27q53 -49 1 -95q-168 -148 -409 -148q-127 0 -235.5 43.5t-182.5 118.5t-116 177t-42 216q0 152 72 279t201.5 201.5t287.5 74.5q116 0 217.5 -42t172 -113.5t111 -169.5t40.5 -206q0 -13 -1 -19
q-1 -31 -20 -47t-51 -16h-840zM637 925q-131 0 -233.5 -85t-130.5 -213h709q-22 130 -117.5 214t-227.5 84zM627 1194q-116 0 -205 67.5t-118 176.5q-9 33 9.5 52.5t53.5 19.5h30q30 0 46.5 -14.5t26.5 -45.5q18 -54 59 -85.5t98 -31.5t97.5 31.5t58.5 85.5q10 31 26.5 45.5
t46.5 14.5h31q35 0 53 -19.5t8 -53.5q-29 -108 -117.5 -175.5t-203.5 -67.5z" />
    <glyph glyph-name="Edotaccent" unicode="&#x116;" horiz-adv-x="1156" 
d="M172 1366q0 32 17.5 50t50.5 18h711q68 0 68 -68v-32q0 -67 -68 -67h-586v-463h534q32 0 50 -17.5t18 -50.5v-31q0 -32 -17.5 -50t-50.5 -18h-534v-470h605q67 0 67 -68v-31q0 -68 -67 -68h-730q-32 0 -50 17.5t-18 50.5v1298zM485 1704q0 49 33.5 82.5t82.5 33.5
t82.5 -33.5t33.5 -82.5t-33.5 -82.5t-82.5 -33.5t-82.5 33.5t-33.5 82.5z" />
    <glyph glyph-name="edotaccent" unicode="&#x117;" horiz-adv-x="1253" 
d="M266 472q15 -144 122 -240t259 -96q160 0 288 109q49 42 95 0l30 -27q53 -49 1 -95q-168 -148 -409 -148q-127 0 -235.5 43.5t-182.5 118.5t-116 177t-42 216q0 152 72 279t201.5 201.5t287.5 74.5q116 0 217.5 -42t172 -113.5t111 -169.5t40.5 -206q0 -13 -1 -19
q-1 -31 -20 -47t-51 -16h-840zM637 925q-131 0 -233.5 -85t-130.5 -213h709q-22 130 -117.5 214t-227.5 84zM511 1372q0 49 33.5 82.5t82.5 33.5t82 -33.5t33 -82.5t-33 -82.5t-82 -33.5t-82.5 33.5t-33.5 82.5z" />
    <glyph glyph-name="Eogonek" unicode="&#x118;" horiz-adv-x="1156" 
d="M172 1366q0 32 17.5 50t50.5 18h711q68 0 68 -68v-32q0 -67 -68 -67h-586v-463h534q32 0 50 -17.5t18 -50.5v-31q0 -32 -17.5 -50t-50.5 -18h-534v-470h605q67 0 67 -68v-31q0 -68 -67 -68h-112q-34 -29 -49 -42.5t-44 -43t-43 -50t-26 -49t-12 -54.5q0 -49 32.5 -80
t79.5 -31q23 0 54 9q38 11 51 -18l11 -24q9 -19 -1.5 -38.5t-39.5 -29.5q-49 -18 -106 -18q-95 0 -160 60t-65 149q0 133 178 260h-478q-68 0 -68 68v1298z" />
    <glyph glyph-name="eogonek" unicode="&#x119;" horiz-adv-x="1253" 
d="M266 472q15 -144 122 -240t259 -96q160 0 288 109q49 42 95 0l30 -27q53 -49 1 -95q-137 -122 -334 -143q-68 -59 -108.5 -111t-40.5 -108q0 -49 32 -80t79 -31q23 0 54 9q39 12 52 -18l11 -24q9 -19 -1.5 -38.5t-39.5 -29.5q-49 -18 -107 -18q-95 0 -160 60t-65 149
q0 125 150 240q-150 15 -266 91.5t-178.5 196t-62.5 262.5q0 152 72 279t201.5 201.5t287.5 74.5q116 0 217.5 -42t172 -113.5t111 -169.5t40.5 -206q0 -13 -1 -19q-1 -31 -20 -47t-51 -16h-840zM637 925q-131 0 -233.5 -85t-130.5 -213h709q-22 130 -117.5 214t-227.5 84z
" />
    <glyph glyph-name="Ecaron" unicode="&#x11a;" horiz-adv-x="1156" 
d="M172 1366q0 32 17.5 50t50.5 18h711q68 0 68 -68v-32q0 -67 -68 -67h-586v-463h534q32 0 50 -17.5t18 -50.5v-31q0 -32 -17.5 -50t-50.5 -18h-534v-470h605q67 0 67 -68v-31q0 -68 -67 -68h-730q-32 0 -50 17.5t-18 50.5v1298zM692 1584q-32 -38 -83 -38h-28
q-51 0 -83 38l-195 224q-28 33 -17 58t55 25h25q49 0 83 -38l146 -165l146 165q34 38 83 38h25q44 0 55 -25t-17 -58z" />
    <glyph glyph-name="ecaron" unicode="&#x11b;" horiz-adv-x="1253" 
d="M266 472q15 -144 122 -240t259 -96q160 0 288 109q49 42 95 0l30 -27q53 -49 1 -95q-168 -148 -409 -148q-127 0 -235.5 43.5t-182.5 118.5t-116 177t-42 216q0 152 72 279t201.5 201.5t287.5 74.5q116 0 217.5 -42t172 -113.5t111 -169.5t40.5 -206q0 -13 -1 -19
q-1 -31 -20 -47t-51 -16h-840zM637 925q-131 0 -233.5 -85t-130.5 -213h709q-22 130 -117.5 214t-227.5 84zM724 1232q-32 -38 -83 -38h-29q-51 0 -83 38l-194 224q-28 33 -17 58t55 25h24q49 0 83 -38l147 -166l146 166q34 38 83 38h25q44 0 55 -25t-17 -58z" />
    <glyph glyph-name="Gcircumflex" unicode="&#x11c;" horiz-adv-x="1474" 
d="M837 1288q-115 0 -218 -44.5t-177.5 -120.5t-118.5 -182t-44 -224q0 -158 74 -289.5t202.5 -207t281.5 -75.5q82 0 163.5 25.5t144.5 70.5v349h-325q-67 0 -67 67v32q0 68 67 68h450q67 0 67 -68v-482q0 -52 -39 -82q-201 -150 -461 -150q-157 0 -297 57.5t-240 156
t-158.5 236.5t-58.5 292t58.5 291.5t158.5 236t240 156t297 57.5q230 0 418 -121q56 -36 18 -93l-23 -34q-38 -55 -90 -21q-161 99 -323 99zM1075 1629q28 -33 17 -58t-55 -25h-24q-49 0 -83 38l-147 166l-146 -166q-34 -38 -83 -38h-25q-43 0 -54.5 25t17.5 58l194 224
q32 38 83 38h29q51 0 83 -38z" />
    <glyph glyph-name="gcircumflex" unicode="&#x11d;" horiz-adv-x="1328" 
d="M992 137q-147 -162 -374 -162q-154 0 -279 76t-194 203t-69 276t69 276t194 203t279 76q227 0 374 -161v69q0 68 68 68h51q32 0 50 -17.5t18 -50.5v-959q0 -233 -140.5 -371t-396.5 -138q-252 0 -433 165q-48 46 1 95l27 27q45 45 95 -1q140 -125 309 -125
q160 0 255.5 90.5t95.5 245.5v115zM649 142q112 0 204 57.5t139 152.5v354q-47 96 -139 154.5t-204 58.5q-162 0 -273 -113.5t-111 -275.5q0 -161 111 -274.5t273 -113.5zM939 1297q28 -33 17 -58t-55 -25h-24q-49 0 -83 38l-147 166l-146 -166q-34 -38 -83 -38h-25
q-44 0 -55 25t17 58l195 225q32 38 83 38h29q50 0 82 -38z" />
    <glyph glyph-name="Gbreve" unicode="&#x11e;" horiz-adv-x="1474" 
d="M837 1288q-115 0 -218 -44.5t-177.5 -120.5t-118.5 -182t-44 -224q0 -158 74 -289.5t202.5 -207t281.5 -75.5q82 0 163.5 25.5t144.5 70.5v349h-325q-67 0 -67 67v32q0 68 67 68h450q67 0 67 -68v-482q0 -52 -39 -82q-201 -150 -461 -150q-157 0 -297 57.5t-240 156
t-158.5 236.5t-58.5 292t58.5 291.5t158.5 236t240 156t297 57.5q230 0 418 -121q56 -36 18 -93l-23 -34q-38 -55 -90 -21q-161 99 -323 99zM783 1526q-116 0 -204.5 67t-117.5 176q-9 33 9 53t53 20h31q30 0 46.5 -14.5t26.5 -45.5q18 -54 58.5 -85.5t97.5 -31.5t98 31.5
t59 85.5q10 31 26.5 45.5t46.5 14.5h30q36 0 54 -20t8 -54q-29 -108 -118 -175t-204 -67z" />
    <glyph glyph-name="gbreve" unicode="&#x11f;" horiz-adv-x="1328" 
d="M992 137q-147 -162 -374 -162q-154 0 -279 76t-194 203t-69 276t69 276t194 203t279 76q227 0 374 -161v69q0 68 68 68h51q32 0 50 -17.5t18 -50.5v-959q0 -233 -140.5 -371t-396.5 -138q-252 0 -433 165q-48 46 1 95l27 27q45 45 95 -1q140 -125 309 -125
q160 0 255.5 90.5t95.5 245.5v115zM649 142q112 0 204 57.5t139 152.5v354q-47 96 -139 154.5t-204 58.5q-162 0 -273 -113.5t-111 -275.5q0 -161 111 -274.5t273 -113.5zM639 1194q-116 0 -205 67.5t-118 176.5q-9 33 9.5 52.5t53.5 19.5h31q29 0 45.5 -14.5t26.5 -45.5
q18 -54 59 -85.5t98 -31.5t98 31.5t59 85.5q10 31 26.5 45.5t45.5 14.5h31q36 0 53.5 -19.5t8.5 -53.5q-29 -108 -118 -175.5t-204 -67.5z" />
    <glyph glyph-name="Gdotaccent" unicode="&#x120;" horiz-adv-x="1474" 
d="M837 1288q-115 0 -218 -44.5t-177.5 -120.5t-118.5 -182t-44 -224q0 -158 74 -289.5t202.5 -207t281.5 -75.5q82 0 163.5 25.5t144.5 70.5v349h-325q-67 0 -67 67v32q0 68 67 68h450q67 0 67 -68v-482q0 -52 -39 -82q-201 -150 -461 -150q-157 0 -297 57.5t-240 156
t-158.5 236.5t-58.5 292t58.5 291.5t158.5 236t240 156t297 57.5q230 0 418 -121q56 -36 18 -93l-23 -34q-38 -55 -90 -21q-161 99 -323 99zM668 1704q0 49 33 82.5t82 33.5t82.5 -33.5t33.5 -82.5t-33.5 -82.5t-82.5 -33.5t-82 33.5t-33 82.5z" />
    <glyph glyph-name="gdotaccent" unicode="&#x121;" horiz-adv-x="1328" 
d="M992 137q-147 -162 -374 -162q-154 0 -279 76t-194 203t-69 276t69 276t194 203t279 76q227 0 374 -161v69q0 68 68 68h51q32 0 50 -17.5t18 -50.5v-959q0 -233 -140.5 -371t-396.5 -138q-252 0 -433 165q-48 46 1 95l27 27q45 45 95 -1q140 -125 309 -125
q160 0 255.5 90.5t95.5 245.5v115zM649 142q112 0 204 57.5t139 152.5v354q-47 96 -139 154.5t-204 58.5q-162 0 -273 -113.5t-111 -275.5q0 -161 111 -274.5t273 -113.5zM516 1372q0 49 33.5 82.5t82.5 33.5t82.5 -33.5t33.5 -82.5t-33.5 -82.5t-82.5 -33.5t-82.5 33.5
t-33.5 82.5z" />
    <glyph glyph-name="Gcommaaccent" unicode="&#x122;" horiz-adv-x="1474" 
d="M837 1288q-115 0 -218 -44.5t-177.5 -120.5t-118.5 -182t-44 -224q0 -158 74 -289.5t202.5 -207t281.5 -75.5q82 0 163.5 25.5t144.5 70.5v349h-325q-67 0 -67 67v32q0 68 67 68h450q67 0 67 -68v-482q0 -52 -39 -82q-201 -150 -461 -150q-157 0 -297 57.5t-240 156
t-158.5 236.5t-58.5 292t58.5 291.5t158.5 236t240 156t297 57.5q230 0 418 -121q56 -36 18 -93l-23 -34q-38 -55 -90 -21q-161 99 -323 99zM678 -481q-38 0 -51.5 22t2.5 57l100 220q22 51 79 51h43q39 0 53 -22.5t-4 -57.5l-113 -221q-25 -49 -79 -49h-30z" />
    <glyph glyph-name="gcommaaccent" unicode="&#x123;" horiz-adv-x="1328" 
d="M992 137q-147 -162 -374 -162q-154 0 -279 76t-194 203t-69 276t69 276t194 203t279 76q227 0 374 -161v69q0 68 68 68h51q32 0 50 -17.5t18 -50.5v-959q0 -233 -140.5 -371t-396.5 -138q-252 0 -433 165q-48 46 1 95l27 27q45 45 95 -1q140 -125 309 -125
q160 0 255.5 90.5t95.5 245.5v115zM649 142q112 0 204 57.5t139 152.5v354q-47 96 -139 154.5t-204 58.5q-162 0 -273 -113.5t-111 -275.5q0 -161 111 -274.5t273 -113.5zM791 1550q38 0 51.5 -22t-2.5 -57l-101 -220q-22 -51 -79 -51h-43q-39 0 -53 22.5t4 57.5l113 221
q25 49 80 49h30z" />
    <glyph glyph-name="Hcircumflex" unicode="&#x124;" horiz-adv-x="1427" 
d="M172 1366q0 32 17.5 50t50.5 18h57q68 0 68 -68v-562h698v562q0 68 67 68h58q67 0 67 -68v-1298q0 -68 -67 -68h-58q-67 0 -67 68v569h-698v-569q0 -32 -17.5 -50t-50.5 -18h-57q-68 0 -68 68v1298zM1006 1629q28 -33 17 -58t-55 -25h-25q-49 0 -83 38l-146 166
l-147 -166q-34 -38 -83 -38h-24q-44 0 -55 25t17 58l194 224q32 38 83 38h29q51 0 83 -38z" />
    <glyph glyph-name="hcircumflex" unicode="&#x125;" horiz-adv-x="1235" 
d="M336 68q0 -68 -68 -68h-51q-67 0 -67 68v1359q0 68 67 68h51q32 0 50 -17.5t18 -50.5v-529q63 82 151.5 134.5t192.5 52.5q189 0 308 -120.5t119 -312.5v-584q0 -32 -17.5 -50t-50.5 -18h-51q-67 0 -67 68v574q0 120 -77.5 198.5t-198.5 78.5q-93 0 -173.5 -62.5
t-135.5 -153.5v-635zM535 1691q28 -33 17 -58t-55 -25h-25q-49 0 -83 38l-146 165l-147 -165q-34 -38 -83 -38h-24q-44 0 -55 25t17 58l194 224q32 38 83 38h29q51 0 83 -38z" />
    <glyph glyph-name="Hbar" unicode="&#x126;" horiz-adv-x="1449" 
d="M183 1073h-60q-32 0 -50 17.5t-18 50.5v7q0 67 68 67h60v151q0 68 68 68h57q68 0 68 -68v-151h698v151q0 68 68 68h57q68 0 68 -68v-151h60q68 0 68 -67v-7q0 -68 -68 -68h-60v-1005q0 -32 -17.5 -50t-50.5 -18h-57q-68 0 -68 68v569h-698v-569q0 -32 -17.5 -50
t-50.5 -18h-57q-68 0 -68 68v1005zM1074 804v269h-698v-269h698z" />
    <glyph glyph-name="hbar" unicode="&#x127;" horiz-adv-x="1267" 
d="M28 1266q0 64 67 64h86v97q0 68 68 68h51q32 0 50 -17.5t18 -50.5v-97h286q68 0 68 -67q0 -62 -68 -62h-286v-303q63 82 151.5 134.5t192.5 52.5q189 0 308 -120.5t119 -312.5v-584q0 -32 -17.5 -50t-50.5 -18h-51q-32 0 -50 17.5t-18 50.5v574q0 120 -77 198.5
t-198 78.5q-93 0 -173.5 -62.5t-135.5 -153.5v-635q0 -68 -68 -68h-51q-32 0 -50 17.5t-18 50.5v1133h-86q-67 0 -67 65z" />
    <glyph glyph-name="Itilde" unicode="&#x128;" horiz-adv-x="583" 
d="M321 1434q67 0 67 -68v-1298q0 -68 -67 -68h-58q-67 0 -67 68v1298q0 68 67 68h58zM287 1618q-3 2 -22.5 16.5t-25.5 18.5t-20.5 12.5t-25 11.5t-21.5 3q-33 0 -51 -40q-27 -62 -82 -51l-26 5q-34 7 -47.5 28.5t-2.5 53.5q52 150 174 150q79 0 160 -60q3 -2 22.5 -16.5
t25.5 -18.5t20.5 -12.5t25 -11.5t21.5 -3q33 0 51 40q27 62 82 51l25 -5q34 -7 48 -28.5t3 -53.5q-51 -149 -175 -149q-79 0 -159 59z" />
    <glyph glyph-name="itilde" unicode="&#x129;" horiz-adv-x="534" 
d="M174 993q0 32 17.5 50t50.5 18h51q67 0 67 -68v-925q0 -68 -67 -68h-51q-32 0 -50 17.5t-18 50.5v925zM262 1286q-6 4 -23 17t-25 18.5t-21.5 13.5t-24 11t-21.5 3q-33 0 -51 -40q-27 -63 -82 -52l-25 6q-34 7 -47.5 28.5t-2.5 53.5q51 149 174 149q79 0 159 -59
q6 -4 23 -17t25 -18.5t21.5 -13.5t24 -11t21.5 -3q33 0 51 40q27 62 82 51l26 -5q34 -7 47.5 -28.5t2.5 -53.5q-51 -149 -174 -149q-80 0 -160 59z" />
    <glyph glyph-name="Imacron" unicode="&#x12a;" horiz-adv-x="583" 
d="M321 1434q67 0 67 -68v-1298q0 -68 -67 -68h-58q-67 0 -67 68v1298q0 68 67 68h58zM-5 1703q0 67 67 67h459q68 0 68 -67v-10q0 -68 -68 -68h-459q-67 0 -67 68v10z" />
    <glyph glyph-name="imacron" unicode="&#x12b;" horiz-adv-x="534" 
d="M174 993q0 32 17.5 50t50.5 18h51q67 0 67 -68v-925q0 -68 -67 -68h-51q-32 0 -50 17.5t-18 50.5v925zM-30 1371q0 68 68 68h459q67 0 67 -68v-10q0 -68 -67 -68h-459q-32 0 -50 17.5t-18 50.5v10z" />
    <glyph glyph-name="Ibreve" unicode="&#x12c;" horiz-adv-x="583" 
d="M321 1434q67 0 67 -68v-1298q0 -68 -67 -68h-58q-67 0 -67 68v1298q0 68 67 68h58zM292 1526q-116 0 -205 67.5t-118 175.5q-9 33 9.5 53t53.5 20h30q30 0 46.5 -14.5t26.5 -45.5q18 -54 59 -85.5t98 -31.5t98 31.5t59 85.5q10 31 26.5 45.5t45.5 14.5h31q35 0 53 -20
t8 -54q-29 -108 -117.5 -175t-203.5 -67z" />
    <glyph glyph-name="ibreve" unicode="&#x12d;" horiz-adv-x="534" 
d="M174 993q0 32 17.5 50t50.5 18h51q67 0 67 -68v-925q0 -68 -67 -68h-51q-32 0 -50 17.5t-18 50.5v925zM267 1194q-116 0 -204.5 67.5t-117.5 176.5q-9 33 9 52.5t53 19.5h31q30 0 46.5 -14.5t26.5 -45.5q18 -54 58.5 -85.5t97.5 -31.5t98 31.5t59 85.5q10 31 26.5 45.5
t46.5 14.5h30q36 0 53.5 -19.5t8.5 -53.5q-29 -108 -118 -175.5t-204 -67.5z" />
    <glyph glyph-name="Iogonek" unicode="&#x12e;" horiz-adv-x="583" 
d="M249 0h-3q-20 0 -35 18.5t-15 49.5v1298q0 68 67 68h58q67 0 67 -68v-1316q0 -48 -39 -83q-135 -118 -135 -206q0 -49 32.5 -80t79.5 -31q28 0 53 9q40 14 54 -20l9 -22q16 -41 -20 -59q-56 -27 -127 -27q-95 0 -160 60t-65 149q0 135 179 260z" />
    <glyph glyph-name="iogonek" unicode="&#x12f;" horiz-adv-x="534" 
d="M144 1357q0 53 35 88t88 35t88 -35t35 -88q0 -52 -35.5 -87t-87.5 -35t-87.5 35t-35.5 87zM221 0h-3q-19 0 -31.5 18t-12.5 50v925q0 68 68 68h51q67 0 67 -68v-943q0 -49 -38 -83q-136 -119 -136 -206q0 -49 32.5 -80t79.5 -31q28 0 53 9q41 14 55 -20l9 -22
q16 -41 -21 -59q-56 -27 -127 -27q-95 0 -160 60t-65 149q0 135 179 260z" />
    <glyph glyph-name="Idotaccent" unicode="&#x130;" horiz-adv-x="583" 
d="M321 1434q67 0 67 -68v-1298q0 -68 -67 -68h-58q-67 0 -67 68v1298q0 68 67 68h58zM176 1704q0 49 33.5 82.5t82.5 33.5t82.5 -33.5t33.5 -82.5t-33.5 -82.5t-82.5 -33.5t-82.5 33.5t-33.5 82.5z" />
    <glyph glyph-name="dotlessi" unicode="&#x131;" horiz-adv-x="534" 
d="M174 993q0 32 17.5 50t50.5 18h51q67 0 67 -68v-925q0 -68 -67 -68h-51q-32 0 -50 17.5t-18 50.5v925z" />
    <glyph glyph-name="IJ" unicode="&#x132;" horiz-adv-x="1483" 
d="M321 1434q67 0 67 -68v-1298q0 -68 -67 -68h-58q-67 0 -67 68v1298q0 68 67 68h58zM1133 1366q0 68 67 68h57q68 0 68 -68v-925q0 -466 -438 -466q-121 0 -227 42q-59 22 -34 88l14 37q22 60 88 35q83 -32 155 -32q250 0 250 296v925z" />
    <glyph glyph-name="ij" unicode="&#x133;" horiz-adv-x="1069" 
d="M174 993q0 32 17.5 50t50.5 18h51q67 0 67 -68v-925q0 -68 -67 -68h-51q-32 0 -50 17.5t-18 50.5v925zM144 1357q0 53 35 88t88 35t88 -35t35 -88q0 -52 -35.5 -87t-87.5 -35t-87.5 35t-35.5 87zM709 993q0 68 67 68h51q32 0 50 -17.5t18 -50.5v-1130q0 -178 -76.5 -258
t-237.5 -80h-15q-65 2 -65 69v27q0 68 28 68h30q75 0 112.5 40t37.5 131v1133zM679 1357q0 53 35.5 88t87.5 35t87.5 -35t35.5 -88q0 -52 -35.5 -87t-87.5 -35t-87.5 35t-35.5 87z" />
    <glyph glyph-name="Jcircumflex" unicode="&#x134;" horiz-adv-x="930" 
d="M580 1366q0 68 67 68h58q67 0 67 -68v-925q0 -466 -438 -466q-120 0 -226 42q-60 22 -35 88l14 37q22 60 88 35q83 -32 155 -32q250 0 250 296v925zM968 1629q28 -33 17 -58t-55 -25h-25q-49 0 -83 38l-146 166l-147 -166q-34 -38 -83 -38h-24q-44 0 -55 25t17 58
l195 224q32 38 83 38h28q51 0 83 -38z" />
    <glyph glyph-name="jcircumflex" unicode="&#x135;" horiz-adv-x="534" 
d="M174 993q0 32 17.5 50t50.5 18h51q67 0 67 -68v-1130q0 -178 -76.5 -258t-237.5 -80h-14q-66 2 -66 69v27q0 68 29 68h30q75 0 112 40t37 131v1133zM559 1297q28 -33 17 -58t-55 -25h-24q-49 0 -83 38l-147 166l-146 -166q-34 -38 -83 -38h-25q-44 0 -55 25t17 58
l195 225q32 38 83 38h29q51 0 83 -38z" />
    <glyph glyph-name="Kcommaaccent" unicode="&#x136;" horiz-adv-x="1229" 
d="M365 804h122l409 587q29 43 82 43h68q41 0 54 -24t-11 -58l-438 -628l511 -641q27 -34 15 -58.5t-55 -24.5h-69q-51 0 -83 40l-476 597h-129v-569q0 -32 -17.5 -50t-50.5 -18h-57q-68 0 -68 68v1298q0 68 68 68h57q68 0 68 -68v-562zM507 -481q-38 0 -51.5 22t2.5 57
l100 220q22 51 79 51h43q39 0 53 -22.5t-4 -57.5l-113 -221q-24 -49 -79 -49h-30z" />
    <glyph glyph-name="kcommaaccent" unicode="&#x137;" horiz-adv-x="1053" 
d="M467 509h-131v-441q0 -32 -17.5 -50t-50.5 -18h-51q-67 0 -67 68v1359q0 68 67 68h51q32 0 50 -17.5t18 -50.5v-757h133l269 350q31 41 82 41h66q43 0 54.5 -24.5t-14.5 -58.5l-302 -388l363 -508q25 -34 12 -58t-55 -24h-61q-54 0 -82 42zM393 -481q-38 0 -51.5 22
t2.5 57l100 220q22 51 79 51h43q39 0 53 -22.5t-4 -57.5l-112 -221q-25 -49 -80 -49h-30z" />
    <glyph glyph-name="kgreenlandic" unicode="&#x138;" horiz-adv-x="1053" 
d="M467 504h-131v-436q0 -68 -68 -68h-51q-67 0 -67 68v925q0 68 67 68h51q32 0 50 -17.5t18 -50.5v-328h133l269 355q31 41 82 41h66q42 0 54.5 -24.5t-13.5 -58.5l-303 -393l362 -503q25 -34 12.5 -58t-54.5 -24h-62q-53 0 -82 42z" />
    <glyph glyph-name="Lacute" unicode="&#x139;" horiz-adv-x="1054" 
d="M172 1366q0 32 17.5 50t50.5 18h57q68 0 68 -68v-1199h574q68 0 68 -68v-31q0 -32 -17.5 -50t-50.5 -18h-699q-32 0 -50 17.5t-18 50.5v1298zM422 1852q32 39 82 39h33q43 0 54.5 -24.5t-16.5 -58.5l-185 -223q-33 -39 -83 -39h-27q-43 0 -54.5 24.5t15.5 58.5z" />
    <glyph glyph-name="lacute" unicode="&#x13a;" horiz-adv-x="534" 
d="M174 1427q0 32 17.5 50t50.5 18h51q67 0 67 -68v-1359q0 -68 -67 -68h-51q-32 0 -50 17.5t-18 50.5v1359zM364 1914q32 39 81 39h33q43 0 55 -24.5t-16 -58.5l-185 -223q-33 -39 -83 -39h-28q-43 0 -54.5 24.5t15.5 58.5z" />
    <glyph glyph-name="Lcommaaccent" unicode="&#x13b;" horiz-adv-x="1054" 
d="M172 1366q0 32 17.5 50t50.5 18h57q68 0 68 -68v-1199h574q68 0 68 -68v-31q0 -32 -17.5 -50t-50.5 -18h-699q-32 0 -50 17.5t-18 50.5v1298zM453 -481q-38 0 -52 22t2 57l101 220q22 51 79 51h43q39 0 53 -22.5t-4 -57.5l-113 -221q-24 -49 -80 -49h-29z" />
    <glyph glyph-name="lcommaaccent" unicode="&#x13c;" horiz-adv-x="534" 
d="M174 1427q0 32 17.5 50t50.5 18h51q67 0 67 -68v-1359q0 -68 -67 -68h-51q-32 0 -50 17.5t-18 50.5v1359zM122 -481q-38 0 -51.5 22t2.5 57l100 220q22 51 79 51h43q39 0 53 -22.5t-4 -57.5l-113 -221q-25 -49 -79 -49h-30z" />
    <glyph glyph-name="Lcaron" unicode="&#x13d;" horiz-adv-x="1054" 
d="M172 1366q0 32 17.5 50t50.5 18h57q68 0 68 -68v-1199h574q68 0 68 -68v-31q0 -32 -17.5 -50t-50.5 -18h-699q-32 0 -50 17.5t-18 50.5v1298zM645 1334q0 53 35.5 88.5t87.5 35.5t88 -36t36 -88q0 -27 -13 -56l-108 -237q-21 -50 -79 -50q-29 0 -37 22t7 57l65 148
q-37 12 -59.5 43.5t-22.5 72.5z" />
    <glyph glyph-name="lcaron" unicode="&#x13e;" horiz-adv-x="823" 
d="M174 1427q0 32 17.5 50t50.5 18h51q67 0 67 -68v-1359q0 -68 -67 -68h-51q-32 0 -50 17.5t-18 50.5v1359zM527 1396q0 53 35.5 88.5t87.5 35.5t88 -36t36 -88q0 -28 -13 -57l-108 -236q-21 -50 -79 -50q-29 0 -37 22t7 57l65 147q-37 12 -59.5 44t-22.5 73z" />
    <glyph glyph-name="Ldot" unicode="&#x13f;" horiz-adv-x="1054" 
d="M172 1366q0 32 17.5 50t50.5 18h57q68 0 68 -68v-1199h574q68 0 68 -68v-31q0 -32 -17.5 -50t-50.5 -18h-699q-32 0 -50 17.5t-18 50.5v1298zM627 770q0 49 33 82.5t82 33.5t82.5 -33.5t33.5 -82.5t-33.5 -82.5t-82.5 -33.5t-82 33.5t-33 82.5z" />
    <glyph glyph-name="ldot" unicode="&#x140;" horiz-adv-x="821" 
d="M174 1427q0 32 17.5 50t50.5 18h51q67 0 67 -68v-1359q0 -68 -67 -68h-51q-32 0 -50 17.5t-18 50.5v1359zM537 770q0 49 33 82.5t82 33.5t82.5 -33.5t33.5 -82.5t-33.5 -82.5t-82.5 -33.5t-82 33.5t-33 82.5z" />
    <glyph glyph-name="Lslash" unicode="&#x141;" horiz-adv-x="1086" 
d="M204 563l-69 -35q-35 -18 -57.5 -3.5t-22.5 53.5v12q0 54 49 79l100 51v646q0 68 67 68h58q67 0 67 -68v-547l305 157q35 18 57.5 4t22.5 -53v-13q0 -53 -49 -78l-336 -173v-496h575q67 0 67 -68v-31q0 -68 -67 -68h-700q-67 0 -67 68v495z" />
    <glyph glyph-name="lslash" unicode="&#x142;" horiz-adv-x="602" 
d="M208 658l-100 -50q-35 -18 -57.5 -4t-22.5 53v1q0 57 49 80l131 66v623q0 68 67 68h52q67 0 67 -68v-529l101 50q35 18 57 4t22 -53v-1q0 -57 -49 -80l-131 -65v-685q0 -68 -67 -68h-52q-67 0 -67 68v590z" />
    <glyph glyph-name="Nacute" unicode="&#x143;" horiz-adv-x="1432" 
d="M172 1366q0 32 17.5 50t50.5 18h65q54 0 81 -44l688 -1056v1032q0 68 68 68h51q32 0 50 -17.5t18 -50.5v-1298q0 -68 -68 -68h-66q-53 0 -80 44l-689 1056v-1032q0 -68 -67 -68h-51q-32 0 -50 17.5t-18 50.5v1298zM812 1852q32 39 82 39h33q43 0 55 -24.5t-16 -58.5
l-186 -223q-33 -39 -83 -39h-27q-43 0 -54.5 24.5t15.5 58.5z" />
    <glyph glyph-name="nacute" unicode="&#x144;" horiz-adv-x="1235" 
d="M336 68q0 -68 -68 -68h-51q-67 0 -67 68v925q0 68 67 68h51q32 0 50 -17.5t18 -50.5v-95q63 82 151.5 134.5t192.5 52.5q189 0 308 -120.5t119 -312.5v-584q0 -32 -17.5 -50t-50.5 -18h-51q-67 0 -67 68v574q0 120 -77.5 198.5t-198.5 78.5q-93 0 -173.5 -62.5
t-135.5 -153.5v-635zM725 1521q32 39 82 39h33q43 0 55 -24.5t-16 -58.5l-186 -224q-33 -39 -83 -39h-27q-43 0 -54.5 24.5t15.5 58.5z" />
    <glyph glyph-name="Ncommaaccent" unicode="&#x145;" horiz-adv-x="1432" 
d="M172 1366q0 32 17.5 50t50.5 18h65q54 0 81 -44l688 -1056v1032q0 68 68 68h51q32 0 50 -17.5t18 -50.5v-1298q0 -68 -68 -68h-66q-53 0 -80 44l-689 1056v-1032q0 -68 -67 -68h-51q-32 0 -50 17.5t-18 50.5v1298zM587 -481q-38 0 -51.5 22t2.5 57l100 220q22 51 79 51
h43q39 0 53 -22.5t-4 -57.5l-113 -221q-24 -49 -80 -49h-29z" />
    <glyph glyph-name="ncommaaccent" unicode="&#x146;" horiz-adv-x="1235" 
d="M336 68q0 -68 -68 -68h-51q-67 0 -67 68v925q0 68 67 68h51q32 0 50 -17.5t18 -50.5v-95q63 82 151.5 134.5t192.5 52.5q189 0 308 -120.5t119 -312.5v-584q0 -32 -17.5 -50t-50.5 -18h-51q-67 0 -67 68v574q0 120 -77.5 198.5t-198.5 78.5q-93 0 -173.5 -62.5
t-135.5 -153.5v-635zM493 -481q-38 0 -52 22t2 57l101 220q22 51 79 51h43q39 0 53 -22.5t-4 -57.5l-113 -221q-24 -49 -80 -49h-29z" />
    <glyph glyph-name="Ncaron" unicode="&#x147;" horiz-adv-x="1432" 
d="M172 1366q0 32 17.5 50t50.5 18h65q54 0 81 -44l688 -1056v1032q0 68 68 68h51q32 0 50 -17.5t18 -50.5v-1298q0 -68 -68 -68h-66q-53 0 -80 44l-689 1056v-1032q0 -68 -67 -68h-51q-32 0 -50 17.5t-18 50.5v1298zM813 1584q-32 -38 -83 -38h-29q-51 0 -83 38l-194 224
q-28 33 -17 58t55 25h24q49 0 83 -38l147 -165l146 165q34 38 83 38h25q44 0 55 -25t-17 -58z" />
    <glyph glyph-name="ncaron" unicode="&#x148;" horiz-adv-x="1235" 
d="M336 68q0 -68 -68 -68h-51q-67 0 -67 68v925q0 68 67 68h51q32 0 50 -17.5t18 -50.5v-95q63 82 151.5 134.5t192.5 52.5q189 0 308 -120.5t119 -312.5v-584q0 -32 -17.5 -50t-50.5 -18h-51q-67 0 -67 68v574q0 120 -77.5 198.5t-198.5 78.5q-93 0 -173.5 -62.5
t-135.5 -153.5v-635zM703 1232q-32 -38 -82 -38h-29q-51 0 -83 38l-195 224q-28 33 -17 58t55 25h25q49 0 83 -38l146 -166l147 166q34 38 83 38h24q44 0 55 -25t-17 -58z" />
    <glyph glyph-name="napostrophe" unicode="&#x149;" horiz-adv-x="1434" 
d="M535 68q0 -68 -68 -68h-51q-32 0 -50 17.5t-18 50.5v925q0 32 17.5 50t50.5 18h51q32 0 50 -17.5t18 -50.5v-95q63 82 151.5 134.5t192.5 52.5q189 0 308 -120.5t119 -312.5v-584q0 -32 -17.5 -50t-50.5 -18h-51q-32 0 -50 17.5t-18 50.5v574q0 120 -77 198.5t-198 78.5
q-93 0 -173.5 -62.5t-135.5 -153.5v-635zM73 1396q0 53 35.5 88.5t87.5 35.5t87.5 -35.5t35.5 -88.5q0 -28 -13 -57l-107 -236q-21 -50 -79 -50q-29 0 -37.5 22t6.5 57l66 147q-37 12 -59.5 44t-22.5 73z" />
    <glyph glyph-name="Eng" unicode="&#x14a;" horiz-adv-x="1432" 
d="M1261 -105q0 -370 -385 -370q-27 0 -40 1q-64 5 -64 71v27q0 69 46 66q16 -1 47 -1q111 0 160 51t49 157v104l-716 1099v-1032q0 -68 -67 -68h-51q-32 0 -50 17.5t-18 50.5v1298q0 68 68 68h65q54 0 81 -44l688 -1056v1032q0 68 68 68h51q32 0 50 -17.5t18 -50.5v-1471z
" />
    <glyph glyph-name="eng" unicode="&#x14b;" horiz-adv-x="1235" 
d="M921 642q0 120 -77.5 198.5t-198.5 78.5q-93 0 -173.5 -62.5t-135.5 -153.5v-635q0 -68 -68 -68h-51q-67 0 -67 68v925q0 68 67 68h51q32 0 50 -17.5t18 -50.5v-95q63 82 151.5 134.5t192.5 52.5q189 0 308 -120.5t119 -312.5v-757q0 -188 -93 -279t-287 -91
q-7 0 -22 0.5t-23 0.5q-64 5 -64 72v26q0 69 47 66q16 -1 47 -1q111 0 160 51t49 157v745z" />
    <glyph glyph-name="Omacron" unicode="&#x14c;" horiz-adv-x="1673" 
d="M837 145q153 0 281.5 75.5t202.5 207t74 289.5q0 118 -44 224t-118.5 182t-177.5 120.5t-218 44.5t-218 -44.5t-177.5 -120.5t-118.5 -182t-44 -224q0 -158 74 -289.5t202.5 -207t281.5 -75.5zM837 1458q209 0 382 -97.5t272 -267.5t99 -376q0 -154 -58.5 -291.5
t-158.5 -236.5t-239.5 -156.5t-296.5 -57.5t-297 57.5t-240 156t-158.5 236.5t-58.5 292t58.5 291.5t158.5 236t240 156t297 57.5zM540 1703q0 67 67 67h459q68 0 68 -67v-10q0 -68 -68 -68h-459q-67 0 -67 68v10z" />
    <glyph glyph-name="omacron" unicode="&#x14d;" horiz-adv-x="1298" 
d="M649 142q162 0 273 113.5t111 274.5q0 162 -111 275.5t-273 113.5t-273 -113.5t-111 -275.5q0 -161 111 -274.5t273 -113.5zM649 1085q122 0 229 -44t182.5 -118.5t119 -177t43.5 -215.5t-43.5 -215.5t-119 -177t-182.5 -118.5t-229 -44t-229 44t-182 118.5t-118.5 177
t-43.5 215.5t43.5 215.5t118.5 177t182 118.5t229 44zM352 1371q0 68 68 68h459q67 0 67 -68v-10q0 -68 -67 -68h-459q-32 0 -50 17.5t-18 50.5v10z" />
    <glyph glyph-name="Obreve" unicode="&#x14e;" horiz-adv-x="1673" 
d="M837 145q153 0 281.5 75.5t202.5 207t74 289.5q0 118 -44 224t-118.5 182t-177.5 120.5t-218 44.5t-218 -44.5t-177.5 -120.5t-118.5 -182t-44 -224q0 -158 74 -289.5t202.5 -207t281.5 -75.5zM837 1458q209 0 382 -97.5t272 -267.5t99 -376q0 -154 -58.5 -291.5
t-158.5 -236.5t-239.5 -156.5t-296.5 -57.5t-297 57.5t-240 156t-158.5 236.5t-58.5 292t58.5 291.5t158.5 236t240 156t297 57.5zM837 1526q-116 0 -205 67.5t-118 175.5q-9 33 9.5 53t53.5 20h30q30 0 46.5 -14.5t26.5 -45.5q18 -54 59 -85.5t98 -31.5t97.5 31.5
t58.5 85.5q10 31 26.5 45.5t46.5 14.5h31q35 0 53 -20t8 -54q-29 -108 -117.5 -175t-203.5 -67z" />
    <glyph glyph-name="obreve" unicode="&#x14f;" horiz-adv-x="1298" 
d="M649 142q162 0 273 113.5t111 274.5q0 162 -111 275.5t-273 113.5t-273 -113.5t-111 -275.5q0 -161 111 -274.5t273 -113.5zM649 1085q122 0 229 -44t182.5 -118.5t119 -177t43.5 -215.5t-43.5 -215.5t-119 -177t-182.5 -118.5t-229 -44t-229 44t-182 118.5t-118.5 177
t-43.5 215.5t43.5 215.5t118.5 177t182 118.5t229 44zM649 1194q-116 0 -204.5 67.5t-117.5 176.5q-9 33 9 52.5t53 19.5h31q30 0 46.5 -14.5t26.5 -45.5q18 -54 58.5 -85.5t97.5 -31.5t98 31.5t59 85.5q10 31 26.5 45.5t46.5 14.5h30q36 0 53.5 -19.5t8.5 -53.5
q-29 -108 -118 -175.5t-204 -67.5z" />
    <glyph glyph-name="Ohungarumlaut" unicode="&#x150;" horiz-adv-x="1673" 
d="M837 145q153 0 281.5 75.5t202.5 207t74 289.5q0 118 -44 224t-118.5 182t-177.5 120.5t-218 44.5t-218 -44.5t-177.5 -120.5t-118.5 -182t-44 -224q0 -158 74 -289.5t202.5 -207t281.5 -75.5zM837 1458q209 0 382 -97.5t272 -267.5t99 -376q0 -154 -58.5 -291.5
t-158.5 -236.5t-239.5 -156.5t-296.5 -57.5t-297 57.5t-240 156t-158.5 236.5t-58.5 292t58.5 291.5t158.5 236t240 156t297 57.5zM797 1852q32 39 82 39h32q43 0 55 -24.5t-16 -58.5l-185 -223q-33 -39 -83 -39h-29q-43 0 -54.5 25t15.5 58zM1120 1852q32 39 82 39h33
q43 0 55 -24.5t-16 -58.5l-185 -223q-33 -39 -83 -39h-28q-43 0 -54.5 24.5t15.5 58.5z" />
    <glyph glyph-name="ohungarumlaut" unicode="&#x151;" horiz-adv-x="1298" 
d="M649 142q162 0 273 113.5t111 274.5q0 162 -111 275.5t-273 113.5t-273 -113.5t-111 -275.5q0 -161 111 -274.5t273 -113.5zM649 1085q122 0 229 -44t182.5 -118.5t119 -177t43.5 -215.5t-43.5 -215.5t-119 -177t-182.5 -118.5t-229 -44t-229 44t-182 118.5t-118.5 177
t-43.5 215.5t43.5 215.5t118.5 177t182 118.5t229 44zM593 1521q32 39 82 39h33q43 0 54.5 -24.5t-16.5 -58.5l-185 -224q-33 -39 -83 -39h-28q-43 0 -54.5 25t15.5 58zM916 1521q32 39 82 39h33q43 0 55 -24.5t-16 -58.5l-185 -224q-33 -39 -83 -39h-28q-43 0 -54.5 24.5
t15.5 58.5z" />
    <glyph glyph-name="OE" unicode="&#x152;" horiz-adv-x="1839" 
d="M872 170v1094h-16q-160 0 -292.5 -72t-208.5 -197.5t-76 -277.5q0 -114 45 -216t122 -174.5t183.5 -114.5t226.5 -42h16zM856 0q-213 0 -390 94t-280 258.5t-103 364.5q0 149 60.5 282t164 228.5t246.5 151t302 55.5h778q68 0 68 -68v-32q0 -67 -68 -67h-569v-463h517
q68 0 68 -68v-31q0 -32 -17.5 -50t-50.5 -18h-517v-470h588q67 0 67 -68v-31q0 -68 -67 -68h-797z" />
    <glyph glyph-name="oe" unicode="&#x153;" horiz-adv-x="2185" 
d="M641 1085q150 0 275.5 -74.5t194.5 -198.5q66 122 190 197.5t273 75.5q153 0 276.5 -71.5t191 -193t67.5 -266.5v-19q-3 -63 -71 -63h-831q17 -144 122.5 -240t255.5 -96q157 0 282 108q49 43 95 1l30 -27q52 -49 2 -96q-166 -147 -405 -147q-158 0 -286 75t-193 196
q-69 -123 -194 -197t-275 -74q-159 0 -289 74t-203 201t-73 280t73 280t203 201t289 74zM641 142q158 0 267 112.5t109 275.5t-109 276t-267 113t-267 -113t-109 -276t109 -275.5t267 -112.5zM1574 925q-129 0 -230.5 -85t-128.5 -213h699q-23 130 -116.5 214t-223.5 84z
" />
    <glyph glyph-name="Racute" unicode="&#x154;" horiz-adv-x="1228" 
d="M365 541v-473q0 -68 -68 -68h-57q-68 0 -68 68v1298q0 68 68 68h390q227 0 359.5 -121.5t132.5 -325.5q0 -171 -96 -286t-265 -148l331 -471q24 -34 11 -58t-54 -24h-61q-53 0 -82 43l-349 498h-192zM927 987q0 129 -80.5 204.5t-223.5 75.5h-258v-559h258
q143 0 223.5 75t80.5 204zM696 1852q32 39 82 39h33q43 0 55 -24.5t-16 -58.5l-185 -223q-33 -39 -83 -39h-28q-43 0 -54.5 24.5t15.5 58.5z" />
    <glyph glyph-name="racute" unicode="&#x155;" 
d="M641 919q-88 0 -168 -65.5t-137 -172.5v-613q0 -32 -17.5 -50t-50.5 -18h-51q-67 0 -67 68v925q0 68 67 68h51q32 0 50 -17.5t18 -50.5v-106q148 198 330 198q22 0 41 -3q60 -10 53 -77l-3 -34q-6 -64 -78 -55q-36 3 -38 3zM496 1521q32 39 82 39h32q43 0 55 -24.5
t-16 -58.5l-185 -224q-33 -39 -83 -39h-28q-43 0 -54.5 24.5t15.5 58.5z" />
    <glyph glyph-name="Rcommaaccent" unicode="&#x156;" horiz-adv-x="1228" 
d="M365 541v-473q0 -68 -68 -68h-57q-68 0 -68 68v1298q0 68 68 68h390q227 0 359.5 -121.5t132.5 -325.5q0 -171 -96 -286t-265 -148l331 -471q24 -34 11 -58t-54 -24h-61q-53 0 -82 43l-349 498h-192zM927 987q0 129 -80.5 204.5t-223.5 75.5h-258v-559h258
q143 0 223.5 75t80.5 204zM471 -481q-38 0 -51.5 22t2.5 57l100 220q22 51 79 51h43q39 0 53 -22.5t-4 -57.5l-112 -221q-25 -49 -80 -49h-30z" />
    <glyph glyph-name="rcommaaccent" unicode="&#x157;" 
d="M641 919q-88 0 -168 -65.5t-137 -172.5v-613q0 -32 -17.5 -50t-50.5 -18h-51q-67 0 -67 68v925q0 68 67 68h51q32 0 50 -17.5t18 -50.5v-106q148 198 330 198q22 0 41 -3q60 -10 53 -77l-3 -34q-6 -64 -78 -55q-36 3 -38 3zM97 -481q-38 0 -51.5 22t2.5 57l100 220
q22 51 79 51h43q39 0 53 -22.5t-4 -57.5l-112 -221q-25 -49 -80 -49h-30z" />
    <glyph glyph-name="Rcaron" unicode="&#x158;" horiz-adv-x="1228" 
d="M365 541v-473q0 -68 -68 -68h-57q-68 0 -68 68v1298q0 68 68 68h390q227 0 359.5 -121.5t132.5 -325.5q0 -171 -96 -286t-265 -148l331 -471q24 -34 11 -58t-54 -24h-61q-53 0 -82 43l-349 498h-192zM927 987q0 129 -80.5 204.5t-223.5 75.5h-258v-559h258
q143 0 223.5 75t80.5 204zM683 1584q-32 -38 -83 -38h-29q-51 0 -83 38l-194 224q-28 33 -17 58t55 25h24q49 0 83 -38l147 -165l146 165q34 38 83 38h25q44 0 55 -25t-17 -58z" />
    <glyph glyph-name="rcaron" unicode="&#x159;" 
d="M641 919q-88 0 -168 -65.5t-137 -172.5v-613q0 -32 -17.5 -50t-50.5 -18h-51q-67 0 -67 68v925q0 68 67 68h51q32 0 50 -17.5t18 -50.5v-106q148 198 330 198q22 0 41 -3q60 -10 53 -77l-3 -34q-6 -64 -78 -55q-36 3 -38 3zM503 1232q-32 -38 -83 -38h-29q-51 0 -83 38
l-194 224q-28 33 -17 58t55 25h24q49 0 83 -38l147 -166l146 166q34 38 83 38h24q44 0 55 -25t-17 -58z" />
    <glyph glyph-name="Sacute" unicode="&#x15a;" horiz-adv-x="1204" 
d="M181 287q44 49 95 1q155 -143 327 -143q141 0 229.5 65.5t88.5 171.5q0 101 -80 171t-261 107q-219 45 -331.5 150.5t-112.5 259.5q0 172 127 280t328 108q233 0 402 -138q50 -42 6 -95l-28 -35q-42 -51 -95 -7q-134 105 -276 105q-119 0 -193.5 -57t-74.5 -148
q0 -97 80.5 -161.5t247.5 -102.5q240 -54 348 -161.5t108 -274.5q0 -181 -137 -294.5t-367 -113.5q-131 0 -251.5 49t-209.5 135q-46 44 0 95zM705 1852q32 39 81 39h33q43 0 55 -24.5t-16 -58.5l-185 -223q-33 -39 -83 -39h-28q-43 0 -54.5 24.5t15.5 58.5z" />
    <glyph glyph-name="sacute" unicode="&#x15b;" horiz-adv-x="954" 
d="M135 223q42 50 94 4q109 -91 246 -91q100 0 158.5 43t58.5 114q0 68 -56 111.5t-179 67.5q-345 67 -345 320q0 127 100.5 210t264.5 83q167 0 305 -99q54 -40 11 -94l-18 -23q-40 -50 -95 -10q-94 66 -190 66q-83 0 -137.5 -38.5t-54.5 -98.5q0 -58 55.5 -101.5
t163.5 -65.5q183 -36 272.5 -117.5t89.5 -213.5q0 -138 -105.5 -226.5t-286.5 -88.5q-221 0 -367 130q-48 44 -4 96zM564 1521q32 39 82 39h33q43 0 55 -24.5t-16 -58.5l-186 -224q-33 -39 -82 -39h-28q-43 0 -54.5 24.5t15.5 58.5z" />
    <glyph glyph-name="Scircumflex" unicode="&#x15c;" horiz-adv-x="1204" 
d="M181 287q44 49 95 1q155 -143 327 -143q141 0 229.5 65.5t88.5 171.5q0 101 -80 171t-261 107q-219 45 -331.5 150.5t-112.5 259.5q0 172 127 280t328 108q233 0 402 -138q50 -42 6 -95l-28 -35q-42 -51 -95 -7q-134 105 -276 105q-119 0 -193.5 -57t-74.5 -148
q0 -97 80.5 -161.5t247.5 -102.5q240 -54 348 -161.5t108 -274.5q0 -181 -137 -294.5t-367 -113.5q-131 0 -251.5 49t-209.5 135q-46 44 0 95zM881 1629q28 -33 17 -58t-55 -25h-25q-49 0 -83 38l-146 166l-147 -166q-34 -38 -83 -38h-24q-44 0 -55 25t17 58l195 224
q32 38 82 38h29q51 0 83 -38z" />
    <glyph glyph-name="scircumflex" unicode="&#x15d;" horiz-adv-x="954" 
d="M135 223q42 50 94 4q109 -91 246 -91q100 0 158.5 43t58.5 114q0 68 -56 111.5t-179 67.5q-345 67 -345 320q0 127 100.5 210t264.5 83q167 0 305 -99q54 -40 11 -94l-18 -23q-40 -50 -95 -10q-94 66 -190 66q-83 0 -137.5 -38.5t-54.5 -98.5q0 -58 55.5 -101.5
t163.5 -65.5q183 -36 272.5 -117.5t89.5 -213.5q0 -138 -105.5 -226.5t-286.5 -88.5q-221 0 -367 130q-48 44 -4 96zM757 1297q28 -33 17 -58t-55 -25h-25q-49 0 -83 38l-146 166l-147 -166q-34 -38 -82 -38h-25q-44 0 -55 25t17 58l195 225q32 38 83 38h28q51 0 83 -38z
" />
    <glyph glyph-name="Scedilla" unicode="&#x15e;" horiz-adv-x="1204" 
d="M565 -214q-16 0 -34 -2q-23 -3 -39 16q-8 10 -7 26t9 30l66 121q-116 9 -222.5 57t-186.5 125q-45 44 0 94l30 33q45 49 95 2q155 -143 327 -143q141 0 229.5 65.5t88.5 171.5q0 101 -80 171t-261 107q-219 45 -331.5 150.5t-112.5 259.5q0 172 127 280t328 108
q233 0 402 -138q50 -42 6 -95l-28 -35q-42 -51 -95 -7q-134 105 -276 105q-119 0 -193.5 -57t-74.5 -148q0 -97 80.5 -161.5t247.5 -102.5q240 -54 348 -161.5t108 -274.5q0 -161 -110 -270t-300 -131h-1l-62 -100q86 -16 138 -72t52 -129q0 -91 -74.5 -152t-184.5 -61
q-77 0 -140 31q-22 10 -25.5 32t7.5 32l19 27q19 27 51 10q34 -18 79 -18q53 0 87.5 29.5t34.5 72.5t-34.5 72.5t-87.5 29.5z" />
    <glyph glyph-name="scedilla" unicode="&#x15f;" horiz-adv-x="954" 
d="M431 -214q-16 0 -34 -2q-24 -3 -40 16q-8 10 -7 26t9 30l69 122q-183 16 -308 127q-48 44 -4 96l19 22q42 50 94 4q109 -91 246 -91q100 0 158.5 43t58.5 114q0 68 -56 111.5t-179 67.5q-345 67 -345 320q0 127 100.5 210t264.5 83q167 0 305 -99q54 -40 11 -94l-18 -23
q-40 -50 -95 -10q-94 66 -190 66q-83 0 -137.5 -38.5t-54.5 -98.5q0 -58 55.5 -101.5t163.5 -65.5q183 -36 272.5 -117.5t89.5 -213.5q0 -120 -82 -204t-227 -104l-61 -100q86 -16 137.5 -72t51.5 -129q0 -91 -74 -152t-184 -61q-77 0 -140 31q-22 10 -25.5 32t7.5 32l19 27
q19 27 51 10q34 -18 79 -18q53 0 87.5 29.5t34.5 72.5t-34.5 72.5t-87.5 29.5z" />
    <glyph glyph-name="Scaron" unicode="&#x160;" horiz-adv-x="1204" 
d="M181 287q44 49 95 1q155 -143 327 -143q141 0 229.5 65.5t88.5 171.5q0 101 -80 171t-261 107q-219 45 -331.5 150.5t-112.5 259.5q0 172 127 280t328 108q233 0 402 -138q50 -42 6 -95l-28 -35q-42 -51 -95 -7q-134 105 -276 105q-119 0 -193.5 -57t-74.5 -148
q0 -97 80.5 -161.5t247.5 -102.5q240 -54 348 -161.5t108 -274.5q0 -181 -137 -294.5t-367 -113.5q-131 0 -251.5 49t-209.5 135q-46 44 0 95zM686 1584q-32 -38 -83 -38h-29q-50 0 -82 38l-195 224q-28 33 -17 58t55 25h24q49 0 83 -38l147 -165l146 165q34 38 83 38h25
q44 0 55 -25t-17 -58z" />
    <glyph glyph-name="scaron" unicode="&#x161;" horiz-adv-x="954" 
d="M135 223q42 50 94 4q109 -91 246 -91q100 0 158.5 43t58.5 114q0 68 -56 111.5t-179 67.5q-345 67 -345 320q0 127 100.5 210t264.5 83q167 0 305 -99q54 -40 11 -94l-18 -23q-40 -50 -95 -10q-94 66 -190 66q-83 0 -137.5 -38.5t-54.5 -98.5q0 -58 55.5 -101.5
t163.5 -65.5q183 -36 272.5 -117.5t89.5 -213.5q0 -138 -105.5 -226.5t-286.5 -88.5q-221 0 -367 130q-48 44 -4 96zM564 1232q-32 -38 -83 -38h-28q-51 0 -83 38l-195 224q-28 33 -17 58t55 25h25q49 0 83 -38l146 -166l146 166q34 38 83 38h25q44 0 55 -25t-17 -58z" />
    <glyph glyph-name="Tcommaaccent" unicode="&#x162;" horiz-adv-x="1124" 
d="M506 -214q-16 0 -34 -2q-24 -3 -40 16q-8 10 -7 26t9 30l79 144q-47 0 -47 68v1199h-335q-68 0 -68 67v32q0 32 17.5 50t50.5 18h862q32 0 50 -17.5t18 -50.5v-32q0 -67 -68 -67h-335v-1222q0 -44 -24 -84l-50 -79q86 -16 137.5 -72t51.5 -129q0 -91 -74 -152t-184 -61
q-77 0 -140 31q-22 10 -26 32t7 32l20 27q19 27 51 10q34 -18 79 -18q53 0 87.5 29.5t34.5 72.5t-34.5 72.5t-87.5 29.5z" />
    <glyph glyph-name="tcommaaccent" unicode="&#x163;" horiz-adv-x="782" 
d="M367 -214q-16 0 -34 -2q-24 -3 -40 16q-8 10 -7 26t9 30l93 166q-150 79 -150 315v560h-124q-68 0 -68 68v28q0 32 17.5 50t50.5 18h124v226q0 65 64 71l51 4q34 3 52.5 -14t18.5 -51v-236h222q32 0 50 -17.5t18 -50.5v-28q0 -32 -17.5 -50t-50.5 -18h-222v-558
q0 -103 48.5 -151.5t158.5 -48.5h25q70 3 70 -64v-28q0 -67 -55 -70q-36 -2 -56 -2q-48 0 -109 9l-62 -102q86 -16 138 -72t52 -129q0 -91 -74 -152t-184 -61q-77 0 -140 31q-22 10 -26 32t7 32l20 27q19 27 51 10q34 -18 79 -18q53 0 87 29.5t34 72.5t-34 72.5t-87 29.5z
" />
    <glyph glyph-name="Tcaron" unicode="&#x164;" horiz-adv-x="1124" 
d="M466 1267h-335q-68 0 -68 67v32q0 32 17.5 50t50.5 18h862q32 0 50 -17.5t18 -50.5v-32q0 -67 -68 -67h-335v-1199q0 -68 -67 -68h-57q-68 0 -68 68v1199zM659 1584q-32 -38 -82 -38h-29q-51 0 -83 38l-195 224q-28 33 -17 58t55 25h25q49 0 83 -38l146 -165l147 165
q34 38 83 38h24q44 0 55 -25t-17 -58z" />
    <glyph glyph-name="tcaron" unicode="&#x165;" horiz-adv-x="1098" 
d="M424 339q0 -103 48.5 -151.5t158.5 -48.5h25q70 3 70 -64v-28q0 -67 -55 -70q-36 -2 -56 -2q-193 0 -285 88.5t-92 273.5v560h-124q-68 0 -68 68v28q0 32 17.5 50t50.5 18h124v226q0 65 64 71l51 4q34 3 52.5 -14t18.5 -51v-236h222q32 0 50 -17.5t18 -50.5v-28
q0 -32 -17.5 -50t-50.5 -18h-222v-558zM803 1396q0 53 35.5 88.5t87.5 35.5t88 -36t36 -88q0 -26 -14 -57l-107 -236q-21 -50 -79 -50q-29 0 -37.5 22t6.5 57l66 147q-37 12 -59.5 44t-22.5 73z" />
    <glyph glyph-name="Tbar" unicode="&#x166;" horiz-adv-x="1124" 
d="M466 644h-205q-67 0 -67 68v9q0 67 67 67h205v479h-335q-68 0 -68 67v32q0 32 17.5 50t50.5 18h862q32 0 50 -17.5t18 -50.5v-32q0 -67 -68 -67h-335v-479h205q68 0 68 -67v-9q0 -32 -17.5 -50t-50.5 -18h-205v-576q0 -68 -67 -68h-57q-68 0 -68 68v576z" />
    <glyph glyph-name="tbar" unicode="&#x167;" horiz-adv-x="782" 
d="M424 613h179q68 0 68 -67q0 -62 -68 -62h-179v-145q0 -103 48.5 -151.5t158.5 -48.5h25q70 3 70 -64v-28q0 -67 -55 -70q-36 -2 -56 -2q-193 0 -285 88.5t-92 273.5v147h-99q-67 0 -67 68q0 61 67 61h99v284h-124q-68 0 -68 68v28q0 32 17.5 50t50.5 18h124v226
q0 65 64 71l51 4q34 3 52.5 -14t18.5 -51v-236h222q32 0 50 -17.5t18 -50.5v-28q0 -32 -17.5 -50t-50.5 -18h-222v-284z" />
    <glyph glyph-name="Utilde" unicode="&#x168;" horiz-adv-x="1357" 
d="M1199 501q0 -155 -69 -275.5t-187 -184.5t-264 -64t-264 64t-187 184.5t-69 275.5v865q0 68 67 68h58q67 0 67 -68v-887q0 -148 93.5 -240t234.5 -92t234.5 92t93.5 240v887q0 68 67 68h58q67 0 67 -68v-865zM674 1618q-3 2 -22.5 16.5t-25.5 18.5t-20.5 12.5t-25 11.5
t-21.5 3q-33 0 -51 -40q-27 -62 -82 -51l-26 5q-34 7 -47.5 28.5t-2.5 53.5q52 150 174 150q79 0 160 -60q3 -2 22.5 -16.5t25.5 -18.5t20.5 -12.5t25 -11.5t21.5 -3q33 0 51 40q27 62 82 51l25 -5q34 -7 48 -28.5t3 -53.5q-51 -149 -174 -149q-80 0 -160 59z" />
    <glyph glyph-name="utilde" unicode="&#x169;" horiz-adv-x="1235" 
d="M900 993q0 68 68 68h51q67 0 67 -68v-925q0 -68 -67 -68h-51q-32 0 -50 17.5t-18 50.5v95q-63 -82 -151.5 -135t-192.5 -53q-188 0 -307.5 121t-119.5 313v584q0 32 17.5 50t50.5 18h51q67 0 67 -68v-574q0 -120 77.5 -198.5t198.5 -78.5q93 0 173.5 62t135.5 153v636z
M601 1286q-6 4 -23 17t-25 18.5t-21.5 13.5t-24 11t-21.5 3q-33 0 -51 -40q-27 -63 -82 -52l-25 6q-34 7 -47.5 28.5t-2.5 53.5q51 149 174 149q79 0 159 -59q6 -4 23 -17t25 -18.5t21.5 -13.5t24 -11t21.5 -3q33 0 51 40q27 62 82 51l26 -5q34 -7 47.5 -28.5t2.5 -53.5
q-51 -149 -174 -149q-80 0 -160 59z" />
    <glyph glyph-name="Umacron" unicode="&#x16a;" horiz-adv-x="1357" 
d="M1199 501q0 -155 -69 -275.5t-187 -184.5t-264 -64t-264 64t-187 184.5t-69 275.5v865q0 68 67 68h58q67 0 67 -68v-887q0 -148 93.5 -240t234.5 -92t234.5 92t93.5 240v887q0 68 67 68h58q67 0 67 -68v-865zM382 1703q0 67 68 67h458q68 0 68 -67v-10q0 -68 -68 -68
h-458q-32 0 -50 17.5t-18 50.5v10z" />
    <glyph glyph-name="umacron" unicode="&#x16b;" horiz-adv-x="1235" 
d="M900 993q0 68 68 68h51q67 0 67 -68v-925q0 -68 -67 -68h-51q-32 0 -50 17.5t-18 50.5v95q-63 -82 -151.5 -135t-192.5 -53q-188 0 -307.5 121t-119.5 313v584q0 32 17.5 50t50.5 18h51q67 0 67 -68v-574q0 -120 77.5 -198.5t198.5 -78.5q93 0 173.5 62t135.5 153v636z
M310 1371q0 68 68 68h459q67 0 67 -68v-10q0 -68 -67 -68h-459q-32 0 -50 17.5t-18 50.5v10z" />
    <glyph glyph-name="Ubreve" unicode="&#x16c;" horiz-adv-x="1357" 
d="M1199 501q0 -155 -69 -275.5t-187 -184.5t-264 -64t-264 64t-187 184.5t-69 275.5v865q0 68 67 68h58q67 0 67 -68v-887q0 -148 93.5 -240t234.5 -92t234.5 92t93.5 240v887q0 68 67 68h58q67 0 67 -68v-865zM679 1526q-116 0 -205 67.5t-118 175.5q-9 33 9.5 53t53.5 20
h31q29 0 45.5 -14.5t26.5 -45.5q18 -54 59 -85.5t98 -31.5t98 31.5t59 85.5q10 31 26.5 45.5t45.5 14.5h31q35 0 53 -20t8 -54q-29 -108 -117.5 -175t-203.5 -67z" />
    <glyph glyph-name="ubreve" unicode="&#x16d;" horiz-adv-x="1235" 
d="M900 993q0 68 68 68h51q67 0 67 -68v-925q0 -68 -67 -68h-51q-32 0 -50 17.5t-18 50.5v95q-63 -82 -151.5 -135t-192.5 -53q-188 0 -307.5 121t-119.5 313v584q0 32 17.5 50t50.5 18h51q67 0 67 -68v-574q0 -120 77.5 -198.5t198.5 -78.5q93 0 173.5 62t135.5 153v636z
M606 1194q-116 0 -204.5 67.5t-117.5 176.5q-9 33 9 52.5t53 19.5h31q30 0 46.5 -14.5t26.5 -45.5q18 -54 58.5 -85.5t97.5 -31.5t98 31.5t59 85.5q10 31 26.5 45.5t46.5 14.5h30q36 0 53.5 -19.5t8.5 -53.5q-29 -108 -118 -175.5t-204 -67.5z" />
    <glyph glyph-name="Uring" unicode="&#x16e;" horiz-adv-x="1357" 
d="M1199 501q0 -155 -69 -275.5t-187 -184.5t-264 -64t-264 64t-187 184.5t-69 275.5v865q0 68 67 68h58q67 0 67 -68v-887q0 -148 93.5 -240t234.5 -92t234.5 92t93.5 240v887q0 68 67 68h58q67 0 67 -68v-865zM586 1726q0 -39 26.5 -65t66.5 -26t66.5 26t26.5 65
t-26.5 65.5t-66.5 26.5t-66.5 -26.5t-26.5 -65.5zM464 1726q0 86 61.5 143t153.5 57t153.5 -57t61.5 -143q0 -85 -61.5 -142t-153.5 -57t-153.5 57t-61.5 142z" />
    <glyph glyph-name="uring" unicode="&#x16f;" horiz-adv-x="1235" 
d="M900 993q0 68 68 68h51q67 0 67 -68v-925q0 -68 -67 -68h-51q-32 0 -50 17.5t-18 50.5v95q-63 -82 -151.5 -135t-192.5 -53q-188 0 -307.5 121t-119.5 313v584q0 32 17.5 50t50.5 18h51q67 0 67 -68v-574q0 -120 77.5 -198.5t198.5 -78.5q93 0 173.5 62t135.5 153v636z
M511 1395q0 -39 26.5 -65t66.5 -26t66.5 26t26.5 65t-26.5 65t-66.5 26t-66.5 -26t-26.5 -65zM389 1395q0 85 61.5 142t153.5 57t153.5 -57t61.5 -142q0 -86 -61.5 -143t-153.5 -57t-153.5 57t-61.5 143z" />
    <glyph glyph-name="Uhungarumlaut" unicode="&#x170;" horiz-adv-x="1357" 
d="M1199 501q0 -155 -69 -275.5t-187 -184.5t-264 -64t-264 64t-187 184.5t-69 275.5v865q0 68 67 68h58q67 0 67 -68v-887q0 -148 93.5 -240t234.5 -92t234.5 92t93.5 240v887q0 68 67 68h58q67 0 67 -68v-865zM644 1852q32 39 82 39h33q43 0 55 -24.5t-16 -58.5l-186 -223
q-33 -39 -83 -39h-28q-43 0 -54.5 25t15.5 58zM968 1852q32 39 82 39h32q43 0 55 -24.5t-16 -58.5l-185 -223q-33 -39 -83 -39h-28q-43 0 -54.5 24.5t15.5 58.5z" />
    <glyph glyph-name="uhungarumlaut" unicode="&#x171;" horiz-adv-x="1235" 
d="M900 993q0 68 68 68h51q67 0 67 -68v-925q0 -68 -67 -68h-51q-32 0 -50 17.5t-18 50.5v95q-63 -82 -151.5 -135t-192.5 -53q-188 0 -307.5 121t-119.5 313v584q0 32 17.5 50t50.5 18h51q67 0 67 -68v-574q0 -120 77.5 -198.5t198.5 -78.5q93 0 173.5 62t135.5 153v636z
M556 1521q32 39 82 39h33q43 0 55 -24.5t-16 -58.5l-186 -224q-33 -39 -83 -39h-28q-43 0 -54.5 25t15.5 58zM880 1521q32 39 82 39h32q43 0 55 -24.5t-16 -58.5l-185 -224q-33 -39 -83 -39h-28q-43 0 -54.5 24.5t15.5 58.5z" />
    <glyph glyph-name="Uogonek" unicode="&#x172;" horiz-adv-x="1357" 
d="M1199 1366v-865q0 -203 -113.5 -341t-295.5 -172q-47 -39 -76.5 -68t-56.5 -74t-27 -85q0 -49 32 -80t79 -31q24 0 55 9q38 11 51 -18l11 -24q9 -19 -1.5 -38.5t-39.5 -29.5q-49 -18 -106 -18q-96 0 -161 60t-65 149q0 125 150 240q-208 15 -342 157t-134 364v865
q0 68 67 68h58q67 0 67 -68v-887q0 -148 93.5 -240t234.5 -92t234.5 92t93.5 240v887q0 68 67 68h58q67 0 67 -68z" />
    <glyph glyph-name="uogonek" unicode="&#x173;" horiz-adv-x="1235" 
d="M947 0q-18 0 -32.5 18.5t-14.5 49.5v95q-63 -82 -151.5 -135t-192.5 -53q-188 0 -307.5 121t-119.5 313v584q0 32 17.5 50t50.5 18h51q67 0 67 -68v-574q0 -120 77.5 -198.5t198.5 -78.5q93 0 173.5 62t135.5 153v636q0 68 68 68h51q67 0 67 -68v-943q0 -49 -38 -83
q-136 -119 -136 -206q0 -49 32.5 -80t79.5 -31q25 0 51 8q44 15 58 -22l8 -19q18 -43 -27 -62q-57 -24 -121 -24q-95 0 -160 60t-65 149q0 135 179 260z" />
    <glyph glyph-name="Wcircumflex" unicode="&#x174;" horiz-adv-x="1980" 
d="M1027 1434q59 0 76 -58l315 -1094l296 1094q15 58 75 58h64q36 0 52 -21t6 -55l-374 -1301q-17 -57 -76 -57h-73q-60 0 -76 57l-322 1111l-321 -1111q-17 -57 -76 -57h-74q-59 0 -76 57l-373 1301q-10 35 5.5 55.5t51.5 20.5h64q60 0 75 -58l296 -1094l316 1094
q17 58 75 58h74zM1282 1629q28 -33 17 -58t-55 -25h-24q-49 0 -83 38l-147 166l-146 -166q-34 -38 -83 -38h-25q-44 0 -55 25t17 58l195 224q32 38 83 38h29q50 0 82 -38z" />
    <glyph glyph-name="wcircumflex" unicode="&#x175;" horiz-adv-x="1597" 
d="M836 1061q59 0 75 -56l221 -755l226 755q16 56 77 56h54q37 0 52 -21t4 -56l-298 -929q-17 -55 -76 -55h-74q-60 0 -76 56l-222 759l-222 -759q-16 -56 -76 -56h-75q-59 0 -76 55l-298 929q-11 34 4.5 55.5t52.5 21.5h54q61 0 77 -56l226 -755l220 755q16 56 76 56h74z
M1091 1297q28 -33 17 -58t-55 -25h-25q-49 0 -83 38l-146 166l-147 -166q-34 -38 -83 -38h-24q-44 0 -55 25t17 58l194 225q32 38 83 38h29q51 0 83 -38z" />
    <glyph glyph-name="Ycircumflex" unicode="&#x176;" horiz-adv-x="1316" 
d="M658 776l375 613q28 45 81 45h60q41 0 54 -23t-8 -58l-465 -765v-520q0 -32 -17.5 -50t-50.5 -18h-57q-68 0 -68 68v520l-465 765q-21 35 -8 58t54 23h60q53 0 81 -45zM950 1629q28 -33 17 -58t-55 -25h-24q-49 0 -83 38l-147 166l-146 -166q-34 -38 -83 -38h-25
q-43 0 -54.5 25t17.5 58l194 224q32 38 83 38h29q51 0 83 -38z" />
    <glyph glyph-name="ycircumflex" unicode="&#x177;" horiz-adv-x="1075" 
d="M442 4l-384 979q-13 35 1.5 56.5t52.5 21.5h53q57 0 78 -53l295 -767l295 767q21 53 77 53h54q37 0 52 -21.5t1 -56.5l-548 -1405q-20 -53 -78 -53h-53q-37 0 -52 21.5t-1 56.5zM829 1297q29 -33 17.5 -58t-54.5 -25h-25q-49 0 -83 38l-146 166l-147 -166
q-34 -38 -83 -38h-24q-44 0 -55 25t17 58l194 225q32 38 83 38h29q51 0 83 -38z" />
    <glyph glyph-name="Ydieresis" unicode="&#x178;" horiz-adv-x="1316" 
d="M658 776l375 613q28 45 81 45h60q41 0 54 -23t-8 -58l-465 -765v-520q0 -32 -17.5 -50t-50.5 -18h-57q-68 0 -68 68v520l-465 765q-21 35 -8 58t54 23h60q53 0 81 -45zM359 1704q0 49 33.5 82.5t82.5 33.5t82.5 -33.5t33.5 -82.5q0 -50 -33.5 -83t-82.5 -33t-82.5 33
t-33.5 83zM726 1704q0 49 33.5 82.5t82.5 33.5t82 -33.5t33 -82.5q0 -50 -33 -83t-82 -33q-50 0 -83 33t-33 83z" />
    <glyph glyph-name="Zacute" unicode="&#x179;" horiz-adv-x="1229" 
d="M865 1267h-643q-67 0 -67 67v32q0 68 67 68h806q32 0 50 -17.5t18 -50.5v-53q0 -45 -26 -84l-716 -1062h695q67 0 67 -68v-31q0 -68 -67 -68h-858q-67 0 -67 68v53q0 45 26 84zM694 1852q32 39 82 39h33q43 0 55 -24.5t-16 -58.5l-185 -223q-33 -39 -83 -39h-28
q-43 0 -54.5 24.5t15.5 58.5z" />
    <glyph glyph-name="zacute" unicode="&#x17a;" horiz-adv-x="1036" 
d="M100 117q0 45 30 84l556 696h-491q-68 0 -68 68v28q0 32 17.5 50t50.5 18h648q67 0 67 -68v-49q0 -46 -29 -84l-555 -696h537q68 0 68 -68v-28q0 -32 -17.5 -50t-50.5 -18h-695q-68 0 -68 68v49zM594 1521q32 39 82 39h33q43 0 55 -24.5t-16 -58.5l-186 -224
q-33 -39 -83 -39h-27q-43 0 -54.5 24.5t15.5 58.5z" />
    <glyph glyph-name="Zdotaccent" unicode="&#x17b;" horiz-adv-x="1229" 
d="M865 1267h-643q-67 0 -67 67v32q0 68 67 68h806q32 0 50 -17.5t18 -50.5v-53q0 -45 -26 -84l-716 -1062h695q67 0 67 -68v-31q0 -68 -67 -68h-858q-67 0 -67 68v53q0 45 26 84zM502 1704q0 49 33 82.5t82 33.5t82.5 -33.5t33.5 -82.5t-33.5 -82.5t-82.5 -33.5t-82 33.5
t-33 82.5z" />
    <glyph glyph-name="zdotaccent" unicode="&#x17c;" horiz-adv-x="1036" 
d="M100 117q0 45 30 84l556 696h-491q-68 0 -68 68v28q0 32 17.5 50t50.5 18h648q67 0 67 -68v-49q0 -46 -29 -84l-555 -696h537q68 0 68 -68v-28q0 -32 -17.5 -50t-50.5 -18h-695q-68 0 -68 68v49zM404 1372q0 49 33.5 82.5t82.5 33.5t82.5 -33.5t33.5 -82.5t-33.5 -82.5
t-82.5 -33.5t-82.5 33.5t-33.5 82.5z" />
    <glyph glyph-name="Zcaron" unicode="&#x17d;" horiz-adv-x="1229" 
d="M865 1267h-643q-67 0 -67 67v32q0 68 67 68h806q32 0 50 -17.5t18 -50.5v-53q0 -45 -26 -84l-716 -1062h695q67 0 67 -68v-31q0 -68 -67 -68h-858q-67 0 -67 68v53q0 45 26 84zM716 1584q-32 -38 -83 -38h-29q-51 0 -83 38l-194 224q-28 33 -17 58t55 25h24q49 0 83 -38
l146 -165l147 165q34 38 83 38h24q44 0 55 -25t-17 -58z" />
    <glyph glyph-name="zcaron" unicode="&#x17e;" horiz-adv-x="1036" 
d="M100 117q0 45 30 84l556 696h-491q-68 0 -68 68v28q0 32 17.5 50t50.5 18h648q67 0 67 -68v-49q0 -46 -29 -84l-555 -696h537q68 0 68 -68v-28q0 -32 -17.5 -50t-50.5 -18h-695q-68 0 -68 68v49zM608 1232q-32 -38 -83 -38h-28q-51 0 -83 38l-195 224q-28 33 -17 58
t55 25h25q49 0 83 -38l146 -166l146 166q34 38 83 38h25q44 0 55 -25t-17 -58z" />
    <glyph glyph-name="longs" unicode="&#x17f;" horiz-adv-x="763" 
d="M718 1396q0 -69 -46 -66q-16 1 -47 1q-111 0 -160 -51t-49 -157v-1055q0 -32 -17.5 -50t-50.5 -18h-51q-32 0 -50 17.5t-18 50.5v829h-115q-32 0 -50 17.5t-18 50.5v28q0 32 17.5 50t50.5 18h115v64q0 188 93 279t287 91q15 0 45 -2q31 -1 47.5 -20t16.5 -51v-26z" />
    <glyph glyph-name="uni0191" unicode="&#x191;" horiz-adv-x="1082" 
d="M172 1366q0 32 17.5 50t50.5 18h691q67 0 67 -68v-32q0 -67 -67 -67h-566v-462h514q67 0 67 -68v-31q0 -68 -67 -68h-514v-743q0 -370 -374 -370q-7 0 -21.5 0.5t-20.5 0.5q-64 5 -64 72v26q0 69 43 66q14 -1 44 -1q105 0 152.5 51.5t47.5 156.5v1469z" />
    <glyph glyph-name="florin" unicode="&#x192;" horiz-adv-x="763" 
d="M229 897h-115q-32 0 -50 17.5t-18 50.5v28q0 32 17.5 50t50.5 18h115v64q0 188 93 279t287 91q15 0 45 -2q31 -1 47.5 -20t16.5 -51v-26q0 -69 -46 -66q-16 1 -47 1q-111 0 -160 -51t-49 -157v-62h234q68 0 68 -68v-28q0 -32 -17.5 -50t-50.5 -18h-234v-1002
q0 -188 -93 -279t-287 -91q-15 0 -45 2q-31 1 -47.5 20t-16.5 51v26q0 69 46 66q16 -1 47 -1q111 0 160 51t49 157v1000z" />
    <glyph glyph-name="Aringacute" unicode="&#x1fa;" horiz-adv-x="1394" 
d="M567 1366q-80 56 -80 151q0 82 60 136.5t150 54.5t150 -54.5t60 -136.5q0 -95 -80 -151l489 -1288q13 -35 -1.5 -56.5t-51.5 -21.5h-70q-58 0 -77 54l-114 316h-610l-113 -316q-19 -54 -77 -54h-70q-37 0 -51.5 21.5t-1.5 56.5zM450 537h495l-248 684zM609 1517
q0 -35 25 -59t63 -24t63 24t25 59t-25 58.5t-63 23.5t-63 -23.5t-25 -58.5zM680 1749q-37 0 -44.5 24.5t19.5 58.5l102 125q33 40 83 40h29q43 0 54.5 -24.5t-16.5 -58.5l-104 -126q-33 -39 -83 -39h-40z" />
    <glyph glyph-name="aringacute" unicode="&#x1fb;" horiz-adv-x="1328" 
d="M553 1361q0 -39 27 -65.5t66 -26.5t66 26.5t27 65.5t-27 65.5t-66 26.5t-66 -26.5t-27 -65.5zM431 1361q0 85 62 143t153 58t153 -58t62 -143t-62 -143t-153 -58t-153 58t-62 143zM649 142q112 0 204 57.5t139 152.5v354q-47 96 -139 154.5t-204 58.5q-162 0 -273 -113.5
t-111 -275.5q0 -161 111 -274.5t273 -113.5zM618 1085q227 0 374 -161v69q0 68 68 68h51q32 0 50 -17.5t18 -50.5v-925q0 -32 -17.5 -50t-50.5 -18h-51q-32 0 -50 17.5t-18 50.5v69q-147 -162 -374 -162q-154 0 -279 76t-194 203t-69 276t69 276t194 203t279 76zM625 1606
q-37 0 -44.5 24.5t19.5 58.5l118 145q33 40 83 40h29q43 0 55 -24.5t-16 -58.5l-121 -146q-32 -39 -83 -39h-40z" />
    <glyph glyph-name="AEacute" unicode="&#x1fc;" horiz-adv-x="1890" 
d="M112 0q-40 0 -53.5 23t6.5 58l750 1307q26 46 80 46h791q67 0 67 -68v-32q0 -67 -67 -67h-569v-463h517q68 0 68 -68v-31q0 -32 -17.5 -50t-50.5 -18h-517v-470h587q68 0 68 -68v-31q0 -32 -17.5 -50t-50.5 -18h-712q-67 0 -67 68v302h-479l-182 -323q-26 -47 -81 -47
h-71zM925 537v681l-385 -681h385zM1053 1852q32 39 82 39h32q43 0 55 -24.5t-16 -58.5l-185 -223q-33 -39 -83 -39h-28q-43 0 -54.5 24.5t15.5 58.5z" />
    <glyph glyph-name="aeacute" unicode="&#x1fd;" horiz-adv-x="2072" 
d="M1096 472q15 -144 121 -240t256 -96q156 0 281 108q49 43 95 1l30 -27q52 -49 2 -96q-162 -147 -404 -147q-147 0 -268 62.5t-191 167.5q-69 -106 -187 -168t-258 -62q-213 0 -355 100.5t-142 248.5q0 141 139 237t337 96q98 0 196.5 -27.5t163.5 -70.5q-1 8 -1 26
q0 2 3 41q-7 133 -105 216t-241 83q-147 0 -283 -86q-62 -41 -92 21l-12 23q-27 58 23 92q167 110 369 110q146 0 264.5 -63t178.5 -175q68 109 186 173.5t259 64.5q115 0 215.5 -42t170.5 -113.5t110 -169.5t40 -206v-19q-3 -63 -72 -63h-829zM583 136q115 0 204.5 49
t136.5 134q-10 63 -11 97q-59 46 -146.5 71t-182.5 25q-138 0 -230 -54.5t-92 -133.5q0 -78 92 -133t229 -55zM1461 925q-129 0 -229.5 -85t-128.5 -213h699q-23 130 -116.5 214t-224.5 84zM1120 1521q32 39 82 39h33q43 0 55 -24.5t-16 -58.5l-185 -224q-33 -39 -83 -39
h-28q-43 0 -54.5 24.5t15.5 58.5z" />
    <glyph glyph-name="Oslashacute" unicode="&#x1fe;" horiz-adv-x="1673" 
d="M837 1458q219 0 396 -107l82 104q31 40 83 40h19q43 0 55 -24.5t-14 -58.5l-112 -142q116 -103 180 -246t64 -307q0 -154 -58.5 -291.5t-158.5 -236.5t-239.5 -156.5t-296.5 -57.5q-231 0 -417 119l-90 -116q-31 -39 -83 -39h-20q-43 0 -54.5 24.5t14.5 58.5l124 157
q-108 101 -168 240t-60 298q0 154 58.5 291.5t158.5 236t240 156t297 57.5zM837 145q153 0 281.5 75.5t202.5 207t74 289.5q0 118 -43.5 223t-120.5 184l-700 -888q139 -91 306 -91zM279 717q0 -230 147 -391l696 883q-133 79 -285 79q-115 0 -218 -44.5t-177.5 -120.5
t-118.5 -182t-44 -224zM938 1852q32 39 82 39h33q43 0 55 -24.5t-16 -58.5l-186 -223q-33 -39 -83 -39h-27q-43 0 -54.5 24.5t15.5 58.5z" />
    <glyph glyph-name="oslashacute" unicode="&#x1ff;" horiz-adv-x="1298" 
d="M649 1085q162 0 295 -75l58 72q32 40 83 40h12q43 0 55 -24.5t-15 -58.5l-86 -108q82 -76 127 -180t45 -221q0 -113 -43.5 -215.5t-119 -177t-182.5 -118.5t-229 -44q-163 0 -297 77l-58 -74q-31 -39 -83 -39h-11q-43 0 -55 24.5t15 58.5l87 108q-82 77 -126.5 180
t-44.5 220q0 113 43.5 215.5t118.5 177t182 118.5t229 44zM649 142q162 0 273 113.5t111 274.5q0 148 -96 258l-475 -598q84 -48 187 -48zM265 530q0 -147 94 -257l476 598q-86 48 -186 48q-162 0 -273 -113.5t-111 -275.5zM751 1521q32 39 82 39h32q43 0 55 -24.5
t-16 -58.5l-185 -224q-33 -39 -83 -39h-28q-43 0 -54.5 24.5t15.5 58.5z" />
    <glyph glyph-name="Scommaaccent" unicode="&#x218;" horiz-adv-x="1204" 
d="M181 287q44 49 95 1q155 -143 327 -143q141 0 229.5 65.5t88.5 171.5q0 101 -80 171t-261 107q-219 45 -331.5 150.5t-112.5 259.5q0 172 127 280t328 108q233 0 402 -138q50 -42 6 -95l-28 -35q-42 -51 -95 -7q-134 105 -276 105q-119 0 -193.5 -57t-74.5 -148
q0 -97 80.5 -161.5t247.5 -102.5q240 -54 348 -161.5t108 -274.5q0 -181 -137 -294.5t-367 -113.5q-131 0 -251.5 49t-209.5 135q-46 44 0 95zM494 -481q-38 0 -52 22t2 57l101 220q22 51 79 51h43q39 0 53 -22.5t-4 -57.5l-113 -221q-25 -49 -80 -49h-29z" />
    <glyph glyph-name="scommaaccent" unicode="&#x219;" horiz-adv-x="954" 
d="M135 223q42 50 94 4q109 -91 246 -91q100 0 158.5 43t58.5 114q0 68 -56 111.5t-179 67.5q-345 67 -345 320q0 127 100.5 210t264.5 83q167 0 305 -99q54 -40 11 -94l-18 -23q-40 -50 -95 -10q-94 66 -190 66q-83 0 -137.5 -38.5t-54.5 -98.5q0 -58 55.5 -101.5
t163.5 -65.5q183 -36 272.5 -117.5t89.5 -213.5q0 -138 -105.5 -226.5t-286.5 -88.5q-221 0 -367 130q-48 44 -4 96zM354 -481q-38 0 -51.5 22t2.5 57l101 220q22 51 78 51h43q39 0 53.5 -22.5t-3.5 -57.5l-113 -221q-24 -49 -80 -49h-30z" />
    <glyph glyph-name="uni021A" unicode="&#x21a;" horiz-adv-x="1124" 
d="M466 1267h-335q-68 0 -68 67v32q0 32 17.5 50t50.5 18h862q32 0 50 -17.5t18 -50.5v-32q0 -67 -68 -67h-335v-1199q0 -68 -67 -68h-57q-68 0 -68 68v1199zM432 -481q-38 0 -51.5 22t2.5 57l100 220q22 51 79 51h43q39 0 53 -22.5t-4 -57.5l-112 -221q-24 -49 -80 -49h-30
z" />
    <glyph glyph-name="uni021B" unicode="&#x21b;" horiz-adv-x="782" 
d="M424 339q0 -103 48.5 -151.5t158.5 -48.5h25q70 3 70 -64v-28q0 -67 -55 -70q-36 -2 -56 -2q-193 0 -285 88.5t-92 273.5v560h-124q-68 0 -68 68v28q0 32 17.5 50t50.5 18h124v226q0 65 64 71l51 4q34 3 52.5 -14t18.5 -51v-236h222q32 0 50 -17.5t18 -50.5v-28
q0 -32 -17.5 -50t-50.5 -18h-222v-558zM275 -481q-38 0 -51.5 22t2.5 57l101 220q22 51 79 51h43q39 0 53 -22.5t-4 -57.5l-113 -221q-25 -49 -80 -49h-30z" />
    <glyph glyph-name="dotlessj" unicode="&#x237;" horiz-adv-x="534" 
d="M174 993q0 32 17.5 50t50.5 18h51q67 0 67 -68v-1130q0 -178 -76.5 -258t-237.5 -80h-14q-66 2 -66 69v27q0 68 29 68h30q75 0 112 40t37 131v1133z" />
    <glyph glyph-name="apostrophe" unicode="&#x2bc;" horiz-adv-x="851" 
d="M307 1380q0 53 35.5 88.5t87.5 35.5t88 -36t36 -88q0 -27 -13 -56l-108 -237q-21 -50 -79 -50q-29 0 -37 22t7 57l65 148q-37 12 -59.5 43.5t-22.5 72.5z" />
    <glyph glyph-name="circumflex" unicode="&#x2c6;" horiz-adv-x="851" 
d="M718 1230q28 -33 17 -58t-55 -25h-25q-49 0 -83 38l-146 166l-146 -166q-34 -38 -83 -38h-25q-44 0 -55 25t17 58l195 224q32 38 83 38h28q51 0 83 -38z" />
    <glyph glyph-name="caron" unicode="&#x2c7;" horiz-adv-x="851" 
d="M523 1185q-32 -38 -83 -38h-28q-51 0 -83 38l-195 224q-28 33 -17 58t55 25h25q49 0 83 -38l146 -166l146 166q34 38 83 38h25q44 0 55 -25t-17 -58z" />
    <glyph glyph-name="uni02C9" unicode="&#x2c9;" horiz-adv-x="851" 
d="M129 1324q0 68 68 68h458q32 0 50 -17.5t18 -50.5v-10q0 -68 -68 -68h-458q-32 0 -50 17.5t-18 50.5v10z" />
    <glyph glyph-name="breve" unicode="&#x2d8;" horiz-adv-x="851" 
d="M426 1155q-116 0 -205 67.5t-118 176.5q-9 33 9.5 52.5t53.5 19.5h31q29 0 45.5 -14.5t26.5 -45.5q18 -54 59 -85.5t98 -31.5t98 31.5t59 85.5q10 31 26.5 45.5t45.5 14.5h31q36 0 53.5 -19.5t8.5 -53.5q-29 -108 -118 -175.5t-204 -67.5z" />
    <glyph glyph-name="dotaccent" unicode="&#x2d9;" horiz-adv-x="851" 
d="M310 1323q0 49 33.5 82.5t82.5 33.5t82.5 -33.5t33.5 -82.5t-33.5 -82.5t-82.5 -33.5t-82.5 33.5t-33.5 82.5z" />
    <glyph glyph-name="ring" unicode="&#x2da;" horiz-adv-x="851" 
d="M333 1317q0 -39 26.5 -65t66.5 -26t66.5 26t26.5 65t-26.5 65t-66.5 26t-66.5 -26t-26.5 -65zM211 1317q0 86 61.5 143t153.5 57t153.5 -57t61.5 -143t-61.5 -143t-153.5 -57t-153.5 57t-61.5 143z" />
    <glyph glyph-name="ogonek" unicode="&#x2db;" horiz-adv-x="851" 
d="M468 0h39q19 0 22.5 -12t-9.5 -23q-133 -116 -133 -204q0 -49 32.5 -80t79.5 -31q23 0 54 9q38 11 51 -18l11 -24q9 -19 -1.5 -38.5t-39.5 -29.5q-50 -18 -106 -18q-95 0 -160 60t-65 149q0 118 141 232q34 28 84 28z" />
    <glyph glyph-name="tilde" unicode="&#x2dc;" horiz-adv-x="851" 
d="M421 1239q-6 4 -23 17t-25 18.5t-21.5 13.5t-24 11t-21.5 3q-33 0 -51 -40q-27 -63 -82 -52l-26 5q-34 7 -47.5 28.5t-2.5 53.5q52 150 174 150q80 0 160 -59q6 -4 23 -17t25 -18.5t21.5 -13.5t24 -11t21.5 -3q33 0 51 40q27 62 82 51l26 -5q34 -7 47.5 -28.5t2.5 -53.5
q-51 -149 -174 -149q-80 0 -160 59z" />
    <glyph glyph-name="hungarumlaut" unicode="&#x2dd;" horiz-adv-x="851" 
d="M334 1456q32 39 82 39h33q43 0 54.5 -24.5t-16.5 -58.5l-185 -223q-33 -39 -83 -39h-29q-43 0 -54 25t16 58zM657 1456q32 39 82 39h33q43 0 55 -24.5t-16 -58.5l-185 -223q-33 -39 -83 -39h-28q-43 0 -54.5 24.5t15.5 58.5z" />
    <glyph glyph-name="gravecomb" unicode="&#x300;" horiz-adv-x="0" 
d="M-319 1233q27 -34 15.5 -58.5t-54.5 -24.5h-28q-49 0 -82 39l-186 223q-28 34 -16 58.5t55 24.5h32q50 0 82 -39z" />
    <glyph glyph-name="acutecomb" unicode="&#x301;" horiz-adv-x="0" 
d="M-351 1456q32 39 82 39h32q43 0 55 -24.5t-16 -58.5l-185 -223q-33 -39 -83 -39h-28q-43 0 -54 24.5t16 58.5z" />
    <glyph glyph-name="uni0302" unicode="&#x302;" horiz-adv-x="0" 
d="M-134 1230q28 -33 17 -58t-55 -25h-25q-49 0 -83 38l-146 166l-146 -166q-34 -38 -83 -38h-25q-44 0 -55 25t17 58l195 224q32 38 83 38h28q51 0 83 -38z" />
    <glyph glyph-name="tildecomb" unicode="&#x303;" horiz-adv-x="0" 
d="M-431 1239q-6 4 -23 17t-25 18.5t-21.5 13.5t-24 11t-21.5 3q-33 0 -51 -40q-27 -63 -82 -52l-26 5q-34 7 -47.5 28.5t-2.5 53.5q52 150 174 150q80 0 160 -59q6 -4 23 -17t25 -18.5t21.5 -13.5t24 -11t21.5 -3q33 0 51 40q27 62 82 51l26 -5q34 -7 47.5 -28.5t2.5 -53.5
q-51 -149 -174 -149q-80 0 -160 59z" />
    <glyph glyph-name="uni0304" unicode="&#x304;" horiz-adv-x="0" 
d="M-723 1326q0 68 68 68h458q32 0 50 -17.5t18 -50.5v-10q0 -68 -68 -68h-458q-32 0 -50 17.5t-18 50.5v10z" />
    <glyph glyph-name="uni0306" unicode="&#x306;" horiz-adv-x="0" 
d="M-426 1155q-116 0 -205 67.5t-118 176.5q-9 33 9.5 52.5t53.5 19.5h31q29 0 45.5 -14.5t26.5 -45.5q18 -54 59 -85.5t98 -31.5t98 31.5t59 85.5q10 31 26.5 45.5t45.5 14.5h31q36 0 53.5 -19.5t8.5 -53.5q-29 -108 -118 -175.5t-204 -67.5z" />
    <glyph glyph-name="uni0307" unicode="&#x307;" horiz-adv-x="0" 
d="M-542 1323q0 49 33.5 82.5t82.5 33.5t82.5 -33.5t33.5 -82.5t-33.5 -82.5t-82.5 -33.5t-82.5 33.5t-33.5 82.5z" />
    <glyph glyph-name="uni0308" unicode="&#x308;" horiz-adv-x="0" 
d="M-725 1323q0 49 33.5 82.5t82.5 33.5t82 -33.5t33 -82.5q0 -50 -33 -83t-82 -33t-82.5 33.5t-33.5 82.5zM-358 1323q0 49 33 82.5t82 33.5t82.5 -33.5t33.5 -82.5t-33.5 -82.5t-82.5 -33.5t-82 33t-33 83z" />
    <glyph glyph-name="uni030A" unicode="&#x30a;" horiz-adv-x="0" 
d="M-519 1317q0 -39 26.5 -65t66.5 -26t66.5 26t26.5 65t-26.5 65t-66.5 26t-66.5 -26t-26.5 -65zM-641 1317q0 86 61.5 143t153.5 57t153.5 -57t61.5 -143t-61.5 -143t-153.5 -57t-153.5 57t-61.5 143z" />
    <glyph glyph-name="uni030C" unicode="&#x30c;" horiz-adv-x="0" 
d="M-329 1185q-32 -38 -83 -38h-28q-51 0 -83 38l-195 224q-28 33 -17 58t55 25h25q49 0 83 -38l146 -166l146 166q34 38 83 38h25q44 0 55 -25t-17 -58z" />
    <glyph glyph-name="uni0327" unicode="&#x327;" horiz-adv-x="0" 
d="M-469 -214q-16 0 -34 -2q-24 -3 -40 16q-8 10 -7 26t9 30l66 119q14 25 47 25h62q25 0 30.5 -12.5t-3.5 -22.5l-52 -83q86 -16 137.5 -72t51.5 -129q0 -91 -74 -152t-184 -61q-77 0 -140 31q-22 10 -25.5 32t7.5 32l19 27q19 27 51 10q34 -18 79 -18q53 0 87.5 29.5
t34.5 72.5t-34.5 72.5t-87.5 29.5z" />
    <glyph glyph-name="tonos" unicode="&#x384;" horiz-adv-x="851" 
d="M350 1114q-37 0 -51 22t0 57l107 250q22 52 77 52h44q39 0 53.5 -22.5t-2.5 -57.5l-120 -251q-24 -50 -79 -50h-29z" />
    <glyph glyph-name="dieresistonos" unicode="&#x385;" horiz-adv-x="851" 
d="M121 1167q0 51 34.5 85.5t87.5 34.5t87.5 -34.5t34.5 -85.5t-34.5 -85t-87.5 -34t-87.5 34t-34.5 85zM487 1167q0 51 34.5 85.5t87.5 34.5t87.5 -34.5t34.5 -85.5t-34.5 -85t-87.5 -34t-87.5 34t-34.5 85zM404 1346q-37 0 -44 24t20 58l118 146q33 40 83 40h29
q43 0 55 -24.5t-16 -58.5l-122 -147q-31 -38 -83 -38h-40z" />
    <glyph glyph-name="Alphatonos" unicode="&#x386;" horiz-adv-x="1412" 
d="M1210 0q-57 0 -76 54l-114 316h-610l-114 -316q-19 -54 -77 -54h-69q-37 0 -52 21.5t-2 56.5l491 1302q19 54 78 54h100q59 0 78 -54l490 -1302q13 -35 -1.5 -56.5t-51.5 -21.5h-70zM963 537l-248 684l-248 -684h496zM126 1053q-37 0 -51 22t0 57l106 249q23 53 78 53h44
q38 0 52.5 -22.5t-2.5 -57.5l-120 -251q-24 -50 -78 -50h-29z" />
    <glyph glyph-name="anoteleia" unicode="&#x387;" horiz-adv-x="608" 
d="M176 642q0 55 36.5 91.5t91.5 36.5t91.5 -36.5t36.5 -91.5t-36.5 -91.5t-91.5 -36.5t-91.5 36.5t-36.5 91.5z" />
    <glyph glyph-name="Epsilontonos" unicode="&#x388;" horiz-adv-x="1485" 
d="M502 1366q0 68 67 68h712q68 0 68 -68v-32q0 -67 -68 -67h-587v-463h535q67 0 67 -68v-31q0 -68 -67 -68h-535v-470h605q32 0 50 -17.5t18 -50.5v-31q0 -32 -17.5 -50t-50.5 -18h-730q-67 0 -67 68v1298zM126 1053q-37 0 -51 22t0 57l106 249q23 53 78 53h44
q38 0 52.5 -22.5t-2.5 -57.5l-120 -251q-24 -50 -78 -50h-29z" />
    <glyph glyph-name="Etatonos" unicode="&#x389;" horiz-adv-x="1757" 
d="M502 1366q0 68 67 68h58q67 0 67 -68v-562h699v562q0 68 67 68h58q67 0 67 -68v-1298q0 -68 -67 -68h-58q-67 0 -67 68v569h-699v-569q0 -68 -67 -68h-58q-67 0 -67 68v1298zM126 1053q-37 0 -51 22t0 57l106 249q23 53 78 53h44q38 0 52.5 -22.5t-2.5 -57.5l-120 -251
q-24 -50 -78 -50h-29z" />
    <glyph glyph-name="Iotatonos" unicode="&#x38a;" horiz-adv-x="889" 
d="M627 1434q67 0 67 -68v-1298q0 -68 -67 -68h-58q-67 0 -67 68v1298q0 68 67 68h58zM126 1053q-37 0 -51 22t0 57l106 249q23 53 78 53h44q38 0 52.5 -22.5t-2.5 -57.5l-120 -251q-24 -50 -78 -50h-29z" />
    <glyph glyph-name="Omicrontonos" unicode="&#x38c;" horiz-adv-x="1882" 
d="M1046 145q153 0 281.5 75.5t202.5 207t74 289.5q0 118 -44 224t-118.5 182t-177.5 120.5t-218 44.5q-153 0 -281.5 -75t-203 -206.5t-74.5 -289.5t74.5 -289.5t203 -207t281.5 -75.5zM1046 1458q209 0 382 -97.5t272 -267.5t99 -376q0 -154 -58.5 -291.5t-158.5 -236.5
t-239.5 -156.5t-296.5 -57.5t-297 57.5t-240 156t-158.5 236.5t-58.5 292t58.5 291.5t158.5 236t240 156t297 57.5zM126 1053q-37 0 -51 22t0 57l106 249q23 53 78 53h44q38 0 52.5 -22.5t-2.5 -57.5l-120 -251q-24 -50 -78 -50h-29z" />
    <glyph glyph-name="Upsilontonos" unicode="&#x38e;" horiz-adv-x="1723" 
d="M1065 776l375 613q28 45 81 45h59q41 0 54 -23t-8 -58l-465 -765v-520q0 -68 -67 -68h-58q-67 0 -67 68v520l-465 765q-21 35 -8 58t54 23h59q53 0 81 -45zM126 1053q-37 0 -51 22t0 57l106 249q23 53 78 53h44q38 0 52.5 -22.5t-2.5 -57.5l-120 -251q-24 -50 -78 -50
h-29z" />
    <glyph glyph-name="Omegatonos" unicode="&#x38f;" horiz-adv-x="1841" 
d="M126 1053q-37 0 -51 22t0 57l106 249q23 53 78 53h44q38 0 52.5 -22.5t-2.5 -57.5l-120 -251q-24 -50 -78 -50h-29zM1551 751q0 111 -41 210.5t-110.5 171t-166.5 113.5t-205 42t-205 -42t-166.5 -113.5t-110.5 -171t-41 -210.5q0 -169 90.5 -316t264.5 -246
q49 -26 49 -79v-42q0 -68 -67 -68h-449q-67 0 -67 68v34q0 68 67 68h277q-178 108 -269.5 260.5t-91.5 335.5q0 142 56 270t152 220.5t229.5 147t281.5 54.5t281.5 -54.5t229.5 -147t152 -220.5t56 -270q0 -183 -91.5 -335.5t-269.5 -260.5h277q32 0 50 -17.5t18 -50.5v-34
q0 -68 -68 -68h-449q-67 0 -67 68v42q0 50 60 87q169 99 256.5 243.5t87.5 310.5z" />
    <glyph glyph-name="iotadieresistonos" unicode="&#x390;" horiz-adv-x="562" 
d="M174 993q0 32 17.5 50t50.5 18h51q67 0 67 -68v-714q0 -115 112 -115q44 0 44 -68v-27q0 -67 -39 -68q-13 -1 -40 -1q-263 0 -263 230v763zM-39 1305q0 51 34.5 85t87.5 34t87.5 -34t34.5 -85t-34.5 -85.5t-87.5 -34.5t-87.5 34.5t-34.5 85.5zM328 1305q0 51 34.5 85
t87.5 34t87 -34t34 -85t-34 -85.5t-87 -34.5t-87.5 34.5t-34.5 85.5zM245 1483q-37 0 -44.5 24.5t19.5 58.5l118 145q33 40 83 40h30q43 0 54.5 -24.5t-16.5 -58.5l-121 -146q-32 -39 -83 -39h-40z" />
    <glyph glyph-name="Alpha" unicode="&#x391;" horiz-adv-x="1394" 
d="M1193 0q-58 0 -77 54l-114 316h-610l-113 -316q-19 -54 -77 -54h-70q-37 0 -51.5 21.5t-1.5 56.5l490 1302q19 54 78 54h101q58 0 77 -54l491 -1302q13 -35 -1.5 -56.5t-51.5 -21.5h-70zM945 537l-248 684l-247 -684h495z" />
    <glyph glyph-name="Beta" unicode="&#x392;" horiz-adv-x="1264" 
d="M240 0q-68 0 -68 68v1298q0 68 68 68h436q191 0 299.5 -103t108.5 -277q0 -111 -52.5 -186t-140.5 -107q117 -26 196 -120t79 -232q0 -183 -117 -296t-312 -113h-497zM889 1044q0 104 -62 163.5t-164 59.5h-298v-444h298q102 0 164 58.5t62 162.5zM971 415
q0 113 -69.5 180.5t-180.5 67.5h-356v-496h356q111 0 180.5 68t69.5 180z" />
    <glyph glyph-name="Gamma" unicode="&#x393;" horiz-adv-x="1053" 
d="M172 1366q0 32 17.5 50t50.5 18h698q68 0 68 -68v-32q0 -67 -68 -67h-573v-1199q0 -32 -17.5 -50t-50.5 -18h-57q-68 0 -68 68v1298z" />
    <glyph glyph-name="uni0394" unicode="&#x394;" horiz-adv-x="1394" 
d="M1316 78q13 -35 -1.5 -56.5t-51.5 -21.5h-1131q-37 0 -51.5 21.5t-1.5 56.5l490 1302q19 54 78 54h101q58 0 77 -54zM314 167h766l-383 1054z" />
    <glyph glyph-name="Epsilon" unicode="&#x395;" horiz-adv-x="1156" 
d="M172 1366q0 32 17.5 50t50.5 18h711q68 0 68 -68v-32q0 -67 -68 -67h-586v-463h534q32 0 50 -17.5t18 -50.5v-31q0 -32 -17.5 -50t-50.5 -18h-534v-470h605q67 0 67 -68v-31q0 -68 -67 -68h-730q-32 0 -50 17.5t-18 50.5v1298z" />
    <glyph glyph-name="Zeta" unicode="&#x396;" horiz-adv-x="1229" 
d="M865 1267h-643q-67 0 -67 67v32q0 68 67 68h806q32 0 50 -17.5t18 -50.5v-53q0 -45 -26 -84l-716 -1062h695q67 0 67 -68v-31q0 -68 -67 -68h-858q-67 0 -67 68v53q0 45 26 84z" />
    <glyph glyph-name="Eta" unicode="&#x397;" horiz-adv-x="1427" 
d="M172 1366q0 32 17.5 50t50.5 18h57q68 0 68 -68v-562h698v562q0 68 67 68h58q67 0 67 -68v-1298q0 -68 -67 -68h-58q-67 0 -67 68v569h-698v-569q0 -32 -17.5 -50t-50.5 -18h-57q-68 0 -68 68v1298z" />
    <glyph glyph-name="Theta" unicode="&#x398;" horiz-adv-x="1673" 
d="M542 729q0 68 67 68h455q68 0 68 -68v-26q0 -67 -68 -67h-455q-67 0 -67 67v26zM837 145q153 0 281.5 75.5t202.5 207t74 289.5q0 118 -44 224t-118.5 182t-177.5 120.5t-218 44.5t-218 -44.5t-177.5 -120.5t-118.5 -182t-44 -224q0 -158 74 -289.5t202.5 -207
t281.5 -75.5zM837 1458q209 0 382 -97.5t272 -267.5t99 -376q0 -154 -58.5 -291.5t-158.5 -236.5t-239.5 -156.5t-296.5 -57.5t-297 57.5t-240 156t-158.5 236.5t-58.5 292t58.5 291.5t158.5 236t240 156t297 57.5z" />
    <glyph glyph-name="Iota" unicode="&#x399;" horiz-adv-x="583" 
d="M321 1434q67 0 67 -68v-1298q0 -68 -67 -68h-58q-67 0 -67 68v1298q0 68 67 68h58z" />
    <glyph glyph-name="Kappa" unicode="&#x39a;" horiz-adv-x="1229" 
d="M365 804h122l409 587q29 43 82 43h68q41 0 54 -24t-11 -58l-438 -628l511 -641q27 -34 15 -58.5t-55 -24.5h-69q-51 0 -83 40l-476 597h-129v-569q0 -32 -17.5 -50t-50.5 -18h-57q-68 0 -68 68v1298q0 68 68 68h57q68 0 68 -68v-562z" />
    <glyph glyph-name="Lambda" unicode="&#x39b;" horiz-adv-x="1394" 
d="M697 1205l-418 -1151q-19 -54 -77 -54h-70q-37 0 -51.5 21.5t-1.5 56.5l490 1302q19 54 78 54h101q58 0 77 -54l491 -1302q13 -35 -1.5 -56.5t-51.5 -21.5h-70q-58 0 -77 54z" />
    <glyph glyph-name="Mu" unicode="&#x39c;" horiz-adv-x="1738" 
d="M860 454q-54 0 -82 43l-420 618v-1047q0 -68 -67 -68h-51q-32 0 -50 17.5t-18 50.5v1298q0 68 68 68h59q53 0 82 -43l488 -724l489 724q29 43 82 43h59q68 0 68 -68v-1298q0 -68 -68 -68h-51q-32 0 -50 17.5t-18 50.5v1047l-419 -618q-28 -43 -82 -43h-19z" />
    <glyph glyph-name="Nu" unicode="&#x39d;" horiz-adv-x="1432" 
d="M172 1366q0 32 17.5 50t50.5 18h65q54 0 81 -44l688 -1056v1032q0 68 68 68h51q32 0 50 -17.5t18 -50.5v-1298q0 -68 -68 -68h-66q-53 0 -80 44l-689 1056v-1032q0 -68 -67 -68h-51q-32 0 -50 17.5t-18 50.5v1298z" />
    <glyph glyph-name="Xi" unicode="&#x39e;" horiz-adv-x="1195" 
d="M137 1366q0 32 17.5 50t50.5 18h785q68 0 68 -68v-32q0 -67 -68 -67h-785q-68 0 -68 67v32zM119 99q0 68 67 68h823q67 0 67 -68v-31q0 -68 -67 -68h-823q-67 0 -67 68v31zM264 637q-67 0 -67 68v31q0 68 67 68h667q67 0 67 -68v-31q0 -68 -67 -68h-667z" />
    <glyph glyph-name="Omicron" unicode="&#x39f;" horiz-adv-x="1673" 
d="M837 145q153 0 281.5 75.5t202.5 207t74 289.5q0 118 -44 224t-118.5 182t-177.5 120.5t-218 44.5t-218 -44.5t-177.5 -120.5t-118.5 -182t-44 -224q0 -158 74 -289.5t202.5 -207t281.5 -75.5zM837 1458q209 0 382 -97.5t272 -267.5t99 -376q0 -154 -58.5 -291.5
t-158.5 -236.5t-239.5 -156.5t-296.5 -57.5t-297 57.5t-240 156t-158.5 236.5t-58.5 292t58.5 291.5t158.5 236t240 156t297 57.5z" />
    <glyph glyph-name="Pi" unicode="&#x3a0;" horiz-adv-x="1381" 
d="M1209 68q0 -68 -67 -68h-58q-67 0 -67 68v1199h-652v-1199q0 -32 -17.5 -50t-50.5 -18h-57q-68 0 -68 68v1298q0 68 68 68h902q67 0 67 -68v-1298z" />
    <glyph glyph-name="Rho" unicode="&#x3a1;" horiz-adv-x="1198" 
d="M365 541v-473q0 -68 -68 -68h-57q-68 0 -68 68v1298q0 68 68 68h390q227 0 359.5 -121.5t132.5 -325.5t-132.5 -325t-359.5 -121h-265zM927 987q0 129 -80.5 204.5t-223.5 75.5h-258v-559h258q143 0 223.5 75t80.5 204z" />
    <glyph glyph-name="Sigma" unicode="&#x3a3;" horiz-adv-x="1186" 
d="M553 719l-399 514q-29 39 -29 84v49q0 32 17.5 50t50.5 18h801q68 0 68 -68v-32q0 -67 -68 -67h-634l371 -473q29 -39 29 -84q0 -29 -29 -68l-373 -475h636q68 0 68 -68v-31q0 -32 -17.5 -50t-50.5 -18h-801q-68 0 -68 68v49q0 45 29 84z" />
    <glyph glyph-name="Tau" unicode="&#x3a4;" horiz-adv-x="1124" 
d="M466 1267h-335q-68 0 -68 67v32q0 32 17.5 50t50.5 18h862q32 0 50 -17.5t18 -50.5v-32q0 -67 -68 -67h-335v-1199q0 -68 -67 -68h-57q-68 0 -68 68v1199z" />
    <glyph glyph-name="Upsilon" unicode="&#x3a5;" horiz-adv-x="1316" 
d="M658 776l375 613q28 45 81 45h60q41 0 54 -23t-8 -58l-465 -765v-520q0 -32 -17.5 -50t-50.5 -18h-57q-68 0 -68 68v520l-465 765q-21 35 -8 58t54 23h60q53 0 81 -45z" />
    <glyph glyph-name="Phi" unicode="&#x3a6;" horiz-adv-x="1552" 
d="M680 1066q-171 0 -290 -102.5t-119 -248.5t119 -248.5t290 -102.5v702zM748 0q-32 0 -50 17.5t-18 50.5v129q-165 0 -304 68t-219.5 187.5t-80.5 262.5q0 107 47.5 203.5t128.5 165t192.5 109t235.5 40.5v133q0 32 17.5 50t50.5 18h57q67 0 67 -68v-133q165 0 304 -68
t220 -187.5t81 -262.5t-81 -262.5t-220 -187.5t-304 -68v-129q0 -68 -67 -68h-57zM872 364q171 0 290 102.5t119 248.5t-119 248.5t-290 102.5v-702z" />
    <glyph glyph-name="Chi" unicode="&#x3a7;" horiz-adv-x="1290" 
d="M138 0q-41 0 -53.5 24t10.5 58l435 647l-416 623q-23 34 -10.5 58t53.5 24h60q52 0 81 -44l347 -521l347 521q29 44 81 44h61q41 0 53.5 -24t-10.5 -58l-417 -623l435 -647q23 -34 10.5 -58t-53.5 -24h-60q-52 0 -81 43l-366 546l-365 -546q-29 -43 -81 -43h-61z" />
    <glyph glyph-name="Psi" unicode="&#x3a8;" horiz-adv-x="1415" 
d="M804 509q125 30 203.5 131t78.5 246v480q0 32 17.5 50t50.5 18h57q68 0 68 -68v-489q0 -211 -134 -362.5t-341 -182.5v-264q0 -32 -17.5 -50t-50.5 -18h-57q-68 0 -68 68v264q-207 31 -341 182.5t-134 362.5v489q0 32 17.5 50t50.5 18h57q68 0 68 -68v-480
q0 -145 78.5 -246t203.5 -131v857q0 68 68 68h57q68 0 68 -68v-857z" />
    <glyph glyph-name="uni03A9" unicode="&#x3a9;" horiz-adv-x="1626" 
d="M1336 751q0 111 -41 210.5t-110.5 171t-166.5 113.5t-205 42t-205 -42t-166.5 -113.5t-110.5 -171t-41 -210.5q0 -169 90.5 -316t264.5 -246q49 -26 49 -79v-42q0 -68 -67 -68h-449q-67 0 -67 68v34q0 68 67 68h277q-178 108 -269.5 260.5t-91.5 335.5q0 142 56 270
t152 220.5t229.5 147t281.5 54.5t281.5 -54.5t229.5 -147t152 -220.5t56 -270q0 -183 -91.5 -335.5t-269.5 -260.5h277q32 0 50 -17.5t18 -50.5v-34q0 -68 -68 -68h-449q-67 0 -67 68v42q0 50 60 87q169 99 256.5 243.5t87.5 310.5z" />
    <glyph glyph-name="Iotadieresis" unicode="&#x3aa;" horiz-adv-x="583" 
d="M321 1434q67 0 67 -68v-1298q0 -68 -67 -68h-58q-67 0 -67 68v1298q0 68 67 68h58zM-7 1704q0 49 33.5 82.5t82.5 33.5t82 -33.5t33 -82.5q0 -50 -33 -83t-82 -33t-82.5 33t-33.5 83zM359 1704q0 49 33.5 82.5t82.5 33.5t82.5 -33.5t33.5 -82.5q0 -50 -33.5 -83
t-82.5 -33t-82.5 33t-33.5 83z" />
    <glyph glyph-name="Upsilondieresis" unicode="&#x3ab;" horiz-adv-x="1316" 
d="M658 776l375 613q28 45 81 45h60q41 0 54 -23t-8 -58l-465 -765v-520q0 -32 -17.5 -50t-50.5 -18h-57q-68 0 -68 68v520l-465 765q-21 35 -8 58t54 23h60q53 0 81 -45zM359 1704q0 49 33.5 82.5t82.5 33.5t82.5 -33.5t33.5 -82.5q0 -50 -33.5 -83t-82.5 -33t-82.5 33
t-33.5 83zM726 1704q0 49 33.5 82.5t82.5 33.5t82 -33.5t33 -82.5q0 -50 -33 -83t-82 -33q-50 0 -83 33t-33 83z" />
    <glyph glyph-name="alphatonos" unicode="&#x3ac;" horiz-adv-x="1411" 
d="M1286 0q-130 0 -195 34.5t-84 120.5q-71 -88 -172 -134t-217 -46q-154 0 -279 76t-194 203t-69 276t69 276t194 203t279 76q227 0 374 -161v69q0 68 68 68h51q32 0 50 -17.5t18 -50.5v-699q0 -60 34.5 -95t94.5 -35q57 0 57 -68v-27q0 -67 -65 -69h-14zM649 142
q112 0 204 57.5t139 152.5v354q-47 96 -139 154.5t-204 58.5q-162 0 -273 -113.5t-111 -275.5q0 -161 111 -274.5t273 -113.5zM719 1521q32 39 82 39h33q43 0 54.5 -24.5t-16.5 -58.5l-185 -224q-33 -39 -83 -39h-27q-43 0 -54.5 24.5t15.5 58.5z" />
    <glyph glyph-name="epsilontonos" unicode="&#x3ad;" horiz-adv-x="971" 
d="M261 314q0 -75 69.5 -126.5t171.5 -51.5q135 0 230 85q50 44 95 5l26 -20q56 -46 9 -94q-137 -137 -360 -137q-181 0 -304 94.5t-123 232.5q0 96 65.5 170.5t158.5 100.5q-85 27 -133 89.5t-48 137.5q0 121 109 203t269 82q213 0 325 -132q43 -52 -20 -92l-36 -22
q-48 -30 -93 18q-68 68 -176 68q-82 0 -137 -40t-55 -99t55 -98.5t137 -39.5h90q67 0 67 -67v-20q0 -67 -67 -67h-84q-102 0 -171.5 -52.5t-69.5 -127.5zM555 1521q32 39 82 39h33q43 0 55 -24.5t-16 -58.5l-186 -224q-33 -39 -83 -39h-27q-43 0 -54.5 24.5t15.5 58.5z" />
    <glyph glyph-name="etatonos" unicode="&#x3ae;" horiz-adv-x="1235" 
d="M336 68q0 -68 -68 -68h-51q-67 0 -67 68v925q0 68 67 68h51q32 0 50 -17.5t18 -50.5v-95q63 82 151.5 134.5t192.5 52.5q189 0 308 -120.5t119 -312.5v-1060q0 -67 -68 -67h-51q-67 0 -67 67v1050q0 120 -77.5 198.5t-198.5 78.5q-93 0 -173.5 -62.5t-135.5 -153.5v-635z
M725 1521q32 39 82 39h33q43 0 55 -24.5t-16 -58.5l-186 -224q-33 -39 -83 -39h-27q-43 0 -54.5 24.5t15.5 58.5z" />
    <glyph glyph-name="iotatonos" unicode="&#x3af;" horiz-adv-x="562" 
d="M174 993q0 32 17.5 50t50.5 18h51q67 0 67 -68v-714q0 -115 112 -115q44 0 44 -68v-27q0 -67 -39 -68q-13 -1 -40 -1q-263 0 -263 230v763zM374 1521q32 39 82 39h32q43 0 55 -24.5t-16 -58.5l-185 -224q-33 -39 -83 -39h-28q-43 0 -54 24.5t16 58.5z" />
    <glyph glyph-name="upsilondieresistonos" unicode="&#x3b0;" horiz-adv-x="1167" 
d="M584 -25q-192 0 -323.5 127.5t-131.5 312.5v578q0 32 17.5 50t50.5 18h51q67 0 67 -68v-569q0 -120 77.5 -201t191.5 -81t191 81t77 201v569q0 32 17.5 50t50.5 18h51q67 0 67 -68v-578q0 -185 -131 -312.5t-323 -127.5zM279 1305q0 51 34 85t87 34t87.5 -34t34.5 -85
t-34.5 -85.5t-87.5 -34.5t-87 34.5t-34 85.5zM645 1305q0 51 34.5 85t87.5 34t87.5 -34t34.5 -85t-34.5 -85.5t-87.5 -34.5t-87.5 34.5t-34.5 85.5zM562 1483q-37 0 -44 24.5t20 58.5l117 145q33 40 83 40h30q43 0 55 -24.5t-16 -58.5l-122 -146q-32 -39 -83 -39h-40z" />
    <glyph glyph-name="alpha" unicode="&#x3b1;" horiz-adv-x="1411" 
d="M1286 0q-130 0 -195 34.5t-84 120.5q-71 -88 -172 -134t-217 -46q-154 0 -279 76t-194 203t-69 276t69 276t194 203t279 76q227 0 374 -161v69q0 68 68 68h51q32 0 50 -17.5t18 -50.5v-699q0 -60 34.5 -95t94.5 -35q57 0 57 -68v-27q0 -67 -65 -69h-14zM649 142
q112 0 204 57.5t139 152.5v354q-47 96 -139 154.5t-204 58.5q-162 0 -273 -113.5t-111 -275.5q0 -161 111 -274.5t273 -113.5z" />
    <glyph glyph-name="beta" unicode="&#x3b2;" horiz-adv-x="1228" 
d="M159 -475v1535q0 172 122 285t306 113q181 0 304 -109.5t123 -268.5q0 -99 -68.5 -180.5t-177.5 -114.5q157 -24 264 -131.5t107 -263.5q0 -175 -128 -295t-315 -120q-113 0 -206 51t-139 135v-636h-192zM351 1051v-696q41 -98 121.5 -155.5t181.5 -57.5q123 0 206 74
t83 186q0 132 -110 207.5t-298 75.5v162q136 0 209.5 64.5t73.5 161.5q0 94 -67.5 157.5t-165.5 63.5q-99 0 -166.5 -69t-67.5 -174z" />
    <glyph glyph-name="gamma" unicode="&#x3b3;" horiz-adv-x="1075" 
d="M444 -475v476l-416 1060h194l316 -820l315 820h195l-417 -1060v-476h-187z" />
    <glyph glyph-name="delta" unicode="&#x3b4;" horiz-adv-x="1150" 
d="M73 455q0 136 68.5 244t182 165.5t248.5 57.5l-358 354v158h733v-167h-493l492 -491q63 -63 97 -147.5t34 -173.5q0 -136 -70.5 -247.5t-185.5 -172t-249 -60.5q-98 0 -188.5 36t-159.5 98.5t-110 153t-41 192.5zM262 455q0 -133 91.5 -224.5t221.5 -91.5t221.5 91.5
t91.5 224.5q0 132 -91.5 223.5t-221.5 91.5t-221.5 -91.5t-91.5 -223.5z" />
    <glyph glyph-name="epsilon" unicode="&#x3b5;" horiz-adv-x="971" 
d="M261 314q0 -75 69.5 -126.5t171.5 -51.5q135 0 230 85q50 44 95 5l26 -20q56 -46 9 -94q-137 -137 -360 -137q-181 0 -304 94.5t-123 232.5q0 96 65.5 170.5t158.5 100.5q-85 27 -133 89.5t-48 137.5q0 121 109 203t269 82q213 0 325 -132q43 -52 -20 -92l-36 -22
q-48 -30 -93 18q-68 68 -176 68q-82 0 -137 -40t-55 -99t55 -98.5t137 -39.5h90q67 0 67 -67v-20q0 -67 -67 -67h-84q-102 0 -171.5 -52.5t-69.5 -127.5z" />
    <glyph glyph-name="zeta" unicode="&#x3b6;" horiz-adv-x="956" 
d="M76 379q0 97 48 187.5t136 197.5l413 503h-428q-68 0 -68 67v32q0 32 17.5 50t50.5 18h578q32 0 50 -17.5t18 -50.5v-43q0 -49 -30 -84l-455 -561q-69 -84 -107.5 -156t-38.5 -143q0 -153 191 -237l241 -107q197 -87 197 -261q0 -102 -61 -205q-23 -44 -79 -44h-42
q-39 0 -50.5 21.5t8.5 57.5q38 74 38 143q0 50 -34.5 90t-90.5 65l-227 97q-132 57 -203.5 155.5t-71.5 224.5z" />
    <glyph glyph-name="eta" unicode="&#x3b7;" horiz-adv-x="1235" 
d="M336 68q0 -68 -68 -68h-51q-67 0 -67 68v925q0 68 67 68h51q32 0 50 -17.5t18 -50.5v-95q63 82 151.5 134.5t192.5 52.5q189 0 308 -120.5t119 -312.5v-1060q0 -67 -68 -67h-51q-67 0 -67 67v1050q0 120 -77.5 198.5t-198.5 78.5q-93 0 -173.5 -62.5t-135.5 -153.5v-635z
" />
    <glyph glyph-name="theta" unicode="&#x3b8;" horiz-adv-x="1304" 
d="M76 717q0 151 42 286.5t116.5 236t183 159.5t234.5 59q168 0 301 -101t204.5 -269.5t71.5 -370.5t-71.5 -370.5t-204.5 -270t-301 -101.5q-126 0 -234.5 59.5t-183 160t-116.5 236t-42 286.5zM652 142q154 0 259.5 142t123.5 352h-766q18 -210 123.5 -352t259.5 -142z
M652 1291q-154 0 -259.5 -142t-123.5 -352h766q-18 210 -123.5 352t-259.5 142z" />
    <glyph glyph-name="iota" unicode="&#x3b9;" horiz-adv-x="562" 
d="M174 993q0 32 17.5 50t50.5 18h51q67 0 67 -68v-714q0 -115 112 -115q44 0 44 -68v-27q0 -67 -39 -68q-13 -1 -40 -1q-263 0 -263 230v763z" />
    <glyph glyph-name="kappa" unicode="&#x3ba;" horiz-adv-x="1053" 
d="M467 504h-131v-436q0 -68 -68 -68h-51q-67 0 -67 68v925q0 68 67 68h51q32 0 50 -17.5t18 -50.5v-328h133l269 355q31 41 82 41h66q42 0 54.5 -24.5t-13.5 -58.5l-303 -393l362 -503q25 -34 12.5 -58t-54.5 -24h-62q-53 0 -82 42z" />
    <glyph glyph-name="lambda" unicode="&#x3bb;" horiz-adv-x="1075" 
d="M295 1417q-14 35 1 56.5t52 21.5h53q58 0 78 -53l538 -1364q14 -35 -1 -56.5t-52 -21.5h-54q-57 0 -77 53l-297 749l-293 -749q-20 -53 -78 -53h-53q-37 0 -52 21.5t-1 56.5l384 962z" />
    <glyph glyph-name="uni03BC" unicode="&#x3bc;" horiz-adv-x="1256" 
d="M150 993q0 68 67 68h51q32 0 50 -17.5t18 -50.5v-656q29 -86 105 -140.5t169 -54.5q89 0 172.5 60.5t138.5 149.5v641q0 68 67 68h51q32 0 50 -17.5t18 -50.5v-925q0 -32 -17.5 -50t-50.5 -18h-51q-67 0 -67 68v89q-60 -79 -146.5 -130.5t-182.5 -51.5q-77 0 -145 38
t-111 97v-518q0 -67 -68 -67h-51q-67 0 -67 67v1401z" />
    <glyph glyph-name="nu" unicode="&#x3bd;" horiz-adv-x="1071" 
d="M652 53q-20 -53 -78 -53h-77q-58 0 -78 53l-361 930q-13 35 1.5 56.5t52.5 21.5h53q57 0 78 -53l293 -764l292 764q21 53 78 53h53q38 0 52.5 -21.5t1.5 -56.5z" />
    <glyph glyph-name="xi" unicode="&#x3be;" horiz-adv-x="966" 
d="M269 385q0 -196 220 -277l194 -72q103 -38 161 -106t58 -157q0 -102 -65 -205q-24 -43 -81 -43h-39q-40 0 -51.5 21.5t9.5 57.5q43 78 43 142q0 103 -129 151l-186 66q-150 54 -234.5 167.5t-84.5 247.5q0 135 84.5 246t215.5 159q-105 40 -171 127t-66 192
q0 151 116 253.5t285 102.5t285 -96q49 -43 1 -95l-29 -31q-45 -47 -95 0q-76 68 -162 68q-91 0 -152.5 -64t-61.5 -158t61.5 -157.5t152.5 -63.5h153q68 0 68 -67v-20q0 -67 -68 -67h-117q-133 0 -224 -93t-91 -229z" />
    <glyph glyph-name="omicron" unicode="&#x3bf;" horiz-adv-x="1298" 
d="M649 142q162 0 273 113.5t111 274.5q0 162 -111 275.5t-273 113.5t-273 -113.5t-111 -275.5q0 -161 111 -274.5t273 -113.5zM649 1085q122 0 229 -44t182.5 -118.5t119 -177t43.5 -215.5t-43.5 -215.5t-119 -177t-182.5 -118.5t-229 -44t-229 44t-182 118.5t-118.5 177
t-43.5 215.5t43.5 215.5t118.5 177t182 118.5t229 44z" />
    <glyph glyph-name="pi" unicode="&#x3c0;" horiz-adv-x="1169" 
d="M398 68q0 -68 -67 -68h-51q-32 0 -50 17.5t-18 50.5v826h-93q-68 0 -68 68v31q0 32 17.5 50t50.5 18h932q67 0 67 -68v-31q0 -68 -67 -68h-94v-826q0 -68 -67 -68h-51q-32 0 -50 17.5t-18 50.5v826h-373v-826z" />
    <glyph glyph-name="rho" unicode="&#x3c1;" horiz-adv-x="1312" 
d="M315 395q38 -115 135.5 -184t218.5 -69q160 0 269.5 112t109.5 276t-105 276.5t-261 112.5q-157 0 -262 -112.5t-105 -276.5v-135zM699 -25q-118 0 -217 49.5t-167 136.5v-569q0 -67 -67 -67h-51q-68 0 -68 67v938q0 234 157.5 394.5t397.5 160.5q158 0 285 -74
t197.5 -201t70.5 -280q0 -150 -69.5 -277t-193.5 -202.5t-275 -75.5z" />
    <glyph glyph-name="sigma1" unicode="&#x3c2;" horiz-adv-x="1100" 
d="M76 530q0 113 43.5 215.5t118.5 177t182 118.5t229 44q185 0 335 -100q53 -38 15 -94l-22 -34q-36 -55 -94 -15q-114 77 -234 77q-162 0 -273 -113.5t-111 -275.5q0 -126 67 -223t194 -151l283 -122q195 -84 195 -260q0 -102 -66 -206q-26 -43 -82 -43h-38
q-40 0 -51 21.5t9 57.5q42 76 42 143q0 101 -124 153l-265 112q-163 69 -258 204.5t-95 313.5z" />
    <glyph glyph-name="sigma" unicode="&#x3c3;" horiz-adv-x="1342" 
d="M76 518q0 149 74.5 274t203.5 197t283 72h587q67 0 67 -68v-31q0 -68 -67 -68h-224q91 -68 144.5 -170.5t53.5 -220.5q0 -143 -74.5 -264.5t-203.5 -192.5t-283 -71t-283 72t-203.5 197t-74.5 274zM1009 518q0 158 -107.5 267t-264.5 109t-264.5 -109t-107.5 -267
q0 -159 107.5 -267.5t264.5 -108.5t264.5 108.5t107.5 267.5z" />
    <glyph glyph-name="tau" unicode="&#x3c4;" horiz-adv-x="1003" 
d="M397 894h-278q-68 0 -68 68v31q0 32 17.5 50t50.5 18h766q67 0 67 -68v-31q0 -68 -67 -68h-301v-572q0 -87 35 -124t109 -37q58 0 58 -68v-27q0 -67 -40 -68q-13 -1 -39 -1q-162 0 -236 74.5t-74 242.5v580z" />
    <glyph glyph-name="upsilon" unicode="&#x3c5;" horiz-adv-x="1167" 
d="M584 -25q-192 0 -323.5 127.5t-131.5 312.5v578q0 32 17.5 50t50.5 18h51q67 0 67 -68v-569q0 -120 77.5 -201t191.5 -81t191 81t77 201v569q0 32 17.5 50t50.5 18h51q67 0 67 -68v-578q0 -185 -131 -312.5t-323 -127.5z" />
    <glyph glyph-name="phi" unicode="&#x3c6;" horiz-adv-x="1421" 
d="M357 890q47 -41 4 -95q-96 -122 -96 -265q0 -153 100.5 -262t251.5 -123v873q0 67 68 67h77q124 0 233 -43.5t185.5 -118t121 -177t44.5 -216.5q0 -224 -154.5 -382t-387.5 -171v-385q0 -67 -68 -67h-51q-68 0 -68 67v385q-233 13 -387 171t-154 382q0 113 41.5 213
t111.5 176q43 48 95 1zM1156 530q0 153 -100.5 262t-251.5 123v-770q151 14 251.5 123t100.5 262z" />
    <glyph glyph-name="chi" unicode="&#x3c7;" horiz-adv-x="1052" 
d="M896 -475q-55 0 -80 48l-290 559l-289 -559q-25 -48 -80 -48h-57q-39 0 -53 22.5t5 57.5l368 707l-347 669q-19 35 -5 57.5t53 22.5h56q55 0 80 -48l269 -523l270 523q25 48 80 48h56q39 0 53 -22.5t-5 -57.5l-347 -669l367 -707q19 -35 5 -57.5t-53 -22.5h-56z" />
    <glyph glyph-name="psi" unicode="&#x3c8;" horiz-adv-x="1401" 
d="M796 156q127 27 207 125.5t80 231.5v480q0 32 17.5 50t50.5 18h54q68 0 68 -68v-488q0 -200 -135 -346t-342 -175v-392q0 -67 -68 -67h-54q-68 0 -68 67v392q-207 29 -342 175t-135 346v488q0 68 68 68h54q67 0 67 -68v-480q0 -132 80.5 -231t207.5 -126v837q0 68 68 68
h54q68 0 68 -68v-837z" />
    <glyph glyph-name="omega" unicode="&#x3c9;" horiz-adv-x="1626" 
d="M813 212q-46 -104 -133 -170.5t-196 -66.5q-172 0 -290 157.5t-118 387.5q0 236 154 496q25 45 81 45h41q40 0 52.5 -22.5t-6.5 -57.5q-133 -249 -133 -461q0 -160 67 -269t165 -109q92 0 157.5 99.5t65.5 239.5v289q0 68 67 68h52q67 0 67 -68v-289q0 -140 65.5 -239.5
t157.5 -99.5q98 0 165 109t67 269q0 212 -133 461q-19 35 -6.5 57.5t52.5 22.5h41q56 0 81 -45q154 -260 154 -496q0 -230 -118 -387.5t-290 -157.5q-109 0 -196 66.5t-133 170.5z" />
    <glyph glyph-name="iotadieresis" unicode="&#x3ca;" horiz-adv-x="562" 
d="M174 993q0 32 17.5 50t50.5 18h51q67 0 67 -68v-714q0 -115 112 -115q44 0 44 -68v-27q0 -67 -39 -68q-13 -1 -40 -1q-263 0 -263 230v763zM-32 1372q0 49 33.5 82.5t82.5 33.5t82.5 -33.5t33.5 -82.5q0 -50 -33 -83t-83 -33t-83 33t-33 83zM335 1372q0 49 33.5 82.5
t82.5 33.5t82 -33.5t33 -82.5q0 -50 -33 -83t-82 -33t-82.5 33t-33.5 83z" />
    <glyph glyph-name="upsilondieresis" unicode="&#x3cb;" horiz-adv-x="1167" 
d="M584 -25q-192 0 -323.5 127.5t-131.5 312.5v578q0 32 17.5 50t50.5 18h51q67 0 67 -68v-569q0 -120 77.5 -201t191.5 -81t191 81t77 201v569q0 32 17.5 50t50.5 18h51q67 0 67 -68v-578q0 -185 -131 -312.5t-323 -127.5zM285 1372q0 49 33 82.5t82 33.5t82.5 -33.5
t33.5 -82.5q0 -50 -33 -83t-83 -33q-49 0 -82 33t-33 83zM651 1372q0 49 33.5 82.5t82.5 33.5t82.5 -33.5t33.5 -82.5q0 -50 -33.5 -83t-82.5 -33t-82.5 33t-33.5 83z" />
    <glyph glyph-name="omicrontonos" unicode="&#x3cc;" horiz-adv-x="1298" 
d="M649 142q162 0 273 113.5t111 274.5q0 162 -111 275.5t-273 113.5t-273 -113.5t-111 -275.5q0 -161 111 -274.5t273 -113.5zM649 1085q122 0 229 -44t182.5 -118.5t119 -177t43.5 -215.5t-43.5 -215.5t-119 -177t-182.5 -118.5t-229 -44t-229 44t-182 118.5t-118.5 177
t-43.5 215.5t43.5 215.5t118.5 177t182 118.5t229 44zM751 1521q32 39 82 39h32q43 0 55 -24.5t-16 -58.5l-185 -224q-33 -39 -83 -39h-28q-43 0 -54.5 24.5t15.5 58.5z" />
    <glyph glyph-name="upsilontonos" unicode="&#x3cd;" horiz-adv-x="1167" 
d="M584 -25q-192 0 -323.5 127.5t-131.5 312.5v578q0 32 17.5 50t50.5 18h51q67 0 67 -68v-569q0 -120 77.5 -201t191.5 -81t191 81t77 201v569q0 32 17.5 50t50.5 18h51q67 0 67 -68v-578q0 -185 -131 -312.5t-323 -127.5zM673 1521q32 39 82 39h32q43 0 55 -24.5
t-16 -58.5l-185 -224q-33 -39 -83 -39h-28q-43 0 -54 24.5t16 58.5z" />
    <glyph glyph-name="omegatonos" unicode="&#x3ce;" horiz-adv-x="1626" 
d="M813 212q-46 -104 -133 -170.5t-196 -66.5q-172 0 -290 157.5t-118 387.5q0 236 154 496q25 45 81 45h41q40 0 52.5 -22.5t-6.5 -57.5q-133 -249 -133 -461q0 -160 67 -269t165 -109q92 0 157.5 99.5t65.5 239.5v289q0 68 67 68h52q67 0 67 -68v-289q0 -140 65.5 -239.5
t157.5 -99.5q98 0 165 109t67 269q0 212 -133 461q-19 35 -6.5 57.5t52.5 22.5h41q56 0 81 -45q154 -260 154 -496q0 -230 -118 -387.5t-290 -157.5q-109 0 -196 66.5t-133 170.5zM922 1521q32 39 82 39h32q43 0 55 -24.5t-16 -58.5l-185 -224q-33 -39 -83 -39h-28
q-43 0 -54.5 24.5t15.5 58.5z" />
    <glyph glyph-name="uni0400" unicode="&#x400;" horiz-adv-x="1156" 
d="M172 1366q0 32 17.5 50t50.5 18h711q68 0 68 -68v-32q0 -67 -68 -67h-586v-463h534q32 0 50 -17.5t18 -50.5v-31q0 -32 -17.5 -50t-50.5 -18h-534v-470h605q67 0 67 -68v-31q0 -68 -67 -68h-730q-32 0 -50 17.5t-18 50.5v1298zM667 1629q27 -34 15.5 -58.5t-54.5 -24.5
h-28q-49 0 -82 39l-186 223q-28 34 -16 58.5t55 24.5h32q50 0 82 -39z" />
    <glyph glyph-name="afii10023" unicode="&#x401;" horiz-adv-x="1156" 
d="M172 1366q0 32 17.5 50t50.5 18h711q68 0 68 -68v-32q0 -67 -68 -67h-586v-463h534q32 0 50 -17.5t18 -50.5v-31q0 -32 -17.5 -50t-50.5 -18h-534v-470h605q67 0 67 -68v-31q0 -68 -67 -68h-730q-32 0 -50 17.5t-18 50.5v1298zM295 1704q0 49 33.5 82.5t82.5 33.5
t82 -33.5t33 -82.5q0 -50 -33 -83t-82 -33t-82.5 33t-33.5 83zM662 1704q0 49 33 82.5t82 33.5t82.5 -33.5t33.5 -82.5q0 -50 -33.5 -83t-82.5 -33t-82 33t-33 83z" />
    <glyph glyph-name="afii10051" unicode="&#x402;" horiz-adv-x="1459" 
d="M465 1267h-334q-68 0 -68 67v32q0 32 17.5 50t50.5 18h861q32 0 50 -17.5t18 -50.5v-32q0 -67 -68 -67h-335v-486q55 65 137.5 103t173.5 38q175 0 294.5 -118t119.5 -289v-118q0 -169 -118.5 -285t-292.5 -116h-18q-65 2 -65 70v26q0 68 31 68h30q102 0 171.5 70
t69.5 173v103q0 105 -71.5 177t-176.5 72q-93 0 -166.5 -44t-118.5 -124v-519q0 -68 -67 -68h-58q-67 0 -67 68v1199z" />
    <glyph glyph-name="afii10052" unicode="&#x403;" horiz-adv-x="1053" 
d="M172 1366q0 32 17.5 50t50.5 18h698q68 0 68 -68v-32q0 -67 -68 -67h-573v-1199q0 -32 -17.5 -50t-50.5 -18h-57q-68 0 -68 68v1298zM691 1894q32 39 82 39h33q43 0 55 -24.5t-16 -58.5l-186 -223q-33 -39 -82 -39h-28q-43 0 -54.5 24.5t15.5 58.5z" />
    <glyph glyph-name="afii10053" unicode="&#x404;" horiz-adv-x="1400" 
d="M837 145q172 0 333 105q56 41 95 -14l24 -35q40 -57 -15 -95q-193 -131 -437 -131q-157 0 -297 57.5t-240 156t-158.5 236.5t-58.5 292t58.5 291.5t158.5 236t240 156t297 57.5q230 0 418 -121q56 -36 18 -93l-23 -34q-38 -54 -94 -19q-157 97 -319 97
q-212 0 -368 -138.5t-185 -349.5h670q68 0 68 -68v-32q0 -67 -68 -67h-670q29 -211 185 -349.5t368 -138.5z" />
    <glyph glyph-name="afii10054" unicode="&#x405;" horiz-adv-x="1204" 
d="M181 287q44 49 95 1q155 -143 327 -143q141 0 229.5 65.5t88.5 171.5q0 101 -80 171t-261 107q-219 45 -331.5 150.5t-112.5 259.5q0 172 127 280t328 108q233 0 402 -138q50 -42 6 -95l-28 -35q-42 -51 -95 -7q-134 105 -276 105q-119 0 -193.5 -57t-74.5 -148
q0 -97 80.5 -161.5t247.5 -102.5q240 -54 348 -161.5t108 -274.5q0 -181 -137 -294.5t-367 -113.5q-131 0 -251.5 49t-209.5 135q-46 44 0 95z" />
    <glyph glyph-name="afii10055" unicode="&#x406;" horiz-adv-x="583" 
d="M321 1434q67 0 67 -68v-1298q0 -68 -67 -68h-58q-67 0 -67 68v1298q0 68 67 68h58z" />
    <glyph glyph-name="afii10056" unicode="&#x407;" horiz-adv-x="583" 
d="M321 1434q67 0 67 -68v-1298q0 -68 -67 -68h-58q-67 0 -67 68v1298q0 68 67 68h58zM-7 1704q0 49 33.5 82.5t82.5 33.5t82 -33.5t33 -82.5q0 -50 -33 -83t-82 -33t-82.5 33t-33.5 83zM359 1704q0 49 33.5 82.5t82.5 33.5t82.5 -33.5t33.5 -82.5q0 -50 -33.5 -83
t-82.5 -33t-82.5 33t-33.5 83z" />
    <glyph glyph-name="afii10057" unicode="&#x408;" horiz-adv-x="930" 
d="M580 1366q0 68 67 68h58q67 0 67 -68v-925q0 -466 -438 -466q-120 0 -226 42q-60 22 -35 88l14 37q22 60 88 35q83 -32 155 -32q250 0 250 296v925z" />
    <glyph glyph-name="afii10058" unicode="&#x409;" horiz-adv-x="2052" 
d="M1102 0q-32 0 -50 17.5t-18 50.5v1199h-582v-931q0 -340 -324 -340h-14q-66 2 -66 70v29q0 68 31 68h31q75 0 112 40t37 131v1032q0 68 68 68h832q68 0 68 -68v-453h249q228 0 364 -125.5t136 -330.5t-136 -331t-364 -126h-374zM1468 167q145 0 229.5 79.5t84.5 210.5
t-84.5 210t-229.5 79h-241v-579h241z" />
    <glyph glyph-name="afii10059" unicode="&#x40a;" horiz-adv-x="2063" 
d="M172 1366q0 32 17.5 50t50.5 18h57q68 0 68 -68v-562h679v562q0 68 68 68h57q68 0 68 -68v-453h250q228 0 364.5 -125.5t136.5 -330.5t-136.5 -331t-364.5 -126h-375q-32 0 -50 17.5t-18 50.5v569h-679v-569q0 -32 -17.5 -50t-50.5 -18h-57q-68 0 -68 68v1298zM1479 167
q146 0 230 79.5t84 210.5t-84 210t-230 79h-242v-579h242z" />
    <glyph glyph-name="afii10060" unicode="&#x40b;" horiz-adv-x="1511" 
d="M465 1267h-334q-68 0 -68 67v32q0 32 17.5 50t50.5 18h861q32 0 50 -17.5t18 -50.5v-32q0 -67 -68 -67h-335v-486q55 65 137.5 103t173.5 38q175 0 294.5 -118t119.5 -289v-447q0 -68 -67 -68h-58q-67 0 -67 68v438q0 105 -71.5 177t-176.5 72q-93 0 -166.5 -44
t-118.5 -124v-519q0 -68 -67 -68h-58q-67 0 -67 68v1199z" />
    <glyph glyph-name="afii10061" unicode="&#x40c;" horiz-adv-x="1229" 
d="M365 804h122l409 587q29 43 82 43h68q41 0 54 -24t-11 -58l-438 -628l511 -641q27 -34 15 -58.5t-55 -24.5h-69q-51 0 -83 40l-476 597h-129v-569q0 -32 -17.5 -50t-50.5 -18h-57q-68 0 -68 68v1298q0 68 68 68h57q68 0 68 -68v-562zM683 1852q32 39 82 39h33
q43 0 55 -24.5t-16 -58.5l-186 -223q-33 -39 -83 -39h-27q-43 0 -54.5 24.5t15.5 58.5z" />
    <glyph glyph-name="uni040D" unicode="&#x40d;" horiz-adv-x="1432" 
d="M1261 68q0 -32 -17.5 -50t-50.5 -18h-51q-32 0 -50 17.5t-18 50.5v1032l-688 -1056q-27 -44 -81 -44h-65q-68 0 -68 68v1298q0 68 68 68h51q67 0 67 -68v-1032l689 1056q27 44 80 44h66q68 0 68 -68v-1298zM790 1629q27 -34 15.5 -58.5t-54.5 -24.5h-28q-49 0 -82 39
l-186 223q-28 34 -16 58.5t55 24.5h32q50 0 82 -39z" />
    <glyph glyph-name="afii10062" unicode="&#x40e;" horiz-adv-x="1316" 
d="M563 420l-474 934q-18 34 -4 57t53 23h58q55 0 79 -50l389 -770l377 770q24 50 80 50h59q39 0 53 -22.5t-4 -57.5l-577 -1160q-95 -194 -294 -194h-79q-68 0 -68 68v31q0 32 17.5 50t50.5 18h55q99 0 152 103zM664 1526q-116 0 -205 67.5t-118 175.5q-9 33 9 53t53 20h31
q30 0 46.5 -14.5t26.5 -45.5q18 -54 59 -85.5t98 -31.5t97.5 31.5t58.5 85.5q10 31 26.5 45.5t46.5 14.5h31q35 0 53 -20t8 -54q-29 -108 -117.5 -175t-203.5 -67z" />
    <glyph glyph-name="afii10145" unicode="&#x40f;" horiz-adv-x="1382" 
d="M1210 68q0 -68 -67 -68h-356v-219q0 -68 -67 -68h-57q-68 0 -68 68v219h-355q-68 0 -68 68v1298q0 68 68 68h57q68 0 68 -68v-1199h653v1199q0 68 67 68h58q67 0 67 -68v-1298z" />
    <glyph glyph-name="afii10017" unicode="&#x410;" horiz-adv-x="1394" 
d="M1193 0q-58 0 -77 54l-114 316h-610l-113 -316q-19 -54 -77 -54h-70q-37 0 -51.5 21.5t-1.5 56.5l490 1302q19 54 78 54h101q58 0 77 -54l491 -1302q13 -35 -1.5 -56.5t-51.5 -21.5h-70zM945 537l-248 684l-247 -684h495z" />
    <glyph glyph-name="afii10018" unicode="&#x411;" horiz-adv-x="1211" 
d="M172 1366q0 32 17.5 50t50.5 18h699q32 0 50 -17.5t18 -50.5v-32q0 -67 -68 -67h-574v-354h253q228 0 364.5 -125.5t136.5 -330.5t-136.5 -331t-364.5 -126h-378q-32 0 -50 17.5t-18 50.5v1298zM611 167q145 0 229 79.5t84 210.5q0 130 -84 209.5t-229 79.5h-246v-579
h246z" />
    <glyph glyph-name="afii10019" unicode="&#x412;" horiz-adv-x="1264" 
d="M240 0q-68 0 -68 68v1298q0 68 68 68h436q191 0 299.5 -103t108.5 -277q0 -111 -52.5 -186t-140.5 -107q117 -26 196 -120t79 -232q0 -183 -117 -296t-312 -113h-497zM889 1044q0 104 -62 163.5t-164 59.5h-298v-444h298q102 0 164 58.5t62 162.5zM971 415
q0 113 -69.5 180.5t-180.5 67.5h-356v-496h356q111 0 180.5 68t69.5 180z" />
    <glyph glyph-name="afii10020" unicode="&#x413;" horiz-adv-x="1053" 
d="M172 1366q0 32 17.5 50t50.5 18h698q68 0 68 -68v-32q0 -67 -68 -67h-573v-1199q0 -32 -17.5 -50t-50.5 -18h-57q-68 0 -68 68v1298z" />
    <glyph glyph-name="afii10021" unicode="&#x414;" horiz-adv-x="1347" 
d="M1283 -219q0 -32 -17.5 -50t-50.5 -18h-57q-67 0 -67 68v219h-834v-219q0 -68 -68 -68h-57q-67 0 -67 68v318q0 68 67 68h43q181 424 181 1133v66q0 68 68 68h663q68 0 68 -68v-1199h60q32 0 50 -17.5t18 -50.5v-318zM963 167v1100h-416q0 -294 -41.5 -586.5
t-124.5 -513.5h582z" />
    <glyph glyph-name="afii10022" unicode="&#x415;" horiz-adv-x="1156" 
d="M172 1366q0 32 17.5 50t50.5 18h711q68 0 68 -68v-32q0 -67 -68 -67h-586v-463h534q32 0 50 -17.5t18 -50.5v-31q0 -32 -17.5 -50t-50.5 -18h-534v-470h605q67 0 67 -68v-31q0 -68 -67 -68h-730q-32 0 -50 17.5t-18 50.5v1298z" />
    <glyph glyph-name="afii10024" unicode="&#x416;" horiz-adv-x="1841" 
d="M724 804h100v562q0 68 68 68h57q68 0 68 -68v-562h100l391 586q29 44 81 44h70q41 0 53.5 -24t-10.5 -58l-420 -628l494 -641q26 -35 13.5 -59t-54.5 -24h-71q-51 0 -82 41l-458 596h-107v-569q0 -32 -17.5 -50t-50.5 -18h-57q-68 0 -68 68v569h-107l-458 -596
q-31 -41 -82 -41h-71q-42 0 -54 24t14 59l493 641l-420 628q-23 34 -10.5 58t53.5 24h70q52 0 81 -44z" />
    <glyph glyph-name="afii10025" unicode="&#x417;" horiz-adv-x="1082" 
d="M808 421q0 123 -92 202.5t-241 79.5h-81q-67 0 -67 68v23q0 67 67 67h83q117 0 190 61.5t73 156.5q0 92 -71 153.5t-176 61.5q-116 0 -204 -74q-51 -43 -95 1l-21 21q-49 51 -1 95q133 121 336 121q182 0 299 -108t117 -267q0 -98 -58.5 -178t-154.5 -117
q128 -43 207 -142.5t79 -227.5q0 -188 -141.5 -315.5t-349.5 -127.5q-120 0 -226 47.5t-178 132.5q-40 47 7 94l26 26q48 48 95 -6q115 -130 276 -130q128 0 215 81.5t87 200.5z" />
    <glyph glyph-name="afii10026" unicode="&#x418;" horiz-adv-x="1432" 
d="M1261 68q0 -32 -17.5 -50t-50.5 -18h-51q-32 0 -50 17.5t-18 50.5v1032l-688 -1056q-27 -44 -81 -44h-65q-68 0 -68 68v1298q0 68 68 68h51q67 0 67 -68v-1032l689 1056q27 44 80 44h66q68 0 68 -68v-1298z" />
    <glyph glyph-name="afii10027" unicode="&#x419;" horiz-adv-x="1432" 
d="M1261 68q0 -32 -17.5 -50t-50.5 -18h-51q-32 0 -50 17.5t-18 50.5v1032l-688 -1056q-27 -44 -81 -44h-65q-68 0 -68 68v1298q0 68 68 68h51q67 0 67 -68v-1032l689 1056q27 44 80 44h66q68 0 68 -68v-1298zM716 1526q-116 0 -205 67.5t-118 175.5q-9 33 9.5 53t53.5 20
h30q30 0 46.5 -14.5t26.5 -45.5q18 -54 59 -85.5t98 -31.5t97.5 31.5t58.5 85.5q10 31 26.5 45.5t46.5 14.5h31q35 0 53 -20t8 -54q-29 -108 -117.5 -175t-203.5 -67z" />
    <glyph glyph-name="afii10028" unicode="&#x41a;" horiz-adv-x="1229" 
d="M365 804h122l409 587q29 43 82 43h68q41 0 54 -24t-11 -58l-438 -628l511 -641q27 -34 15 -58.5t-55 -24.5h-69q-51 0 -83 40l-476 597h-129v-569q0 -32 -17.5 -50t-50.5 -18h-57q-68 0 -68 68v1298q0 68 68 68h57q68 0 68 -68v-562z" />
    <glyph glyph-name="afii10029" unicode="&#x41b;" horiz-adv-x="1436" 
d="M452 336q0 -340 -324 -340h-14q-66 2 -66 70v29q0 68 31 68h31q75 0 112 40t37 131v1032q0 68 68 68h870q68 0 68 -68v-1298q0 -68 -68 -68h-57q-68 0 -68 68v1199h-620v-931z" />
    <glyph glyph-name="afii10030" unicode="&#x41c;" horiz-adv-x="1738" 
d="M860 454q-54 0 -82 43l-420 618v-1047q0 -68 -67 -68h-51q-32 0 -50 17.5t-18 50.5v1298q0 68 68 68h59q53 0 82 -43l488 -724l489 724q29 43 82 43h59q68 0 68 -68v-1298q0 -68 -68 -68h-51q-32 0 -50 17.5t-18 50.5v1047l-419 -618q-28 -43 -82 -43h-19z" />
    <glyph glyph-name="afii10031" unicode="&#x41d;" horiz-adv-x="1427" 
d="M172 1366q0 32 17.5 50t50.5 18h57q68 0 68 -68v-562h698v562q0 68 67 68h58q67 0 67 -68v-1298q0 -68 -67 -68h-58q-67 0 -67 68v569h-698v-569q0 -32 -17.5 -50t-50.5 -18h-57q-68 0 -68 68v1298z" />
    <glyph glyph-name="afii10032" unicode="&#x41e;" horiz-adv-x="1673" 
d="M837 145q153 0 281.5 75.5t202.5 207t74 289.5q0 118 -44 224t-118.5 182t-177.5 120.5t-218 44.5t-218 -44.5t-177.5 -120.5t-118.5 -182t-44 -224q0 -158 74 -289.5t202.5 -207t281.5 -75.5zM837 1458q209 0 382 -97.5t272 -267.5t99 -376q0 -154 -58.5 -291.5
t-158.5 -236.5t-239.5 -156.5t-296.5 -57.5t-297 57.5t-240 156t-158.5 236.5t-58.5 292t58.5 291.5t158.5 236t240 156t297 57.5z" />
    <glyph glyph-name="afii10033" unicode="&#x41f;" horiz-adv-x="1381" 
d="M1209 68q0 -68 -67 -68h-58q-67 0 -67 68v1199h-652v-1199q0 -32 -17.5 -50t-50.5 -18h-57q-68 0 -68 68v1298q0 68 68 68h902q67 0 67 -68v-1298z" />
    <glyph glyph-name="afii10034" unicode="&#x420;" horiz-adv-x="1198" 
d="M365 541v-473q0 -68 -68 -68h-57q-68 0 -68 68v1298q0 68 68 68h390q227 0 359.5 -121.5t132.5 -325.5t-132.5 -325t-359.5 -121h-265zM927 987q0 129 -80.5 204.5t-223.5 75.5h-258v-559h258q143 0 223.5 75t80.5 204z" />
    <glyph glyph-name="afii10035" unicode="&#x421;" horiz-adv-x="1400" 
d="M837 145q172 0 333 105q56 41 95 -14l24 -35q40 -57 -15 -95q-193 -131 -437 -131q-157 0 -297 57.5t-240 156t-158.5 236.5t-58.5 292t58.5 291.5t158.5 236t240 156t297 57.5q230 0 418 -121q56 -36 18 -93l-23 -34q-38 -54 -94 -19q-157 97 -319 97q-115 0 -218 -44.5
t-177.5 -120.5t-118.5 -182t-44 -224q0 -158 74 -289.5t202.5 -207t281.5 -75.5z" />
    <glyph glyph-name="afii10036" unicode="&#x422;" horiz-adv-x="1124" 
d="M466 1267h-335q-68 0 -68 67v32q0 32 17.5 50t50.5 18h862q32 0 50 -17.5t18 -50.5v-32q0 -67 -68 -67h-335v-1199q0 -68 -67 -68h-57q-68 0 -68 68v1199z" />
    <glyph glyph-name="afii10037" unicode="&#x423;" horiz-adv-x="1316" 
d="M563 420l-474 934q-18 34 -4 57t53 23h58q55 0 79 -50l389 -770l377 770q24 50 80 50h59q39 0 53 -22.5t-4 -57.5l-577 -1160q-95 -194 -294 -194h-79q-68 0 -68 68v31q0 32 17.5 50t50.5 18h55q99 0 152 103z" />
    <glyph glyph-name="afii10038" unicode="&#x424;" horiz-adv-x="1552" 
d="M680 1066q-171 0 -290 -102.5t-119 -248.5t119 -248.5t290 -102.5v702zM748 0q-32 0 -50 17.5t-18 50.5v129q-165 0 -304 68t-219.5 187.5t-80.5 262.5q0 107 47.5 203.5t128.5 165t192.5 109t235.5 40.5v133q0 32 17.5 50t50.5 18h57q67 0 67 -68v-133q165 0 304 -68
t220 -187.5t81 -262.5t-81 -262.5t-220 -187.5t-304 -68v-129q0 -68 -67 -68h-57zM872 364q171 0 290 102.5t119 248.5t-119 248.5t-290 102.5v-702z" />
    <glyph glyph-name="afii10039" unicode="&#x425;" horiz-adv-x="1290" 
d="M138 0q-41 0 -53.5 24t10.5 58l435 647l-416 623q-23 34 -10.5 58t53.5 24h60q52 0 81 -44l347 -521l347 521q29 44 81 44h61q41 0 53.5 -24t-10.5 -58l-417 -623l435 -647q23 -34 10.5 -58t-53.5 -24h-60q-52 0 -81 43l-366 546l-365 -546q-29 -43 -81 -43h-61z" />
    <glyph glyph-name="afii10040" unicode="&#x426;" horiz-adv-x="1400" 
d="M1210 167h59q67 0 67 -68v-318q0 -68 -67 -68h-58q-67 0 -67 68v219h-904q-68 0 -68 68v1298q0 68 68 68h57q68 0 68 -68v-1199h653v1199q0 68 67 68h58q67 0 67 -68v-1199z" />
    <glyph glyph-name="afii10041" unicode="&#x427;" horiz-adv-x="1259" 
d="M963 0q-32 0 -50 17.5t-18 50.5v594q-55 -65 -145.5 -107.5t-185.5 -42.5q-183 0 -309 123t-126 301v430q0 32 17.5 50t50.5 18h57q68 0 68 -68v-421q0 -112 77.5 -189t191.5 -77q95 0 177 48.5t127 128.5v510q0 68 68 68h57q67 0 67 -68v-1298q0 -68 -67 -68h-57z" />
    <glyph glyph-name="afii10042" unicode="&#x428;" horiz-adv-x="1974" 
d="M1610 1366q0 68 67 68h58q67 0 67 -68v-1298q0 -68 -67 -68h-1495q-32 0 -50 17.5t-18 50.5v1298q0 68 68 68h57q68 0 68 -68v-1199h526v1199q0 68 67 68h58q67 0 67 -68v-1199h527v1199z" />
    <glyph glyph-name="afii10043" unicode="&#x429;" horiz-adv-x="1991" 
d="M172 1366q0 32 17.5 50t50.5 18h57q68 0 68 -68v-1199h526v1199q0 68 67 68h58q67 0 67 -68v-1199h527v1199q0 68 67 68h58q67 0 67 -68v-1199h58q67 0 67 -68v-318q0 -68 -67 -68h-58q-67 0 -67 68v219h-1495q-32 0 -50 17.5t-18 50.5v1298z" />
    <glyph glyph-name="afii10044" unicode="&#x42a;" horiz-adv-x="1449" 
d="M866 167q145 0 229.5 79.5t84.5 210.5t-84.5 210t-229.5 79h-246v-579h246zM495 0q-32 0 -50 17.5t-18 50.5v1199h-296q-68 0 -68 67v32q0 32 17.5 50t50.5 18h421q32 0 50 -17.5t18 -50.5v-453h253q228 0 364.5 -125.5t136.5 -330.5t-136.5 -331t-364.5 -126h-378z" />
    <glyph glyph-name="afii10045" unicode="&#x42b;" horiz-adv-x="1668" 
d="M611 167q145 0 229.5 79.5t84.5 210.5t-84.5 210t-229.5 79h-246v-579h246zM1428 1434q32 0 50 -17.5t18 -50.5v-1298q0 -68 -68 -68h-57q-67 0 -67 68v1298q0 68 67 68h57zM240 0q-32 0 -50 17.5t-18 50.5v1298q0 68 68 68h57q68 0 68 -68v-453h253q228 0 364.5 -125.5
t136.5 -330.5t-136.5 -331t-364.5 -126h-378z" />
    <glyph glyph-name="afii10046" unicode="&#x42c;" horiz-adv-x="1195" 
d="M611 167q145 0 229.5 79.5t84.5 210.5t-84.5 210t-229.5 79h-246v-579h246zM240 0q-32 0 -50 17.5t-18 50.5v1298q0 68 68 68h57q68 0 68 -68v-453h253q228 0 364.5 -125.5t136.5 -330.5t-136.5 -331t-364.5 -126h-378z" />
    <glyph glyph-name="afii10047" unicode="&#x42d;" horiz-adv-x="1400" 
d="M564 145q212 0 367.5 138.5t184.5 349.5h-670q-67 0 -67 67v32q0 68 67 68h670q-29 211 -184.5 349.5t-367.5 138.5q-162 0 -319 -97q-56 -35 -94 19l-23 34q-38 57 17 93q188 121 419 121q157 0 297 -57.5t240 -156t158.5 -236t58.5 -291.5t-58.5 -292t-158.5 -236.5
t-240 -156t-297 -57.5q-244 0 -437 131q-55 38 -14 95l24 33q38 55 89 19q160 -108 338 -108z" />
    <glyph glyph-name="afii10048" unicode="&#x42e;" horiz-adv-x="2162" 
d="M365 68q0 -32 -17.5 -50t-50.5 -18h-57q-68 0 -68 68v1298q0 68 68 68h57q68 0 68 -68v-563h213q16 139 79.5 260.5t161.5 208t229.5 136.5t277.5 50q210 0 383 -97.5t272 -267.5t99 -376q0 -154 -58.5 -291.5t-158.5 -236.5t-240 -156.5t-297 -57.5q-147 0 -279 50.5
t-230 138t-161.5 210t-77.5 262.5h-213v-568zM1326 145q154 0 282 75.5t202 207t74 289.5q0 118 -43.5 224t-118 182t-178 120.5t-218.5 44.5t-218 -44.5t-177.5 -120.5t-118.5 -182t-44 -224q0 -158 74 -289.5t202.5 -207t281.5 -75.5z" />
    <glyph glyph-name="afii10049" unicode="&#x42f;" horiz-adv-x="1228" 
d="M672 541l-349 -498q-29 -43 -82 -43h-61q-41 0 -54 24t11 58l331 471q-169 33 -265.5 148t-96.5 286q0 204 133 325.5t360 121.5h390q32 0 50 -17.5t18 -50.5v-1298q0 -68 -68 -68h-57q-68 0 -68 68v473h-192zM302 987q0 -129 80.5 -204t223.5 -75h258v559h-258
q-143 0 -223.5 -75.5t-80.5 -204.5z" />
    <glyph glyph-name="afii10065" unicode="&#x430;" horiz-adv-x="1328" 
d="M649 142q112 0 204 57.5t139 152.5v354q-47 96 -139 154.5t-204 58.5q-162 0 -273 -113.5t-111 -275.5q0 -161 111 -274.5t273 -113.5zM618 1085q227 0 374 -161v69q0 68 68 68h51q32 0 50 -17.5t18 -50.5v-925q0 -32 -17.5 -50t-50.5 -18h-51q-32 0 -50 17.5t-18 50.5
v69q-147 -162 -374 -162q-154 0 -279 76t-194 203t-69 276t69 276t194 203t279 76z" />
    <glyph glyph-name="afii10066" unicode="&#x431;" horiz-adv-x="1245" 
d="M298 797q67 78 164.5 125t208.5 47q210 0 354 -144t144 -353q0 -214 -151.5 -355.5t-384.5 -141.5q-115 0 -213.5 40t-170.5 115.5t-112.5 189.5t-40.5 255q0 188 24.5 326.5t76.5 244t139 174.5t207.5 110.5t286.5 58.5q66 8 77 -58l5 -34q5 -33 -16 -53t-66 -26
q-150 -20 -247.5 -56.5t-158 -101.5t-88 -149.5t-38.5 -213.5zM286 589q0 -208 94 -327.5t253 -119.5q149 0 248 95t99 235q0 139 -98 234.5t-239 95.5q-110 0 -200.5 -57.5t-156.5 -155.5z" />
    <glyph glyph-name="afii10067" unicode="&#x432;" horiz-adv-x="1055" 
d="M217 0q-67 0 -67 68v925q0 68 67 68h349q146 0 244.5 -81t98.5 -200q0 -74 -44 -134.5t-114 -87.5q89 -21 148 -94.5t59 -163.5q0 -127 -104 -213.5t-256 -86.5h-381zM554 624q73 0 121 39.5t48 98.5q0 60 -48.5 99t-120.5 39h-218v-276h218zM589 161q78 0 130.5 43.5
t52.5 108.5q0 66 -52.5 111t-130.5 45h-253v-308h253z" />
    <glyph glyph-name="afii10068" unicode="&#x433;" horiz-adv-x="839" 
d="M336 894v-826q0 -68 -68 -68h-51q-67 0 -67 68v925q0 68 67 68h509q32 0 50 -17.5t18 -50.5v-31q0 -32 -17.5 -50t-50.5 -18h-390z" />
    <glyph glyph-name="afii10069" unicode="&#x434;" horiz-adv-x="1126" 
d="M1076 -150q0 -67 -67 -67h-52q-67 0 -67 67v150h-653v-150q0 -67 -68 -67h-51q-68 0 -68 67v246q0 68 68 68h43q144 301 152 829q0 33 18 50.5t50 17.5h491q68 0 68 -68v-829h69q67 0 67 -68v-246zM757 164v733h-267q0 -186 -34 -384.5t-97 -348.5h398z" />
    <glyph glyph-name="afii10070" unicode="&#x435;" horiz-adv-x="1253" 
d="M266 472q15 -144 122 -240t259 -96q160 0 288 109q49 42 95 0l30 -27q53 -49 1 -95q-168 -148 -409 -148q-127 0 -235.5 43.5t-182.5 118.5t-116 177t-42 216q0 152 72 279t201.5 201.5t287.5 74.5q116 0 217.5 -42t172 -113.5t111 -169.5t40.5 -206q0 -13 -1 -19
q-1 -31 -20 -47t-51 -16h-840zM637 925q-131 0 -233.5 -85t-130.5 -213h709q-22 130 -117.5 214t-227.5 84z" />
    <glyph glyph-name="afii10072" unicode="&#x436;" horiz-adv-x="1601" 
d="M1022 488h-128v-420q0 -32 -17.5 -50t-50.5 -18h-51q-67 0 -67 68v420h-128l-326 -446q-32 -42 -82 -42h-61q-42 0 -54.5 24t12.5 58l356 487l-301 410q-25 34 -12.5 58t54.5 24h66q53 0 82 -42l267 -370h127v344q0 68 67 68h51q32 0 50 -17.5t18 -50.5v-344h127l266 370
q29 42 82 42h67q42 0 54.5 -24t-12.5 -58l-301 -410l356 -487q25 -34 12.5 -58t-54.5 -24h-61q-50 0 -82 42z" />
    <glyph glyph-name="afii10073" unicode="&#x437;" horiz-adv-x="971" 
d="M711 314q0 75 -69.5 127.5t-171.5 52.5h-84q-68 0 -68 67v20q0 67 68 67h90q82 0 137 39.5t55 98.5t-55 99t-137 40q-108 0 -176 -68q-45 -48 -93 -18l-36 22q-63 40 -20 92q112 132 325 132q160 0 269 -82t109 -203q0 -75 -48 -137.5t-133 -89.5q93 -26 158.5 -100.5
t65.5 -170.5q0 -138 -123 -232.5t-304 -94.5q-223 0 -360 137q-46 47 9 94l25 20q46 39 96 -5q95 -85 230 -85q102 0 171.5 51.5t69.5 126.5z" />
    <glyph glyph-name="afii10074" unicode="&#x438;" horiz-adv-x="1256" 
d="M1107 68q0 -32 -17.5 -50t-50.5 -18h-45q-67 0 -67 68v731l-570 -758q-31 -41 -82 -41h-58q-67 0 -67 68v925q0 68 67 68h45q68 0 68 -68v-731l569 758q31 41 82 41h58q68 0 68 -68v-925z" />
    <glyph glyph-name="afii10075" unicode="&#x439;" horiz-adv-x="1256" 
d="M1107 68q0 -32 -17.5 -50t-50.5 -18h-45q-67 0 -67 68v731l-570 -758q-31 -41 -82 -41h-58q-67 0 -67 68v925q0 68 67 68h45q68 0 68 -68v-731l569 758q31 41 82 41h58q68 0 68 -68v-925zM628 1194q-116 0 -205 67.5t-118 176.5q-9 33 9.5 52.5t53.5 19.5h30
q30 0 46.5 -14.5t26.5 -45.5q18 -54 59 -85.5t98 -31.5t97.5 31.5t58.5 85.5q10 31 26.5 45.5t46.5 14.5h31q35 0 53 -19.5t8 -53.5q-29 -108 -117.5 -175.5t-203.5 -67.5z" />
    <glyph glyph-name="afii10076" unicode="&#x43a;" horiz-adv-x="1053" 
d="M467 504h-131v-436q0 -68 -68 -68h-51q-67 0 -67 68v925q0 68 67 68h51q32 0 50 -17.5t18 -50.5v-328h133l269 355q31 41 82 41h66q42 0 54.5 -24.5t-13.5 -58.5l-303 -393l362 -503q25 -34 12.5 -58t-54.5 -24h-62q-53 0 -82 42z" />
    <glyph glyph-name="afii10077" unicode="&#x43b;" horiz-adv-x="1257" 
d="M237 993q0 68 67 68h736q68 0 68 -68v-925q0 -32 -17.5 -50t-50.5 -18h-51q-67 0 -67 68v826h-499v-602q0 -129 -81 -214t-206 -85h-26q-64 3 -64 70v33q0 68 27 68h27q60 0 98.5 39t38.5 103v687z" />
    <glyph glyph-name="afii10078" unicode="&#x43c;" horiz-adv-x="1382" 
d="M691 502l341 515q28 44 81 44h52q68 0 68 -68v-925q0 -32 -17.5 -50t-50.5 -18h-45q-67 0 -67 68v707l-277 -411q-29 -43 -81 -43h-8q-52 0 -81 43l-276 411v-707q0 -68 -68 -68h-45q-67 0 -67 68v925q0 68 67 68h52q53 0 81 -44z" />
    <glyph glyph-name="afii10079" unicode="&#x43d;" horiz-adv-x="1256" 
d="M1107 68q0 -32 -17.5 -50t-50.5 -18h-51q-67 0 -67 68v397h-585v-397q0 -32 -17.5 -50t-50.5 -18h-51q-67 0 -67 68v925q0 68 67 68h51q32 0 50 -17.5t18 -50.5v-361h585v361q0 68 67 68h51q32 0 50 -17.5t18 -50.5v-925z" />
    <glyph glyph-name="afii10080" unicode="&#x43e;" horiz-adv-x="1298" 
d="M649 142q162 0 273 113.5t111 274.5q0 162 -111 275.5t-273 113.5t-273 -113.5t-111 -275.5q0 -161 111 -274.5t273 -113.5zM649 1085q122 0 229 -44t182.5 -118.5t119 -177t43.5 -215.5t-43.5 -215.5t-119 -177t-182.5 -118.5t-229 -44t-229 44t-182 118.5t-118.5 177
t-43.5 215.5t43.5 215.5t118.5 177t182 118.5t229 44z" />
    <glyph glyph-name="afii10081" unicode="&#x43f;" horiz-adv-x="1256" 
d="M1107 68q0 -32 -17.5 -50t-50.5 -18h-51q-67 0 -67 68v826h-585v-826q0 -68 -68 -68h-51q-67 0 -67 68v925q0 68 67 68h822q32 0 50 -17.5t18 -50.5v-925z" />
    <glyph glyph-name="afii10082" unicode="&#x440;" horiz-adv-x="1328" 
d="M679 142q162 0 273 113.5t111 274.5q0 162 -111 275.5t-273 113.5q-112 0 -204 -58.5t-139 -154.5v-354q47 -95 139 -152.5t204 -57.5zM710 1085q154 0 279 -76t194 -203t69 -276t-69 -276t-194 -203t-279 -76q-227 0 -374 162v-545q0 -67 -68 -67h-51q-67 0 -67 67v1401
q0 68 67 68h51q32 0 50 -17.5t18 -50.5v-69q147 161 374 161z" />
    <glyph glyph-name="afii10083" unicode="&#x441;" horiz-adv-x="1124" 
d="M649 -25q-122 0 -229 44t-182 118.5t-118.5 177t-43.5 215.5t43.5 215.5t118.5 177t182 118.5t229 44q185 0 335 -100q53 -38 15 -94l-22 -34q-36 -55 -94 -15q-114 77 -234 77q-162 0 -273 -113.5t-111 -275.5q0 -161 111 -274.5t273 -113.5q131 0 244 84q54 41 95 -9
l25 -32q42 -53 -3 -90q-152 -120 -361 -120z" />
    <glyph glyph-name="afii10084" unicode="&#x442;" horiz-adv-x="962" 
d="M114 894q-32 0 -50 17.5t-18 50.5v31q0 32 17.5 50t50.5 18h735q67 0 67 -68v-31q0 -68 -67 -68h-275v-826q0 -68 -67 -68h-51q-32 0 -50 17.5t-18 50.5v826h-274z" />
    <glyph glyph-name="afii10085" unicode="&#x443;" horiz-adv-x="1075" 
d="M442 4l-384 979q-13 35 1.5 56.5t52.5 21.5h53q57 0 78 -53l295 -767l295 767q21 53 77 53h54q37 0 52 -21.5t1 -56.5l-548 -1405q-20 -53 -78 -53h-53q-37 0 -52 21.5t-1 56.5z" />
    <glyph glyph-name="afii10086" unicode="&#x444;" horiz-adv-x="2170" 
d="M649 142q112 0 204 57.5t139 152.5v354q-47 96 -139 154.5t-204 58.5q-162 0 -273 -113.5t-111 -275.5q0 -161 111 -274.5t273 -113.5zM1179 -408q0 -67 -68 -67h-51q-68 0 -68 67v545q-147 -162 -374 -162q-154 0 -279 76t-194 203t-69 276t69 276t194 203t279 76
q227 0 374 -161v503q0 32 17.5 50t50.5 18h51q32 0 50 -17.5t18 -50.5v-503q147 161 373 161q115 0 217 -44.5t173 -120t112 -177.5t41 -213t-41 -213t-112 -177.5t-173 -120t-217 -44.5q-226 0 -373 162v-545zM1522 142q162 0 273 113.5t111 274.5q0 162 -111 275.5
t-273 113.5q-112 0 -204 -58.5t-139 -154.5v-354q47 -95 139 -152.5t204 -57.5z" />
    <glyph glyph-name="afii10087" unicode="&#x445;" horiz-adv-x="1071" 
d="M129 0q-42 0 -54.5 24t12.5 58l331 460l-306 437q-24 35 -11 58.5t54 23.5h55q53 0 82 -43l244 -350l243 350q29 43 82 43h55q41 0 54 -23.5t-11 -58.5l-306 -437l331 -460q25 -34 12.5 -58t-54.5 -24h-55q-53 0 -82 42l-269 374l-270 -374q-29 -42 -82 -42h-55z" />
    <glyph glyph-name="afii10088" unicode="&#x446;" horiz-adv-x="1282" 
d="M1046 0h-829q-67 0 -67 68v925q0 68 67 68h51q32 0 50 -17.5t18 -50.5v-826h585v826q0 68 67 68h51q32 0 50 -17.5t18 -50.5v-826h57q68 0 68 -68v-318q0 -32 -17.5 -50t-50.5 -18h-51q-67 0 -67 68v219z" />
    <glyph glyph-name="afii10089" unicode="&#x447;" horiz-adv-x="1124" 
d="M788 457q-53 -75 -130 -118.5t-171 -43.5q-163 0 -275.5 116t-112.5 285v297q0 68 68 68h51q32 0 50 -17.5t18 -50.5v-287q0 -104 67.5 -174t167.5 -70q175 0 267 190v341q0 32 17.5 50t50.5 18h51q32 0 50 -17.5t18 -50.5v-925q0 -32 -17.5 -50t-50.5 -18h-51
q-32 0 -50 17.5t-18 50.5v389z" />
    <glyph glyph-name="afii10090" unicode="&#x448;" horiz-adv-x="1613" 
d="M1464 68q0 -68 -67 -68h-1180q-67 0 -67 68v925q0 68 67 68h51q32 0 50 -17.5t18 -50.5v-826h378v826q0 68 67 68h52q67 0 67 -68v-826h378v826q0 68 68 68h51q67 0 67 -68v-925z" />
    <glyph glyph-name="afii10091" unicode="&#x449;" horiz-adv-x="1639" 
d="M150 993q0 68 67 68h51q32 0 50 -17.5t18 -50.5v-826h378v826q0 68 67 68h52q67 0 67 -68v-826h378v826q0 68 68 68h51q67 0 67 -68v-826h58q67 0 67 -68v-318q0 -68 -67 -68h-52q-67 0 -67 68v219h-1186q-67 0 -67 68v925z" />
    <glyph glyph-name="afii10092" unicode="&#x44a;" horiz-adv-x="1219" 
d="M415 0q-32 0 -50 17.5t-18 50.5v832h-233q-32 0 -50 17.5t-18 50.5v25q0 68 68 68h352q32 0 50 -17.5t18 -50.5v-274h239q163 0 273.5 -104.5t110.5 -255.5t-110.5 -255t-273.5 -104h-358zM971 359q0 84 -61.5 141.5t-151.5 57.5h-224v-397h224q90 0 151.5 56.5
t61.5 141.5z" />
    <glyph glyph-name="afii10093" unicode="&#x44b;" horiz-adv-x="1447" 
d="M217 0q-67 0 -67 68v925q0 68 67 68h51q32 0 50 -17.5t18 -50.5v-274h239q162 0 273 -104.5t111 -255.5t-111 -255t-273 -104h-358zM773 359q0 84 -61.5 141.5t-151.5 57.5h-224v-397h224q90 0 151.5 56.5t61.5 141.5zM1112 993q0 32 17.5 50t50.5 18h51q67 0 67 -68
v-925q0 -68 -67 -68h-51q-32 0 -50 17.5t-18 50.5v925z" />
    <glyph glyph-name="afii10094" unicode="&#x44c;" horiz-adv-x="1021" 
d="M217 0q-67 0 -67 68v925q0 68 67 68h51q32 0 50 -17.5t18 -50.5v-274h239q162 0 273 -104.5t111 -255.5t-111 -255t-273 -104h-358zM773 359q0 84 -61.5 141.5t-151.5 57.5h-224v-397h224q90 0 151.5 56.5t61.5 141.5z" />
    <glyph glyph-name="afii10095" unicode="&#x44d;" horiz-adv-x="1124" 
d="M475 -25q-205 0 -355 116q-51 40 -8 94l24 32q40 50 95 8q114 -83 244 -83q140 0 244.5 88t131.5 222h-443q-68 0 -68 67v20q0 67 68 67h444q-26 135 -131 224t-246 89q-119 0 -233 -77q-58 -41 -95 15l-22 34q-38 56 15 94q150 100 335 100q122 0 229 -44t182.5 -118.5
t119 -177t43.5 -215.5t-43.5 -215.5t-119 -177t-182.5 -118.5t-229 -44z" />
    <glyph glyph-name="afii10096" unicode="&#x44e;" horiz-adv-x="1714" 
d="M1065 1085q121 0 228 -44t182.5 -118.5t119 -177t43.5 -215.5t-43.5 -215.5t-119 -177t-182.5 -118.5t-228 -44q-222 0 -379.5 135t-187.5 339h-162v-381q0 -68 -68 -68h-51q-67 0 -67 68v925q0 68 67 68h51q32 0 50 -17.5t18 -50.5v-378h162q31 202 188.5 336t378.5 134
zM1065 142q162 0 273 113.5t111 274.5q0 162 -111 275.5t-273 113.5t-273 -113.5t-111 -275.5q0 -161 111 -274.5t273 -113.5z" />
    <glyph glyph-name="afii10097" unicode="&#x44f;" horiz-adv-x="1119" 
d="M573 375l-264 -335q-31 -40 -83 -40h-50q-43 0 -55 24.5t15 58.5l243 305q-126 31 -204 121t-78 209q0 145 114.5 244t282.5 99h408q32 0 50 -17.5t18 -50.5v-925q0 -32 -17.5 -50t-50.5 -18h-51q-32 0 -50 17.5t-18 50.5v307h-210zM783 536v364h-283q-92 0 -154 -52
t-62 -130q0 -79 61.5 -130.5t154.5 -51.5h283z" />
    <glyph glyph-name="uni0450" unicode="&#x450;" horiz-adv-x="1253" 
d="M266 472q15 -144 122 -240t259 -96q160 0 288 109q49 42 95 0l30 -27q53 -49 1 -95q-168 -148 -409 -148q-127 0 -235.5 43.5t-182.5 118.5t-116 177t-42 216q0 152 72 279t201.5 201.5t287.5 74.5q116 0 217.5 -42t172 -113.5t111 -169.5t40.5 -206q0 -13 -1 -19
q-1 -31 -20 -47t-51 -16h-840zM637 925q-131 0 -233.5 -85t-130.5 -213h709q-22 130 -117.5 214t-227.5 84zM722 1297q27 -34 15.5 -58.5t-54.5 -24.5h-28q-49 0 -82 39l-186 224q-28 34 -16 58.5t55 24.5h33q50 0 82 -39z" />
    </font>
</defs>
</svg>
