<?xml version="1.0" standalone="no"?>
<!DOCTYPE svg PUBLIC "-//W3C//DTD SVG 1.1//EN" "http://www.w3.org/Graphics/SVG/1.1/DTD/svg11.dtd" >
<svg xmlns="http://www.w3.org/2000/svg" xmlns:xlink="http://www.w3.org/1999/xlink" version="1.1">
<metadata>
Created by FontForge 20201107 at Sun Dec 28 20:57:38 2025
 By 
Copyright (c) 2016 by S-Core Co., Ltd.. All rights reserved.
</metadata>
<defs>
<font id="CoreSansCR-55Medium" horiz-adv-x="819" >
  <font-face 
    font-family="Core Sans CR 55 Medium"
    font-weight="500"
    font-stretch="normal"
    units-per-em="2048"
    panose-1="2 11 6 3 3 3 2 2 2 4"
    ascent="1638"
    descent="-410"
    x-height="1061"
    cap-height="1434"
    bbox="-768.426 -532 2568 1997"
    underline-thickness="49"
    underline-position="-423"
    unicode-range="U+0009-FB04"
  />
<missing-glyph horiz-adv-x="1024" 
d="M205 0q-82 0 -82 82v1372q0 82 82 82h614q82 0 82 -82v-1372q0 -82 -82 -82h-614zM707 186v1164h-390v-1164h390z" />
    <glyph glyph-name="ff" unicode="ff" horiz-adv-x="1468" 
d="M1423 1370q0 -40 -12 -61t-34 -20q-16 1 -46 1q-103 0 -145.5 -40.5t-42.5 -131.5v-57h198q82 0 82 -82v-41q0 -82 -82 -82h-198v-774q0 -82 -82 -82h-70q-82 0 -82 82v774h-463v-774q0 -82 -81 -82h-70q-82 0 -82 82v774h-86q-82 0 -82 82v41q0 82 82 82h86v59
q0 195 98.5 285t313.5 90q37 0 74 -3q39 -3 57 -27.5t13 -64.5l-5 -40q-5 -39 -23 -57t-47 -16q-30 3 -59 3q-103 0 -146 -40.5t-43 -131.5v-57h463v59q0 195 97 285t305 90q24 0 35 -1q38 -1 57.5 -23.5t19.5 -61.5v-39z" />
    <glyph glyph-name="fi" unicode="fi" horiz-adv-x="1296" 
d="M213 1120q0 195 97 285t304 90q24 0 35 -1q38 -1 58 -23.5t20 -61.5v-39q0 -40 -12 -61t-34 -20q-16 1 -46 1q-103 0 -146 -40.5t-43 -131.5v-57h615q82 0 82 -82v-897q0 -82 -82 -82h-70q-82 0 -82 82v774h-463v-774q0 -82 -81 -82h-70q-82 0 -82 82v774h-86
q-82 0 -82 82v41q0 82 82 82h86v59zM881 1350q0 62 41.5 103.5t103.5 41.5t103.5 -41.5t41.5 -103.5t-42 -104t-103 -42t-103 42t-42 104z" />
    <glyph glyph-name="fl" unicode="fl" horiz-adv-x="1296" 
d="M727 1370q0 -40 -12 -61t-34 -20q-16 1 -46 1q-103 0 -146 -40.5t-43 -131.5v-57h199q82 0 82 -82v-41q0 -82 -82 -82h-199v-774q0 -82 -81 -82h-70q-82 0 -82 82v774h-86q-82 0 -82 82v41q0 82 82 82h86v59q0 195 97 285t304 90q24 0 35 -1q38 -1 58 -23.5t20 -61.5v-39
zM909 1413q0 82 82 82h70q82 0 82 -82v-1331q0 -82 -82 -82h-70q-82 0 -82 82v1331z" />
    <glyph glyph-name="ffi" unicode="ffi" horiz-adv-x="1992" 
d="M1577 1350q0 62 41.5 103.5t103.5 41.5t104 -42t42 -103q0 -62 -42 -104t-104 -42q-61 0 -103 42t-42 104zM446 1061h463v59q0 195 97 285t305 90q24 0 35 -1q38 -1 57.5 -23.5t19.5 -61.5v-39q0 -40 -12 -61t-34 -20q-16 1 -46 1q-103 0 -145.5 -40.5t-42.5 -131.5v-57
h614q82 0 82 -82v-897q0 -82 -82 -82h-69q-82 0 -82 82v774h-463v-774q0 -82 -82 -82h-70q-82 0 -82 82v774h-463v-774q0 -82 -81 -82h-70q-82 0 -82 82v774h-86q-82 0 -82 82v41q0 82 82 82h86v59q0 195 98.5 285t313.5 90q37 0 74 -3q39 -3 57 -27.5t13 -64.5l-5 -40
q-5 -39 -23 -57t-47 -16q-30 3 -59 3q-103 0 -146 -40.5t-43 -131.5v-57z" />
    <glyph glyph-name="ffl" unicode="ffl" horiz-adv-x="1992" 
d="M1606 1413q0 82 82 82h69q82 0 82 -82v-1331q0 -82 -82 -82h-69q-82 0 -82 82v1331zM1423 1370q0 -40 -12 -61t-34 -20q-16 1 -46 1q-103 0 -145.5 -40.5t-42.5 -131.5v-57h198q82 0 82 -82v-41q0 -82 -82 -82h-198v-774q0 -82 -82 -82h-70q-82 0 -82 82v774h-463v-774
q0 -82 -81 -82h-70q-82 0 -82 82v774h-86q-82 0 -82 82v41q0 82 82 82h86v59q0 195 98.5 285t313.5 90q37 0 74 -3q39 -3 57 -27.5t13 -64.5l-5 -40q-5 -39 -23 -57t-47 -16q-30 3 -59 3q-103 0 -146 -40.5t-43 -131.5v-57h463v59q0 195 97 285t305 90q24 0 35 -1
q38 -1 57.5 -23.5t19.5 -61.5v-39z" />
    <glyph glyph-name=".notdef" horiz-adv-x="1024" 
d="M205 0q-82 0 -82 82v1372q0 82 82 82h614q82 0 82 -82v-1372q0 -82 -82 -82h-614zM707 186v1164h-390v-1164h390z" />
    <glyph glyph-name=".null" horiz-adv-x="0" 
 />
    <glyph glyph-name=".null" horiz-adv-x="0" 
 />
    <glyph glyph-name="nonmarkingreturn" horiz-adv-x="682" 
 />
    <glyph glyph-name="CR" unicode="&#x9;" horiz-adv-x="0" 
 />
    <glyph glyph-name="space" unicode=" " horiz-adv-x="614" 
 />
    <glyph glyph-name="exclam" unicode="!" horiz-adv-x="638" 
d="M199 1352q0 82 82 82h77q82 0 82 -82v-856q0 -82 -82 -82h-77q-82 0 -82 82v856zM168 127q0 65 43.5 108.5t107.5 43.5q65 0 108.5 -43.5t43.5 -108.5t-43.5 -108.5t-108.5 -43.5q-64 0 -107.5 43.5t-43.5 108.5z" />
    <glyph glyph-name="quotedbl" unicode="&#x22;" horiz-adv-x="1005" 
d="M563 1352q0 82 82 82h70q82 0 82 -82v-416q0 -82 -82 -82h-70q-82 0 -82 82v416zM209 1352q0 82 82 82h69q82 0 82 -82v-416q0 -82 -82 -82h-69q-82 0 -82 82v416z" />
    <glyph glyph-name="numbersign" unicode="#" horiz-adv-x="1413" 
d="M962 1359q12 75 89 75h61q42 0 62 -23.5t13 -64.5l-46 -269h119q81 0 81 -82v-30q0 -82 -81 -82h-152l-59 -340h135q82 0 82 -82v-31q0 -82 -82 -82h-168l-47 -273q-12 -75 -88 -75h-62q-42 0 -62 23t-13 65l44 260h-288l-47 -273q-12 -75 -88 -75h-62q-42 0 -62 23
t-13 65l44 260h-118q-82 0 -82 82v31q0 82 82 82h151l60 340h-136q-82 0 -82 82v30q0 82 82 82h168l48 282q12 75 90 75h61q42 0 62 -23.5t13 -64.5l-46 -269h288zM532 543h289l60 340h-289z" />
    <glyph glyph-name="dollar" unicode="$" horiz-adv-x="1216" 
d="M194 308q53 57 115 3q119 -102 242 -123v459q-211 50 -315.5 155t-104.5 259q0 166 116 274t304 121v105q0 81 82 81q74 0 74 -81v-111q167 -23 293 -121q64 -50 10 -115l-38 -46q-50 -61 -116 -10q-77 57 -149 77v-404q228 -58 328 -165.5t100 -272.5
q0 -169 -113.5 -280t-314.5 -132v-108q0 -82 -82 -82q-35 0 -54.5 21t-19.5 61v107q-112 10 -215 54t-181 116q-57 54 -1 115zM893 393q0 69 -43 122t-143 90v-410q86 21 136 72.5t50 125.5zM373 1077q0 -68 43 -117t135 -84v368q-79 -12 -128.5 -57.5t-49.5 -109.5z" />
    <glyph glyph-name="percent" unicode="%" horiz-adv-x="1873" 
d="M1155 1374q29 60 97 60h66q47 0 64 -28t-5 -70l-656 -1277q-29 -59 -97 -59h-68q-47 0 -64 27.5t5 69.5zM88 1083q0 153 110 259t275 106t275 -106t110 -259t-110 -258.5t-275 -105.5t-275 105.5t-110 258.5zM315 1083q0 -68 44.5 -118t113.5 -50t113.5 50t44.5 118
t-44.5 118t-113.5 50t-113.5 -50t-44.5 -118zM1016 350q0 153 110 259t275 106t275 -106t110 -259t-110 -258.5t-275 -105.5t-275 105.5t-110 258.5zM1243 350q0 -68 44.5 -118t113.5 -50t113.5 50t44.5 118t-44.5 118t-113.5 50t-113.5 -50t-44.5 -118z" />
    <glyph glyph-name="ampersand" unicode="&#x26;" horiz-adv-x="1515" 
d="M891 1156q-37 -12 -59 -2t-47 43q-56 69 -152 69q-73 0 -123.5 -47t-50.5 -111q0 -59 43 -125t155 -168l370 -343q41 86 58 191q14 81 93 70l63 -9q39 -5 58 -29t13 -62q-25 -174 -114 -321l228 -211q41 -37 29.5 -69t-67.5 -32h-119q-58 0 -102 40l-110 102
q-189 -167 -441 -167q-216 0 -357.5 118t-141.5 296q0 126 62 223t190 179q-79 87 -109.5 159t-30.5 156q0 151 119 251.5t285 100.5q121 0 214 -46t146 -127q21 -36 9 -63.5t-52 -42.5zM616 180q153 0 280 112l-381 355q-165 -105 -165 -241q0 -97 74 -161.5t192 -64.5z
" />
    <glyph glyph-name="quotesingle" unicode="'" horiz-adv-x="651" 
d="M209 1352q0 82 82 82h69q82 0 82 -82v-416q0 -82 -82 -82h-69q-82 0 -82 82v416z" />
    <glyph glyph-name="parenleft" unicode="(" horiz-adv-x="860" 
d="M236 625q0 251 84 482.5t240 412.5q50 59 115 10l37 -28q65 -48 14 -114q-121 -162 -185 -359.5t-64 -403.5t64 -403.5t185 -359.5q51 -67 -14 -115l-37 -28q-64 -48 -113 8q-157 182 -241.5 414t-84.5 484z" />
    <glyph glyph-name="parenright" unicode=")" horiz-adv-x="860" 
d="M625 625q0 -251 -84.5 -482.5t-240.5 -412.5q-51 -60 -115 -11l-37 28q-65 48 -14 115q121 162 185 359.5t64 403.5t-64 403.5t-185 359.5q-51 66 14 114l37 28q65 49 113 -7q157 -182 242 -414.5t85 -483.5z" />
    <glyph glyph-name="asterisk" unicode="*" horiz-adv-x="1146" 
d="M479 844l-3 206q-1 40 20.5 61.5t61.5 21.5h31q40 0 61.5 -21.5t20.5 -61.5l-3 -206l177 106q70 44 111 -28l16 -27q42 -72 -30 -113l-182 -102l182 -102q72 -42 31 -113l-17 -28q-41 -70 -111 -28l-177 105l3 -204q1 -40 -20.5 -61.5t-61.5 -21.5h-31q-40 0 -61.5 21.5
t-20.5 61.5l3 204l-177 -105q-71 -43 -112 29l-15 27q-42 72 30 113l182 102l-182 102q-72 42 -31 113l15 27q42 72 113 28z" />
    <glyph glyph-name="plus" unicode="+" horiz-adv-x="1187" 
d="M477 580h-272q-82 0 -82 82v36q0 82 82 82h272v283q0 82 82 82h70q82 0 82 -82v-283h272q82 0 82 -82v-36q0 -82 -82 -82h-272v-283q0 -82 -82 -82h-70q-82 0 -82 82v283z" />
    <glyph glyph-name="comma" unicode="," horiz-adv-x="614" 
d="M156 127q0 65 43.5 108.5t107.5 43.5q65 0 108.5 -43.5t43.5 -108.5q0 -36 -17 -70l-116 -252q-28 -61 -97 -61q-36 0 -47 27t8 69l66 144q-45 15 -72.5 54t-27.5 89z" />
    <glyph glyph-name="hyphen" unicode="-" horiz-adv-x="831" 
d="M205 569q-82 0 -82 82v58q0 82 82 82h422q82 0 82 -82v-58q0 -82 -82 -82h-422z" />
    <glyph glyph-name="period" unicode="." horiz-adv-x="614" 
d="M156 127q0 65 43.5 108.5t107.5 43.5q65 0 108.5 -43.5t43.5 -108.5t-43.5 -108.5t-108.5 -43.5q-64 0 -107.5 43.5t-43.5 108.5z" />
    <glyph glyph-name="slash" unicode="/" horiz-adv-x="946" 
d="M272 -222q-24 -65 -94 -65h-77q-45 0 -62.5 25.5t-1.5 68.5l641 1664q24 65 94 65h73q45 0 63 -25.5t2 -68.5z" />
    <glyph glyph-name="zero" unicode="0" horiz-adv-x="1228" 
d="M123 717q0 159 30.5 292t89.5 234t154 158t217 57q121 0 216 -57t155 -158t90.5 -234.5t30.5 -291.5t-30.5 -291.5t-90.5 -235t-155 -158.5t-216 -57q-122 0 -217 57t-154 158.5t-89.5 234.5t-30.5 292zM360 717q0 -246 62 -385t192 -139t192 139t62 385t-62 385
t-192 139t-192 -139t-62 -385z" />
    <glyph glyph-name="one" unicode="1" horiz-adv-x="1228" 
d="M719 1434q82 0 82 -82v-1270q0 -82 -82 -82h-74q-82 0 -82 82v1114l-169 -89q-70 -38 -110 32l-19 31q-42 73 32 112l240 126q49 26 101 26h81z" />
    <glyph glyph-name="two" unicode="2" horiz-adv-x="1228" 
d="M504 205h473q82 0 82 -82v-41q0 -82 -82 -82h-703q-81 0 -81 82v54q0 59 39 102l442 479q88 96 125 167.5t37 147.5q0 100 -62.5 160.5t-161.5 60.5q-137 0 -213 -121q-42 -68 -108 -40l-50 21q-37 15 -49 43t6 64q59 113 164 175.5t250 62.5q202 0 331.5 -115.5
t129.5 -308.5q0 -121 -49.5 -218.5t-165.5 -225.5z" />
    <glyph glyph-name="three" unicode="3" horiz-adv-x="1228" 
d="M829 455q0 114 -80 194t-200 80h-3q-72 -2 -106 42l-5 6q-46 58 1 116l273 332h-445q-82 0 -82 82v45q0 82 82 82h651q82 0 82 -82v-70q0 -60 -36 -101l-254 -300q167 -26 263.5 -151t96.5 -298q0 -84 -36 -165.5t-99.5 -146.5t-161.5 -105t-213 -40q-251 0 -409 180
q-52 59 14 114l38 32q57 49 114 -12q104 -109 235 -109q120 0 200 80.5t80 194.5z" />
    <glyph glyph-name="four" unicode="4" horiz-adv-x="1228" 
d="M80 430q0 57 31 101l570 850q36 53 99 53h92q82 0 82 -82v-865h72q82 0 82 -81v-54q0 -82 -82 -82h-72v-188q0 -82 -82 -82h-73q-82 0 -82 82v188h-555q-82 0 -82 82v78zM717 485v559l-377 -559h377z" />
    <glyph glyph-name="five" unicode="5" horiz-adv-x="1228" 
d="M575 -25q-255 0 -408 176q-52 61 14 114l44 36q60 48 115 -14q96 -107 227 -107q121 0 201 78.5t80 194.5t-80 194t-201 78q-92 0 -160 -50q-57 -43 -107 -37l-25 3q-80 11 -71 91l68 625q8 77 86 77h592q82 0 82 -82v-45q0 -82 -82 -82h-458l-41 -346q66 47 176 47
q92 0 174.5 -32.5t146 -91t100.5 -147.5t37 -196q0 -215 -138 -349.5t-372 -134.5z" />
    <glyph glyph-name="six" unicode="6" horiz-adv-x="1228" 
d="M561 918q36 12 84 12q125 0 233.5 -58.5t176 -169t67.5 -247.5t-72.5 -248.5t-188 -171.5t-245.5 -60q-134 0 -251.5 60t-190 171.5t-72.5 248.5q0 141 72 252l436 673q35 54 99 54h70q50 0 65.5 -29.5t-11.5 -70.5zM885 455q0 116 -80 195t-193 79t-192.5 -79
t-79.5 -195t79.5 -195.5t192.5 -79.5t193 79.5t80 195.5z" />
    <glyph glyph-name="seven" unicode="7" horiz-adv-x="1228" 
d="M983 1434q82 0 82 -82v-65q0 -47 -21 -100l-464 -1124q-25 -63 -96 -63h-94q-46 0 -63.5 26.5t0.5 68.5l472 1130h-545q-82 0 -82 82v45q0 82 82 82h729z" />
    <glyph glyph-name="eight" unicode="8" horiz-adv-x="1228" 
d="M614 -25q-211 0 -355 130t-144 323q0 125 67 222.5t183 140.5q-76 38 -126.5 116t-50.5 168q0 161 120.5 272t305.5 111t305.5 -111t120.5 -272q0 -90 -50 -168t-126 -116q116 -43 183 -140.5t67 -222.5q0 -193 -144.5 -323t-355.5 -130zM614 684q-111 0 -186.5 -74
t-75.5 -178t75.5 -178t186.5 -74t187 74t76 178t-76 178t-187 74zM614 881q82 0 139.5 56.5t57.5 131.5q0 76 -57 130t-140 54q-82 0 -139 -54t-57 -130q0 -75 57 -131.5t139 -56.5z" />
    <glyph glyph-name="nine" unicode="9" horiz-adv-x="1228" 
d="M668 516q-36 -12 -84 -12q-93 0 -180 35t-153 96t-105.5 151t-39.5 193q0 137 72.5 248.5t188 171t245.5 59.5q100 0 193.5 -35.5t164.5 -97.5t113.5 -152.5t42.5 -193.5q0 -142 -71 -252l-437 -674q-34 -53 -98 -53h-70q-50 0 -65.5 29t11.5 70zM344 979
q0 -116 79.5 -195t192.5 -79t193 79t80 195t-80 195t-193 79t-192.5 -79t-79.5 -195z" />
    <glyph glyph-name="colon" unicode=":" horiz-adv-x="614" 
d="M156 127q0 65 43.5 108.5t107.5 43.5q65 0 108.5 -43.5t43.5 -108.5t-43.5 -108.5t-108.5 -43.5q-64 0 -107.5 43.5t-43.5 108.5zM156 934q0 64 43 107.5t108 43.5t108.5 -43.5t43.5 -107.5t-43.5 -108t-108.5 -44q-64 0 -107.5 43.5t-43.5 108.5z" />
    <glyph glyph-name="semicolon" unicode=";" horiz-adv-x="614" 
d="M156 934q0 64 43 107.5t108 43.5t108.5 -43.5t43.5 -107.5t-43.5 -108t-108.5 -44q-64 0 -107.5 43.5t-43.5 108.5zM156 127q0 65 43.5 108.5t107.5 43.5q65 0 108.5 -43.5t43.5 -108.5q0 -36 -17 -70l-116 -252q-28 -61 -97 -61q-36 0 -47 27t8 69l66 144
q-45 15 -72.5 54t-27.5 89z" />
    <glyph glyph-name="less" unicode="&#x3c;" horiz-adv-x="1187" 
d="M127 698q0 65 57 98l747 408q43 24 70 7.5t27 -65.5v-85q0 -68 -58 -97l-546 -284l546 -284q58 -29 58 -97v-85q0 -49 -27 -65.5t-70 7.5l-747 408q-57 33 -57 98v36z" />
    <glyph glyph-name="equal" unicode="=" horiz-adv-x="1187" 
d="M205 807q-82 0 -82 82v37q0 82 82 82h778q82 0 82 -82v-37q0 -82 -82 -82h-778zM205 352q-82 0 -82 82v37q0 82 82 82h778q82 0 82 -82v-37q0 -82 -82 -82h-778z" />
    <glyph glyph-name="greater" unicode="&#x3e;" horiz-adv-x="1187" 
d="M1061 662q0 -65 -57 -98l-747 -408q-43 -24 -70 -7.5t-27 65.5v85q0 68 58 97l546 284l-546 284q-58 29 -58 97v85q0 49 27 65.5t70 -7.5l747 -408q57 -33 57 -98v-36z" />
    <glyph glyph-name="question" unicode="?" horiz-adv-x="1130" 
d="M373 705q0 74 82 83q145 17 226 86.5t81 169.5q0 87 -77 144t-202 57q-101 0 -213 -70q-69 -44 -113 17l-31 42q-51 69 17 115q163 109 369 109q110 0 204.5 -35t157.5 -92.5t98.5 -132.5t35.5 -156q0 -147 -106 -259.5t-288 -147.5v-139q0 -82 -82 -82h-77q-82 0 -82 82
v209zM342 127q0 65 44 108.5t108 43.5t107.5 -43.5t43.5 -108.5t-43.5 -108.5t-107.5 -43.5t-108 43.5t-44 108.5z" />
    <glyph glyph-name="at" unicode="@" horiz-adv-x="1986" 
d="M987 291q73 0 132 39t91 104v234q-32 65 -91 104t-132 39q-105 0 -177.5 -75.5t-72.5 -184.5t72.5 -184.5t177.5 -75.5zM1475 115q-71 0 -141.5 35t-110.5 90q-113 -125 -269 -125q-177 0 -296 128t-119 308t119 308t296 128q146 0 256 -113v11q0 82 82 82h31
q82 0 82 -82v-547q13 -20 40.5 -33.5t55.5 -13.5q90 0 151.5 80t61.5 231q0 141 -59 268t-157.5 217t-231.5 142.5t-277 52.5q-116 0 -225 -35.5t-197.5 -101.5t-155 -154t-103 -198.5t-36.5 -229.5q0 -199 97 -364t268 -260t379 -95q228 0 414 107q75 44 111 -32l6 -13
q35 -73 -35 -111q-237 -127 -496 -127q-198 0 -372 68t-299 186t-197 284.5t-72 356.5q0 189 72.5 356t195.5 285t291 186t354 68q195 0 365.5 -65t293 -177.5t193 -272t70.5 -341.5q0 -224 -120.5 -355.5t-315.5 -131.5z" />
    <glyph glyph-name="A" unicode="A" horiz-adv-x="1409" 
d="M1333 94q15 -42 -2.5 -68t-62.5 -26h-91q-72 0 -94 67l-96 279h-565l-96 -279q-22 -67 -94 -67h-91q-45 0 -62.5 26t-2.5 68l469 1274q24 66 94 66h131q70 0 94 -66zM494 555h421l-210 614z" />
    <glyph glyph-name="B" unicode="B" horiz-adv-x="1275" 
d="M246 0q-82 0 -82 82v1270q0 82 82 82h442q197 0 305.5 -103t108.5 -284q0 -104 -45 -174.5t-123 -106.5q107 -29 178.5 -122.5t71.5 -225.5q0 -188 -113.5 -303t-306.5 -115h-518zM856 1034q0 93 -50 142t-134 49h-266v-381h266q84 0 134 48.5t50 141.5zM938 426
q0 100 -54 158.5t-141 58.5h-337v-434h337q87 0 141 59t54 158z" />
    <glyph glyph-name="C" unicode="C" horiz-adv-x="1415" 
d="M1296 214q49 -69 -18 -115q-191 -124 -432 -124q-159 0 -301 57.5t-243.5 156.5t-160.5 236.5t-59 291.5t59 291.5t160.5 236t243.5 156t301 57.5q230 0 415 -113q67 -43 21 -114l-31 -47q-43 -66 -113 -25q-147 86 -292 86q-143 0 -261.5 -69t-187.5 -190.5t-69 -268.5
t69 -268.5t187.5 -191t261.5 -69.5q154 0 304 93q68 44 114 -20z" />
    <glyph glyph-name="D" unicode="D" horiz-adv-x="1468" 
d="M668 1434q331 0 524.5 -192.5t193.5 -524.5t-193.5 -524.5t-524.5 -192.5h-422q-82 0 -82 82v1270q0 82 82 82h422zM406 1221v-1008h262q217 0 345 126.5t128 377.5t-128 377.5t-345 126.5h-262z" />
    <glyph glyph-name="E" unicode="E" horiz-adv-x="1167" 
d="M164 1352q0 82 82 82h708q82 0 82 -82v-45q0 -82 -82 -82h-548v-400h499q82 0 82 -82v-45q0 -82 -82 -82h-499v-407h567q82 0 82 -82v-45q0 -82 -82 -82h-727q-82 0 -82 82v1270z" />
    <glyph glyph-name="F" unicode="F" horiz-adv-x="1097" 
d="M164 1352q0 82 82 82h688q82 0 82 -82v-45q0 -82 -82 -82h-528v-400h479q82 0 82 -82v-45q0 -82 -82 -82h-479v-534q0 -82 -82 -82h-78q-82 0 -82 82v1270z" />
    <glyph glyph-name="G" unicode="G" horiz-adv-x="1484" 
d="M846 1245q-143 0 -261.5 -69t-187.5 -190.5t-69 -268.5t69 -268.5t187.5 -191t261.5 -69.5q68 0 139 19.5t125 52.5v309h-266q-82 0 -82 82v45q0 82 82 82h426q82 0 82 -82v-479q0 -63 -48 -99q-202 -143 -458 -143q-159 0 -301 57.5t-243.5 156.5t-160.5 236.5
t-59 291.5t59 291.5t160.5 236t243.5 156t301 57.5q230 0 415 -113q67 -43 21 -114l-31 -47q-44 -66 -109 -27q-151 88 -296 88z" />
    <glyph glyph-name="H" unicode="H" horiz-adv-x="1441" 
d="M164 1352q0 82 82 82h78q82 0 82 -82v-527h630v527q0 82 82 82h78q82 0 82 -82v-1270q0 -82 -82 -82h-78q-82 0 -82 82v534h-630v-534q0 -82 -82 -82h-78q-82 0 -82 82v1270z" />
    <glyph glyph-name="I" unicode="I" horiz-adv-x="589" 
d="M334 1434q82 0 82 -82v-1270q0 -82 -82 -82h-78q-82 0 -82 82v1270q0 82 82 82h78z" />
    <glyph glyph-name="J" unicode="J" horiz-adv-x="946" 
d="M551 1352q0 82 82 82h78q82 0 82 -82v-895q0 -249 -116.5 -365.5t-348.5 -116.5q-112 0 -215 37q-36 12 -46.5 41.5t3.5 65.5l19 50q27 72 106 44q72 -25 129 -25q113 0 170 63.5t57 205.5v895z" />
    <glyph glyph-name="K" unicode="K" horiz-adv-x="1245" 
d="M406 825h87l371 555q36 54 99 54h91q50 0 65.5 -29.5t-12.5 -70.5l-411 -609l483 -625q31 -41 16.5 -70.5t-66.5 -29.5h-94q-61 0 -100 49l-435 567h-94v-534q0 -82 -82 -82h-78q-82 0 -82 82v1270q0 82 82 82h78q82 0 82 -82v-527z" />
    <glyph glyph-name="L" unicode="L" horiz-adv-x="1054" 
d="M164 1352q0 82 82 82h78q82 0 82 -82v-1143h526q82 0 82 -82v-45q0 -82 -82 -82h-686q-82 0 -82 82v1270z" />
    <glyph glyph-name="M" unicode="M" horiz-adv-x="1753" 
d="M864 438q-64 0 -99 52l-368 548v-956q0 -82 -82 -82h-69q-82 0 -82 82v1270q0 82 82 82h80q62 0 98 -54l453 -675l452 675q36 54 98 54h80q82 0 82 -82v-1270q0 -82 -82 -82h-69q-82 0 -82 82v956l-368 -548q-35 -52 -99 -52h-25z" />
    <glyph glyph-name="N" unicode="N" horiz-adv-x="1441" 
d="M164 1352q0 82 82 82h87q64 0 99 -55l612 -961v934q0 82 82 82h70q82 0 82 -82v-1270q0 -82 -82 -82h-87q-65 0 -99 54l-613 962v-934q0 -82 -82 -82h-69q-82 0 -82 82v1270z" />
    <glyph glyph-name="O" unicode="O" horiz-adv-x="1691" 
d="M846 188q143 0 261.5 69.5t187.5 191t69 268.5t-69 268.5t-187.5 190.5t-261.5 69t-261.5 -69t-187.5 -190.5t-69 -268.5t69 -268.5t187.5 -191t261.5 -69.5zM846 1458q159 0 301 -57.5t243.5 -156t160.5 -236t59 -291.5t-59 -291.5t-160.5 -236.5t-243.5 -156.5
t-301 -57.5t-301 57.5t-243.5 156.5t-160.5 236.5t-59 291.5t59 291.5t160.5 236t243.5 156t301 57.5z" />
    <glyph glyph-name="P" unicode="P" horiz-adv-x="1214" 
d="M406 520v-438q0 -82 -82 -82h-78q-82 0 -82 82v1270q0 82 82 82h401q230 0 363 -124t133 -333t-133 -333t-363 -124h-241zM897 977q0 116 -67 182t-193 66h-231v-496h231q126 0 193 66t67 182z" />
    <glyph glyph-name="Q" unicode="Q" horiz-adv-x="1691" 
d="M1249 82q-184 -107 -403 -107q-159 0 -301 57.5t-243.5 156.5t-160.5 236.5t-59 291.5t59 291.5t160.5 236t243.5 156t301 57.5t301 -57.5t243.5 -156t160.5 -236t59 -291.5q0 -146 -51.5 -275t-146.5 -229l146 -157q55 -60 -5 -115l-32 -31q-59 -56 -116 5zM846 188
q131 0 248 63l-166 178q-55 60 5 116l33 30q60 55 115 -5l171 -185q112 144 112 332q0 147 -69 268.5t-187.5 190.5t-261.5 69t-261.5 -69t-187.5 -190.5t-69 -268.5t69 -268.5t187.5 -191t261.5 -69.5z" />
    <glyph glyph-name="R" unicode="R" horiz-adv-x="1243" 
d="M647 1434q230 0 363 -124t133 -333q0 -170 -90 -286t-252 -154l302 -438q29 -41 14 -70t-66 -29h-82q-65 0 -100 52l-321 468h-142v-438q0 -82 -82 -82h-78q-82 0 -82 82v1270q0 82 82 82h401zM406 1225v-496h231q126 0 193 66t67 182t-67 182t-193 66h-231z" />
    <glyph glyph-name="S" unicode="S" horiz-adv-x="1216" 
d="M196 310q53 57 115 3q144 -125 297 -125q126 0 203.5 55.5t77.5 149.5q0 89 -70 150.5t-244 97.5q-223 47 -333.5 154t-110.5 266q0 178 130 287.5t337 109.5q237 0 403 -129q63 -50 9 -115l-40 -48q-50 -61 -115 -10q-123 89 -247 89q-101 0 -166 -46t-65 -122
q0 -87 71 -144t230 -93q245 -57 351 -166t106 -281q0 -187 -138.5 -302.5t-378.5 -115.5q-130 0 -251 46t-212 129q-57 54 -1 115z" />
    <glyph glyph-name="T" unicode="T" horiz-adv-x="1134" 
d="M446 1225h-303q-82 0 -82 82v45q0 82 82 82h848q82 0 82 -82v-45q0 -82 -82 -82h-303v-1143q0 -82 -82 -82h-78q-82 0 -82 82v1143z" />
    <glyph glyph-name="U" unicode="U" horiz-adv-x="1368" 
d="M1214 508q0 -119 -41.5 -219.5t-113.5 -168t-169 -105.5t-206 -38t-206 38t-169 105.5t-113.5 168t-41.5 219.5v844q0 82 82 82h77q82 0 82 -82v-873q0 -129 83 -209t206 -80t206 80t83 209v873q0 82 82 82h78q81 0 81 -82v-844z" />
    <glyph glyph-name="V" unicode="V" horiz-adv-x="1409" 
d="M705 305l381 1063q24 66 94 66h88q45 0 62.5 -26.5t2.5 -68.5l-469 -1273q-24 -66 -94 -66h-131q-70 0 -94 66l-469 1273q-15 42 2.5 68.5t62.5 26.5h88q70 0 94 -66z" />
    <glyph glyph-name="W" unicode="W" horiz-adv-x="2007" 
d="M1051 1434q71 0 91 -69l290 -1011l262 1009q18 71 91 71h86q43 0 61.5 -25t6.5 -68l-361 -1271q-20 -70 -91 -70h-94q-71 0 -91 69l-298 1033l-298 -1033q-20 -69 -92 -69h-94q-71 0 -91 70l-361 1271q-12 43 6.5 68t61.5 25h86q73 0 91 -71l262 -1009l290 1011
q19 69 91 69h95z" />
    <glyph glyph-name="X" unicode="X" horiz-adv-x="1302" 
d="M651 555l-323 -502q-34 -53 -99 -53h-79q-50 0 -66.5 29t11.5 70l413 630l-394 605q-27 41 -12 70.5t65 29.5h81q62 0 98 -55l305 -476l305 476q36 55 99 55h81q50 0 65 -29.5t-12 -70.5l-394 -605l412 -630q28 -41 12 -70t-66 -29h-80q-64 0 -98 53z" />
    <glyph glyph-name="Y" unicode="Y" horiz-adv-x="1323" 
d="M662 823l329 555q33 56 98 56h78q49 0 65.5 -28.5t-8.5 -70.5l-442 -747v-506q0 -82 -82 -82h-77q-82 0 -82 82v506l-442 747q-25 42 -8.5 70.5t65.5 28.5h78q65 0 98 -56z" />
    <glyph glyph-name="Z" unicode="Z" horiz-adv-x="1243" 
d="M819 1225h-583q-82 0 -82 82v45q0 82 82 82h792q82 0 82 -82v-72q0 -54 -32 -101l-664 -970h635q81 0 81 -82v-45q0 -82 -81 -82h-844q-82 0 -82 82v72q0 54 32 101z" />
    <glyph glyph-name="bracketleft" unicode="[" horiz-adv-x="860" 
d="M233 1454q0 82 82 82h422q82 0 82 -82v-45q0 -82 -82 -82h-262v-1405h262q82 0 82 -82v-45q0 -82 -82 -82h-422q-82 0 -82 82v1659z" />
    <glyph glyph-name="backslash" unicode="\" horiz-adv-x="946" 
d="M36 1442q-16 43 2 68.5t63 25.5h73q70 0 94 -65l641 -1664q16 -43 -1.5 -68.5t-62.5 -25.5h-77q-70 0 -94 65z" />
    <glyph glyph-name="bracketright" unicode="]" horiz-adv-x="860" 
d="M627 -205q0 -82 -82 -82h-422q-82 0 -82 82v45q0 82 82 82h262v1405h-262q-82 0 -82 82v45q0 82 82 82h422q82 0 82 -82v-1659z" />
    <glyph glyph-name="asciicircum" unicode="^" horiz-adv-x="1269" 
d="M694 1434q64 0 99 -54l311 -484q27 -41 11.5 -70t-65.5 -29h-76q-66 0 -100 54l-239 378l-240 -378q-34 -54 -99 -54h-76q-50 0 -65.5 29t11.5 70l311 484q35 54 98 54h119z" />
    <glyph glyph-name="underscore" unicode="_" horiz-adv-x="1024" 
d="M0 -270q0 82 82 82h860q82 0 82 -82v-17q0 -82 -82 -82h-860q-82 0 -82 82v17z" />
    <glyph glyph-name="grave" unicode="`" horiz-adv-x="860" 
d="M546 1245q32 -41 18 -70.5t-66 -29.5h-38q-63 0 -101 47l-164 203q-33 41 -19 70.5t66 29.5h44q61 0 99 -48z" />
    <glyph glyph-name="a" unicode="a" horiz-adv-x="1343" 
d="M655 184q102 0 186 52t126 139v309q-42 87 -126 140t-186 53q-146 0 -246 -100.5t-100 -246.5t100 -246t246 -100zM614 1085q214 0 353 -139v33q0 82 82 82h69q82 0 82 -82v-897q0 -82 -82 -82h-69q-82 0 -82 82v33q-140 -140 -353 -140q-154 0 -279 76t-194 202.5
t-69 276.5t69 276.5t194 202.5t279 76z" />
    <glyph glyph-name="b" unicode="b" horiz-adv-x="1343" 
d="M688 184q146 0 246 100t100 246t-100 246.5t-246 100.5q-102 0 -185.5 -53t-125.5 -140v-309q42 -87 125.5 -139t185.5 -52zM729 1085q154 0 279.5 -76t194.5 -202.5t69 -276.5t-69 -276.5t-194.5 -202.5t-279.5 -76q-212 0 -352 140v-33q0 -82 -82 -82h-70q-82 0 -82 82
v1331q0 82 82 82h70q82 0 82 -82v-467q139 139 352 139z" />
    <glyph glyph-name="c" unicode="c" horiz-adv-x="1130" 
d="M655 -25q-165 0 -299 74t-209 201t-75 280t75 280t209 201t299 74q181 0 324 -89q67 -42 21 -112l-30 -46q-45 -66 -114 -22q-100 61 -201 61q-146 0 -246 -100.5t-100 -246.5t100 -246t246 -100q108 0 209 66q68 45 115 -13l35 -44q53 -67 -5 -110q-152 -108 -354 -108z
" />
    <glyph glyph-name="d" unicode="d" horiz-adv-x="1343" 
d="M655 184q102 0 186 52t126 139v309q-42 87 -126 140t-186 53q-146 0 -246 -100.5t-100 -246.5t100 -246t246 -100zM614 1085q214 0 353 -139v467q0 82 82 82h69q82 0 82 -82v-1331q0 -82 -82 -82h-69q-82 0 -82 82v33q-140 -140 -353 -140q-154 0 -279 76t-194 202.5
t-69 276.5t69 276.5t194 202.5t279 76z" />
    <glyph glyph-name="e" unicode="e" horiz-adv-x="1265" 
d="M310 455q20 -122 116 -200.5t227 -78.5q139 0 257 88q62 49 116 -1l40 -38q64 -61 1 -115q-170 -135 -408 -135q-172 0 -307 74.5t-207.5 200.5t-72.5 280q0 114 43.5 216.5t118.5 177t181.5 118t227.5 43.5q158 0 285 -72.5t196.5 -194t69.5 -267.5q0 -14 -1 -21
q-1 -37 -24 -56t-62 -19h-797zM643 885q-110 0 -200.5 -66.5t-123.5 -171.5h630q-28 105 -111 171.5t-195 66.5z" />
    <glyph glyph-name="f" unicode="f" horiz-adv-x="772" 
d="M727 1370q0 -40 -12 -61t-34 -20q-16 1 -46 1q-103 0 -146 -40.5t-43 -131.5v-57h199q82 0 82 -82v-41q0 -82 -82 -82h-199v-774q0 -82 -81 -82h-70q-82 0 -82 82v774h-86q-82 0 -82 82v41q0 82 82 82h86v59q0 195 97 285t304 90q24 0 35 -1q38 -1 58 -23.5t20 -61.5v-39
z" />
    <glyph glyph-name="g" unicode="g" horiz-adv-x="1343" 
d="M655 184q102 0 186 52t126 139v309q-42 87 -126 140t-186 53q-146 0 -246 -100.5t-100 -246.5t100 -246t246 -100zM1200 57q0 -246 -143 -389t-416 -143q-254 0 -435 157q-61 55 1 115l37 36q53 53 115 1q128 -108 280 -108q151 0 239.5 83t88.5 232v74
q-140 -140 -353 -140q-154 0 -279 76t-194 202.5t-69 276.5t69 276.5t194 202.5t279 76q214 0 353 -139v33q0 82 82 82h69q82 0 82 -82v-922z" />
    <glyph glyph-name="h" unicode="h" horiz-adv-x="1249" 
d="M377 82q0 -82 -82 -82h-70q-82 0 -82 82v1331q0 82 82 82h70q82 0 82 -82v-475q60 67 144.5 107t172.5 40q193 0 312.5 -121.5t119.5 -320.5v-561q0 -82 -82 -82h-69q-82 0 -82 82v549q0 108 -68 177t-176 69q-75 0 -150.5 -51t-121.5 -121v-623z" />
    <glyph glyph-name="i" unicode="i" horiz-adv-x="540" 
d="M154 979q0 82 82 82h69q82 0 82 -82v-897q0 -82 -82 -82h-69q-82 0 -82 82v897zM125 1350q0 62 41.5 103.5t103.5 41.5t104 -42t42 -103q0 -62 -42 -104t-104 -42q-61 0 -103 42t-42 104z" />
    <glyph glyph-name="j" unicode="j" horiz-adv-x="540" 
d="M154 979q0 82 82 82h69q82 0 82 -82v-1085q0 -198 -81 -283.5t-265 -85.5h-2q-32 0 -56 23.5t-24 60.5v39q0 82 53 82q74 0 108 35.5t34 123.5v1090zM125 1350q0 62 41.5 103.5t103.5 41.5t104 -42t42 -103q0 -62 -42 -104t-104 -42q-61 0 -103 42t-42 104z" />
    <glyph glyph-name="k" unicode="k" horiz-adv-x="1064" 
d="M477 489h-100v-407q0 -82 -82 -82h-70q-82 0 -82 82v1331q0 82 82 82h70q82 0 82 -82v-723h103l219 319q35 52 100 52h88q51 0 66 -29t-15 -70l-266 -372l326 -491q28 -42 13 -70.5t-65 -28.5h-84q-63 0 -98 53z" />
    <glyph glyph-name="l" unicode="l" horiz-adv-x="540" 
d="M154 1413q0 82 82 82h69q82 0 82 -82v-1331q0 -82 -82 -82h-69q-82 0 -82 82v1331z" />
    <glyph glyph-name="m" unicode="m" horiz-adv-x="1933" 
d="M295 1061q82 0 82 -82v-41q56 65 135 106t164 41q117 0 208 -50t145 -140q60 87 158.5 138.5t205.5 51.5q187 0 302 -122t115 -316v-565q0 -82 -81 -82h-70q-82 0 -82 82v553q0 106 -60.5 174t-158.5 68q-74 0 -144.5 -51t-121.5 -130q2 -32 2 -49v-565q0 -82 -82 -82
h-70q-82 0 -82 82v553q0 106 -60.5 174t-158.5 68q-73 0 -142.5 -50t-121.5 -127v-618q0 -82 -82 -82h-70q-82 0 -82 82v897q0 82 82 82h70z" />
    <glyph glyph-name="n" unicode="n" horiz-adv-x="1249" 
d="M377 82q0 -82 -82 -82h-70q-82 0 -82 82v897q0 82 82 82h70q82 0 82 -82v-41q60 67 144.5 107t172.5 40q193 0 312.5 -121.5t119.5 -320.5v-561q0 -82 -82 -82h-69q-82 0 -82 82v549q0 108 -68 177t-176 69q-75 0 -150.5 -51t-121.5 -121v-623z" />
    <glyph glyph-name="o" unicode="o" horiz-adv-x="1310" 
d="M655 184q146 0 246 100t100 246t-100 246.5t-246 100.5t-246 -100.5t-100 -246.5t100 -246t246 -100zM655 1085q124 0 233 -43.5t185.5 -118t121 -177t44.5 -216.5t-44.5 -216.5t-121 -177t-185.5 -118t-233 -43.5q-165 0 -299 74t-209 201t-75 280t75 280t209 201
t299 74z" />
    <glyph glyph-name="p" unicode="p" horiz-adv-x="1343" 
d="M688 184q146 0 246 100t100 246t-100 246.5t-246 100.5q-102 0 -185.5 -53t-125.5 -140v-309q42 -87 125.5 -139t185.5 -52zM729 1085q154 0 279.5 -76t194.5 -202.5t69 -276.5t-69 -276.5t-194.5 -202.5t-279.5 -76q-212 0 -352 140v-508q0 -82 -82 -82h-70
q-82 0 -82 82v1372q0 82 82 82h70q82 0 82 -82v-33q139 139 352 139z" />
    <glyph glyph-name="q" unicode="q" horiz-adv-x="1343" 
d="M655 184q102 0 186 52t126 139v309q-42 87 -126 140t-186 53q-146 0 -246 -100.5t-100 -246.5t100 -246t246 -100zM614 1085q214 0 353 -139v33q0 82 82 82h69q82 0 82 -82v-1372q0 -82 -82 -82h-69q-82 0 -82 82v508q-140 -140 -353 -140q-154 0 -279 76t-194 202.5
t-69 276.5t69 276.5t194 202.5t279 76z" />
    <glyph glyph-name="r" unicode="r" horiz-adv-x="829" 
d="M657 877q-84 0 -156.5 -52.5t-123.5 -144.5v-598q0 -82 -82 -82h-70q-82 0 -82 82v897q0 82 82 82h70q82 0 82 -82v-53q135 159 311 159q17 0 26 -1q35 -4 51 -29t13 -64l-4 -48q-4 -40 -27 -55t-66 -12q-8 1 -24 1z" />
    <glyph glyph-name="s" unicode="s" horiz-adv-x="964" 
d="M148 244q49 58 115 6q97 -74 214 -74q85 0 133.5 34t48.5 93q0 57 -45 92t-157 58q-177 35 -261.5 117.5t-84.5 215.5q0 131 101.5 215t270.5 84q163 0 303 -93q32 -22 35 -53t-22 -61l-24 -30q-48 -61 -116 -15q-80 52 -157 52q-69 0 -113.5 -28.5t-44.5 -74.5
q0 -106 188 -145q187 -38 274 -120t87 -218q0 -142 -107 -233t-292 -91q-106 0 -201.5 32t-165.5 90q-59 50 -5 115z" />
    <glyph glyph-name="t" unicode="t" horiz-adv-x="791" 
d="M455 352q0 -91 42.5 -131.5t145.5 -40.5h8q41 1 62.5 -19.5t21.5 -60.5v-39q0 -80 -56 -84q-36 -2 -56 -2q-208 0 -305 90t-97 285v506h-94q-82 0 -82 82v41q0 82 82 82h94v208q0 80 78 86l71 6q40 4 62.5 -17t22.5 -62v-221h186q82 0 82 -82v-41q0 -82 -82 -82h-186
v-504z" />
    <glyph glyph-name="u" unicode="u" horiz-adv-x="1249" 
d="M872 979q0 82 82 82h70q82 0 82 -82v-897q0 -82 -82 -82h-70q-82 0 -82 82v41q-61 -67 -145 -107.5t-172 -40.5q-193 0 -312.5 122t-119.5 321v561q0 82 82 82h69q82 0 82 -82v-549q0 -108 68 -177t176 -69q75 0 150.5 51t121.5 121v623z" />
    <glyph glyph-name="v" unicode="v" horiz-adv-x="1081" 
d="M686 65q-23 -65 -94 -65h-103q-71 0 -94 65l-339 902q-16 42 2.5 68t63.5 26h71q69 0 93 -66l255 -692l255 692q24 66 93 66h70q45 0 63.5 -26t2.5 -68z" />
    <glyph glyph-name="w" unicode="w" horiz-adv-x="1613" 
d="M856 1061q71 0 91 -70l192 -686l193 686q20 70 91 70h73q44 0 63 -25.5t6 -67.5l-282 -900q-21 -68 -92 -68h-99q-72 0 -92 70l-193 692l-194 -692q-20 -70 -91 -70h-99q-71 0 -92 68l-282 900q-13 42 6 67.5t63 25.5h72q72 0 92 -70l193 -686l192 686q20 70 91 70h98z
" />
    <glyph glyph-name="x" unicode="x" horiz-adv-x="1081" 
d="M541 385l-227 -333q-35 -52 -99 -52h-74q-51 0 -66 29t14 70l304 442l-280 421q-28 42 -12.5 70.5t65.5 28.5h76q64 0 98 -53l201 -312l200 312q34 53 99 53h75q50 0 66 -28.5t-12 -70.5l-281 -421l304 -442q29 -41 14 -70t-66 -29h-74q-64 0 -99 52z" />
    <glyph glyph-name="y" unicode="y" horiz-adv-x="1081" 
d="M420 0l-364 967q-16 42 2.5 68t63.5 26h71q69 0 93 -66l253 -700l257 700q24 66 93 66h70q45 0 63.5 -26t2.5 -68l-519 -1378q-23 -64 -94 -64h-71q-45 0 -63.5 26t-2.5 68z" />
    <glyph glyph-name="z" unicode="z" horiz-adv-x="1046" 
d="M98 147q0 58 37 102l508 607h-436q-82 0 -82 82v41q0 82 82 82h635q82 0 82 -82v-66q0 -57 -37 -101l-508 -607h483q82 0 82 -82v-41q0 -82 -82 -82h-682q-82 0 -82 82v65z" />
    <glyph glyph-name="braceleft" unicode="{" horiz-adv-x="860" 
d="M147 652q0 66 77 86q120 36 120 173v293q0 141 104 236.5t261 95.5h28q82 0 82 -82v-45q0 -82 -82 -82h-12q-61 0 -100 -38.5t-39 -100.5v-314q0 -199 -189 -249q189 -50 189 -250v-314q0 -61 39 -100t100 -39h12q82 0 82 -82v-45q0 -82 -82 -82h-28q-157 0 -261 95.5
t-104 236.5v293q0 137 -120 173q-77 20 -77 86v55z" />
    <glyph glyph-name="bar" unicode="|" horiz-adv-x="671" 
d="M225 1454q0 82 82 82h58q81 0 81 -82v-1659q0 -82 -81 -82h-58q-82 0 -82 82v1659z" />
    <glyph glyph-name="braceright" unicode="}" horiz-adv-x="860" 
d="M713 597q0 -66 -77 -86q-120 -36 -120 -173v-293q0 -141 -103.5 -236.5t-260.5 -95.5h-29q-82 0 -82 82v45q0 82 82 82h12q61 0 100 39t39 100v314q0 200 189 250q-189 50 -189 249v314q0 62 -39 100.5t-100 38.5h-12q-82 0 -82 82v45q0 82 82 82h29q157 0 260.5 -95.5
t103.5 -236.5v-293q0 -137 120 -173q77 -20 77 -86v-55z" />
    <glyph glyph-name="asciitilde" unicode="~" horiz-adv-x="1187" 
d="M561 567q-36 34 -54 50.5t-47.5 33.5t-53.5 17q-63 0 -96 -85q-29 -79 -100 -61l-65 17q-39 10 -55 35.5t-4 63.5q36 116 109 177.5t180 61.5q70 0 136.5 -28t115.5 -75q35 -33 54 -50t48 -33.5t53 -16.5q63 0 96 85q29 78 100 60l64 -16q39 -10 55.5 -36t4.5 -64
q-36 -116 -109 -177t-180 -61q-70 0 -136.5 28t-115.5 74z" />
    <glyph glyph-name="uni00A0" unicode="&#xa0;" horiz-adv-x="614" 
 />
    <glyph glyph-name="exclamdown" unicode="&#xa1;" horiz-adv-x="638" 
d="M199 565q0 82 82 82h77q82 0 82 -82v-856q0 -82 -82 -82h-77q-82 0 -82 82v856zM168 934q0 64 43 107.5t108 43.5t108.5 -43.5t43.5 -107.5t-43.5 -108t-108.5 -44q-64 0 -107.5 43.5t-43.5 108.5z" />
    <glyph glyph-name="cent" unicode="&#xa2;" horiz-adv-x="1130" 
d="M559 -17q-215 32 -351 184.5t-136 362.5q0 209 136.5 363t350.5 185v89q0 82 82 82q35 0 54.5 -21t19.5 -61v-85q143 -11 264 -86q67 -42 21 -112l-30 -47q-44 -65 -114 -21q-70 43 -141 55v-682q77 13 149 61q68 45 115 -14l35 -43q25 -30 22 -61t-36 -54
q-128 -87 -285 -100v-84q0 -82 -82 -82q-35 0 -54.5 21t-19.5 61v89zM309 530q0 -120 69.5 -211t180.5 -122v666q-111 -30 -180.5 -121.5t-69.5 -211.5z" />
    <glyph glyph-name="sterling" unicode="&#xa3;" horiz-adv-x="1187" 
d="M225 559q-82 0 -82 82v21q0 81 82 81h48q-7 17 -13 31q-70 147 -70 273q0 174 128 292.5t317 118.5q122 0 219.5 -51.5t155.5 -134.5q44 -67 -34 -110l-61 -33q-36 -17 -60 -9t-50 42q-61 83 -170 83q-86 0 -142.5 -56t-56.5 -142q0 -77 64 -228q16 -37 27 -76h274
q82 0 82 -81v-21q0 -82 -82 -82h-240q2 -30 2 -45q0 -177 -137 -301h567q82 0 82 -82v-49q0 -82 -82 -82h-762q-81 0 -81 82v64q0 56 49 102q118 108 118 266q0 15 -2 45h-90z" />
    <glyph glyph-name="currency" unicode="&#xa4;" horiz-adv-x="1294" 
d="M252 422q-76 111 -76 246q0 134 76 245l-123 124q-57 59 0 116l35 35q57 57 116 0l134 -133q107 55 233 55t234 -55l134 133q58 57 115 0l35 -35q57 -57 0 -116l-123 -124q76 -111 76 -245q0 -135 -76 -246l123 -124q57 -59 0 -116l-35 -35q-57 -57 -115 0l-134 134
q-107 -56 -234 -56t-233 56l-134 -134q-59 -57 -116 0l-35 35q-57 57 0 116zM406 668q0 -101 69.5 -171.5t171.5 -70.5t172 71t70 171t-70 170.5t-172 70.5t-171.5 -70.5t-69.5 -170.5z" />
    <glyph glyph-name="yen" unicode="&#xa5;" horiz-adv-x="1323" 
d="M662 823l329 555q33 56 98 56h78q49 0 65.5 -28.5t-8.5 -70.5l-343 -580h191q42 0 62 -16.5t20 -56.5q0 -39 -20.5 -55.5t-61.5 -16.5h-276l-14 -22v-80h290q42 0 62 -16.5t20 -56.5q0 -38 -20.5 -54.5t-61.5 -16.5h-290v-282q0 -82 -82 -82h-77q-82 0 -82 82v282h-289
q-41 0 -61.5 16.5t-20.5 54.5q0 40 20 56.5t62 16.5h289v80l-14 22h-275q-41 0 -61.5 16.5t-20.5 55.5q0 40 20 56.5t62 16.5h190l-343 580q-25 42 -8.5 70.5t65.5 28.5h78q65 0 98 -56z" />
    <glyph glyph-name="brokenbar" unicode="&#xa6;" horiz-adv-x="671" 
d="M225 1454q0 82 82 82h58q81 0 81 -82v-655q0 -82 -81 -82h-58q-82 0 -82 82v655zM225 451q0 81 82 81h58q81 0 81 -81v-656q0 -82 -81 -82h-58q-82 0 -82 82v656z" />
    <glyph glyph-name="section" unicode="&#xa7;" horiz-adv-x="1042" 
d="M981 541q0 -92 -50.5 -166t-140.5 -116q109 -92 109 -234q0 -141 -111 -236.5t-278 -95.5q-116 0 -210 49t-142 137q-19 38 -3 65t58 36l58 13q33 7 54.5 -4.5t48.5 -43.5q48 -56 136 -56q71 0 117.5 39t46.5 97q0 41 -23 71.5t-59 46.5l-266 117q-129 56 -197 148
t-68 202q0 92 50.5 165.5t141.5 115.5q-110 93 -110 235q0 141 111 236.5t278 95.5q116 0 210.5 -49t142.5 -137q19 -38 2.5 -65t-58.5 -36l-58 -13q-33 -7 -54 4.5t-48 43.5q-48 56 -137 56q-70 0 -116.5 -38.5t-46.5 -97.5q0 -41 23 -71.5t59 -46.5l266 -117
q129 -56 196.5 -147.5t67.5 -202.5zM462 781q-76 -5 -125.5 -53.5t-49.5 -117.5q0 -112 145 -176l148 -65q76 6 126 54.5t50 117.5q0 111 -146 176z" />
    <glyph glyph-name="dieresis" unicode="&#xa8;" horiz-adv-x="860" 
d="M106 1323q0 57 39.5 96t96.5 39t96 -39t39 -96t-39 -96t-96 -39t-96.5 39t-39.5 96zM483 1323q0 57 39 96t96 39t96.5 -39t39.5 -96t-39.5 -96t-96.5 -39t-96 39t-39 96z" />
    <glyph glyph-name="copyright" unicode="&#xa9;" horiz-adv-x="1646" 
d="M862 479q65 0 132 31q76 37 109 -34l2 -5q33 -74 -30 -110q-96 -54 -213 -54q-177 0 -298.5 118t-121.5 290t121.5 289.5t298.5 117.5q110 0 201 -48q64 -35 34 -109l-2 -4q-32 -72 -109 -37q-62 26 -124 26q-98 0 -164.5 -67.5t-66.5 -167.5t66.5 -168t164.5 -68z
M82 717q0 153 58 290t157 236t236 157t290 58t290.5 -58t236.5 -157t157 -236t58 -290t-58 -290.5t-157 -236.5t-236.5 -157t-290.5 -58t-290 58t-236 157t-157 236.5t-58 290.5zM217 717q0 -169 80.5 -310.5t220 -223t305.5 -81.5t306 81.5t220.5 223t80.5 310.5
q0 127 -47.5 241t-128.5 195.5t-193.5 129.5t-237.5 48q-166 0 -305.5 -81t-220 -222.5t-80.5 -310.5z" />
    <glyph glyph-name="ordfeminine" unicode="&#xaa;" horiz-adv-x="942" 
d="M647 762q-71 -90 -207 -90q-161 0 -270 112t-109 277t109 277t270 112q136 0 207 -90q0 35 21 54.5t61 19.5h39q82 0 82 -82v-582q0 -82 -82 -82h-39q-82 0 -82 74zM647 1163q-25 44 -71.5 72.5t-106.5 28.5q-88 0 -146.5 -58.5t-58.5 -144.5t58.5 -144.5t146.5 -58.5
q60 0 106.5 28t71.5 72v205z" />
    <glyph glyph-name="guillemotleft" unicode="&#xab;" horiz-adv-x="1314" 
d="M106 639q0 60 56 95l428 264q42 26 70 10.5t28 -65.5v-35q0 -63 -55 -97l-289 -172l289 -172q55 -34 55 -97v-35q0 -50 -28 -65.5t-70 10.5l-428 264q-56 35 -56 95zM608 639q0 60 56 95l428 264q42 26 70 10.5t28 -65.5v-35q0 -63 -55 -97l-289 -172l289 -172
q55 -34 55 -97v-35q0 -50 -28 -65.5t-70 10.5l-428 264q-56 35 -56 95z" />
    <glyph glyph-name="logicalnot" unicode="&#xac;" horiz-adv-x="1187" 
d="M831 580h-626q-82 0 -82 82v36q0 82 82 82h778q82 0 82 -82v-381q0 -81 -82 -81h-70q-82 0 -82 81v263z" />
    <glyph glyph-name="uni00AD" unicode="&#xad;" horiz-adv-x="831" 
d="M205 569q-82 0 -82 82v58q0 82 82 82h422q82 0 82 -82v-58q0 -82 -82 -82h-422z" />
    <glyph glyph-name="registered" unicode="&#xae;" horiz-adv-x="1646" 
d="M82 717q0 153 58 290t157 236t236 157t290 58t290.5 -58t236.5 -157t157 -236t58 -290t-58 -290.5t-157 -236.5t-236.5 -157t-290.5 -58t-290 58t-236 157t-157 236.5t-58 290.5zM217 717q0 -169 80.5 -310.5t220 -223t305.5 -81.5t306 81.5t220.5 223t80.5 310.5
q0 127 -47.5 241t-128.5 195.5t-193.5 129.5t-237.5 48q-166 0 -305.5 -81t-220 -222.5t-80.5 -310.5zM862 1110q121 0 200 -73.5t79 -184.5q0 -83 -46.5 -147.5t-123.5 -92.5l123 -191q27 -41 11 -70t-66 -29h-10q-65 0 -99 54l-138 218h-55v-191q0 -81 -82 -81h-12
q-82 0 -82 81v625q0 82 82 82h219zM737 946v-205h109q53 0 86 29t33 74t-33 73.5t-86 28.5h-109z" />
    <glyph glyph-name="macron" unicode="&#xaf;" horiz-adv-x="860" 
d="M123 1327q0 82 82 82h450q82 0 82 -82v-16q0 -82 -82 -82h-450q-82 0 -82 82v16z" />
    <glyph glyph-name="degree" unicode="&#xb0;" 
d="M293 1182q0 -50 33 -83.5t84 -33.5t83.5 33.5t32.5 83.5t-32.5 83t-83.5 33t-84 -33t-33 -83zM123 1182q0 117 82.5 196.5t204.5 79.5q121 0 203.5 -79.5t82.5 -196.5t-82.5 -197t-203.5 -80t-204 80t-83 197z" />
    <glyph glyph-name="plusminus" unicode="&#xb1;" horiz-adv-x="1187" 
d="M477 662h-272q-82 0 -82 81v37q0 82 82 82h272v273q0 82 82 82h70q82 0 82 -82v-273h272q82 0 82 -82v-37q0 -81 -82 -81h-272v-273q0 -82 -82 -82h-70q-82 0 -82 82v273zM205 0q-82 0 -82 82v37q0 82 82 82h778q82 0 82 -82v-37q0 -82 -82 -82h-778z" />
    <glyph glyph-name="twosuperior" unicode="&#xb2;" 
d="M367 631h266q82 0 82 -82v-4q0 -82 -82 -82h-457q-82 0 -82 82v9q0 57 40 101l284 308q55 60 77.5 104t22.5 94q0 58 -33.5 93.5t-89.5 35.5q-71 0 -110 -62q-23 -35 -47.5 -46t-61.5 2l-26 10q-38 15 -51.5 42t5.5 64q87 158 291 158q144 0 237 -81t93 -216
q0 -82 -34 -149.5t-113 -153.5z" />
    <glyph glyph-name="threesuperior" unicode="&#xb3;" 
d="M532 772q0 68 -45.5 116t-113.5 48q-68 6 -97 41q-37 45 11 102l151 185h-250q-82 0 -82 82v6q0 82 82 82h422q82 0 82 -82v-17q0 -57 -37 -101l-143 -171q104 -27 165.5 -112t61.5 -195q0 -59 -25.5 -115.5t-70.5 -102t-114 -73t-150 -27.5q-167 0 -279 117
q-26 30 -22 59.5t35 55.5l14 12q58 48 116 -11q63 -65 130 -65q68 0 113.5 48t45.5 118z" />
    <glyph glyph-name="acute" unicode="&#xb4;" horiz-adv-x="860" 
d="M475 1447q38 48 99 48h44q52 0 66.5 -29.5t-18.5 -70.5l-165 -203q-38 -47 -101 -47h-38q-52 0 -66 29.5t18 70.5z" />
    <glyph glyph-name="mu" unicode="&#xb5;" horiz-adv-x="1269" 
d="M143 979q0 82 82 82h70q82 0 82 -82v-631q23 -73 91.5 -118.5t152.5 -45.5q75 0 150.5 51t121.5 121v623q0 82 82 82h69q82 0 82 -82v-897q0 -82 -82 -82h-69q-82 0 -82 82v41q-56 -67 -134.5 -107.5t-162.5 -40.5q-63 0 -120.5 27.5t-98.5 73.5v-469q0 -82 -82 -82h-70
q-82 0 -82 82v1372z" />
    <glyph glyph-name="paragraph" unicode="&#xb6;" horiz-adv-x="1200" 
d="M537 549q-192 0 -323.5 127.5t-131.5 314.5t131.5 315t323.5 128h407q82 0 82 -82v-1538q0 -82 -82 -82h-8q-82 0 -82 82v1458h-94v-1458q0 -82 -82 -82h-8q-82 0 -82 82v735h-51z" />
    <glyph glyph-name="periodcentered" unicode="&#xb7;" horiz-adv-x="614" 
d="M156 666q0 64 43 107.5t108 43.5t108.5 -43.5t43.5 -107.5t-43.5 -108t-108.5 -44q-64 0 -107.5 43.5t-43.5 108.5z" />
    <glyph glyph-name="cedilla" unicode="&#xb8;" horiz-adv-x="860" 
d="M373 -221q-21 0 -33 -1q-26 -3 -45 19q-20 22 -1 60l64 120q13 23 45 23h105q19 0 23.5 -11t-4.5 -22l-48 -73q79 -22 126.5 -78t47.5 -127q0 -95 -76 -158t-192 -63q-96 0 -155 37q-14 8 -18 25.5t5 30.5l27 38q14 21 33.5 23.5t43.5 -7.5q27 -8 52 -8q45 0 73.5 24.5
t28.5 61.5t-28.5 61.5t-73.5 24.5z" />
    <glyph glyph-name="onesuperior" unicode="&#xb9;" 
d="M483 1434q82 0 82 -82v-807q0 -82 -82 -82h-43q-82 0 -82 82v682l-74 -41q-73 -40 -112 34l-3 6q-38 71 35 110l137 73q47 25 102 25h40z" />
    <glyph glyph-name="ordmasculine" unicode="&#xba;" horiz-adv-x="942" 
d="M61 1061q0 163 119 276t291 113t291 -113t119 -276t-119 -276t-291 -113t-291 113t-119 276zM268 1061q0 -88 57.5 -145.5t145.5 -57.5t145.5 57.5t57.5 145.5t-57.5 145.5t-145.5 57.5t-145.5 -57.5t-57.5 -145.5z" />
    <glyph glyph-name="guillemotright" unicode="&#xbb;" horiz-adv-x="1314" 
d="M1208 639q0 -60 -55 -95l-428 -264q-42 -26 -70 -10.5t-28 65.5v35q0 63 55 97l289 172l-289 172q-55 34 -55 97v35q0 50 28 65.5t70 -10.5l428 -264q55 -35 55 -95zM707 639q0 -60 -56 -95l-428 -264q-42 -26 -70 -10.5t-28 65.5v35q0 63 55 97l289 172l-289 172
q-55 34 -55 97v35q0 50 28 65.5t70 -10.5l428 -264q56 -35 56 -95z" />
    <glyph glyph-name="onequarter" unicode="&#xbc;" horiz-adv-x="1976" 
d="M483 1434q82 0 82 -82v-807q0 -82 -82 -82h-43q-82 0 -82 82v682l-74 -41q-73 -40 -112 34l-3 6q-38 71 35 110l137 73q47 25 102 25h40zM1194 283q0 54 32 101l362 535q35 52 100 52h51q82 0 82 -82v-535h18q82 0 82 -82v-12q0 -82 -82 -82h-18v-96q0 -82 -82 -82h-43
q-82 0 -82 82v96h-338q-82 0 -82 82v23zM1614 352v297l-195 -297h195zM586 96l623 1277q29 61 97 61h26q47 0 64.5 -27.5t-3.5 -69.5l-622 -1277q-29 -60 -96 -60h-29q-47 0 -64 27t4 69z" />
    <glyph glyph-name="onehalf" unicode="&#xbd;" horiz-adv-x="1976" 
d="M1524 168h266q82 0 82 -82v-4q0 -82 -82 -82h-457q-82 0 -82 82v9q0 58 40 102l284 307q55 60 77.5 104t22.5 94q0 58 -33.5 93.5t-89.5 35.5q-71 0 -110 -62q-23 -35 -47.5 -46t-61.5 2l-26 10q-38 15 -51 42.5t6 64.5q86 157 290 157q144 0 237 -81t93 -216
q0 -82 -34 -149.5t-113 -153.5zM483 1434q82 0 82 -82v-807q0 -82 -82 -82h-43q-82 0 -82 82v682l-74 -41q-73 -40 -112 34l-3 6q-38 71 35 110l137 73q47 25 102 25h40zM586 96l623 1277q29 61 97 61h26q47 0 64.5 -27.5t-3.5 -69.5l-622 -1277q-29 -60 -96 -60h-29
q-47 0 -64 27t4 69z" />
    <glyph glyph-name="threequarters" unicode="&#xbe;" horiz-adv-x="1976" 
d="M1194 283q0 54 32 101l362 535q35 52 100 52h51q82 0 82 -82v-535h18q82 0 82 -82v-12q0 -82 -82 -82h-18v-96q0 -82 -82 -82h-43q-82 0 -82 82v96h-338q-82 0 -82 82v23zM1614 352v297l-195 -297h195zM532 772q0 68 -45.5 116t-113.5 48q-68 6 -97 41q-37 45 11 102
l151 185h-250q-82 0 -82 82v6q0 82 82 82h422q82 0 82 -82v-17q0 -57 -37 -101l-143 -171q104 -27 165.5 -112t61.5 -195q0 -59 -25.5 -115.5t-70.5 -102t-114 -73t-150 -27.5q-167 0 -279 117q-26 30 -22 59.5t35 55.5l14 12q58 48 116 -11q63 -65 130 -65q68 0 113.5 48
t45.5 118zM586 96l623 1277q29 61 97 61h26q47 0 64.5 -27.5t-3.5 -69.5l-622 -1277q-29 -60 -96 -60h-29q-47 0 -64 27t4 69z" />
    <glyph glyph-name="questiondown" unicode="&#xbf;" horiz-adv-x="1130" 
d="M758 356q0 -75 -82 -84q-145 -17 -226 -86.5t-81 -169.5q0 -87 76.5 -143.5t201.5 -56.5q101 0 213 70q69 45 114 -17l31 -42q24 -31 19.5 -62t-37.5 -53q-163 -109 -369 -109q-219 0 -357 123.5t-138 291.5q0 148 106 260.5t287 147.5v139q0 82 82 82h78q82 0 82 -82
v-209zM788 934q0 -65 -43.5 -108.5t-107.5 -43.5q-65 0 -108.5 44t-43.5 108t43.5 107.5t108.5 43.5t108 -43.5t43 -107.5z" />
    <glyph glyph-name="Agrave" unicode="&#xc0;" horiz-adv-x="1409" 
d="M1333 94q15 -42 -2.5 -68t-62.5 -26h-91q-72 0 -94 67l-96 279h-565l-96 -279q-22 -67 -94 -67h-91q-45 0 -62.5 26t-2.5 68l469 1274q24 66 94 66h131q70 0 94 -66zM494 555h421l-210 614zM798 1645q32 -41 18 -71t-66 -30h-38q-63 0 -101 47l-165 203q-33 40 -18.5 70
t66.5 30h44q61 0 99 -48z" />
    <glyph glyph-name="Aacute" unicode="&#xc1;" horiz-adv-x="1409" 
d="M1333 94q15 -42 -2.5 -68t-62.5 -26h-91q-72 0 -94 67l-96 279h-565l-96 -279q-22 -67 -94 -67h-91q-45 0 -62.5 26t-2.5 68l469 1274q24 66 94 66h131q70 0 94 -66zM494 555h421l-210 614zM769 1846q38 48 99 48h44q52 0 66 -30t-19 -70l-164 -203q-38 -47 -101 -47h-38
q-52 0 -66 30t18 71z" />
    <glyph glyph-name="Acircumflex" unicode="&#xc2;" horiz-adv-x="1409" 
d="M1333 94q15 -42 -2.5 -68t-62.5 -26h-91q-72 0 -94 67l-96 279h-565l-96 -279q-22 -67 -94 -67h-91q-45 0 -62.5 26t-2.5 68l469 1274q24 66 94 66h131q70 0 94 -66zM494 555h421l-210 614zM997 1645q35 -40 21 -70.5t-67 -30.5h-35q-61 0 -100 46l-111 128l-112 -128
q-39 -46 -100 -46h-35q-53 0 -67 30.5t21 70.5l173 203q39 46 100 46h39q61 0 100 -46z" />
    <glyph glyph-name="Atilde" unicode="&#xc3;" horiz-adv-x="1409" 
d="M1333 94q15 -42 -2.5 -68t-62.5 -26h-91q-72 0 -94 67l-96 279h-565l-96 -279q-22 -67 -94 -67h-91q-45 0 -62.5 26t-2.5 68l469 1274q24 66 94 66h131q70 0 94 -66zM494 555h421l-210 614zM719 1604q-76 41 -107 41q-18 0 -34 -14l-10.5 -10.5l-10 -10t-8.5 -8t-9.5 -8
t-8.5 -6t-9.5 -5.5t-9.5 -3t-11 -2t-11.5 0.5t-13.5 1.5l-44 9q-40 8 -56.5 35t-2.5 65q51 140 174 140q62 0 143 -47q76 -41 107 -41q20 0 34 13l10.5 10.5l10 10t8.5 8t9.5 8t8.5 6t9.5 5.5t9.5 3t11 2t11.5 -0.5t13.5 -1.5l44 -9q40 -8 56.5 -34.5t2.5 -64.5
q-52 -141 -174 -141q-60 0 -143 48z" />
    <glyph glyph-name="Adieresis" unicode="&#xc4;" horiz-adv-x="1409" 
d="M1333 94q15 -42 -2.5 -68t-62.5 -26h-91q-72 0 -94 67l-96 279h-565l-96 -279q-22 -67 -94 -67h-91q-45 0 -62.5 26t-2.5 68l469 1274q24 66 94 66h131q70 0 94 -66zM494 555h421l-210 614zM381 1704q0 57 39 96t96 39t96 -39t39 -96t-39 -96t-96 -39t-96 39t-39 96z
M758 1704q0 57 39 96t96 39t96 -39t39 -96t-39 -96t-96 -39t-96 39t-39 96z" />
    <glyph glyph-name="Aring" unicode="&#xc5;" horiz-adv-x="1409" 
d="M1333 94q15 -42 -2.5 -68t-62.5 -26h-91q-72 0 -94 67l-96 279h-565l-96 -279q-22 -67 -94 -67h-91q-45 0 -62.5 26t-2.5 68l469 1274q24 66 94 66h131q70 0 94 -66zM494 555h421l-210 614zM631 1726q0 -31 21 -51t53 -20t52.5 20t20.5 51t-20.5 51.5t-52.5 20.5
t-53 -20.5t-21 -51.5zM483 1726q0 86 63.5 144.5t158.5 58.5t158 -58t63 -145q0 -86 -63 -144t-158 -58t-158.5 58t-63.5 144z" />
    <glyph glyph-name="AE" unicode="&#xc6;" horiz-adv-x="1894" 
d="M113 0q-49 0 -65.5 27.5t7.5 70.5l724 1279q33 57 98 57h804q82 0 82 -82v-45q0 -82 -82 -82h-528v-400h479q82 0 82 -82v-45q0 -82 -82 -82h-479v-407h547q82 0 82 -82v-45q0 -82 -82 -82h-707q-82 0 -82 82v264h-447l-158 -289q-31 -57 -97 -57h-96zM579 555h332v604z
" />
    <glyph glyph-name="Ccedilla" unicode="&#xc7;" horiz-adv-x="1415" 
d="M776 -221q-21 0 -33 -1q-26 -3 -45 19q-20 22 -1 60l68 123q-194 18 -350 119t-244.5 263t-88.5 355q0 154 59 291.5t160.5 236t243.5 156t301 57.5q230 0 415 -113q67 -43 21 -114l-31 -47q-43 -66 -113 -25q-147 86 -292 86q-143 0 -261.5 -69t-187.5 -190.5
t-69 -268.5t69 -268.5t187.5 -191t261.5 -69.5q154 0 304 93q68 44 114 -20l32 -47q49 -69 -18 -115q-154 -99 -340 -118l-55 -87q79 -22 126.5 -78t47.5 -127q0 -95 -76.5 -158t-192.5 -63q-95 0 -154 37q-14 8 -18 25.5t5 30.5l26 38q14 21 33.5 23.5t43.5 -7.5
q27 -8 52 -8q45 0 74 24.5t29 61.5t-29 61.5t-74 24.5z" />
    <glyph glyph-name="Egrave" unicode="&#xc8;" horiz-adv-x="1167" 
d="M164 1352q0 82 82 82h708q82 0 82 -82v-45q0 -82 -82 -82h-548v-400h499q82 0 82 -82v-45q0 -82 -82 -82h-499v-407h567q82 0 82 -82v-45q0 -82 -82 -82h-727q-82 0 -82 82v1270zM673 1645q32 -41 18 -71t-66 -30h-38q-63 0 -101 47l-164 203q-33 40 -19 70t66 30h44
q61 0 99 -48z" />
    <glyph glyph-name="Eacute" unicode="&#xc9;" horiz-adv-x="1167" 
d="M164 1352q0 82 82 82h708q82 0 82 -82v-45q0 -82 -82 -82h-548v-400h499q82 0 82 -82v-45q0 -82 -82 -82h-499v-407h567q82 0 82 -82v-45q0 -82 -82 -82h-727q-82 0 -82 82v1270zM697 1846q38 48 100 48h44q52 0 66 -30t-19 -70l-165 -203q-38 -47 -100 -47h-38
q-52 0 -66 30t18 71z" />
    <glyph glyph-name="Ecircumflex" unicode="&#xca;" horiz-adv-x="1167" 
d="M164 1352q0 82 82 82h708q82 0 82 -82v-45q0 -82 -82 -82h-548v-400h499q82 0 82 -82v-45q0 -82 -82 -82h-499v-407h567q82 0 82 -82v-45q0 -82 -82 -82h-727q-82 0 -82 82v1270zM895 1645q35 -40 21 -70.5t-67 -30.5h-35q-61 0 -100 46l-112 128l-112 -128
q-39 -46 -100 -46h-35q-53 0 -67 30.5t21 70.5l173 203q39 46 101 46h39q61 0 100 -46z" />
    <glyph glyph-name="Edieresis" unicode="&#xcb;" horiz-adv-x="1167" 
d="M164 1352q0 82 82 82h708q82 0 82 -82v-45q0 -82 -82 -82h-548v-400h499q82 0 82 -82v-45q0 -82 -82 -82h-499v-407h567q82 0 82 -82v-45q0 -82 -82 -82h-727q-82 0 -82 82v1270zM279 1704q0 57 39 96t96 39t96 -39t39 -96t-39 -96t-96 -39t-96 39t-39 96zM655 1704
q0 57 39.5 96t96.5 39t96 -39t39 -96t-39 -96t-96 -39t-96.5 39t-39.5 96z" />
    <glyph glyph-name="Igrave" unicode="&#xcc;" horiz-adv-x="589" 
d="M334 1434q82 0 82 -82v-1270q0 -82 -82 -82h-78q-82 0 -82 82v1270q0 82 82 82h78zM386 1645q32 -41 18 -71t-66 -30h-38q-62 0 -100 47l-165 203q-33 40 -19 70t66 30h44q61 0 99 -48z" />
    <glyph glyph-name="Iacute" unicode="&#xcd;" horiz-adv-x="589" 
d="M334 1434q82 0 82 -82v-1270q0 -82 -82 -82h-78q-82 0 -82 82v1270q0 82 82 82h78zM364 1846q38 48 99 48h44q52 0 66 -30t-19 -70l-165 -203q-38 -47 -100 -47h-38q-52 0 -66 30t18 71z" />
    <glyph glyph-name="Icircumflex" unicode="&#xce;" horiz-adv-x="589" 
d="M334 1434q82 0 82 -82v-1270q0 -82 -82 -82h-78q-82 0 -82 82v1270q0 82 82 82h78zM588 1645q35 -40 21 -70.5t-67 -30.5h-35q-61 0 -100 46l-112 128l-112 -128q-39 -46 -100 -46h-35q-53 0 -67 30.5t21 70.5l173 203q39 46 100 46h39q62 0 101 -46z" />
    <glyph glyph-name="Idieresis" unicode="&#xcf;" horiz-adv-x="589" 
d="M334 1434q82 0 82 -82v-1270q0 -82 -82 -82h-78q-82 0 -82 82v1270q0 82 82 82h78zM-29 1704q0 57 39 96t96 39t96.5 -39t39.5 -96t-39.5 -96t-96.5 -39t-96 39t-39 96zM348 1704q0 57 39 96t96 39t96 -39t39 -96t-39 -96t-96 -39t-96 39t-39 96z" />
    <glyph glyph-name="Eth" unicode="&#xd0;" horiz-adv-x="1499" 
d="M698 1434q331 0 525 -192.5t194 -524.5t-194 -524.5t-525 -192.5h-422q-81 0 -81 82v547h-103q-82 0 -82 82v12q0 82 82 82h103v547q0 82 81 82h422zM436 629v-416h262q217 0 345 126.5t128 377.5t-128 377.5t-345 126.5h-262v-416h209q82 0 82 -82v-12q0 -82 -82 -82
h-209z" />
    <glyph glyph-name="Ntilde" unicode="&#xd1;" horiz-adv-x="1441" 
d="M735 1604q-76 41 -106 41q-19 0 -35 -14l-11.5 -11.5l-11 -11t-9.5 -9t-10 -8t-9.5 -5.5t-11 -5t-11 -2.5t-13 -0.5t-14.5 2l-44 9q-41 8 -57.5 35t-2.5 65q51 140 174 140q63 0 144 -47q76 -41 106 -41q21 0 35 13l11.5 11.5l11 11t9.5 9t10 8t9.5 5.5t11 5t11 2.5
t13 0.5t14.5 -2l44 -9q41 -8 57.5 -34.5t2.5 -64.5q-52 -141 -174 -141q-61 0 -144 48zM164 1352q0 82 82 82h87q64 0 99 -55l612 -961v934q0 82 82 82h70q82 0 82 -82v-1270q0 -82 -82 -82h-87q-65 0 -99 54l-613 962v-934q0 -82 -82 -82h-69q-82 0 -82 82v1270z" />
    <glyph glyph-name="Ograve" unicode="&#xd2;" horiz-adv-x="1691" 
d="M846 188q143 0 261.5 69.5t187.5 191t69 268.5t-69 268.5t-187.5 190.5t-261.5 69t-261.5 -69t-187.5 -190.5t-69 -268.5t69 -268.5t187.5 -191t261.5 -69.5zM846 1458q159 0 301 -57.5t243.5 -156t160.5 -236t59 -291.5t-59 -291.5t-160.5 -236.5t-243.5 -156.5
t-301 -57.5t-301 57.5t-243.5 156.5t-160.5 236.5t-59 291.5t59 291.5t160.5 236t243.5 156t301 57.5zM937 1645q32 -41 18 -71t-66 -30h-38q-62 0 -100 47l-165 203q-33 40 -19 70t66 30h44q61 0 99 -48z" />
    <glyph glyph-name="Oacute" unicode="&#xd3;" horiz-adv-x="1691" 
d="M846 188q143 0 261.5 69.5t187.5 191t69 268.5t-69 268.5t-187.5 190.5t-261.5 69t-261.5 -69t-187.5 -190.5t-69 -268.5t69 -268.5t187.5 -191t261.5 -69.5zM846 1458q159 0 301 -57.5t243.5 -156t160.5 -236t59 -291.5t-59 -291.5t-160.5 -236.5t-243.5 -156.5
t-301 -57.5t-301 57.5t-243.5 156.5t-160.5 236.5t-59 291.5t59 291.5t160.5 236t243.5 156t301 57.5zM915 1846q38 48 100 48h44q52 0 66 -30t-19 -70l-165 -203q-38 -47 -100 -47h-38q-52 0 -66 30t18 71z" />
    <glyph glyph-name="Ocircumflex" unicode="&#xd4;" horiz-adv-x="1691" 
d="M846 188q143 0 261.5 69.5t187.5 191t69 268.5t-69 268.5t-187.5 190.5t-261.5 69t-261.5 -69t-187.5 -190.5t-69 -268.5t69 -268.5t187.5 -191t261.5 -69.5zM846 1458q159 0 301 -57.5t243.5 -156t160.5 -236t59 -291.5t-59 -291.5t-160.5 -236.5t-243.5 -156.5
t-301 -57.5t-301 57.5t-243.5 156.5t-160.5 236.5t-59 291.5t59 291.5t160.5 236t243.5 156t301 57.5zM1139 1645q35 -40 21 -70.5t-67 -30.5h-35q-62 0 -101 46l-111 128l-112 -128q-39 -46 -100 -46h-35q-53 0 -67 30.5t21 70.5l173 203q39 46 100 46h39q62 0 101 -46z
" />
    <glyph glyph-name="Otilde" unicode="&#xd5;" horiz-adv-x="1691" 
d="M846 188q143 0 261.5 69.5t187.5 191t69 268.5t-69 268.5t-187.5 190.5t-261.5 69t-261.5 -69t-187.5 -190.5t-69 -268.5t69 -268.5t187.5 -191t261.5 -69.5zM846 1458q159 0 301 -57.5t243.5 -156t160.5 -236t59 -291.5t-59 -291.5t-160.5 -236.5t-243.5 -156.5
t-301 -57.5t-301 57.5t-243.5 156.5t-160.5 236.5t-59 291.5t59 291.5t160.5 236t243.5 156t301 57.5zM860 1604q-76 41 -106 41q-19 0 -35 -14l-10.5 -10.5l-10 -10t-8.5 -8t-9.5 -8t-8.5 -6t-9.5 -5.5t-9.5 -3t-11 -2t-11.5 0.5t-13.5 1.5l-44 9q-40 8 -56.5 35t-2.5 65
q51 140 174 140q62 0 143 -47q76 -41 107 -41q21 0 35 13l11.5 11.5l11 11t9.5 9t10 8t9.5 5.5t11 5t11 2.5t13 0.5t14.5 -2l44 -9q41 -8 57.5 -34.5t2.5 -64.5q-52 -141 -174 -141q-61 0 -144 48z" />
    <glyph glyph-name="Odieresis" unicode="&#xd6;" horiz-adv-x="1691" 
d="M846 188q143 0 261.5 69.5t187.5 191t69 268.5t-69 268.5t-187.5 190.5t-261.5 69t-261.5 -69t-187.5 -190.5t-69 -268.5t69 -268.5t187.5 -191t261.5 -69.5zM846 1458q159 0 301 -57.5t243.5 -156t160.5 -236t59 -291.5t-59 -291.5t-160.5 -236.5t-243.5 -156.5
t-301 -57.5t-301 57.5t-243.5 156.5t-160.5 236.5t-59 291.5t59 291.5t160.5 236t243.5 156t301 57.5zM522 1704q0 57 39 96t96 39t96.5 -39t39.5 -96t-39.5 -96t-96.5 -39t-96 39t-39 96zM899 1704q0 57 39 96t96 39t96 -39t39 -96t-39 -96t-96 -39t-96 39t-39 96z" />
    <glyph glyph-name="multiply" unicode="&#xd7;" horiz-adv-x="1187" 
d="M588 836l240 240q58 58 117 0l41 -41q58 -58 0 -116l-241 -241l241 -241q58 -58 0 -116l-41 -41q-59 -58 -117 0l-240 240l-231 -230q-58 -58 -116 0l-41 41q-58 58 0 116l230 231l-229 230q-57 59 0 116l42 42q58 58 115 0z" />
    <glyph glyph-name="Oslash" unicode="&#xd8;" horiz-adv-x="1691" 
d="M846 1458q208 0 387 -98l69 87q37 48 99 48h21q52 0 66.5 -29.5t-17.5 -70.5l-103 -131q114 -102 178 -243.5t64 -303.5q0 -154 -59 -291.5t-160.5 -236.5t-243.5 -156.5t-301 -57.5q-226 0 -408 109l-77 -97q-38 -48 -99 -48h-22q-52 0 -66.5 29.5t17.5 70.5l115 145
q-106 102 -165 239.5t-59 293.5q0 154 59 291.5t160.5 236t243.5 156t301 57.5zM846 188q143 0 261.5 69.5t187.5 191t69 268.5q0 213 -140 364l-645 -820q124 -73 267 -73zM328 717q0 -202 124 -347l641 813q-113 62 -247 62q-143 0 -261.5 -69t-187.5 -190.5t-69 -268.5z
" />
    <glyph glyph-name="Ugrave" unicode="&#xd9;" horiz-adv-x="1368" 
d="M765 1645q32 -41 18 -71t-66 -30h-38q-62 0 -100 47l-165 203q-33 40 -19 70t66 30h44q61 0 99 -48zM1214 508q0 -119 -41.5 -219.5t-113.5 -168t-169 -105.5t-206 -38t-206 38t-169 105.5t-113.5 168t-41.5 219.5v844q0 82 82 82h77q82 0 82 -82v-873q0 -129 83 -209
t206 -80t206 80t83 209v873q0 82 82 82h78q81 0 81 -82v-844z" />
    <glyph glyph-name="Uacute" unicode="&#xda;" horiz-adv-x="1368" 
d="M769 1846q38 48 99 48h44q52 0 66 -30t-19 -70l-164 -203q-38 -47 -101 -47h-38q-52 0 -66 30t18 71zM1214 508q0 -119 -41.5 -219.5t-113.5 -168t-169 -105.5t-206 -38t-206 38t-169 105.5t-113.5 168t-41.5 219.5v844q0 82 82 82h77q82 0 82 -82v-873q0 -129 83 -209
t206 -80t206 80t83 209v873q0 82 82 82h78q81 0 81 -82v-844z" />
    <glyph glyph-name="Ucircumflex" unicode="&#xdb;" horiz-adv-x="1368" 
d="M977 1645q35 -40 21 -70.5t-67 -30.5h-35q-61 0 -100 46l-112 128l-112 -128q-39 -46 -100 -46h-35q-53 0 -67 30.5t21 70.5l173 203q39 46 101 46h38q62 0 101 -46zM1214 508q0 -119 -41.5 -219.5t-113.5 -168t-169 -105.5t-206 -38t-206 38t-169 105.5t-113.5 168
t-41.5 219.5v844q0 82 82 82h77q82 0 82 -82v-873q0 -129 83 -209t206 -80t206 80t83 209v873q0 82 82 82h78q81 0 81 -82v-844z" />
    <glyph glyph-name="Udieresis" unicode="&#xdc;" horiz-adv-x="1368" 
d="M360 1704q0 57 39.5 96t96.5 39t96 -39t39 -96t-39 -96t-96 -39t-96.5 39t-39.5 96zM737 1704q0 57 39 96t96 39t96.5 -39t39.5 -96t-39.5 -96t-96.5 -39t-96 39t-39 96zM1214 508q0 -119 -41.5 -219.5t-113.5 -168t-169 -105.5t-206 -38t-206 38t-169 105.5t-113.5 168
t-41.5 219.5v844q0 82 82 82h77q82 0 82 -82v-873q0 -129 83 -209t206 -80t206 80t83 209v873q0 82 82 82h78q81 0 81 -82v-844z" />
    <glyph glyph-name="Yacute" unicode="&#xdd;" horiz-adv-x="1323" 
d="M662 823l329 555q33 56 98 56h78q49 0 65.5 -28.5t-8.5 -70.5l-442 -747v-506q0 -82 -82 -82h-77q-82 0 -82 82v506l-442 747q-25 42 -8.5 70.5t65.5 28.5h78q65 0 98 -56zM748 1846q38 48 99 48h44q52 0 66 -30t-19 -70l-165 -203q-38 -47 -100 -47h-38q-52 0 -66 30
t18 71z" />
    <glyph glyph-name="Thorn" unicode="&#xde;" horiz-adv-x="1214" 
d="M406 260v-178q0 -82 -82 -82h-78q-82 0 -82 82v1270q0 82 82 82h78q82 0 82 -82v-178h241q230 0 363 -124t133 -333t-133 -333t-363 -124h-241zM897 717q0 116 -67 182t-193 66h-231v-496h231q126 0 193 66t67 182z" />
    <glyph glyph-name="germandbls" unicode="&#xdf;" horiz-adv-x="1255" 
d="M154 1049q0 185 121 297t307 112q183 0 307.5 -108t124.5 -265q0 -100 -57.5 -182t-161.5 -123q164 -27 271.5 -135t107.5 -256q0 -175 -137 -294.5t-339 -119.5q-77 0 -156 22q-74 21 -53 102l15 52q19 73 101 48q53 -15 93 -15q98 0 164 58.5t66 146.5q0 107 -85 178.5
t-231 91.5q-80 11 -80 85v48q0 67 74 89q75 23 118.5 73t43.5 121q0 73 -54 123.5t-132 50.5q-81 0 -134 -52.5t-53 -137.5v-977q0 -82 -82 -82h-77q-82 0 -82 82v967z" />
    <glyph glyph-name="agrave" unicode="&#xe0;" horiz-adv-x="1343" 
d="M655 184q102 0 186 52t126 139v309q-42 87 -126 140t-186 53q-146 0 -246 -100.5t-100 -246.5t100 -246t246 -100zM614 1085q214 0 353 -139v33q0 82 82 82h69q82 0 82 -82v-897q0 -82 -82 -82h-69q-82 0 -82 82v33q-140 -140 -353 -140q-154 0 -279 76t-194 202.5
t-69 276.5t69 276.5t194 202.5t279 76zM734 1313q32 -41 18 -71t-66 -30h-38q-61 0 -100 48l-165 202q-33 40 -19 70.5t66 30.5h44q60 0 99 -49z" />
    <glyph glyph-name="aacute" unicode="&#xe1;" horiz-adv-x="1343" 
d="M655 184q102 0 186 52t126 139v309q-42 87 -126 140t-186 53q-146 0 -246 -100.5t-100 -246.5t100 -246t246 -100zM614 1085q214 0 353 -139v33q0 82 82 82h69q82 0 82 -82v-897q0 -82 -82 -82h-69q-82 0 -82 82v33q-140 -140 -353 -140q-154 0 -279 76t-194 202.5
t-69 276.5t69 276.5t194 202.5t279 76zM696 1514q39 49 100 49h44q52 0 66 -30.5t-19 -70.5l-165 -202q-39 -48 -100 -48h-38q-52 0 -66 30t18 71z" />
    <glyph glyph-name="acircumflex" unicode="&#xe2;" horiz-adv-x="1343" 
d="M655 184q102 0 186 52t126 139v309q-42 87 -126 140t-186 53q-146 0 -246 -100.5t-100 -246.5t100 -246t246 -100zM614 1085q214 0 353 -139v33q0 82 82 82h69q82 0 82 -82v-897q0 -82 -82 -82h-69q-82 0 -82 82v33q-140 -140 -353 -140q-154 0 -279 76t-194 202.5
t-69 276.5t69 276.5t194 202.5t279 76zM948 1313q35 -40 21 -70.5t-67 -30.5h-35q-61 0 -100 46l-112 128l-111 -128q-39 -46 -101 -46h-34q-53 0 -67.5 30.5t20.5 70.5l174 204q39 46 100 46h39q61 0 100 -46z" />
    <glyph glyph-name="atilde" unicode="&#xe3;" horiz-adv-x="1343" 
d="M655 184q102 0 186 52t126 139v309q-42 87 -126 140t-186 53q-146 0 -246 -100.5t-100 -246.5t100 -246t246 -100zM614 1085q214 0 353 -139v33q0 82 82 82h69q82 0 82 -82v-897q0 -82 -82 -82h-69q-82 0 -82 82v33q-140 -140 -353 -140q-154 0 -279 76t-194 202.5
t-69 276.5t69 276.5t194 202.5t279 76zM649 1272q-76 41 -106 41q-19 0 -35 -14l-11.5 -11.5l-11 -11t-9.5 -9t-10 -8t-9.5 -5.5t-11 -5t-11 -2.5t-13 -0.5t-14.5 2l-45 9q-40 8 -56.5 35t-2.5 65q51 140 174 140q63 0 144 -47q76 -41 106 -41q21 0 35 13l12.5 12.5
l12.5 12.5t10.5 10t11.5 8.5t11 5.5t13 4.5t13.5 0.5t16.5 -2l44 -10q41 -8 57.5 -34.5t2.5 -64.5q-51 -140 -174 -140q-63 0 -144 47z" />
    <glyph glyph-name="adieresis" unicode="&#xe4;" horiz-adv-x="1343" 
d="M655 184q102 0 186 52t126 139v309q-42 87 -126 140t-186 53q-146 0 -246 -100.5t-100 -246.5t100 -246t246 -100zM614 1085q214 0 353 -139v33q0 82 82 82h69q82 0 82 -82v-897q0 -82 -82 -82h-69q-82 0 -82 82v33q-140 -140 -353 -140q-154 0 -279 76t-194 202.5
t-69 276.5t69 276.5t194 202.5t279 76zM311 1372q0 57 39 96t96 39t96.5 -39t39.5 -96t-39.5 -96t-96.5 -39t-96 39t-39 96zM688 1372q0 57 39 96t96 39t96 -39t39 -96t-39 -96t-96 -39t-96 39t-39 96z" />
    <glyph glyph-name="aring" unicode="&#xe5;" horiz-adv-x="1343" 
d="M655 184q102 0 186 52t126 139v309q-42 87 -126 140t-186 53q-146 0 -246 -100.5t-100 -246.5t100 -246t246 -100zM614 1085q214 0 353 -139v33q0 82 82 82h69q82 0 82 -82v-897q0 -82 -82 -82h-69q-82 0 -82 82v33q-140 -140 -353 -140q-154 0 -279 76t-194 202.5
t-69 276.5t69 276.5t194 202.5t279 76zM561 1395q0 -31 21 -51.5t53 -20.5t53 20.5t21 51.5t-21 51t-53 20t-53 -20t-21 -51zM414 1395q0 86 63 144t158 58t158 -58t63 -144q0 -87 -63 -145t-158 -58t-158 58t-63 145z" />
    <glyph glyph-name="ae" unicode="&#xe6;" horiz-adv-x="2082" 
d="M1127 455q20 -122 116 -200.5t227 -78.5q139 0 257 88q62 49 116 -1l40 -38q31 -29 32 -58.5t-31 -56.5q-165 -135 -407 -135q-142 0 -261.5 54.5t-193.5 146.5q-70 -92 -185.5 -146.5t-252.5 -54.5q-220 0 -366 102.5t-146 254.5q0 143 140.5 239.5t340.5 96.5
q94 0 185.5 -24t150.5 -62v47q0 107 -88 181.5t-223 74.5q-140 0 -269 -77q-73 -44 -110 29l-16 29q-36 70 28 112q169 107 373 107q139 0 255 -54.5t184 -147.5q72 94 187.5 148t249.5 54q158 0 285 -72.5t196.5 -194t69.5 -267.5q0 -14 -1 -21q-1 -37 -24.5 -56t-61.5 -19
h-797zM305 332q0 -66 82 -111t209 -45q209 0 291 125v101q-110 85 -291 85q-127 0 -209 -45t-82 -110zM1460 885q-110 0 -200 -66.5t-123 -171.5h629q-28 105 -111 171.5t-195 66.5z" />
    <glyph glyph-name="ccedilla" unicode="&#xe7;" horiz-adv-x="1136" 
d="M578 -221q-21 0 -33 -1q-26 -3 -45 19q-20 22 -1 60l67 125q-217 29 -355.5 182.5t-138.5 365.5q0 153 75 280t209 201t299 74q181 0 324 -89q67 -42 21 -112l-30 -46q-45 -66 -114 -22q-100 61 -201 61q-146 0 -246 -100.5t-100 -246.5t100 -246t246 -100q108 0 209 66
q68 45 115 -13l35 -44q53 -67 -5 -110q-119 -84 -273 -102l-52 -87q79 -22 126.5 -78t47.5 -127q0 -95 -76 -158t-192 -63q-96 0 -155 37q-14 8 -18 25.5t5 30.5l27 38q14 21 33 23.5t43 -7.5q27 -8 53 -8q45 0 73.5 24.5t28.5 61.5t-28.5 61.5t-73.5 24.5z" />
    <glyph glyph-name="egrave" unicode="&#xe8;" horiz-adv-x="1265" 
d="M310 455q20 -122 116 -200.5t227 -78.5q139 0 257 88q62 49 116 -1l40 -38q64 -61 1 -115q-170 -135 -408 -135q-172 0 -307 74.5t-207.5 200.5t-72.5 280q0 114 43.5 216.5t118.5 177t181.5 118t227.5 43.5q158 0 285 -72.5t196.5 -194t69.5 -267.5q0 -14 -1 -21
q-1 -37 -24 -56t-62 -19h-797zM643 885q-110 0 -200.5 -66.5t-123.5 -171.5h630q-28 105 -111 171.5t-195 66.5zM742 1313q32 -41 18 -71t-66 -30h-38q-61 0 -100 48l-165 202q-33 40 -19 70.5t66 30.5h44q61 0 100 -49z" />
    <glyph glyph-name="eacute" unicode="&#xe9;" horiz-adv-x="1265" 
d="M310 455q20 -122 116 -200.5t227 -78.5q139 0 257 88q62 49 116 -1l40 -38q64 -61 1 -115q-170 -135 -408 -135q-172 0 -307 74.5t-207.5 200.5t-72.5 280q0 114 43.5 216.5t118.5 177t181.5 118t227.5 43.5q158 0 285 -72.5t196.5 -194t69.5 -267.5q0 -14 -1 -21
q-1 -37 -24 -56t-62 -19h-797zM643 885q-110 0 -200.5 -66.5t-123.5 -171.5h630q-28 105 -111 171.5t-195 66.5zM688 1514q39 49 99 49h44q52 0 66.5 -30.5t-18.5 -70.5l-165 -202q-39 -48 -101 -48h-38q-52 0 -66 30t18 71z" />
    <glyph glyph-name="ecircumflex" unicode="&#xea;" horiz-adv-x="1265" 
d="M310 455q20 -122 116 -200.5t227 -78.5q139 0 257 88q62 49 116 -1l40 -38q64 -61 1 -115q-170 -135 -408 -135q-172 0 -307 74.5t-207.5 200.5t-72.5 280q0 114 43.5 216.5t118.5 177t181.5 118t227.5 43.5q158 0 285 -72.5t196.5 -194t69.5 -267.5q0 -14 -1 -21
q-1 -37 -24 -56t-62 -19h-797zM643 885q-110 0 -200.5 -66.5t-123.5 -171.5h630q-28 105 -111 171.5t-195 66.5zM926 1313q35 -40 21 -70.5t-67 -30.5h-35q-62 0 -101 46l-111 128l-112 -128q-39 -46 -100 -46h-35q-53 0 -67 30.5t21 70.5l173 204q39 46 100 46h39
q62 0 101 -46z" />
    <glyph glyph-name="edieresis" unicode="&#xeb;" horiz-adv-x="1265" 
d="M310 455q20 -122 116 -200.5t227 -78.5q139 0 257 88q62 49 116 -1l40 -38q64 -61 1 -115q-170 -135 -408 -135q-172 0 -307 74.5t-207.5 200.5t-72.5 280q0 114 43.5 216.5t118.5 177t181.5 118t227.5 43.5q158 0 285 -72.5t196.5 -194t69.5 -267.5q0 -14 -1 -21
q-1 -37 -24 -56t-62 -19h-797zM643 885q-110 0 -200.5 -66.5t-123.5 -171.5h630q-28 105 -111 171.5t-195 66.5zM309 1372q0 57 39 96t96 39t96.5 -39t39.5 -96t-39.5 -96t-96.5 -39t-96 39t-39 96zM686 1372q0 57 39 96t96 39t96 -39t39 -96t-39 -96t-96 -39t-96 39t-39 96
z" />
    <glyph glyph-name="igrave" unicode="&#xec;" horiz-adv-x="540" 
d="M154 979q0 82 82 82h69q82 0 82 -82v-897q0 -82 -82 -82h-69q-82 0 -82 82v897zM348 1313q32 -41 18 -71t-66 -30h-38q-61 0 -100 48l-165 202q-33 40 -19 70.5t66 30.5h44q60 0 99 -49z" />
    <glyph glyph-name="iacute" unicode="&#xed;" horiz-adv-x="540" 
d="M154 979q0 82 82 82h69q82 0 82 -82v-897q0 -82 -82 -82h-69q-82 0 -82 82v897zM353 1514q39 49 100 49h44q52 0 66 -30.5t-19 -70.5l-165 -202q-39 -48 -100 -48h-38q-52 0 -66 30t18 71z" />
    <glyph glyph-name="icircumflex" unicode="&#xee;" horiz-adv-x="540" 
d="M154 979q0 82 82 82h69q82 0 82 -82v-897q0 -82 -82 -82h-69q-82 0 -82 82v897zM563 1313q35 -40 21 -70.5t-67 -30.5h-35q-61 0 -100 46l-112 128l-111 -128q-39 -46 -101 -46h-34q-53 0 -67.5 30.5t20.5 70.5l174 204q39 46 100 46h39q61 0 100 -46z" />
    <glyph glyph-name="idieresis" unicode="&#xef;" horiz-adv-x="540" 
d="M154 979q0 82 82 82h69q82 0 82 -82v-897q0 -82 -82 -82h-69q-82 0 -82 82v897zM-53 1372q0 57 39 96t96 39t96 -39t39 -96t-39 -96t-96 -39t-96 39t-39 96zM324 1372q0 57 39 96t96 39t96 -39t39 -96t-39 -96t-96 -39t-96 39t-39 96z" />
    <glyph glyph-name="eth" unicode="&#xf0;" horiz-adv-x="1271" 
d="M296 1117q-31 68 43 104l140 64q-70 40 -86 48q-44 24 -46 55t41 57l31 18q54 33 111 6q91 -45 155 -89l150 70q74 35 109 -40q28 -62 -45 -97l-80 -37q173 -156 272 -359.5t99 -416.5q0 -145 -74 -266t-202.5 -190t-282.5 -69t-282.5 69t-202.5 190t-74 266
q0 142 73.5 261.5t194.5 187t258 67.5q138 0 243 -74q-88 134 -220 243l-219 -102q-75 -36 -106 34zM309 504q0 -135 93.5 -227.5t230.5 -92.5q136 0 229.5 92.5t93.5 227.5t-93 227t-230 92t-230.5 -92t-93.5 -227z" />
    <glyph glyph-name="ntilde" unicode="&#xf1;" horiz-adv-x="1249" 
d="M377 82q0 -82 -82 -82h-70q-82 0 -82 82v897q0 82 82 82h70q82 0 82 -82v-41q60 67 144.5 107t172.5 40q193 0 312.5 -121.5t119.5 -320.5v-561q0 -82 -82 -82h-69q-82 0 -82 82v549q0 108 -68 177t-176 69q-75 0 -150.5 -51t-121.5 -121v-623zM649 1272q-76 41 -106 41
q-19 0 -35 -14l-11.5 -11.5l-11 -11t-9.5 -9t-10 -8t-9.5 -5.5t-11 -5t-11 -2.5t-13 -0.5t-14.5 2l-45 9q-40 8 -56.5 35t-2.5 65q51 140 174 140q63 0 144 -47q76 -41 106 -41q21 0 35 13l12.5 12.5l12.5 12.5t10.5 10t11.5 8.5t11 5.5t13 4.5t13.5 0.5t16.5 -2l44 -10
q41 -8 57.5 -34.5t2.5 -64.5q-51 -140 -174 -140q-63 0 -144 47z" />
    <glyph glyph-name="ograve" unicode="&#xf2;" horiz-adv-x="1310" 
d="M744 1313q32 -41 18 -71t-66 -30h-38q-61 0 -100 48l-165 202q-33 40 -19 70.5t66 30.5h44q61 0 100 -49zM655 184q146 0 246 100t100 246t-100 246.5t-246 100.5t-246 -100.5t-100 -246.5t100 -246t246 -100zM655 1085q124 0 233 -43.5t185.5 -118t121 -177t44.5 -216.5
t-44.5 -216.5t-121 -177t-185.5 -118t-233 -43.5q-165 0 -299 74t-209 201t-75 280t75 280t209 201t299 74z" />
    <glyph glyph-name="oacute" unicode="&#xf3;" horiz-adv-x="1310" 
d="M732 1514q39 49 99 49h45q52 0 66 -30.5t-19 -70.5l-165 -202q-39 -48 -101 -48h-37q-52 0 -66.5 30t17.5 71zM655 184q146 0 246 100t100 246t-100 246.5t-246 100.5t-246 -100.5t-100 -246.5t100 -246t246 -100zM655 1085q124 0 233 -43.5t185.5 -118t121 -177
t44.5 -216.5t-44.5 -216.5t-121 -177t-185.5 -118t-233 -43.5q-165 0 -299 74t-209 201t-75 280t75 280t209 201t299 74z" />
    <glyph glyph-name="ocircumflex" unicode="&#xf4;" horiz-adv-x="1310" 
d="M948 1313q35 -40 21 -70.5t-67 -30.5h-35q-61 0 -100 46l-112 128l-111 -128q-39 -46 -101 -46h-34q-53 0 -67.5 30.5t20.5 70.5l174 204q39 46 100 46h39q61 0 100 -46zM655 184q146 0 246 100t100 246t-100 246.5t-246 100.5t-246 -100.5t-100 -246.5t100 -246
t246 -100zM655 1085q124 0 233 -43.5t185.5 -118t121 -177t44.5 -216.5t-44.5 -216.5t-121 -177t-185.5 -118t-233 -43.5q-165 0 -299 74t-209 201t-75 280t75 280t209 201t299 74z" />
    <glyph glyph-name="otilde" unicode="&#xf5;" horiz-adv-x="1310" 
d="M670 1272q-76 41 -107 41q-19 0 -35 -14l-11.5 -11.5l-11 -11t-9.5 -9t-10 -8t-9.5 -5.5t-11 -5t-11 -2.5t-13 -0.5t-14.5 2l-44 9q-40 8 -56.5 35t-2.5 65q51 140 174 140q62 0 143 -47q76 -41 107 -41q20 0 34 13l11.5 11.5l11 11t9.5 9t10.5 8.5t10 6t11 5t11 2.5
t13 0.5t14.5 -2l44 -10q40 -8 56.5 -34.5t2.5 -64.5q-51 -140 -174 -140q-62 0 -143 47zM655 184q146 0 246 100t100 246t-100 246.5t-246 100.5t-246 -100.5t-100 -246.5t100 -246t246 -100zM655 1085q124 0 233 -43.5t185.5 -118t121 -177t44.5 -216.5t-44.5 -216.5
t-121 -177t-185.5 -118t-233 -43.5q-165 0 -299 74t-209 201t-75 280t75 280t209 201t299 74z" />
    <glyph glyph-name="odieresis" unicode="&#xf6;" horiz-adv-x="1310" 
d="M332 1372q0 57 39 96t96 39t96 -39t39 -96t-39 -96t-96 -39t-96 39t-39 96zM709 1372q0 57 39 96t96 39t96 -39t39 -96t-39 -96t-96 -39t-96 39t-39 96zM655 184q146 0 246 100t100 246t-100 246.5t-246 100.5t-246 -100.5t-100 -246.5t100 -246t246 -100zM655 1085
q124 0 233 -43.5t185.5 -118t121 -177t44.5 -216.5t-44.5 -216.5t-121 -177t-185.5 -118t-233 -43.5q-165 0 -299 74t-209 201t-75 280t75 280t209 201t299 74z" />
    <glyph glyph-name="divide" unicode="&#xf7;" horiz-adv-x="1187" 
d="M205 580q-82 0 -82 82v36q0 82 82 82h778q82 0 82 -82v-36q0 -82 -82 -82h-778zM442 1067q0 65 44 108.5t108 43.5t107.5 -43.5t43.5 -108.5t-43.5 -108.5t-107.5 -43.5t-108 43.5t-44 108.5zM442 293q0 64 43.5 107.5t108.5 43.5q64 0 107.5 -43t43.5 -108t-43.5 -108.5
t-107.5 -43.5t-108 43.5t-44 108.5z" />
    <glyph glyph-name="oslash" unicode="&#xf8;" horiz-adv-x="1310" 
d="M1081 1122h40q41 0 48 -29.5t-25 -70.5l-75 -94q81 -76 125.5 -179t44.5 -219q0 -114 -44.5 -216.5t-121 -177t-185.5 -118t-233 -43.5q-152 0 -284 67l-44 -55q-38 -48 -100 -48h-13q-52 0 -66.5 29.5t17.5 70.5l76 95q-80 76 -124.5 178t-44.5 218q0 153 75 280
t209 201t299 74q154 0 283 -66l44 55q38 48 99 48zM655 184q146 0 246 100t100 246q0 125 -74 218l-419 -532q70 -32 147 -32zM309 530q0 -124 73 -216l419 531q-70 32 -146 32q-146 0 -246 -100.5t-100 -246.5z" />
    <glyph glyph-name="ugrave" unicode="&#xf9;" horiz-adv-x="1249" 
d="M872 979q0 82 82 82h70q82 0 82 -82v-897q0 -82 -82 -82h-70q-82 0 -82 82v41q-61 -67 -145 -107.5t-172 -40.5q-193 0 -312.5 122t-119.5 321v561q0 82 82 82h69q82 0 82 -82v-549q0 -108 68 -177t176 -69q75 0 150.5 51t121.5 121v623zM683 1313q32 -41 18 -71t-66 -30
h-38q-61 0 -100 48l-165 202q-33 40 -19 70.5t66 30.5h44q60 0 99 -49z" />
    <glyph glyph-name="uacute" unicode="&#xfa;" horiz-adv-x="1249" 
d="M872 979q0 82 82 82h70q82 0 82 -82v-897q0 -82 -82 -82h-70q-82 0 -82 82v41q-61 -67 -145 -107.5t-172 -40.5q-193 0 -312.5 122t-119.5 321v561q0 82 82 82h69q82 0 82 -82v-549q0 -108 68 -177t176 -69q75 0 150.5 51t121.5 121v623zM696 1514q39 49 100 49h44
q52 0 66 -30.5t-19 -70.5l-165 -202q-39 -48 -100 -48h-38q-52 0 -66 30t18 71z" />
    <glyph glyph-name="ucircumflex" unicode="&#xfb;" horiz-adv-x="1249" 
d="M872 979q0 82 82 82h70q82 0 82 -82v-897q0 -82 -82 -82h-70q-82 0 -82 82v41q-61 -67 -145 -107.5t-172 -40.5q-193 0 -312.5 122t-119.5 321v561q0 82 82 82h69q82 0 82 -82v-549q0 -108 68 -177t176 -69q75 0 150.5 51t121.5 121v623zM901 1313q35 -40 21 -70.5
t-67 -30.5h-35q-61 0 -100 46l-112 128l-111 -128q-39 -46 -101 -46h-35q-53 0 -67 30.5t21 70.5l173 204q39 46 101 46h39q61 0 100 -46z" />
    <glyph glyph-name="udieresis" unicode="&#xfc;" horiz-adv-x="1249" 
d="M872 979q0 82 82 82h70q82 0 82 -82v-897q0 -82 -82 -82h-70q-82 0 -82 82v41q-61 -67 -145 -107.5t-172 -40.5q-193 0 -312.5 122t-119.5 321v561q0 82 82 82h69q82 0 82 -82v-549q0 -108 68 -177t176 -69q75 0 150.5 51t121.5 121v623zM285 1372q0 57 39 96t96 39
t96 -39t39 -96t-39 -96t-96 -39t-96 39t-39 96zM662 1372q0 57 39 96t96 39t96 -39t39 -96t-39 -96t-96 -39t-96 39t-39 96z" />
    <glyph glyph-name="yacute" unicode="&#xfd;" horiz-adv-x="1081" 
d="M420 0l-364 967q-16 42 2.5 68t63.5 26h71q69 0 93 -66l253 -700l257 700q24 66 93 66h70q45 0 63.5 -26t2.5 -68l-519 -1378q-23 -64 -94 -64h-71q-45 0 -63.5 26t-2.5 68zM614 1514q39 49 100 49h44q52 0 66 -30.5t-19 -70.5l-165 -202q-39 -48 -100 -48h-38
q-52 0 -66 30t18 71z" />
    <glyph glyph-name="thorn" unicode="&#xfe;" horiz-adv-x="1343" 
d="M688 184q146 0 246 100t100 246t-100 246.5t-246 100.5q-102 0 -185.5 -53t-125.5 -140v-309q42 -87 125.5 -139t185.5 -52zM729 1085q154 0 279.5 -76t194.5 -202.5t69 -276.5t-69 -276.5t-194.5 -202.5t-279.5 -76q-212 0 -352 140v-508q0 -82 -82 -82h-70
q-82 0 -82 82v1806q0 82 82 82h70q82 0 82 -82v-467q139 139 352 139z" />
    <glyph glyph-name="ydieresis" unicode="&#xff;" horiz-adv-x="1081" 
d="M217 1372q0 57 39 96t96 39t96 -39t39 -96t-39 -96t-96 -39t-96 39t-39 96zM594 1372q0 57 39 96t96 39t96 -39t39 -96t-39 -96t-96 -39t-96 39t-39 96zM420 0l-364 967q-16 42 2.5 68t63.5 26h71q69 0 93 -66l253 -700l257 700q24 66 93 66h70q45 0 63.5 -26t2.5 -68
l-519 -1378q-23 -64 -94 -64h-71q-45 0 -63.5 26t-2.5 68z" />
    <glyph glyph-name="Amacron" unicode="&#x100;" horiz-adv-x="1409" 
d="M1333 94q15 -42 -2.5 -68t-62.5 -26h-91q-72 0 -94 67l-96 279h-565l-96 -279q-22 -67 -94 -67h-91q-45 0 -62.5 26t-2.5 68l469 1274q24 66 94 66h131q70 0 94 -66zM494 555h421l-210 614zM397 1706q0 82 82 82h451q82 0 82 -82v-16q0 -82 -82 -82h-451q-82 0 -82 82v16
z" />
    <glyph glyph-name="amacron" unicode="&#x101;" horiz-adv-x="1343" 
d="M655 184q102 0 186 52t126 139v309q-42 87 -126 140t-186 53q-146 0 -246 -100.5t-100 -246.5t100 -246t246 -100zM614 1085q214 0 353 -139v33q0 82 82 82h69q82 0 82 -82v-897q0 -82 -82 -82h-69q-82 0 -82 82v33q-140 -140 -353 -140q-154 0 -279 76t-194 202.5
t-69 276.5t69 276.5t194 202.5t279 76zM338 1374q0 82 82 82h450q82 0 82 -82v-16q0 -82 -82 -82h-450q-82 0 -82 82v16z" />
    <glyph glyph-name="Abreve" unicode="&#x102;" horiz-adv-x="1409" 
d="M1333 94q15 -42 -2.5 -68t-62.5 -26h-91q-72 0 -94 67l-96 279h-565l-96 -279q-22 -67 -94 -67h-91q-45 0 -62.5 26t-2.5 68l469 1274q24 66 94 66h131q70 0 94 -66zM494 555h421l-210 614zM705 1524q-114 0 -205 63.5t-125 168.5q-12 40 9.5 64.5t64.5 24.5h41
q34 0 53 -16.5t37 -53.5q19 -37 52 -58t73 -21t72.5 21t51.5 58q18 37 37 53.5t53 16.5h42q43 0 64 -25t8 -66q-34 -104 -124.5 -167t-203.5 -63z" />
    <glyph glyph-name="abreve" unicode="&#x103;" horiz-adv-x="1343" 
d="M655 184q102 0 186 52t126 139v309q-42 87 -126 140t-186 53q-146 0 -246 -100.5t-100 -246.5t100 -246t246 -100zM614 1085q214 0 353 -139v33q0 82 82 82h69q82 0 82 -82v-897q0 -82 -82 -82h-69q-82 0 -82 82v33q-140 -140 -353 -140q-154 0 -279 76t-194 202.5
t-69 276.5t69 276.5t194 202.5t279 76zM645 1192q-114 0 -205 63.5t-125 168.5q-12 40 9.5 64.5t64.5 24.5h42q34 0 52.5 -16t36.5 -54q19 -37 52 -58t73 -21t73 21t52 58q18 38 36.5 54t52.5 16h42q43 0 64.5 -25t8.5 -66q-34 -104 -125 -167t-204 -63z" />
    <glyph glyph-name="Aogonek" unicode="&#x104;" horiz-adv-x="1409" 
d="M1200 0h-47q-48 0 -70 67l-96 279h-565l-96 -279q-22 -67 -94 -67h-91q-45 0 -62.5 26t-2.5 68l469 1274q24 66 94 66h131q70 0 94 -66l481 -1302q22 -63 -30 -112q-109 -102 -109 -181q0 -42 28.5 -69.5t70.5 -27.5q20 0 38 6q40 13 57 -28l11 -27q24 -59 -51 -82
q-47 -14 -96 -14q-100 0 -168 61t-68 152q0 138 172 256zM494 555h421l-210 614z" />
    <glyph glyph-name="aogonek" unicode="&#x105;" horiz-adv-x="1343" 
d="M1032 0h-12q-53 0 -53 82v33q-140 -140 -353 -140q-154 0 -279 76t-194 202.5t-69 276.5t69 276.5t194 202.5t279 76q214 0 353 -139v33q0 82 82 82h69q82 0 82 -82v-919q0 -57 -47 -101q-115 -105 -115 -186q0 -42 28.5 -69.5t70.5 -27.5q19 0 39 6q39 11 53 -22l14 -33
q9 -17 1.5 -40t-30.5 -33q-52 -23 -118 -23q-100 0 -168 61t-68 152q0 138 172 256zM655 184q102 0 186 52t126 139v309q-42 87 -126 140t-186 53q-146 0 -246 -100.5t-100 -246.5t100 -246t246 -100z" />
    <glyph glyph-name="Cacute" unicode="&#x106;" horiz-adv-x="1415" 
d="M1296 214q49 -69 -18 -115q-191 -124 -432 -124q-159 0 -301 57.5t-243.5 156.5t-160.5 236.5t-59 291.5t59 291.5t160.5 236t243.5 156t301 57.5q230 0 415 -113q67 -43 21 -114l-31 -47q-43 -66 -113 -25q-147 86 -292 86q-143 0 -261.5 -69t-187.5 -190.5t-69 -268.5
t69 -268.5t187.5 -191t261.5 -69.5q154 0 304 93q68 44 114 -20zM864 1846q38 48 100 48h44q52 0 66 -30t-19 -70l-165 -203q-38 -47 -100 -47h-38q-52 0 -66.5 30t17.5 71z" />
    <glyph glyph-name="cacute" unicode="&#x107;" horiz-adv-x="1130" 
d="M655 -25q-165 0 -299 74t-209 201t-75 280t75 280t209 201t299 74q181 0 324 -89q67 -42 21 -112l-30 -46q-45 -66 -114 -22q-100 61 -201 61q-146 0 -246 -100.5t-100 -246.5t100 -246t246 -100q108 0 209 66q68 45 115 -13l35 -44q53 -67 -5 -110q-152 -108 -354 -108z
M674 1514q39 49 99 49h44q52 0 66 -30.5t-19 -70.5l-165 -202q-39 -48 -100 -48h-38q-52 0 -66 30t18 71z" />
    <glyph glyph-name="Ccircumflex" unicode="&#x108;" horiz-adv-x="1415" 
d="M1296 214q49 -69 -18 -115q-191 -124 -432 -124q-159 0 -301 57.5t-243.5 156.5t-160.5 236.5t-59 291.5t59 291.5t160.5 236t243.5 156t301 57.5q230 0 415 -113q67 -43 21 -114l-31 -47q-43 -66 -113 -25q-147 86 -292 86q-143 0 -261.5 -69t-187.5 -190.5t-69 -268.5
t69 -268.5t187.5 -191t261.5 -69.5q154 0 304 93q68 44 114 -20zM1079 1645q35 -40 21 -70.5t-67 -30.5h-35q-61 0 -100 46l-112 128l-111 -128q-39 -46 -101 -46h-34q-53 0 -67 30.5t21 70.5l173 203q39 46 100 46h39q61 0 100 -46z" />
    <glyph glyph-name="ccircumflex" unicode="&#x109;" horiz-adv-x="1130" 
d="M655 -25q-165 0 -299 74t-209 201t-75 280t75 280t209 201t299 74q181 0 324 -89q67 -42 21 -112l-30 -46q-45 -66 -114 -22q-100 61 -201 61q-146 0 -246 -100.5t-100 -246.5t100 -246t246 -100q108 0 209 66q68 45 115 -13l35 -44q53 -67 -5 -110q-152 -108 -354 -108z
M885 1313q35 -40 21 -70.5t-67 -30.5h-35q-62 0 -101 46l-111 128l-112 -128q-39 -46 -100 -46h-35q-53 0 -67 30.5t21 70.5l173 204q39 46 100 46h39q62 0 101 -46z" />
    <glyph glyph-name="Cdotaccent" unicode="&#x10a;" horiz-adv-x="1415" 
d="M1296 214q49 -69 -18 -115q-191 -124 -432 -124q-159 0 -301 57.5t-243.5 156.5t-160.5 236.5t-59 291.5t59 291.5t160.5 236t243.5 156t301 57.5q230 0 415 -113q67 -43 21 -114l-31 -47q-43 -66 -113 -25q-147 86 -292 86q-143 0 -261.5 -69t-187.5 -190.5t-69 -268.5
t69 -268.5t187.5 -191t261.5 -69.5q154 0 304 93q68 44 114 -20zM651 1704q0 57 39 96t96 39t96.5 -39t39.5 -96t-39.5 -96t-96.5 -39t-96 39t-39 96z" />
    <glyph glyph-name="cdotaccent" unicode="&#x10b;" horiz-adv-x="1130" 
d="M655 -25q-165 0 -299 74t-209 201t-75 280t75 280t209 201t299 74q181 0 324 -89q67 -42 21 -112l-30 -46q-45 -66 -114 -22q-100 61 -201 61q-146 0 -246 -100.5t-100 -246.5t100 -246t246 -100q108 0 209 66q68 45 115 -13l35 -44q53 -67 -5 -110q-152 -108 -354 -108z
M481 1372q0 57 39 96t96 39t96.5 -39t39.5 -96t-39.5 -96t-96.5 -39t-96 39t-39 96z" />
    <glyph glyph-name="Ccaron" unicode="&#x10c;" horiz-adv-x="1415" 
d="M1296 214q49 -69 -18 -115q-191 -124 -432 -124q-159 0 -301 57.5t-243.5 156.5t-160.5 236.5t-59 291.5t59 291.5t160.5 236t243.5 156t301 57.5q230 0 415 -113q67 -43 21 -114l-31 -47q-43 -66 -113 -25q-147 86 -292 86q-143 0 -261.5 -69t-187.5 -190.5t-69 -268.5
t69 -268.5t187.5 -191t261.5 -69.5q154 0 304 93q68 44 114 -20zM906 1590q-39 -46 -100 -46h-39q-61 0 -100 46l-173 204q-35 40 -21 70t67 30h34q62 0 101 -46l111 -128l112 128q39 46 100 46h35q53 0 67 -30t-21 -70z" />
    <glyph glyph-name="ccaron" unicode="&#x10d;" horiz-adv-x="1130" 
d="M655 -25q-165 0 -299 74t-209 201t-75 280t75 280t209 201t299 74q181 0 324 -89q67 -42 21 -112l-30 -46q-45 -66 -114 -22q-100 61 -201 61q-146 0 -246 -100.5t-100 -246.5t100 -246t246 -100q108 0 209 66q68 45 115 -13l35 -44q53 -67 -5 -110q-152 -108 -354 -108z
M714 1238q-39 -46 -101 -46h-39q-61 0 -100 46l-173 204q-35 40 -21 70t67 30h35q61 0 100 -46l112 -128l112 128q39 46 100 46h35q53 0 67 -30t-21 -70z" />
    <glyph glyph-name="Dcaron" unicode="&#x10e;" horiz-adv-x="1468" 
d="M668 1434q331 0 524.5 -192.5t193.5 -524.5t-193.5 -524.5t-524.5 -192.5h-422q-82 0 -82 82v1270q0 82 82 82h422zM406 1221v-1008h262q217 0 345 126.5t128 377.5t-128 377.5t-345 126.5h-262zM804 1590q-39 -46 -101 -46h-38q-62 0 -101 46l-173 204q-35 40 -21 70
t67 30h35q61 0 100 -46l112 -128l112 128q39 46 100 46h35q53 0 67 -30t-21 -70z" />
    <glyph glyph-name="dcaron" unicode="&#x10f;" horiz-adv-x="1662" 
d="M655 184q102 0 186 52t126 139v309q-42 87 -126 140t-186 53q-146 0 -246 -100.5t-100 -246.5t100 -246t246 -100zM614 1085q214 0 353 -139v467q0 82 82 82h69q82 0 82 -82v-1331q0 -82 -82 -82h-69q-82 0 -82 82v33q-140 -140 -353 -140q-154 0 -279 76t-194 202.5
t-69 276.5t69 276.5t194 202.5t279 76zM1333 1374q0 62 42.5 104t103.5 42t103 -42t42 -104q0 -30 -16 -67l-111 -240q-28 -61 -96 -61q-35 0 -45.5 27t8.5 69l61 135q-41 15 -66.5 52t-25.5 85z" />
    <glyph glyph-name="Dcroat" unicode="&#x110;" horiz-adv-x="1499" 
d="M698 1434q331 0 525 -192.5t194 -524.5t-194 -524.5t-525 -192.5h-422q-81 0 -81 82v547h-103q-82 0 -82 82v12q0 82 82 82h103v547q0 82 81 82h422zM436 629v-416h262q217 0 345 126.5t128 377.5t-128 377.5t-345 126.5h-262v-416h209q82 0 82 -82v-12q0 -82 -82 -82
h-209z" />
    <glyph glyph-name="dcroat" unicode="&#x111;" horiz-adv-x="1363" 
d="M637 1266q0 77 82 77h248v70q0 82 82 82h69q82 0 82 -82v-70h62q81 0 81 -81q0 -74 -81 -74h-62v-1106q0 -82 -82 -82h-69q-82 0 -82 82v33q-140 -140 -353 -140q-154 0 -279 76t-194 202.5t-69 276.5t69 276.5t194 202.5t279 76q214 0 353 -139v242h-248q-40 0 -61 20
t-21 58zM655 184q102 0 186 52t126 139v309q-42 87 -126 140t-186 53q-146 0 -246 -100.5t-100 -246.5t100 -246t246 -100z" />
    <glyph glyph-name="Emacron" unicode="&#x112;" horiz-adv-x="1167" 
d="M164 1352q0 82 82 82h708q82 0 82 -82v-45q0 -82 -82 -82h-548v-400h499q82 0 82 -82v-45q0 -82 -82 -82h-499v-407h567q82 0 82 -82v-45q0 -82 -82 -82h-727q-82 0 -82 82v1270zM295 1706q0 82 82 82h450q82 0 82 -82v-16q0 -82 -82 -82h-450q-82 0 -82 82v16z" />
    <glyph glyph-name="emacron" unicode="&#x113;" horiz-adv-x="1265" 
d="M310 455q20 -122 116 -200.5t227 -78.5q139 0 257 88q62 49 116 -1l40 -38q64 -61 1 -115q-170 -135 -408 -135q-172 0 -307 74.5t-207.5 200.5t-72.5 280q0 114 43.5 216.5t118.5 177t181.5 118t227.5 43.5q158 0 285 -72.5t196.5 -194t69.5 -267.5q0 -14 -1 -21
q-1 -37 -24 -56t-62 -19h-797zM643 885q-110 0 -200.5 -66.5t-123.5 -171.5h630q-28 105 -111 171.5t-195 66.5zM328 1374q0 82 82 82h450q82 0 82 -82v-16q0 -82 -82 -82h-450q-82 0 -82 82v16z" />
    <glyph glyph-name="Ebreve" unicode="&#x114;" horiz-adv-x="1167" 
d="M164 1352q0 82 82 82h708q82 0 82 -82v-45q0 -82 -82 -82h-548v-400h499q82 0 82 -82v-45q0 -82 -82 -82h-499v-407h567q82 0 82 -82v-45q0 -82 -82 -82h-727q-82 0 -82 82v1270zM600 1524q-114 0 -205 63.5t-125 168.5q-12 40 9.5 64.5t64.5 24.5h42q34 0 52.5 -16
t36.5 -54q19 -37 52 -58t73 -21t73 21t52 58q18 38 36.5 54t52.5 16h42q43 0 64.5 -25t8.5 -66q-34 -104 -125 -167t-204 -63z" />
    <glyph glyph-name="ebreve" unicode="&#x115;" horiz-adv-x="1265" 
d="M310 455q20 -122 116 -200.5t227 -78.5q139 0 257 88q62 49 116 -1l40 -38q64 -61 1 -115q-170 -135 -408 -135q-172 0 -307 74.5t-207.5 200.5t-72.5 280q0 114 43.5 216.5t118.5 177t181.5 118t227.5 43.5q158 0 285 -72.5t196.5 -194t69.5 -267.5q0 -14 -1 -21
q-1 -37 -24 -56t-62 -19h-797zM643 885q-110 0 -200.5 -66.5t-123.5 -171.5h630q-28 105 -111 171.5t-195 66.5zM633 1192q-114 0 -205 63.5t-125 168.5q-12 40 9.5 64.5t64.5 24.5h42q34 0 52.5 -16t36.5 -54q19 -37 52 -58t73 -21t73 21t52 58q18 38 36.5 54t52.5 16h42
q43 0 64.5 -25t8.5 -66q-34 -104 -125 -167t-204 -63z" />
    <glyph glyph-name="Edotaccent" unicode="&#x116;" horiz-adv-x="1167" 
d="M164 1352q0 82 82 82h708q82 0 82 -82v-45q0 -82 -82 -82h-548v-400h499q82 0 82 -82v-45q0 -82 -82 -82h-499v-407h567q82 0 82 -82v-45q0 -82 -82 -82h-727q-82 0 -82 82v1270zM475 1704q0 57 39 96t96 39t96 -39t39 -96t-39 -96t-96 -39t-96 39t-39 96z" />
    <glyph glyph-name="edotaccent" unicode="&#x117;" horiz-adv-x="1265" 
d="M310 455q20 -122 116 -200.5t227 -78.5q139 0 257 88q62 49 116 -1l40 -38q64 -61 1 -115q-170 -135 -408 -135q-172 0 -307 74.5t-207.5 200.5t-72.5 280q0 114 43.5 216.5t118.5 177t181.5 118t227.5 43.5q158 0 285 -72.5t196.5 -194t69.5 -267.5q0 -14 -1 -21
q-1 -37 -24 -56t-62 -19h-797zM643 885q-110 0 -200.5 -66.5t-123.5 -171.5h630q-28 105 -111 171.5t-195 66.5zM502 1372q0 57 39 96t96 39t96 -39t39 -96t-39 -96t-96 -39t-96 39t-39 96z" />
    <glyph glyph-name="Eogonek" unicode="&#x118;" horiz-adv-x="1167" 
d="M164 1352q0 82 82 82h708q82 0 82 -82v-45q0 -82 -82 -82h-548v-400h499q82 0 82 -82v-45q0 -82 -82 -82h-499v-407h567q82 0 82 -82v-45q0 -82 -82 -82h-100q-160 -136 -160 -227q0 -42 28 -69.5t70 -27.5q17 0 35 5q44 12 58 -23l14 -31q10 -26 -3 -48.5t-49 -33.5
q-47 -14 -96 -14q-100 0 -167.5 61t-67.5 152q0 134 168 256h-457q-82 0 -82 82v1270z" />
    <glyph glyph-name="eogonek" unicode="&#x119;" horiz-adv-x="1265" 
d="M310 455q20 -122 116 -200.5t227 -78.5q139 0 257 88q62 49 116 -1l40 -38q64 -61 1 -115q-134 -108 -321 -129q-136 -118 -136 -208q0 -42 28.5 -69.5t70.5 -27.5q16 0 34 5q45 12 59 -23l13 -31q10 -26 -3 -48.5t-48 -33.5q-47 -14 -96 -14q-100 0 -168 61t-68 152
q0 127 142 237q-226 27 -364 180.5t-138 368.5q0 114 43.5 216.5t118.5 177t181.5 118t227.5 43.5q158 0 285 -72.5t196.5 -194t69.5 -267.5q0 -14 -1 -21q-1 -37 -24 -56t-62 -19h-797zM643 885q-110 0 -200.5 -66.5t-123.5 -171.5h630q-28 105 -111 171.5t-195 66.5z" />
    <glyph glyph-name="Ecaron" unicode="&#x11a;" horiz-adv-x="1167" 
d="M164 1352q0 82 82 82h708q82 0 82 -82v-45q0 -82 -82 -82h-548v-400h499q82 0 82 -82v-45q0 -82 -82 -82h-499v-407h567q82 0 82 -82v-45q0 -82 -82 -82h-727q-82 0 -82 82v1270zM722 1590q-39 -46 -100 -46h-39q-62 0 -101 46l-173 204q-35 40 -21 70t67 30h35
q61 0 100 -46l112 -128l112 128q39 46 100 46h35q53 0 67 -30t-21 -70z" />
    <glyph glyph-name="ecaron" unicode="&#x11b;" horiz-adv-x="1265" 
d="M310 455q20 -122 116 -200.5t227 -78.5q139 0 257 88q62 49 116 -1l40 -38q64 -61 1 -115q-170 -135 -408 -135q-172 0 -307 74.5t-207.5 200.5t-72.5 280q0 114 43.5 216.5t118.5 177t181.5 118t227.5 43.5q158 0 285 -72.5t196.5 -194t69.5 -267.5q0 -14 -1 -21
q-1 -37 -24 -56t-62 -19h-797zM643 885q-110 0 -200.5 -66.5t-123.5 -171.5h630q-28 105 -111 171.5t-195 66.5zM757 1238q-39 -46 -101 -46h-39q-61 0 -100 46l-173 204q-35 40 -21 70t67 30h35q61 0 100 -46l112 -128l112 128q39 46 100 46h35q53 0 67 -30t-21 -70z" />
    <glyph glyph-name="Gcircumflex" unicode="&#x11c;" horiz-adv-x="1484" 
d="M846 1245q-143 0 -261.5 -69t-187.5 -190.5t-69 -268.5t69 -268.5t187.5 -191t261.5 -69.5q68 0 139 19.5t125 52.5v309h-266q-82 0 -82 82v45q0 82 82 82h426q82 0 82 -82v-479q0 -63 -48 -99q-202 -143 -458 -143q-159 0 -301 57.5t-243.5 156.5t-160.5 236.5
t-59 291.5t59 291.5t160.5 236t243.5 156t301 57.5q230 0 415 -113q67 -43 21 -114l-31 -47q-44 -66 -109 -27q-151 88 -296 88zM1079 1645q35 -40 21 -70.5t-67 -30.5h-35q-61 0 -100 46l-112 128l-111 -128q-39 -46 -101 -46h-34q-53 0 -67 30.5t21 70.5l173 203
q39 46 100 46h39q61 0 100 -46z" />
    <glyph glyph-name="gcircumflex" unicode="&#x11d;" horiz-adv-x="1343" 
d="M655 184q102 0 186 52t126 139v309q-42 87 -126 140t-186 53q-146 0 -246 -100.5t-100 -246.5t100 -246t246 -100zM1200 57q0 -246 -143 -389t-416 -143q-254 0 -435 157q-61 55 1 115l37 36q53 53 115 1q128 -108 280 -108q151 0 239.5 83t88.5 232v74
q-140 -140 -353 -140q-154 0 -279 76t-194 202.5t-69 276.5t69 276.5t194 202.5t279 76q214 0 353 -139v33q0 82 82 82h69q82 0 82 -82v-922zM948 1313q35 -40 21 -70.5t-67 -30.5h-35q-61 0 -100 46l-112 128l-111 -128q-39 -46 -101 -46h-34q-53 0 -67.5 30.5t20.5 70.5
l174 204q39 46 100 46h39q61 0 100 -46z" />
    <glyph glyph-name="Gbreve" unicode="&#x11e;" horiz-adv-x="1484" 
d="M846 1245q-143 0 -261.5 -69t-187.5 -190.5t-69 -268.5t69 -268.5t187.5 -191t261.5 -69.5q68 0 139 19.5t125 52.5v309h-266q-82 0 -82 82v45q0 82 82 82h426q82 0 82 -82v-479q0 -63 -48 -99q-202 -143 -458 -143q-159 0 -301 57.5t-243.5 156.5t-160.5 236.5
t-59 291.5t59 291.5t160.5 236t243.5 156t301 57.5q230 0 415 -113q67 -43 21 -114l-31 -47q-44 -66 -109 -27q-151 88 -296 88zM786 1524q-114 0 -204.5 63.5t-124.5 168.5q-12 40 9 64.5t64 24.5h42q34 0 53 -16.5t37 -53.5q19 -37 51.5 -58t72.5 -21t73 21t52 58
q18 38 36.5 54t52.5 16h42q43 0 64.5 -25t8.5 -66q-34 -104 -125 -167t-204 -63z" />
    <glyph glyph-name="gbreve" unicode="&#x11f;" horiz-adv-x="1343" 
d="M655 184q102 0 186 52t126 139v309q-42 87 -126 140t-186 53q-146 0 -246 -100.5t-100 -246.5t100 -246t246 -100zM1200 57q0 -246 -143 -389t-416 -143q-254 0 -435 157q-61 55 1 115l37 36q53 53 115 1q128 -108 280 -108q151 0 239.5 83t88.5 232v74
q-140 -140 -353 -140q-154 0 -279 76t-194 202.5t-69 276.5t69 276.5t194 202.5t279 76q214 0 353 -139v33q0 82 82 82h69q82 0 82 -82v-922zM645 1192q-114 0 -205 63.5t-125 168.5q-12 40 9.5 64.5t64.5 24.5h42q34 0 52.5 -16t36.5 -54q19 -37 52 -58t73 -21t73 21t52 58
q18 38 36.5 54t52.5 16h42q43 0 64.5 -25t8.5 -66q-34 -104 -125 -167t-204 -63z" />
    <glyph glyph-name="Gdotaccent" unicode="&#x120;" horiz-adv-x="1484" 
d="M846 1245q-143 0 -261.5 -69t-187.5 -190.5t-69 -268.5t69 -268.5t187.5 -191t261.5 -69.5q68 0 139 19.5t125 52.5v309h-266q-82 0 -82 82v45q0 82 82 82h426q82 0 82 -82v-479q0 -63 -48 -99q-202 -143 -458 -143q-159 0 -301 57.5t-243.5 156.5t-160.5 236.5
t-59 291.5t59 291.5t160.5 236t243.5 156t301 57.5q230 0 415 -113q67 -43 21 -114l-31 -47q-44 -66 -109 -27q-151 88 -296 88zM651 1704q0 57 39 96t96 39t96.5 -39t39.5 -96t-39.5 -96t-96.5 -39t-96 39t-39 96z" />
    <glyph glyph-name="gdotaccent" unicode="&#x121;" horiz-adv-x="1343" 
d="M655 184q102 0 186 52t126 139v309q-42 87 -126 140t-186 53q-146 0 -246 -100.5t-100 -246.5t100 -246t246 -100zM1200 57q0 -246 -143 -389t-416 -143q-254 0 -435 157q-61 55 1 115l37 36q53 53 115 1q128 -108 280 -108q151 0 239.5 83t88.5 232v74
q-140 -140 -353 -140q-154 0 -279 76t-194 202.5t-69 276.5t69 276.5t194 202.5t279 76q214 0 353 -139v33q0 82 82 82h69q82 0 82 -82v-922zM500 1372q0 57 39 96t96 39t96 -39t39 -96t-39 -96t-96 -39t-96 39t-39 96z" />
    <glyph glyph-name="Gcommaaccent" unicode="&#x122;" horiz-adv-x="1484" 
d="M846 1245q-143 0 -261.5 -69t-187.5 -190.5t-69 -268.5t69 -268.5t187.5 -191t261.5 -69.5q68 0 139 19.5t125 52.5v309h-266q-82 0 -82 82v45q0 82 82 82h426q82 0 82 -82v-479q0 -63 -48 -99q-202 -143 -458 -143q-159 0 -301 57.5t-243.5 156.5t-160.5 236.5
t-59 291.5t59 291.5t160.5 236t243.5 156t301 57.5q230 0 415 -113q67 -43 21 -114l-31 -47q-44 -66 -109 -27q-151 88 -296 88zM722 -481h-38q-47 0 -64 27t2 69l87 192q27 62 95 62h57q48 0 65 -27.5t-5 -69.5l-102 -195q-29 -58 -97 -58z" />
    <glyph glyph-name="gcommaaccent" unicode="&#x123;" horiz-adv-x="1343" 
d="M655 184q102 0 186 52t126 139v309q-42 87 -126 140t-186 53q-146 0 -246 -100.5t-100 -246.5t100 -246t246 -100zM1200 57q0 -246 -143 -389t-416 -143q-254 0 -435 157q-61 55 1 115l37 36q53 53 115 1q128 -108 280 -108q151 0 239.5 83t88.5 232v74
q-140 -140 -353 -140q-154 0 -279 76t-194 202.5t-69 276.5t69 276.5t194 202.5t279 76q214 0 353 -139v33q0 82 82 82h69q82 0 82 -82v-922zM761 1550h38q47 0 64 -27t-2 -69l-87 -192q-27 -62 -95 -62h-57q-48 0 -65 27.5t5 69.5l102 195q29 58 97 58z" />
    <glyph glyph-name="Hcircumflex" unicode="&#x124;" horiz-adv-x="1441" 
d="M1014 1645q35 -40 21 -70.5t-67 -30.5h-35q-61 0 -100 46l-112 128l-112 -128q-39 -46 -100 -46h-35q-53 0 -67 30.5t21 70.5l173 203q39 46 100 46h39q62 0 101 -46zM164 1352q0 82 82 82h78q82 0 82 -82v-527h630v527q0 82 82 82h78q82 0 82 -82v-1270q0 -82 -82 -82
h-78q-82 0 -82 82v534h-630v-534q0 -82 -82 -82h-78q-82 0 -82 82v1270z" />
    <glyph glyph-name="hcircumflex" unicode="&#x125;" horiz-adv-x="1249" 
d="M377 82q0 -82 -82 -82h-70q-82 0 -82 82v1331q0 82 82 82h70q82 0 82 -82v-475q60 67 144.5 107t172.5 40q193 0 312.5 -121.5t119.5 -320.5v-561q0 -82 -82 -82h-69q-82 0 -82 82v549q0 108 -68 177t-176 69q-75 0 -150.5 -51t-121.5 -121v-623zM553 1706q35 -40 21 -70
t-67 -30h-35q-61 0 -100 46l-112 128l-112 -128q-39 -46 -100 -46h-35q-53 0 -67 30t21 70l173 204q39 46 101 46h39q61 0 100 -46z" />
    <glyph glyph-name="Hbar" unicode="&#x126;" horiz-adv-x="1462" 
d="M174 1057h-41q-82 0 -82 82v12q0 82 82 82h41v119q0 82 82 82h78q82 0 82 -82v-119h631v119q0 82 81 82h78q82 0 82 -82v-119h41q82 0 82 -82v-12q0 -82 -82 -82h-41v-975q0 -82 -82 -82h-78q-81 0 -81 82v534h-631v-534q0 -82 -82 -82h-78q-82 0 -82 82v975zM1047 825
v232h-631v-232h631z" />
    <glyph glyph-name="hbar" unicode="&#x127;" horiz-adv-x="1269" 
d="M20 1266q0 77 82 77h62v70q0 82 82 82h69q82 0 82 -82v-70h248q82 0 82 -81q0 -35 -21 -54.5t-61 -19.5h-248v-250q60 66 145 106.5t173 40.5q193 0 312.5 -121.5t119.5 -320.5v-561q0 -82 -82 -82h-70q-82 0 -82 82v549q0 108 -67.5 177t-175.5 69q-75 0 -151 -51
t-122 -121v-623q0 -82 -82 -82h-69q-82 0 -82 82v1106h-62q-40 0 -61 20t-21 58z" />
    <glyph glyph-name="Itilde" unicode="&#x128;" horiz-adv-x="589" 
d="M334 1434q82 0 82 -82v-1270q0 -82 -82 -82h-78q-82 0 -82 82v1270q0 82 82 82h78zM309 1604q-76 41 -106 41q-19 0 -35 -14l-11.5 -11.5l-11 -11t-9.5 -9t-10 -8t-9.5 -5.5t-11 -5t-11 -2.5t-13 -0.5t-14.5 2l-44 9q-41 8 -57.5 35t-2.5 65q51 140 174 140q63 0 144 -47
q76 -41 106 -41q21 0 35 13l11.5 11.5l11 11t9.5 9t10 8t9.5 5.5t11 5t11 2.5t13 0.5t14.5 -2l44 -9q41 -8 57.5 -34.5t2.5 -64.5q-52 -141 -174 -141q-61 0 -144 48z" />
    <glyph glyph-name="itilde" unicode="&#x129;" horiz-adv-x="540" 
d="M154 979q0 82 82 82h69q82 0 82 -82v-897q0 -82 -82 -82h-69q-82 0 -82 82v897zM285 1272q-76 41 -107 41q-19 0 -35 -14l-11.5 -11.5l-11 -11t-9.5 -9t-10 -8t-9.5 -5.5t-11 -5t-11 -2.5t-13 -0.5t-14.5 2l-44 9q-40 8 -56.5 35t-2.5 65q51 140 174 140q62 0 143 -47
q76 -41 106 -41q21 0 35 13l11.5 11.5l11 11t9.5 9t10.5 8.5t10 6t11 5t11 2.5t13 0.5t14.5 -2l44 -10q40 -8 56.5 -34.5t2.5 -64.5q-51 -140 -174 -140q-62 0 -143 47z" />
    <glyph glyph-name="Imacron" unicode="&#x12a;" horiz-adv-x="589" 
d="M334 1434q82 0 82 -82v-1270q0 -82 -82 -82h-78q-82 0 -82 82v1270q0 82 82 82h78zM-12 1706q0 82 82 82h450q82 0 82 -82v-16q0 -82 -82 -82h-450q-82 0 -82 82v16z" />
    <glyph glyph-name="imacron" unicode="&#x12b;" horiz-adv-x="540" 
d="M154 979q0 82 82 82h69q82 0 82 -82v-897q0 -82 -82 -82h-69q-82 0 -82 82v897zM-37 1374q0 82 82 82h451q82 0 82 -82v-16q0 -82 -82 -82h-451q-82 0 -82 82v16z" />
    <glyph glyph-name="Ibreve" unicode="&#x12c;" horiz-adv-x="589" 
d="M334 1434q82 0 82 -82v-1270q0 -82 -82 -82h-78q-82 0 -82 82v1270q0 82 82 82h78zM295 1524q-114 0 -205 63.5t-125 168.5q-12 40 9.5 64.5t64.5 24.5h42q34 0 52.5 -16t36.5 -54q19 -37 52 -58t73 -21t73 21t52 58q18 38 36.5 54t52.5 16h42q43 0 64.5 -25t8.5 -66
q-34 -104 -125 -167t-204 -63z" />
    <glyph glyph-name="ibreve" unicode="&#x12d;" horiz-adv-x="540" 
d="M154 979q0 82 82 82h69q82 0 82 -82v-897q0 -82 -82 -82h-69q-82 0 -82 82v897zM270 1192q-114 0 -204.5 63.5t-124.5 168.5q-12 40 9 64.5t64 24.5h42q34 0 52.5 -16t36.5 -54q19 -37 52 -58t73 -21t73 21t52 58q18 38 36.5 54t52.5 16h42q43 0 64.5 -25t8.5 -66
q-34 -104 -125 -167t-204 -63z" />
    <glyph glyph-name="Iogonek" unicode="&#x12e;" horiz-adv-x="589" 
d="M248 0h-17q-26 0 -41.5 21.5t-15.5 60.5v1270q0 82 82 82h78q82 0 82 -82v-1292q0 -57 -47 -101q-115 -105 -115 -186q0 -42 28 -69.5t70 -27.5q16 0 34 5q23 6 37 0.5t23 -26.5l13 -28q12 -25 -1.5 -48t-49.5 -34q-47 -14 -97 -14q-100 0 -167.5 61t-67.5 152
q0 138 172 256z" />
    <glyph glyph-name="iogonek" unicode="&#x12f;" horiz-adv-x="540" 
d="M125 1350q0 62 41.5 103.5t103.5 41.5t104 -42t42 -103q0 -62 -42 -104t-104 -42q-61 0 -103 42t-42 104zM219 0h-16q-19 0 -34 22t-15 60v897q0 82 82 82h69q82 0 82 -82v-919q0 -57 -47 -101q-115 -105 -115 -186q0 -42 28.5 -69.5t70.5 -27.5q15 0 33 5q23 6 37.5 0.5
t23.5 -26.5l12 -28q12 -25 -1.5 -48t-49.5 -34q-47 -14 -96 -14q-100 0 -168 61t-68 152q0 138 172 256z" />
    <glyph glyph-name="Idotaccent" unicode="&#x130;" horiz-adv-x="589" 
d="M334 1434q82 0 82 -82v-1270q0 -82 -82 -82h-78q-82 0 -82 82v1270q0 82 82 82h78zM160 1704q0 57 39 96t96 39t96 -39t39 -96t-39 -96t-96 -39t-96 39t-39 96z" />
    <glyph glyph-name="dotlessi" unicode="&#x131;" horiz-adv-x="540" 
d="M154 979q0 82 82 82h69q82 0 82 -82v-897q0 -82 -82 -82h-69q-82 0 -82 82v897z" />
    <glyph glyph-name="IJ" unicode="&#x132;" horiz-adv-x="1495" 
d="M334 1434q82 0 82 -82v-1270q0 -82 -82 -82h-78q-82 0 -82 82v1270q0 82 82 82h78zM1100 1352q0 82 82 82h78q81 0 81 -82v-895q0 -249 -116 -365.5t-348 -116.5q-112 0 -215 37q-36 12 -47 41.5t3 65.5l20 50q27 72 105 44q72 -25 129 -25q113 0 170.5 63.5t57.5 205.5
v895z" />
    <glyph glyph-name="ij" unicode="&#x133;" horiz-adv-x="1081" 
d="M154 979q0 82 82 82h69q82 0 82 -82v-897q0 -82 -82 -82h-69q-82 0 -82 82v897zM125 1350q0 62 41.5 103.5t103.5 41.5t104 -42t42 -103q0 -62 -42 -104t-104 -42q-61 0 -103 42t-42 104zM694 979q0 82 82 82h70q82 0 82 -82v-1085q0 -198 -81 -283.5t-265 -85.5h-2
q-32 0 -56 23.5t-24 60.5v39q0 82 53 82q74 0 107.5 35.5t33.5 123.5v1090zM666 1350q0 62 42 103.5t103 41.5t103 -41.5t42 -103.5t-42 -104t-103 -42t-103 42t-42 104z" />
    <glyph glyph-name="Jcircumflex" unicode="&#x134;" horiz-adv-x="946" 
d="M551 1352q0 82 82 82h78q82 0 82 -82v-895q0 -249 -116.5 -365.5t-348.5 -116.5q-112 0 -215 37q-36 12 -46.5 41.5t3.5 65.5l19 50q27 72 106 44q72 -25 129 -25q113 0 170 63.5t57 205.5v895zM965 1645q35 -40 21 -70.5t-67 -30.5h-35q-62 0 -101 46l-111 128
l-112 -128q-39 -46 -100 -46h-35q-53 0 -67 30.5t21 70.5l173 203q39 46 100 46h39q62 0 101 -46z" />
    <glyph glyph-name="jcircumflex" unicode="&#x135;" horiz-adv-x="540" 
d="M154 979q0 82 82 82h69q82 0 82 -82v-1085q0 -198 -81 -283.5t-265 -85.5h-2q-32 0 -56 23.5t-24 60.5v39q0 82 53 82q74 0 108 35.5t34 123.5v1090zM563 1313q35 -40 21 -70.5t-67 -30.5h-35q-61 0 -100 46l-112 128l-111 -128q-39 -46 -101 -46h-34q-53 0 -67.5 30.5
t20.5 70.5l174 204q39 46 100 46h39q61 0 100 -46z" />
    <glyph glyph-name="Kcommaaccent" unicode="&#x136;" horiz-adv-x="1245" 
d="M406 825h87l371 555q36 54 99 54h91q50 0 65.5 -29.5t-12.5 -70.5l-411 -609l483 -625q31 -41 16.5 -70.5t-66.5 -29.5h-94q-61 0 -100 49l-435 567h-94v-534q0 -82 -82 -82h-78q-82 0 -82 82v1270q0 82 82 82h78q82 0 82 -82v-527zM556 -481h-38q-47 0 -64 27t2 69
l87 192q27 62 95 62h57q48 0 65 -27.5t-5 -69.5l-102 -195q-29 -58 -97 -58z" />
    <glyph glyph-name="kcommaaccent" unicode="&#x137;" horiz-adv-x="1064" 
d="M477 489h-100v-407q0 -82 -82 -82h-70q-82 0 -82 82v1331q0 82 82 82h70q82 0 82 -82v-723h103l219 319q35 52 100 52h88q51 0 66 -29t-15 -70l-266 -372l326 -491q28 -42 13 -70.5t-65 -28.5h-84q-63 0 -98 53zM437 -481h-38q-47 0 -64 27t2 69l87 192q27 62 95 62h58
q47 0 64 -27.5t-5 -69.5l-101 -195q-29 -58 -98 -58z" />
    <glyph glyph-name="kgreenlandic" unicode="&#x138;" horiz-adv-x="1064" 
d="M477 489h-100v-407q0 -82 -82 -82h-70q-82 0 -82 82v897q0 82 82 82h70q82 0 82 -82v-289h103l219 319q35 52 100 52h88q51 0 66 -29t-15 -70l-266 -372l326 -491q28 -42 13 -70.5t-65 -28.5h-84q-63 0 -98 53z" />
    <glyph glyph-name="Lacute" unicode="&#x139;" horiz-adv-x="1054" 
d="M164 1352q0 82 82 82h78q82 0 82 -82v-1143h526q82 0 82 -82v-45q0 -82 -82 -82h-686q-82 0 -82 82v1270zM404 1846q38 48 100 48h44q52 0 66 -30t-19 -70l-165 -203q-38 -47 -100 -47h-38q-52 0 -66 30t18 71z" />
    <glyph glyph-name="lacute" unicode="&#x13a;" horiz-adv-x="540" 
d="M154 1413q0 82 82 82h69q82 0 82 -82v-1331q0 -82 -82 -82h-69q-82 0 -82 82v1331zM343 1908q38 48 99 48h44q52 0 66.5 -30t-18.5 -71l-165 -202q-38 -47 -101 -47h-38q-52 0 -66 30t18 70z" />
    <glyph glyph-name="Lcommaaccent" unicode="&#x13b;" horiz-adv-x="1054" 
d="M164 1352q0 82 82 82h78q82 0 82 -82v-1143h526q82 0 82 -82v-45q0 -82 -82 -82h-686q-82 0 -82 82v1270zM495 -481h-38q-47 0 -64.5 27t1.5 69l87 192q27 62 96 62h57q47 0 64 -27.5t-5 -69.5l-101 -195q-29 -58 -97 -58z" />
    <glyph glyph-name="lcommaaccent" unicode="&#x13c;" horiz-adv-x="540" 
d="M154 1413q0 82 82 82h69q82 0 82 -82v-1331q0 -82 -82 -82h-69q-82 0 -82 82v1331zM163 -481h-38q-47 0 -64.5 27t1.5 69l88 192q27 62 95 62h57q47 0 64 -27.5t-5 -69.5l-101 -195q-29 -58 -97 -58z" />
    <glyph glyph-name="Lcaron" unicode="&#x13d;" horiz-adv-x="1054" 
d="M164 1352q0 82 82 82h78q82 0 82 -82v-1143h526q82 0 82 -82v-45q0 -82 -82 -82h-686q-82 0 -82 82v1270zM643 1313q0 61 41.5 103t103.5 42t104 -42t42 -103q0 -31 -16 -68l-111 -239q-28 -62 -96 -62q-35 0 -45.5 27t8.5 69l61 136q-41 15 -66.5 52t-25.5 85z" />
    <glyph glyph-name="lcaron" unicode="&#x13e;" horiz-adv-x="849" 
d="M154 1413q0 82 82 82h69q82 0 82 -82v-1331q0 -82 -82 -82h-69q-82 0 -82 82v1331zM520 1374q0 62 42 104t104 42q61 0 103 -42t42 -104q0 -30 -16 -67l-111 -240q-28 -61 -96 -61q-35 0 -45.5 27t8.5 69l61 135q-41 15 -66.5 52t-25.5 85z" />
    <glyph glyph-name="Ldot" unicode="&#x13f;" horiz-adv-x="1054" 
d="M164 1352q0 82 82 82h78q82 0 82 -82v-1143h526q82 0 82 -82v-45q0 -82 -82 -82h-686q-82 0 -82 82v1270zM616 770q0 57 39.5 96t96.5 39t96 -39t39 -96t-39 -96t-96 -39t-96.5 39t-39.5 96z" />
    <glyph glyph-name="ldot" unicode="&#x140;" horiz-adv-x="845" 
d="M154 1413q0 82 82 82h69q82 0 82 -82v-1331q0 -82 -82 -82h-69q-82 0 -82 82v1331zM526 770q0 57 39.5 96t96.5 39t96 -39t39 -96t-39 -96t-96 -39t-96.5 39t-39.5 96z" />
    <glyph glyph-name="Lslash" unicode="&#x141;" horiz-adv-x="1085" 
d="M195 541l-47 -24q-42 -22 -69.5 -4.5t-27.5 64.5v16q0 65 60 97l84 43v619q0 82 81 82h78q82 0 82 -82v-495l259 133q42 22 70 5t28 -64v-17q0 -65 -60 -97l-297 -152v-456h527q81 0 81 -82v-45q0 -82 -81 -82h-687q-81 0 -81 82v459z" />
    <glyph glyph-name="lslash" unicode="&#x142;" horiz-adv-x="602" 
d="M418 749v-667q0 -82 -82 -82h-70q-82 0 -82 82v549l-66 -34q-42 -22 -70 -4.5t-28 64.5v1q0 68 60 97l104 52v606q0 82 82 82h70q82 0 82 -82v-488l66 33q42 22 70 5t28 -64v-1q0 -67 -60 -96z" />
    <glyph glyph-name="Nacute" unicode="&#x143;" horiz-adv-x="1441" 
d="M164 1352q0 82 82 82h87q64 0 99 -55l612 -961v934q0 82 82 82h70q82 0 82 -82v-1270q0 -82 -82 -82h-87q-65 0 -99 54l-613 962v-934q0 -82 -82 -82h-69q-82 0 -82 82v1270zM790 1846q38 48 99 48h44q52 0 66 -30t-19 -70l-165 -203q-38 -47 -100 -47h-38q-52 0 -66 30
t18 71z" />
    <glyph glyph-name="nacute" unicode="&#x144;" horiz-adv-x="1249" 
d="M377 82q0 -82 -82 -82h-70q-82 0 -82 82v897q0 82 82 82h70q82 0 82 -82v-41q60 67 144.5 107t172.5 40q193 0 312.5 -121.5t119.5 -320.5v-561q0 -82 -82 -82h-69q-82 0 -82 82v549q0 108 -68 177t-176 69q-75 0 -150.5 -51t-121.5 -121v-623zM705 1514q39 49 99 49h44
q52 0 66 -30.5t-19 -70.5l-165 -202q-39 -48 -100 -48h-38q-52 0 -66 30t18 71z" />
    <glyph glyph-name="Ncommaaccent" unicode="&#x145;" horiz-adv-x="1441" 
d="M164 1352q0 82 82 82h87q64 0 99 -55l612 -961v934q0 82 82 82h70q82 0 82 -82v-1270q0 -82 -82 -82h-87q-65 0 -99 54l-613 962v-934q0 -82 -82 -82h-69q-82 0 -82 82v1270zM634 -481h-38q-47 0 -64 27t2 69l87 192q27 62 95 62h57q48 0 65 -27.5t-5 -69.5l-102 -195
q-29 -58 -97 -58z" />
    <glyph glyph-name="ncommaaccent" unicode="&#x146;" horiz-adv-x="1249" 
d="M377 82q0 -82 -82 -82h-70q-82 0 -82 82v897q0 82 82 82h70q82 0 82 -82v-41q60 67 144.5 107t172.5 40q193 0 312.5 -121.5t119.5 -320.5v-561q0 -82 -82 -82h-69q-82 0 -82 82v549q0 108 -68 177t-176 69q-75 0 -150.5 -51t-121.5 -121v-623zM540 -481h-38
q-47 0 -64.5 27t1.5 69l87 192q27 62 96 62h57q47 0 64 -27.5t-5 -69.5l-101 -195q-29 -58 -97 -58z" />
    <glyph glyph-name="Ncaron" unicode="&#x147;" horiz-adv-x="1441" 
d="M841 1590q-39 -46 -101 -46h-39q-61 0 -100 46l-173 204q-35 40 -21 70t67 30h35q61 0 100 -46l112 -128l112 128q39 46 100 46h35q53 0 67 -30t-21 -70zM164 1352q0 82 82 82h87q64 0 99 -55l612 -961v934q0 82 82 82h70q82 0 82 -82v-1270q0 -82 -82 -82h-87
q-65 0 -99 54l-613 962v-934q0 -82 -82 -82h-69q-82 0 -82 82v1270z" />
    <glyph glyph-name="ncaron" unicode="&#x148;" horiz-adv-x="1249" 
d="M377 82q0 -82 -82 -82h-70q-82 0 -82 82v897q0 82 82 82h70q82 0 82 -82v-41q60 67 144.5 107t172.5 40q193 0 312.5 -121.5t119.5 -320.5v-561q0 -82 -82 -82h-69q-82 0 -82 82v549q0 108 -68 177t-176 69q-75 0 -150.5 -51t-121.5 -121v-623zM720 1238
q-39 -46 -100 -46h-39q-62 0 -101 46l-173 204q-35 40 -21 70t67 30h35q61 0 100 -46l112 -128l112 128q39 46 100 46h35q53 0 67 -30t-21 -70z" />
    <glyph glyph-name="napostrophe" unicode="&#x149;" horiz-adv-x="1454" 
d="M582 82q0 -82 -82 -82h-70q-82 0 -82 82v897q0 82 82 82h70q82 0 82 -82v-41q60 67 144.5 107t172.5 40q193 0 312.5 -121.5t119.5 -320.5v-561q0 -82 -82 -82h-69q-82 0 -82 82v549q0 108 -68 177t-176 69q-75 0 -150.5 -51t-121.5 -121v-623zM63 1374q0 62 42.5 104
t103.5 42t103 -42t42 -104q0 -30 -16 -67l-111 -240q-28 -61 -96 -61q-35 0 -45.5 27t8.5 69l62 135q-41 16 -67 52.5t-26 84.5z" />
    <glyph glyph-name="Eng" unicode="&#x14a;" horiz-adv-x="1441" 
d="M1044 0l-647 1016v-934q0 -82 -82 -82h-69q-82 0 -82 82v1270q0 82 82 82h87q64 0 99 -55l612 -961v934q0 82 82 82h70q82 0 82 -82v-1452q0 -195 -97 -285t-304 -90q-24 0 -35 1q-38 1 -58 23.5t-20 61.5v39q0 84 46 81q15 -1 46 -1q103 0 145.5 40.5t42.5 131.5v98z
" />
    <glyph glyph-name="eng" unicode="&#x14b;" horiz-adv-x="1249" 
d="M893 631q0 108 -68 177t-176 69q-75 0 -150.5 -51t-121.5 -121v-623q0 -82 -82 -82h-70q-82 0 -82 82v897q0 82 82 82h70q82 0 82 -82v-41q60 67 144.5 107t172.5 40q193 0 312.5 -121.5t119.5 -320.5v-743q0 -195 -97 -285t-304 -90q-24 0 -35 1q-38 1 -58 23.5
t-20 61.5v39q0 40 12 61t34 20q16 -1 47 -1q103 0 145.5 40.5t42.5 131.5v729z" />
    <glyph glyph-name="Omacron" unicode="&#x14c;" horiz-adv-x="1691" 
d="M846 188q143 0 261.5 69.5t187.5 191t69 268.5t-69 268.5t-187.5 190.5t-261.5 69t-261.5 -69t-187.5 -190.5t-69 -268.5t69 -268.5t187.5 -191t261.5 -69.5zM846 1458q159 0 301 -57.5t243.5 -156t160.5 -236t59 -291.5t-59 -291.5t-160.5 -236.5t-243.5 -156.5
t-301 -57.5t-301 57.5t-243.5 156.5t-160.5 236.5t-59 291.5t59 291.5t160.5 236t243.5 156t301 57.5zM539 1706q0 82 82 82h450q82 0 82 -82v-16q0 -82 -82 -82h-450q-82 0 -82 82v16z" />
    <glyph glyph-name="omacron" unicode="&#x14d;" horiz-adv-x="1310" 
d="M348 1374q0 82 82 82h451q82 0 82 -82v-16q0 -82 -82 -82h-451q-82 0 -82 82v16zM655 184q146 0 246 100t100 246t-100 246.5t-246 100.5t-246 -100.5t-100 -246.5t100 -246t246 -100zM655 1085q124 0 233 -43.5t185.5 -118t121 -177t44.5 -216.5t-44.5 -216.5t-121 -177
t-185.5 -118t-233 -43.5q-165 0 -299 74t-209 201t-75 280t75 280t209 201t299 74z" />
    <glyph glyph-name="Obreve" unicode="&#x14e;" horiz-adv-x="1691" 
d="M846 1524q-114 0 -205 63.5t-125 168.5q-12 40 9.5 64.5t64.5 24.5h42q34 0 52.5 -16t36.5 -54q19 -37 52 -58t73 -21t73 21t52 58q18 38 36.5 54t52.5 16h42q43 0 64.5 -25t8.5 -66q-34 -104 -125 -167t-204 -63zM846 188q143 0 261.5 69.5t187.5 191t69 268.5
t-69 268.5t-187.5 190.5t-261.5 69t-261.5 -69t-187.5 -190.5t-69 -268.5t69 -268.5t187.5 -191t261.5 -69.5zM846 1458q159 0 301 -57.5t243.5 -156t160.5 -236t59 -291.5t-59 -291.5t-160.5 -236.5t-243.5 -156.5t-301 -57.5t-301 57.5t-243.5 156.5t-160.5 236.5
t-59 291.5t59 291.5t160.5 236t243.5 156t301 57.5z" />
    <glyph glyph-name="obreve" unicode="&#x14f;" horiz-adv-x="1310" 
d="M655 1192q-114 0 -204.5 63.5t-124.5 168.5q-12 40 9 64.5t64 24.5h42q34 0 52.5 -16t36.5 -54q19 -37 52 -58t73 -21t73 21t52 58q18 38 36.5 54t52.5 16h42q43 0 64.5 -25t8.5 -66q-34 -104 -125 -167t-204 -63zM655 184q146 0 246 100t100 246t-100 246.5t-246 100.5
t-246 -100.5t-100 -246.5t100 -246t246 -100zM655 1085q124 0 233 -43.5t185.5 -118t121 -177t44.5 -216.5t-44.5 -216.5t-121 -177t-185.5 -118t-233 -43.5q-165 0 -299 74t-209 201t-75 280t75 280t209 201t299 74z" />
    <glyph glyph-name="Ohungarumlaut" unicode="&#x150;" horiz-adv-x="1691" 
d="M846 188q143 0 261.5 69.5t187.5 191t69 268.5t-69 268.5t-187.5 190.5t-261.5 69t-261.5 -69t-187.5 -190.5t-69 -268.5t69 -268.5t187.5 -191t261.5 -69.5zM846 1458q159 0 301 -57.5t243.5 -156t160.5 -236t59 -291.5t-59 -291.5t-160.5 -236.5t-243.5 -156.5
t-301 -57.5t-301 57.5t-243.5 156.5t-160.5 236.5t-59 291.5t59 291.5t160.5 236t243.5 156t301 57.5zM774 1846q38 48 99 48h45q52 0 66 -30t-19 -70l-165 -203q-38 -47 -101 -47h-37q-52 0 -66.5 30t17.5 71zM1112 1846q38 48 99 48h44q52 0 66.5 -30t-18.5 -70l-165 -203
q-38 -47 -101 -47h-38q-52 0 -66 30t18 71z" />
    <glyph glyph-name="ohungarumlaut" unicode="&#x151;" horiz-adv-x="1310" 
d="M655 184q146 0 246 100t100 246t-100 246.5t-246 100.5t-246 -100.5t-100 -246.5t100 -246t246 -100zM655 1085q124 0 233 -43.5t185.5 -118t121 -177t44.5 -216.5t-44.5 -216.5t-121 -177t-185.5 -118t-233 -43.5q-165 0 -299 74t-209 201t-75 280t75 280t209 201
t299 74zM561 1514q39 49 99 49h45q52 0 66 -30.5t-19 -70.5l-165 -202q-39 -48 -101 -48h-37q-52 0 -66.5 30t17.5 71zM899 1514q39 49 99 49h44q52 0 66.5 -30.5t-18.5 -70.5l-165 -202q-39 -48 -101 -48h-38q-52 0 -66 30t18 71z" />
    <glyph glyph-name="OE" unicode="&#x152;" horiz-adv-x="1849" 
d="M866 213v1008h-20q-144 0 -262.5 -65.5t-187 -181.5t-68.5 -257t68.5 -257t187 -181.5t262.5 -65.5h20zM846 0q-210 0 -385.5 94t-277 258.5t-101.5 364.5t101.5 364.5t277 258.5t385.5 94h790q82 0 82 -82v-45q0 -82 -82 -82h-528v-400h479q82 0 82 -82v-45
q0 -82 -82 -82h-479v-407h547q82 0 82 -82v-45q0 -82 -82 -82h-809z" />
    <glyph glyph-name="oe" unicode="&#x153;" horiz-adv-x="2197" 
d="M655 1085q143 0 266 -63t199 -170q72 104 194 168.5t261 64.5q158 0 285 -72.5t196.5 -194t69.5 -267.5q0 -14 -1 -21q-1 -37 -24 -56t-62 -19h-798q20 -122 117 -200.5t227 -78.5q139 0 257 88q62 49 116 -1l40 -38q64 -61 1 -115q-170 -135 -408 -135q-150 0 -276 64
t-197 168q-76 -107 -198 -169.5t-265 -62.5q-165 0 -299 74t-209 201t-75 280t75 280t209 201t299 74zM655 184q146 0 246 100t100 246t-100 246.5t-246 100.5t-246 -100.5t-100 -246.5t100 -246t246 -100zM1575 885q-110 0 -201 -67t-123 -171h629q-29 104 -111.5 171
t-193.5 67z" />
    <glyph glyph-name="Racute" unicode="&#x154;" horiz-adv-x="1243" 
d="M647 1434q230 0 363 -124t133 -333q0 -170 -90 -286t-252 -154l302 -438q29 -41 14 -70t-66 -29h-82q-65 0 -100 52l-321 468h-142v-438q0 -82 -82 -82h-78q-82 0 -82 82v1270q0 82 82 82h401zM406 1225v-496h231q126 0 193 66t67 182t-67 182t-193 66h-231zM680 1846
q38 48 99 48h44q52 0 66 -30t-19 -70l-164 -203q-38 -47 -101 -47h-38q-52 0 -66 30t18 71z" />
    <glyph glyph-name="racute" unicode="&#x155;" horiz-adv-x="829" 
d="M657 877q-84 0 -156.5 -52.5t-123.5 -144.5v-598q0 -82 -82 -82h-70q-82 0 -82 82v897q0 82 82 82h70q82 0 82 -82v-53q135 159 311 159q17 0 26 -1q35 -4 51 -29t13 -64l-4 -48q-4 -40 -27 -55t-66 -12q-8 1 -24 1zM479 1514q39 49 100 49h44q52 0 66 -30.5t-19 -70.5
l-165 -202q-39 -48 -101 -48h-37q-52 0 -66.5 30t17.5 71z" />
    <glyph glyph-name="Rcommaaccent" unicode="&#x156;" horiz-adv-x="1243" 
d="M647 1434q230 0 363 -124t133 -333q0 -170 -90 -286t-252 -154l302 -438q29 -41 14 -70t-66 -29h-82q-65 0 -100 52l-321 468h-142v-438q0 -82 -82 -82h-78q-82 0 -82 82v1270q0 82 82 82h401zM406 1225v-496h231q126 0 193 66t67 182t-67 182t-193 66h-231zM515 -481
h-38q-47 0 -64 27t2 69l87 192q27 62 95 62h57q48 0 65 -27.5t-5 -69.5l-102 -195q-29 -58 -97 -58z" />
    <glyph glyph-name="rcommaaccent" unicode="&#x157;" horiz-adv-x="829" 
d="M657 877q-84 0 -156.5 -52.5t-123.5 -144.5v-598q0 -82 -82 -82h-70q-82 0 -82 82v897q0 82 82 82h70q82 0 82 -82v-53q135 159 311 159q17 0 26 -1q35 -4 51 -29t13 -64l-4 -48q-4 -40 -27 -55t-66 -12q-8 1 -24 1zM153 -481h-38q-47 0 -64.5 27t1.5 69l87 192
q27 62 95 62h58q47 0 64 -27.5t-5 -69.5l-101 -195q-29 -58 -97 -58z" />
    <glyph glyph-name="Rcaron" unicode="&#x158;" horiz-adv-x="1243" 
d="M647 1434q230 0 363 -124t133 -333q0 -170 -90 -286t-252 -154l302 -438q29 -41 14 -70t-66 -29h-82q-65 0 -100 52l-321 468h-142v-438q0 -82 -82 -82h-78q-82 0 -82 82v1270q0 82 82 82h401zM406 1225v-496h231q126 0 193 66t67 182t-67 182t-193 66h-231zM722 1590
q-39 -46 -100 -46h-39q-62 0 -101 46l-173 204q-35 40 -21 70t67 30h35q61 0 100 -46l112 -128l112 128q39 46 100 46h35q53 0 67 -30t-21 -70z" />
    <glyph glyph-name="rcaron" unicode="&#x159;" horiz-adv-x="829" 
d="M657 877q-84 0 -156.5 -52.5t-123.5 -144.5v-598q0 -82 -82 -82h-70q-82 0 -82 82v897q0 82 82 82h70q82 0 82 -82v-53q135 159 311 159q17 0 26 -1q35 -4 51 -29t13 -64l-4 -48q-4 -40 -27 -55t-66 -12q-8 1 -24 1zM536 1238q-39 -46 -101 -46h-39q-61 0 -100 46
l-173 204q-35 40 -21 70t67 30h35q61 0 100 -46l112 -128l111 128q39 46 101 46h35q53 0 67 -30t-21 -70z" />
    <glyph glyph-name="Sacute" unicode="&#x15a;" horiz-adv-x="1216" 
d="M196 310q53 57 115 3q144 -125 297 -125q126 0 203.5 55.5t77.5 149.5q0 89 -70 150.5t-244 97.5q-223 47 -333.5 154t-110.5 266q0 178 130 287.5t337 109.5q237 0 403 -129q63 -50 9 -115l-40 -48q-50 -61 -115 -10q-123 89 -247 89q-101 0 -166 -46t-65 -122
q0 -87 71 -144t230 -93q245 -57 351 -166t106 -281q0 -187 -138.5 -302.5t-378.5 -115.5q-130 0 -251 46t-212 129q-57 54 -1 115zM690 1846q38 48 100 48h44q52 0 66 -30t-19 -70l-165 -203q-38 -47 -101 -47h-37q-52 0 -66.5 30t17.5 71z" />
    <glyph glyph-name="sacute" unicode="&#x15b;" horiz-adv-x="964" 
d="M148 244q49 58 115 6q97 -74 214 -74q85 0 133.5 34t48.5 93q0 57 -45 92t-157 58q-177 35 -261.5 117.5t-84.5 215.5q0 131 101.5 215t270.5 84q163 0 303 -93q32 -22 35 -53t-22 -61l-24 -30q-48 -61 -116 -15q-80 52 -157 52q-69 0 -113.5 -28.5t-44.5 -74.5
q0 -106 188 -145q187 -38 274 -120t87 -218q0 -142 -107 -233t-292 -91q-106 0 -201.5 32t-165.5 90q-59 50 -5 115zM551 1514q39 49 99 49h44q52 0 66 -30.5t-19 -70.5l-164 -202q-39 -48 -101 -48h-38q-52 0 -66 30t18 71z" />
    <glyph glyph-name="Scircumflex" unicode="&#x15c;" horiz-adv-x="1216" 
d="M196 310q53 57 115 3q144 -125 297 -125q126 0 203.5 55.5t77.5 149.5q0 89 -70 150.5t-244 97.5q-223 47 -333.5 154t-110.5 266q0 178 130 287.5t337 109.5q237 0 403 -129q63 -50 9 -115l-40 -48q-50 -61 -115 -10q-123 89 -247 89q-101 0 -166 -46t-65 -122
q0 -87 71 -144t230 -93q245 -57 351 -166t106 -281q0 -187 -138.5 -302.5t-378.5 -115.5q-130 0 -251 46t-212 129q-57 54 -1 115zM887 1645q35 -40 21 -70.5t-67 -30.5h-35q-61 0 -100 46l-112 128l-112 -128q-39 -46 -100 -46h-35q-53 0 -67 30.5t21 70.5l173 203
q39 46 100 46h39q62 0 101 -46z" />
    <glyph glyph-name="scircumflex" unicode="&#x15d;" horiz-adv-x="964" 
d="M148 244q49 58 115 6q97 -74 214 -74q85 0 133.5 34t48.5 93q0 57 -45 92t-157 58q-177 35 -261.5 117.5t-84.5 215.5q0 131 101.5 215t270.5 84q163 0 303 -93q32 -22 35 -53t-22 -61l-24 -30q-48 -61 -116 -15q-80 52 -157 52q-69 0 -113.5 -28.5t-44.5 -74.5
q0 -106 188 -145q187 -38 274 -120t87 -218q0 -142 -107 -233t-292 -91q-106 0 -201.5 32t-165.5 90q-59 50 -5 115zM764 1313q35 -40 21 -70.5t-67 -30.5h-35q-61 0 -100 46l-112 128l-112 -128q-39 -46 -100 -46h-35q-53 0 -67 30.5t21 70.5l173 204q39 46 101 46h38
q62 0 101 -46z" />
    <glyph glyph-name="Scedilla" unicode="&#x15e;" horiz-adv-x="1216" 
d="M567 -221q-20 0 -32 -1q-27 -3 -46 19q-20 22 -1 60l66 121q-114 11 -217 55t-182 117q-57 54 -1 115l42 45q53 57 115 3q144 -125 297 -125q126 0 203.5 55.5t77.5 149.5q0 89 -70 150.5t-244 97.5q-223 47 -333.5 154t-110.5 266q0 178 130 287.5t337 109.5
q237 0 403 -129q63 -50 9 -115l-40 -48q-50 -61 -115 -10q-123 89 -247 89q-101 0 -166 -46t-65 -122q0 -87 71 -144t230 -93q245 -57 351 -166t106 -281q0 -164 -107.5 -274t-298.5 -136l-55 -89q79 -22 126.5 -78t47.5 -127q0 -95 -76 -158t-192 -63q-96 0 -155 37
q-14 8 -18 25.5t5 30.5l26 38q14 21 33.5 23.5t43.5 -7.5q27 -8 52 -8q45 0 74 24.5t29 61.5t-29 61.5t-74 24.5z" />
    <glyph glyph-name="scedilla" unicode="&#x15f;" horiz-adv-x="964" 
d="M430 -221q-21 0 -33 -1q-26 -3 -45 19q-20 22 -1 60l67 123q-174 20 -291 117q-59 50 -5 115l26 32q49 58 115 6q97 -74 214 -74q85 0 133.5 34t48.5 93q0 57 -45 92t-157 58q-177 35 -261.5 117.5t-84.5 215.5q0 131 101.5 215t270.5 84q163 0 303 -93q32 -22 35 -53
t-22 -61l-24 -30q-48 -61 -116 -15q-80 52 -157 52q-69 0 -113.5 -28.5t-44.5 -74.5q0 -106 188 -145q187 -38 274 -120t87 -218q0 -122 -80 -207t-222 -108l-54 -90q79 -22 126.5 -78t47.5 -127q0 -95 -76.5 -158t-192.5 -63q-95 0 -154 37q-14 8 -18.5 25.5t4.5 30.5
l27 38q14 21 33.5 23.5t43.5 -7.5q27 -8 52 -8q45 0 73.5 24.5t28.5 61.5t-28.5 61.5t-73.5 24.5z" />
    <glyph glyph-name="Scaron" unicode="&#x160;" horiz-adv-x="1216" 
d="M196 310q53 57 115 3q144 -125 297 -125q126 0 203.5 55.5t77.5 149.5q0 89 -70 150.5t-244 97.5q-223 47 -333.5 154t-110.5 266q0 178 130 287.5t337 109.5q237 0 403 -129q63 -50 9 -115l-40 -48q-50 -61 -115 -10q-123 89 -247 89q-101 0 -166 -46t-65 -122
q0 -87 71 -144t230 -93q245 -57 351 -166t106 -281q0 -187 -138.5 -302.5t-378.5 -115.5q-130 0 -251 46t-212 129q-57 54 -1 115zM714 1590q-39 -46 -101 -46h-39q-61 0 -100 46l-173 204q-35 40 -21 70t67 30h35q61 0 100 -46l112 -128l112 128q39 46 100 46h35
q53 0 67 -30t-21 -70z" />
    <glyph glyph-name="scaron" unicode="&#x161;" horiz-adv-x="964" 
d="M148 244q49 58 115 6q97 -74 214 -74q85 0 133.5 34t48.5 93q0 57 -45 92t-157 58q-177 35 -261.5 117.5t-84.5 215.5q0 131 101.5 215t270.5 84q163 0 303 -93q32 -22 35 -53t-22 -61l-24 -30q-48 -61 -116 -15q-80 52 -157 52q-69 0 -113.5 -28.5t-44.5 -74.5
q0 -106 188 -145q187 -38 274 -120t87 -218q0 -142 -107 -233t-292 -91q-106 0 -201.5 32t-165.5 90q-59 50 -5 115zM591 1238q-39 -46 -101 -46h-38q-62 0 -101 46l-173 204q-35 40 -21 70t67 30h35q61 0 100 -46l112 -128l112 128q39 46 100 46h35q53 0 67 -30t-21 -70z
" />
    <glyph glyph-name="Tcommaaccent" unicode="&#x162;" horiz-adv-x="1134" 
d="M512 -221q-21 0 -33 -1q-26 -3 -45 19q-20 22 -1 60l77 143q-64 0 -64 82v1143h-303q-82 0 -82 82v45q0 82 82 82h848q82 0 82 -82v-45q0 -82 -82 -82h-303v-1170q0 -53 -31 -101l-39 -60q79 -22 127 -78t48 -127q0 -95 -76.5 -158t-192.5 -63q-95 0 -154 37
q-14 8 -18.5 25.5t4.5 30.5l27 38q14 21 33.5 23.5t43.5 -7.5q27 -8 52 -8q45 0 73.5 24.5t28.5 61.5t-28.5 61.5t-73.5 24.5z" />
    <glyph glyph-name="tcommaaccent" unicode="&#x163;" horiz-adv-x="786" 
d="M362 -221q-20 0 -32 -1q-26 -3 -45 19q-20 22 -1 60l92 168q-155 83 -155 325v506h-94q-82 0 -82 82v41q0 82 82 82h94v208q0 80 78 86l71 6q40 4 62.5 -17t22.5 -62v-221h186q82 0 82 -82v-41q0 -82 -82 -82h-186v-504q0 -91 42.5 -131.5t145.5 -40.5h8q41 1 62.5 -19.5
t21.5 -60.5v-39q0 -80 -56 -84q-36 -2 -56 -2q-46 0 -100 7l-54 -88q79 -22 126.5 -78t47.5 -127q0 -95 -76 -158t-192 -63q-96 0 -155 37q-14 8 -18 25.5t5 30.5l26 38q14 21 33.5 23.5t43.5 -7.5q27 -8 52 -8q45 0 74 24.5t29 61.5t-29 61.5t-74 24.5z" />
    <glyph glyph-name="Tcaron" unicode="&#x164;" horiz-adv-x="1134" 
d="M687 1590q-39 -46 -100 -46h-39q-62 0 -101 46l-173 204q-35 40 -20.5 70t67.5 30h34q62 0 101 -46l111 -128l112 128q39 46 100 46h35q53 0 67 -30t-21 -70zM446 1225h-303q-82 0 -82 82v45q0 82 82 82h848q82 0 82 -82v-45q0 -82 -82 -82h-303v-1143q0 -82 -82 -82h-78
q-82 0 -82 82v1143z" />
    <glyph glyph-name="tcaron" unicode="&#x165;" horiz-adv-x="1126" 
d="M455 352q0 -91 42.5 -131.5t145.5 -40.5h8q41 1 62.5 -19.5t21.5 -60.5v-39q0 -80 -56 -84q-36 -2 -56 -2q-208 0 -305 90t-97 285v506h-94q-82 0 -82 82v41q0 82 82 82h94v208q0 80 78 86l71 6q40 4 62.5 -17t22.5 -62v-221h186q82 0 82 -82v-41q0 -82 -82 -82h-186
v-504zM797 1374q0 62 42 104t103 42t103 -42t42 -104q0 -30 -16 -67l-110 -240q-28 -61 -97 -61q-35 0 -45.5 27t8.5 69l62 135q-41 15 -66.5 52t-25.5 85z" />
    <glyph glyph-name="Tbar" unicode="&#x166;" horiz-adv-x="1134" 
d="M688 629v-547q0 -82 -82 -82h-78q-82 0 -82 82v547h-176q-82 0 -82 82v12q0 82 82 82h176v420h-303q-82 0 -82 82v45q0 82 82 82h848q82 0 82 -82v-45q0 -82 -82 -82h-303v-420h176q82 0 82 -82v-12q0 -82 -82 -82h-176z" />
    <glyph glyph-name="tbar" unicode="&#x167;" horiz-adv-x="786" 
d="M68 549q0 38 21 58t61 20h71v229h-94q-82 0 -82 82v41q0 82 82 82h94v208q0 80 78 86l71 6q40 4 62.5 -17t22.5 -62v-221h186q82 0 82 -82v-41q0 -82 -82 -82h-186v-229h145q82 0 82 -82q0 -35 -21 -54.5t-61 -19.5h-145v-119q0 -91 42.5 -131.5t145.5 -40.5h8
q41 1 62.5 -19.5t21.5 -60.5v-39q0 -80 -56 -84q-36 -2 -56 -2q-208 0 -305 90t-97 285v121h-71q-40 0 -61 20t-21 58z" />
    <glyph glyph-name="Utilde" unicode="&#x168;" horiz-adv-x="1368" 
d="M698 1604q-76 41 -106 41q-19 0 -35 -14l-11.5 -11.5l-11 -11t-9.5 -9t-10 -8t-9.5 -5.5t-11 -5t-11 -2.5t-13 -0.5t-14.5 2l-44 9q-41 8 -57.5 35t-2.5 65q51 140 174 140q63 0 144 -47q76 -41 106 -41q21 0 35 13l11.5 11.5l11 11t9.5 9t10 8t9.5 5.5t11 5t11 2.5
t13 0.5t14.5 -2l44 -9q41 -8 57.5 -34.5t2.5 -64.5q-52 -141 -174 -141q-61 0 -144 48zM1214 508q0 -119 -41.5 -219.5t-113.5 -168t-169 -105.5t-206 -38t-206 38t-169 105.5t-113.5 168t-41.5 219.5v844q0 82 82 82h77q82 0 82 -82v-873q0 -129 83 -209t206 -80t206 80
t83 209v873q0 82 82 82h78q81 0 81 -82v-844z" />
    <glyph glyph-name="utilde" unicode="&#x169;" horiz-adv-x="1249" 
d="M872 979q0 82 82 82h70q82 0 82 -82v-897q0 -82 -82 -82h-70q-82 0 -82 82v41q-61 -67 -145 -107.5t-172 -40.5q-193 0 -312.5 122t-119.5 321v561q0 82 82 82h69q82 0 82 -82v-549q0 -108 68 -177t176 -69q75 0 150.5 51t121.5 121v623zM618 1272q-76 41 -106 41
q-19 0 -35 -14l-11.5 -11.5l-11 -11t-9.5 -9t-10 -8t-9.5 -5.5t-11 -5t-11 -2.5t-13 -0.5t-14.5 2l-44 9q-41 8 -57.5 35t-2.5 65q51 140 174 140q63 0 144 -47q76 -41 106 -41q21 0 35 13l11.5 11.5l11 11t9.5 9t10.5 8.5t10 6t11 5t11 2.5t13 0.5t14.5 -2l44 -10
q40 -8 56.5 -34.5t2.5 -64.5q-51 -140 -174 -140q-63 0 -144 47z" />
    <glyph glyph-name="Umacron" unicode="&#x16a;" horiz-adv-x="1368" 
d="M377 1706q0 82 82 82h450q82 0 82 -82v-16q0 -82 -82 -82h-450q-82 0 -82 82v16zM1214 508q0 -119 -41.5 -219.5t-113.5 -168t-169 -105.5t-206 -38t-206 38t-169 105.5t-113.5 168t-41.5 219.5v844q0 82 82 82h77q82 0 82 -82v-873q0 -129 83 -209t206 -80t206 80
t83 209v873q0 82 82 82h78q81 0 81 -82v-844z" />
    <glyph glyph-name="umacron" unicode="&#x16b;" horiz-adv-x="1249" 
d="M872 979q0 82 82 82h70q82 0 82 -82v-897q0 -82 -82 -82h-70q-82 0 -82 82v41q-61 -67 -145 -107.5t-172 -40.5q-193 0 -312.5 122t-119.5 321v561q0 82 82 82h69q82 0 82 -82v-549q0 -108 68 -177t176 -69q75 0 150.5 51t121.5 121v623zM303 1374q0 82 82 82h451
q82 0 82 -82v-16q0 -82 -82 -82h-451q-82 0 -82 82v16z" />
    <glyph glyph-name="Ubreve" unicode="&#x16c;" horiz-adv-x="1368" 
d="M684 1524q-114 0 -205 63.5t-125 168.5q-12 40 9.5 64.5t64.5 24.5h42q34 0 52.5 -16t36.5 -54q19 -37 52 -58t73 -21t73 21t52 58q18 38 36.5 54t52.5 16h42q43 0 64.5 -25t8.5 -66q-34 -104 -125 -167t-204 -63zM1214 508q0 -119 -41.5 -219.5t-113.5 -168t-169 -105.5
t-206 -38t-206 38t-169 105.5t-113.5 168t-41.5 219.5v844q0 82 82 82h77q82 0 82 -82v-873q0 -129 83 -209t206 -80t206 80t83 209v873q0 82 82 82h78q81 0 81 -82v-844z" />
    <glyph glyph-name="ubreve" unicode="&#x16d;" horiz-adv-x="1249" 
d="M872 979q0 82 82 82h70q82 0 82 -82v-897q0 -82 -82 -82h-70q-82 0 -82 82v41q-61 -67 -145 -107.5t-172 -40.5q-193 0 -312.5 122t-119.5 321v561q0 82 82 82h69q82 0 82 -82v-549q0 -108 68 -177t176 -69q75 0 150.5 51t121.5 121v623zM604 1192q-114 0 -205 63.5
t-125 168.5q-12 40 9.5 64.5t64.5 24.5h42q34 0 52.5 -16t36.5 -54q19 -37 52 -58t73 -21t73 21t52 58q18 38 36.5 54t52.5 16h42q43 0 64.5 -25t8.5 -66q-34 -104 -125 -167t-204 -63z" />
    <glyph glyph-name="Uring" unicode="&#x16e;" horiz-adv-x="1368" 
d="M610 1726q0 -31 21 -51t53 -20t53 20t21 51t-21 51.5t-53 20.5t-53 -20.5t-21 -51.5zM463 1726q0 87 63 145t158 58t158 -58t63 -145q0 -86 -63 -144t-158 -58t-158 58t-63 144zM1214 508q0 -119 -41.5 -219.5t-113.5 -168t-169 -105.5t-206 -38t-206 38t-169 105.5
t-113.5 168t-41.5 219.5v844q0 82 82 82h77q82 0 82 -82v-873q0 -129 83 -209t206 -80t206 80t83 209v873q0 82 82 82h78q81 0 81 -82v-844z" />
    <glyph glyph-name="uring" unicode="&#x16f;" horiz-adv-x="1249" 
d="M872 979q0 82 82 82h70q82 0 82 -82v-897q0 -82 -82 -82h-70q-82 0 -82 82v41q-61 -67 -145 -107.5t-172 -40.5q-193 0 -312.5 122t-119.5 321v561q0 82 82 82h69q82 0 82 -82v-549q0 -108 68 -177t176 -69q75 0 150.5 51t121.5 121v623zM520 1395q0 -31 21 -51.5
t53 -20.5t53 20.5t21 51.5t-21 51t-53 20t-53 -20t-21 -51zM373 1395q0 86 63 144t158 58t158 -58t63 -144q0 -87 -63 -145t-158 -58t-158 58t-63 145z" />
    <glyph glyph-name="Uhungarumlaut" unicode="&#x170;" horiz-adv-x="1368" 
d="M1214 508q0 -119 -41.5 -219.5t-113.5 -168t-169 -105.5t-206 -38t-206 38t-169 105.5t-113.5 168t-41.5 219.5v844q0 82 82 82h77q82 0 82 -82v-873q0 -129 83 -209t206 -80t206 80t83 209v873q0 82 82 82h78q81 0 81 -82v-844zM623 1846q38 48 99 48h44q52 0 66 -30
t-19 -70l-165 -203q-38 -47 -100 -47h-38q-52 0 -66 30t18 71zM961 1846q38 48 99 48h44q52 0 66 -30t-19 -70l-165 -203q-38 -47 -100 -47h-38q-52 0 -66 30t18 71z" />
    <glyph glyph-name="uhungarumlaut" unicode="&#x171;" horiz-adv-x="1249" 
d="M872 979q0 82 82 82h70q82 0 82 -82v-897q0 -82 -82 -82h-70q-82 0 -82 82v41q-61 -67 -145 -107.5t-172 -40.5q-193 0 -312.5 122t-119.5 321v561q0 82 82 82h69q82 0 82 -82v-549q0 -108 68 -177t176 -69q75 0 150.5 51t121.5 121v623zM530 1514q39 49 100 49h44
q52 0 66 -30.5t-19 -70.5l-165 -202q-39 -48 -100 -48h-38q-52 0 -66 30t18 71zM868 1514q39 49 100 49h44q52 0 66 -30.5t-19 -70.5l-165 -202q-39 -48 -100 -48h-38q-52 0 -66 30t18 71z" />
    <glyph glyph-name="Uogonek" unicode="&#x172;" horiz-adv-x="1368" 
d="M1214 508q0 -201 -112.5 -339t-291.5 -177q-148 -125 -148 -219q0 -42 28 -69.5t70 -27.5q17 0 35 5q44 12 58 -23l13 -31q10 -26 -3 -48.5t-48 -33.5q-47 -14 -96 -14q-100 0 -168 61t-68 152q0 126 143 237q-204 20 -338 163t-134 364v844q0 82 82 82h77q82 0 82 -82
v-873q0 -129 83 -209t206 -80t206 80t83 209v873q0 82 82 82h78q81 0 81 -82v-844z" />
    <glyph glyph-name="uogonek" unicode="&#x173;" horiz-adv-x="1249" 
d="M1106 979v-887q0 -89 -50 -136q-112 -105 -112 -183q0 -42 28 -69.5t70 -27.5q17 0 35 5q45 12 59 -23l13 -31q10 -26 -3 -48.5t-48 -33.5q-47 -14 -97 -14q-100 0 -167.5 61t-67.5 152q0 73 48.5 139t123.5 117q-66 9 -66 82v41q-61 -67 -145 -107.5t-172 -40.5
q-193 0 -312.5 122t-119.5 321v561q0 82 82 82h69q82 0 82 -82v-549q0 -108 68 -177t176 -69q75 0 150.5 51t121.5 121v623q0 82 82 82h70q82 0 82 -82z" />
    <glyph glyph-name="Wcircumflex" unicode="&#x174;" horiz-adv-x="2007" 
d="M1051 1434q71 0 91 -69l290 -1011l262 1009q18 71 91 71h86q43 0 61.5 -25t6.5 -68l-361 -1271q-20 -70 -91 -70h-94q-71 0 -91 69l-298 1033l-298 -1033q-20 -69 -92 -69h-94q-71 0 -91 70l-361 1271q-12 43 6.5 68t61.5 25h86q73 0 91 -71l262 -1009l290 1011
q19 69 91 69h95zM1296 1645q35 -40 21 -70.5t-67 -30.5h-35q-61 0 -100 46l-111 128l-112 -128q-39 -46 -100 -46h-35q-53 0 -67 30.5t21 70.5l173 203q39 46 100 46h39q61 0 100 -46z" />
    <glyph glyph-name="wcircumflex" unicode="&#x175;" horiz-adv-x="1613" 
d="M856 1061q71 0 91 -70l192 -686l193 686q20 70 91 70h73q44 0 63 -25.5t6 -67.5l-282 -900q-21 -68 -92 -68h-99q-72 0 -92 70l-193 692l-194 -692q-20 -70 -91 -70h-99q-71 0 -92 68l-282 900q-13 42 6 67.5t63 25.5h72q72 0 92 -70l193 -686l192 686q20 70 91 70h98z
M1100 1313q35 -40 21 -70.5t-67 -30.5h-35q-61 0 -100 46l-112 128l-112 -128q-39 -46 -100 -46h-35q-53 0 -67 30.5t21 70.5l173 204q39 46 100 46h39q62 0 101 -46z" />
    <glyph glyph-name="Ycircumflex" unicode="&#x176;" horiz-adv-x="1323" 
d="M662 823l329 555q33 56 98 56h78q49 0 65.5 -28.5t-8.5 -70.5l-442 -747v-506q0 -82 -82 -82h-77q-82 0 -82 82v506l-442 747q-25 42 -8.5 70.5t65.5 28.5h78q65 0 98 -56zM954 1645q35 -40 21 -70.5t-67 -30.5h-35q-61 0 -100 46l-111 128l-112 -128q-39 -46 -100 -46
h-35q-53 0 -67 30.5t21 70.5l173 203q39 46 100 46h39q61 0 100 -46z" />
    <glyph glyph-name="ycircumflex" unicode="&#x177;" horiz-adv-x="1081" 
d="M420 0l-364 967q-16 42 2.5 68t63.5 26h71q69 0 93 -66l253 -700l257 700q24 66 93 66h70q45 0 63.5 -26t2.5 -68l-519 -1378q-23 -64 -94 -64h-71q-45 0 -63.5 26t-2.5 68zM831 1313q35 -40 21 -70.5t-67 -30.5h-34q-62 0 -101 46l-111 128l-112 -128q-39 -46 -100 -46
h-35q-53 0 -67 30.5t21 70.5l173 204q39 46 100 46h39q61 0 100 -46z" />
    <glyph glyph-name="Ydieresis" unicode="&#x178;" horiz-adv-x="1323" 
d="M662 823l329 555q33 56 98 56h78q49 0 65.5 -28.5t-8.5 -70.5l-442 -747v-506q0 -82 -82 -82h-77q-82 0 -82 82v506l-442 747q-25 42 -8.5 70.5t65.5 28.5h78q65 0 98 -56zM338 1704q0 57 39 96t96 39t96 -39t39 -96t-39 -96t-96 -39t-96 39t-39 96zM715 1704q0 57 39 96
t96 39t96 -39t39 -96t-39 -96t-96 -39t-96 39t-39 96z" />
    <glyph glyph-name="Zacute" unicode="&#x179;" horiz-adv-x="1243" 
d="M819 1225h-583q-82 0 -82 82v45q0 82 82 82h792q82 0 82 -82v-72q0 -54 -32 -101l-664 -970h635q81 0 81 -82v-45q0 -82 -81 -82h-844q-82 0 -82 82v72q0 54 32 101zM672 1846q38 48 99 48h44q52 0 66 -30t-19 -70l-165 -203q-38 -47 -100 -47h-38q-52 0 -66 30t18 71z
" />
    <glyph glyph-name="zacute" unicode="&#x17a;" horiz-adv-x="1046" 
d="M98 147q0 58 37 102l508 607h-436q-82 0 -82 82v41q0 82 82 82h635q82 0 82 -82v-66q0 -57 -37 -101l-508 -607h483q82 0 82 -82v-41q0 -82 -82 -82h-682q-82 0 -82 82v65zM573 1514q39 49 100 49h44q52 0 66 -30.5t-19 -70.5l-165 -202q-39 -48 -100 -48h-38
q-52 0 -66 30t18 71z" />
    <glyph glyph-name="Zdotaccent" unicode="&#x17b;" horiz-adv-x="1243" 
d="M819 1225h-583q-82 0 -82 82v45q0 82 82 82h792q82 0 82 -82v-72q0 -54 -32 -101l-664 -970h635q81 0 81 -82v-45q0 -82 -81 -82h-844q-82 0 -82 82v72q0 54 32 101zM487 1704q0 57 39.5 96t96.5 39t96 -39t39 -96t-39 -96t-96 -39t-96.5 39t-39.5 96z" />
    <glyph glyph-name="zdotaccent" unicode="&#x17c;" horiz-adv-x="1046" 
d="M98 147q0 58 37 102l508 607h-436q-82 0 -82 82v41q0 82 82 82h635q82 0 82 -82v-66q0 -57 -37 -101l-508 -607h483q82 0 82 -82v-41q0 -82 -82 -82h-682q-82 0 -82 82v65zM389 1372q0 57 39 96t96 39t96 -39t39 -96t-39 -96t-96 -39t-96 39t-39 96z" />
    <glyph glyph-name="Zcaron" unicode="&#x17d;" horiz-adv-x="1243" 
d="M819 1225h-583q-82 0 -82 82v45q0 82 82 82h792q82 0 82 -82v-72q0 -54 -32 -101l-664 -970h635q81 0 81 -82v-45q0 -82 -81 -82h-844q-82 0 -82 82v72q0 54 32 101zM742 1590q-39 -46 -100 -46h-39q-61 0 -100 46l-173 204q-35 40 -21 70t67 30h35q61 0 100 -46
l112 -128l111 128q39 46 101 46h34q53 0 67 -30t-21 -70z" />
    <glyph glyph-name="zcaron" unicode="&#x17e;" horiz-adv-x="1046" 
d="M98 147q0 58 37 102l508 607h-436q-82 0 -82 82v41q0 82 82 82h635q82 0 82 -82v-66q0 -57 -37 -101l-508 -607h483q82 0 82 -82v-41q0 -82 -82 -82h-682q-82 0 -82 82v65zM632 1238q-39 -46 -101 -46h-38q-62 0 -101 46l-173 204q-35 40 -21 70t67 30h35q61 0 100 -46
l112 -128l112 128q39 46 100 46h35q53 0 67 -30t-21 -70z" />
    <glyph glyph-name="longs" unicode="&#x17f;" horiz-adv-x="772" 
d="M727 1370q0 -40 -12 -61t-34 -20q-16 1 -46 1q-103 0 -146 -40.5t-43 -131.5v-1036q0 -82 -81 -82h-70q-82 0 -82 82v774h-86q-82 0 -82 82v41q0 82 82 82h86v59q0 195 97 285t304 90q24 0 35 -1q38 -1 58 -23.5t20 -61.5v-39z" />
    <glyph glyph-name="uni0191" unicode="&#x191;" horiz-adv-x="1097" 
d="M406 -100q0 -191 -97 -283t-297 -92q-20 0 -30 1q-78 3 -78 85v39q0 40 10.5 61t31.5 20q14 -1 42 -1q94 0 135 41t41 131v1450q0 82 82 82h688q82 0 82 -82v-45q0 -82 -82 -82h-528v-400h479q82 0 82 -82v-45q0 -82 -82 -82h-479v-716z" />
    <glyph glyph-name="florin" unicode="&#x192;" horiz-adv-x="772" 
d="M446 -100q0 -195 -97 -285t-304 -90q-24 0 -35 1q-38 1 -58 23.5t-20 61.5v39q0 40 12 61t34 20q16 -1 47 -1q103 0 145.5 40.5t42.5 131.5v954h-86q-82 0 -82 82v41q0 82 82 82h86v59q0 195 97 285t304 90q24 0 35 -1q38 -1 58 -23.5t20 -61.5v-39q0 -40 -12 -61
t-34 -20q-16 1 -46 1q-103 0 -146 -40.5t-43 -131.5v-57h199q82 0 82 -82v-41q0 -82 -82 -82h-199v-956z" />
    <glyph glyph-name="Aringacute" unicode="&#x1fa;" horiz-adv-x="1409" 
d="M483 1505q0 86 63.5 144.5t158.5 58.5t158 -58t63 -145q0 -83 -61 -142l468 -1269q15 -42 -2.5 -68t-62.5 -26h-91q-72 0 -94 67l-96 279h-565l-96 -279q-22 -67 -94 -67h-91q-45 0 -62.5 26t-2.5 68l468 1269q-61 59 -61 142zM494 555h421l-210 614zM686 1749
q-45 0 -55.5 29.5t21.5 70.5l78 100q37 48 99 48h41q53 0 67.5 -30.5t-18.5 -70.5l-82 -100q-38 -47 -101 -47h-50zM631 1505q0 -29 18.5 -49t48.5 -22h7q32 0 52.5 20t20.5 51t-20.5 51.5t-52.5 20.5t-53 -20.5t-21 -51.5z" />
    <glyph glyph-name="aringacute" unicode="&#x1fb;" horiz-adv-x="1343" 
d="M655 184q102 0 186 52t126 139v309q-42 87 -126 140t-186 53q-146 0 -246 -100.5t-100 -246.5t100 -246t246 -100zM614 1085q214 0 353 -139v33q0 82 82 82h69q82 0 82 -82v-897q0 -82 -82 -82h-69q-82 0 -82 82v33q-140 -140 -353 -140q-154 0 -279 76t-194 202.5
t-69 276.5t69 276.5t194 202.5t279 76zM573 1362q0 -31 21 -51.5t53 -20.5t53 20.5t21 51.5t-21 51.5t-53 20.5t-53 -20.5t-21 -51.5zM426 1362q0 87 63 145t158 58t158 -58t63 -145t-63 -145t-158 -58t-158 58t-63 145zM625 1606q-45 0 -55 29.5t22 70.5l93 119
q38 49 99 49h42q52 0 66 -30t-19 -70l-98 -121q-38 -47 -100 -47h-50z" />
    <glyph glyph-name="AEacute" unicode="&#x1fc;" horiz-adv-x="1894" 
d="M113 0q-49 0 -65.5 27.5t7.5 70.5l724 1279q33 57 98 57h804q82 0 82 -82v-45q0 -82 -82 -82h-528v-400h479q82 0 82 -82v-45q0 -82 -82 -82h-479v-407h547q82 0 82 -82v-45q0 -82 -82 -82h-707q-82 0 -82 82v264h-447l-158 -289q-31 -57 -97 -57h-96zM579 555h332v604z
M1018 1846q38 48 99 48h44q52 0 66 -30t-19 -70l-165 -203q-38 -47 -100 -47h-38q-52 0 -66 30t18 71z" />
    <glyph glyph-name="aeacute" unicode="&#x1fd;" horiz-adv-x="2082" 
d="M1127 455q20 -122 116 -200.5t227 -78.5q139 0 257 88q62 49 116 -1l40 -38q31 -29 32 -58.5t-31 -56.5q-165 -135 -407 -135q-142 0 -261.5 54.5t-193.5 146.5q-70 -92 -185.5 -146.5t-252.5 -54.5q-220 0 -366 102.5t-146 254.5q0 143 140.5 239.5t340.5 96.5
q94 0 185.5 -24t150.5 -62v47q0 107 -88 181.5t-223 74.5q-140 0 -269 -77q-73 -44 -110 29l-16 29q-36 70 28 112q169 107 373 107q139 0 255 -54.5t184 -147.5q72 94 187.5 148t249.5 54q158 0 285 -72.5t196.5 -194t69.5 -267.5q0 -14 -1 -21q-1 -37 -24.5 -56t-61.5 -19
h-797zM305 332q0 -66 82 -111t209 -45q209 0 291 125v101q-110 85 -291 85q-127 0 -209 -45t-82 -110zM1460 885q-110 0 -200 -66.5t-123 -171.5h629q-28 105 -111 171.5t-195 66.5zM1099 1514q39 49 99 49h44q52 0 66 -30.5t-19 -70.5l-165 -202q-39 -48 -100 -48h-38
q-52 0 -66 30t18 71z" />
    <glyph glyph-name="Oslashacute" unicode="&#x1fe;" horiz-adv-x="1691" 
d="M846 1458q208 0 387 -98l69 87q37 48 99 48h21q52 0 66.5 -29.5t-17.5 -70.5l-103 -131q114 -102 178 -243.5t64 -303.5q0 -154 -59 -291.5t-160.5 -236.5t-243.5 -156.5t-301 -57.5q-226 0 -408 109l-77 -97q-38 -48 -99 -48h-22q-52 0 -66.5 29.5t17.5 70.5l115 145
q-106 102 -165 239.5t-59 293.5q0 154 59 291.5t160.5 236t243.5 156t301 57.5zM846 188q143 0 261.5 69.5t187.5 191t69 268.5q0 213 -140 364l-645 -820q124 -73 267 -73zM328 717q0 -202 124 -347l641 813q-113 62 -247 62q-143 0 -261.5 -69t-187.5 -190.5t-69 -268.5z
M915 1846q38 48 100 48h44q52 0 66 -30t-19 -70l-165 -203q-38 -47 -100 -47h-38q-52 0 -66 30t18 71z" />
    <glyph glyph-name="oslashacute" unicode="&#x1ff;" horiz-adv-x="1310" 
d="M1081 1122h40q41 0 48 -29.5t-25 -70.5l-75 -94q81 -76 125.5 -179t44.5 -219q0 -114 -44.5 -216.5t-121 -177t-185.5 -118t-233 -43.5q-152 0 -284 67l-44 -55q-38 -48 -100 -48h-13q-52 0 -66.5 29.5t17.5 70.5l76 95q-80 76 -124.5 178t-44.5 218q0 153 75 280
t209 201t299 74q154 0 283 -66l44 55q38 48 99 48zM655 184q146 0 246 100t100 246q0 125 -74 218l-419 -532q70 -32 147 -32zM309 530q0 -124 73 -216l419 531q-70 32 -146 32q-146 0 -246 -100.5t-100 -246.5zM732 1514q39 49 99 49h45q52 0 66 -30.5t-19 -70.5l-165 -202
q-39 -48 -101 -48h-37q-52 0 -66.5 30t17.5 71z" />
    <glyph glyph-name="Scommaaccent" unicode="&#x218;" horiz-adv-x="1216" 
d="M196 310q53 57 115 3q144 -125 297 -125q126 0 203.5 55.5t77.5 149.5q0 89 -70 150.5t-244 97.5q-223 47 -333.5 154t-110.5 266q0 178 130 287.5t337 109.5q237 0 403 -129q63 -50 9 -115l-40 -48q-50 -61 -115 -10q-123 89 -247 89q-101 0 -166 -46t-65 -122
q0 -87 71 -144t230 -93q245 -57 351 -166t106 -281q0 -187 -138.5 -302.5t-378.5 -115.5q-130 0 -251 46t-212 129q-57 54 -1 115zM538 -481h-38q-47 0 -64.5 27t1.5 69l87 192q27 62 96 62h57q47 0 64 -27.5t-5 -69.5l-101 -195q-29 -58 -97 -58z" />
    <glyph glyph-name="scommaaccent" unicode="&#x219;" horiz-adv-x="964" 
d="M148 244q49 58 115 6q97 -74 214 -74q85 0 133.5 34t48.5 93q0 57 -45 92t-157 58q-177 35 -261.5 117.5t-84.5 215.5q0 131 101.5 215t270.5 84q163 0 303 -93q32 -22 35 -53t-22 -61l-24 -30q-48 -61 -116 -15q-80 52 -157 52q-69 0 -113.5 -28.5t-44.5 -74.5
q0 -106 188 -145q187 -38 274 -120t87 -218q0 -142 -107 -233t-292 -91q-106 0 -201.5 32t-165.5 90q-59 50 -5 115zM396 -481h-38q-47 0 -64 27t2 69l87 192q27 62 95 62h58q47 0 64 -27.5t-5 -69.5l-101 -195q-29 -58 -98 -58z" />
    <glyph glyph-name="uni021A" unicode="&#x21a;" horiz-adv-x="1134" 
d="M446 1225h-303q-82 0 -82 82v45q0 82 82 82h848q82 0 82 -82v-45q0 -82 -82 -82h-303v-1143q0 -82 -82 -82h-78q-82 0 -82 82v1143zM476 -481h-38q-47 0 -64 27t2 69l87 192q27 62 95 62h57q48 0 65 -27.5t-5 -69.5l-102 -195q-29 -58 -97 -58z" />
    <glyph glyph-name="uni021B" unicode="&#x21b;" horiz-adv-x="786" 
d="M455 352q0 -91 42.5 -131.5t145.5 -40.5h8q41 1 62.5 -19.5t21.5 -60.5v-39q0 -80 -56 -84q-36 -2 -56 -2q-208 0 -305 90t-97 285v506h-94q-82 0 -82 82v41q0 82 82 82h94v208q0 80 78 86l71 6q40 4 62.5 -17t22.5 -62v-221h186q82 0 82 -82v-41q0 -82 -82 -82h-186
v-504zM314 -481h-38q-47 0 -64 27t2 69l87 192q27 62 95 62h58q47 0 64 -27.5t-5 -69.5l-101 -195q-29 -58 -98 -58z" />
    <glyph glyph-name="dotlessj" unicode="&#x237;" horiz-adv-x="540" 
d="M154 979q0 82 82 82h69q82 0 82 -82v-1085q0 -198 -81 -283.5t-265 -85.5h-2q-32 0 -56 23.5t-24 60.5v39q0 82 53 82q74 0 108 35.5t34 123.5v1090z" />
    <glyph glyph-name="apostrophe" unicode="&#x2bc;" horiz-adv-x="860" 
d="M293 1374q0 62 42 104t103 42q62 0 104 -42t42 -104q0 -28 -17 -67l-110 -240q-28 -61 -97 -61q-35 0 -45.5 27t9.5 69l61 135q-41 15 -66.5 52t-25.5 85z" />
    <glyph glyph-name="circumflex" unicode="&#x2c6;" horiz-adv-x="860" 
d="M723 1245q35 -40 21 -70t-67 -30h-35q-61 0 -100 46l-112 128l-112 -128q-39 -46 -100 -46h-35q-53 0 -67 30t21 70l173 204q39 46 101 46h39q61 0 100 -46z" />
    <glyph glyph-name="caron" unicode="&#x2c7;" horiz-adv-x="860" 
d="M550 1191q-39 -46 -100 -46h-39q-62 0 -101 46l-173 204q-35 40 -21 70t67 30h35q61 0 100 -46l112 -128l112 128q39 46 100 46h35q53 0 67 -30t-21 -70z" />
    <glyph glyph-name="uni02C9" unicode="&#x2c9;" horiz-adv-x="860" 
d="M123 1327q0 82 82 82h450q82 0 82 -82v-16q0 -82 -82 -82h-450q-82 0 -82 82v16z" />
    <glyph glyph-name="breve" unicode="&#x2d8;" horiz-adv-x="860" 
d="M430 1153q-114 0 -205 63.5t-125 168.5q-12 40 9.5 65t64.5 25h42q34 0 52.5 -16.5t36.5 -54.5q19 -37 52 -58t73 -21t73 21t52 58q18 38 36.5 54.5t52.5 16.5h42q43 0 64.5 -25.5t8.5 -66.5q-34 -104 -125 -167t-204 -63z" />
    <glyph glyph-name="dotaccent" unicode="&#x2d9;" horiz-adv-x="860" 
d="M295 1323q0 57 39 96t96 39t96 -39t39 -96t-39 -96t-96 -39t-96 39t-39 96z" />
    <glyph glyph-name="ring" unicode="&#x2da;" horiz-adv-x="860" 
d="M356 1317q0 -31 21 -51.5t53 -20.5t53 20.5t21 51.5t-21 51.5t-53 20.5t-53 -20.5t-21 -51.5zM209 1317q0 87 63 145t158 58t158 -58t63 -145t-63 -145t-158 -58t-158 58t-63 145z" />
    <glyph glyph-name="ogonek" unicode="&#x2db;" horiz-adv-x="860" 
d="M468 0h38q30 0 37 -14t-8 -25q-117 -112 -117 -188q0 -42 28 -69.5t70 -27.5q17 0 35 5q44 12 58 -23l14 -31q10 -26 -3 -48.5t-49 -33.5q-47 -14 -96 -14q-100 0 -167.5 61t-67.5 152q0 115 127 222q39 34 101 34z" />
    <glyph glyph-name="tilde" unicode="&#x2dc;" horiz-adv-x="860" 
d="M444 1225q-76 41 -106 41q-19 0 -35 -14l-11.5 -11.5l-11 -11t-9.5 -9t-10 -8t-9.5 -5.5t-11 -5t-11 -2.5t-13 -0.5t-14.5 2l-44 9q-41 8 -57.5 35t-2.5 65q51 140 174 140q63 0 144 -47q76 -41 106 -41q21 0 35 13l11.5 11.5l11 11t9.5 9t10 8t9.5 5.5t11 5t11 2.5
t13 0.5t14.5 -2l44 -9q41 -8 57.5 -34.5t2.5 -64.5q-51 -140 -174 -140q-63 0 -144 47z" />
    <glyph glyph-name="hungarumlaut" unicode="&#x2dd;" horiz-adv-x="860" 
d="M301 1447q38 48 99 48h44q52 0 66.5 -29.5t-18.5 -70.5l-165 -203q-38 -47 -101 -47h-38q-52 0 -66 29.5t18 70.5zM639 1447q38 48 99 48h44q52 0 66 -29.5t-19 -70.5l-164 -203q-38 -47 -101 -47h-38q-52 0 -66 29.5t18 70.5z" />
    <glyph glyph-name="gravecomb" unicode="&#x300;" horiz-adv-x="0" 
d="M-314 1245q32 -41 18 -70.5t-66 -29.5h-38q-63 0 -101 47l-165 203q-33 41 -18.5 70.5t66.5 29.5h44q61 0 99 -48z" />
    <glyph glyph-name="acutecomb" unicode="&#x301;" horiz-adv-x="0" 
d="M-385 1447q38 48 99 48h44q52 0 66 -29.5t-19 -70.5l-164 -203q-38 -47 -101 -47h-38q-52 0 -66 29.5t18 70.5z" />
    <glyph glyph-name="uni0302" unicode="&#x302;" horiz-adv-x="0" 
d="M-137 1245q35 -40 21 -70t-67 -30h-35q-61 0 -100 46l-112 128l-112 -128q-39 -46 -100 -46h-35q-53 0 -67 30t21 70l173 204q39 46 100 46h39q62 0 101 -46z" />
    <glyph glyph-name="tildecomb" unicode="&#x303;" horiz-adv-x="0" 
d="M-416 1225q-76 41 -106 41q-19 0 -35 -14l-11.5 -11.5l-11 -11t-9.5 -9t-10 -8t-9.5 -5.5t-11 -5t-11 -2.5t-13 -0.5t-14.5 2l-44 9q-41 8 -57.5 35t-2.5 65q51 140 174 140q63 0 144 -47q76 -41 106 -41q21 0 35 13l11.5 11.5l11 11t9.5 9t10 8t9.5 5.5t11 5t11 2.5
t13 0.5t14.5 -2l44 -9q41 -8 57.5 -34.5t2.5 -64.5q-51 -140 -174 -140q-63 0 -144 47z" />
    <glyph glyph-name="uni0304" unicode="&#x304;" horiz-adv-x="0" 
d="M-737 1329q0 82 82 82h450q82 0 82 -82v-16q0 -82 -82 -82h-450q-82 0 -82 82v16z" />
    <glyph glyph-name="uni0306" unicode="&#x306;" horiz-adv-x="0" 
d="M-430 1153q-114 0 -205 63.5t-125 168.5q-12 40 9.5 65t64.5 25h42q34 0 52.5 -16.5t36.5 -54.5q19 -37 52 -58t73 -21t73 21t52 58q18 38 36.5 54.5t52.5 16.5h42q43 0 64.5 -25.5t8.5 -66.5q-34 -104 -125 -167t-204 -63z" />
    <glyph glyph-name="uni0307" unicode="&#x307;" horiz-adv-x="0" 
d="M-565 1323q0 57 39 96t96 39t96 -39t39 -96t-39 -96t-96 -39t-96 39t-39 96z" />
    <glyph glyph-name="uni0308" unicode="&#x308;" horiz-adv-x="0" 
d="M-754 1323q0 57 39.5 96t96.5 39t96 -39t39 -96t-39 -96t-96 -39t-96.5 39t-39.5 96zM-377 1323q0 57 39 96t96 39t96.5 -39t39.5 -96t-39.5 -96t-96.5 -39t-96 39t-39 96z" />
    <glyph glyph-name="uni030A" unicode="&#x30a;" horiz-adv-x="0" 
d="M-504 1317q0 -31 21 -51.5t53 -20.5t53 20.5t21 51.5t-21 51.5t-53 20.5t-53 -20.5t-21 -51.5zM-651 1317q0 87 63 145t158 58t158 -58t63 -145t-63 -145t-158 -58t-158 58t-63 145z" />
    <glyph glyph-name="uni030C" unicode="&#x30c;" horiz-adv-x="0" 
d="M-310 1191q-39 -46 -101 -46h-39q-61 0 -100 46l-173 204q-35 40 -21 70t67 30h35q61 0 100 -46l112 -128l112 128q39 46 100 46h35q53 0 67 -30t-21 -70z" />
    <glyph glyph-name="uni0327" unicode="&#x327;" horiz-adv-x="0" 
d="M-475 -221q-21 0 -33 -1q-26 -3 -45 19q-20 22 -1 60l65 120q13 23 45 23h104q19 0 23.5 -11t-4.5 -22l-48 -73q79 -22 126.5 -78t47.5 -127q0 -95 -76 -158t-192 -63q-95 0 -154 37q-14 8 -18.5 25.5t4.5 30.5l27 38q14 21 33.5 23.5t43.5 -7.5q27 -8 52 -8
q45 0 73.5 24.5t28.5 61.5t-28.5 61.5t-73.5 24.5z" />
    <glyph glyph-name="tonos" unicode="&#x384;" horiz-adv-x="860" 
d="M352 1114q-46 0 -63.5 26.5t0.5 68.5l91 223q25 63 95 63h59q47 0 64 -27t-3 -69l-108 -224q-28 -61 -95 -61h-40z" />
    <glyph glyph-name="dieresistonos" unicode="&#x385;" horiz-adv-x="860" 
d="M98 1167q0 61 41 101.5t103 40.5t102.5 -40.5t40.5 -101.5t-40.5 -101t-102.5 -40q-63 0 -103.5 40.5t-40.5 100.5zM475 1167q0 61 40.5 101.5t102.5 40.5t103 -40.5t41 -101.5q0 -60 -40.5 -100.5t-103.5 -40.5q-62 0 -102.5 40t-40.5 101zM408 1346q-45 0 -55 29.5
t22 70.5l93 119q38 49 99 49h42q52 0 66 -30t-19 -71l-98 -120q-38 -47 -100 -47h-50z" />
    <glyph glyph-name="Alphatonos" unicode="&#x386;" horiz-adv-x="1429" 
d="M1354 94q15 -42 -3 -68t-63 -26h-91q-71 0 -93 67l-96 279h-566l-96 -279q-22 -67 -93 -67h-91q-45 0 -63 26t-3 68l469 1274q24 66 94 66h132q70 0 94 -66zM514 555h422l-211 614zM129 1053q-46 0 -63.5 26.5t0.5 68.5l91 222q25 64 95 64h58q47 0 64.5 -27.5
t-2.5 -69.5l-108 -224q-27 -60 -95 -60h-40z" />
    <glyph glyph-name="anoteleia" unicode="&#x387;" horiz-adv-x="614" 
d="M156 666q0 64 43 107.5t108 43.5t108.5 -43.5t43.5 -107.5t-43.5 -108t-108.5 -44q-64 0 -107.5 43.5t-43.5 108.5z" />
    <glyph glyph-name="Epsilontonos" unicode="&#x388;" horiz-adv-x="1501" 
d="M498 1352q0 82 82 82h708q82 0 82 -82v-45q0 -82 -82 -82h-549v-400h500q82 0 82 -82v-45q0 -82 -82 -82h-500v-407h568q82 0 82 -82v-45q0 -82 -82 -82h-727q-82 0 -82 82v1270zM129 1053q-46 0 -63.5 26.5t0.5 68.5l91 222q25 64 95 64h58q47 0 64.5 -27.5t-2.5 -69.5
l-108 -224q-27 -60 -95 -60h-40z" />
    <glyph glyph-name="Etatonos" unicode="&#x389;" horiz-adv-x="1775" 
d="M498 1352q0 82 82 82h77q82 0 82 -82v-527h631v527q0 82 82 82h78q82 0 82 -82v-1270q0 -82 -82 -82h-78q-82 0 -82 82v534h-631v-534q0 -82 -82 -82h-77q-82 0 -82 82v1270zM129 1053q-46 0 -63.5 26.5t0.5 68.5l91 222q25 64 95 64h58q47 0 64.5 -27.5t-2.5 -69.5
l-108 -224q-27 -60 -95 -60h-40z" />
    <glyph glyph-name="Iotatonos" unicode="&#x38a;" horiz-adv-x="913" 
d="M657 1434q82 0 82 -82v-1270q0 -82 -82 -82h-77q-82 0 -82 82v1270q0 82 82 82h77zM129 1053q-46 0 -63.5 26.5t0.5 68.5l91 222q25 64 95 64h58q47 0 64.5 -27.5t-2.5 -69.5l-108 -224q-27 -60 -95 -60h-40z" />
    <glyph glyph-name="Omicrontonos" unicode="&#x38c;" horiz-adv-x="1898" 
d="M1053 188q143 0 261.5 69.5t187.5 191t69 268.5t-69 268.5t-187.5 190.5t-261.5 69t-261.5 -69t-187.5 -190.5t-69 -268.5t69 -268.5t187.5 -191t261.5 -69.5zM1053 1458q159 0 301 -57.5t243.5 -156t160.5 -236t59 -291.5t-59 -291.5t-160.5 -236.5t-243.5 -156.5
t-301 -57.5t-301 57.5t-243.5 156.5t-160.5 236.5t-59 291.5t59 291.5t160.5 236t243.5 156t301 57.5zM129 1053q-46 0 -63.5 26.5t0.5 68.5l91 222q25 64 95 64h58q47 0 64.5 -27.5t-2.5 -69.5l-108 -224q-27 -60 -95 -60h-40z" />
    <glyph glyph-name="Upsilontonos" unicode="&#x38e;" horiz-adv-x="1738" 
d="M1077 823l330 555q33 56 97 56h79q49 0 65 -28.5t-9 -70.5l-441 -747v-506q0 -82 -82 -82h-78q-82 0 -82 82v506l-441 747q-25 42 -9 70.5t65 28.5h79q65 0 98 -56zM129 1053q-46 0 -63.5 26.5t0.5 68.5l91 222q25 64 95 64h58q47 0 64.5 -27.5t-2.5 -69.5l-108 -224
q-27 -60 -95 -60h-40z" />
    <glyph glyph-name="Omegatonos" unicode="&#x38f;" horiz-adv-x="1867" 
d="M1667 213q82 0 82 -82v-49q0 -82 -82 -82h-430q-82 0 -82 82v57q0 63 57 98q143 89 225.5 225.5t82.5 291.5q0 101 -38 192t-102.5 156.5t-154 104t-189.5 38.5q-202 0 -342.5 -142.5t-140.5 -348.5q0 -155 82 -291.5t225 -225.5q58 -36 58 -98v-57q0 -82 -82 -82h-430
q-82 0 -82 82v49q0 82 82 82h227q-157 103 -241.5 245.5t-84.5 315.5q0 141 56.5 267.5t153.5 218t232.5 145t286.5 53.5t286.5 -53.5t232.5 -145t153.5 -218t56.5 -267.5q0 -173 -84 -316t-241 -245h227zM129 1053q-46 0 -63.5 26.5t0.5 68.5l91 222q25 64 95 64h58
q47 0 64.5 -27.5t-2.5 -69.5l-108 -224q-27 -60 -95 -60h-40z" />
    <glyph glyph-name="iotadieresistonos" unicode="&#x390;" horiz-adv-x="565" 
d="M154 979q0 82 82 82h69q82 0 82 -82v-676q0 -98 98 -98q35 0 35 -82v-39q0 -81 -41 -83q-13 -1 -41 -1q-284 0 -284 240v739zM-63 1305q0 61 40.5 101t102.5 40t102.5 -40t40.5 -101t-40.5 -101.5t-102.5 -40.5t-102.5 40.5t-40.5 101.5zM313 1305q0 60 40.5 100.5
t103.5 40.5t103 -40t40 -101t-40.5 -101.5t-102.5 -40.5q-63 0 -103.5 40.5t-40.5 101.5zM246 1483q-45 0 -55 29.5t22 70.5l93 119q38 49 100 49h41q52 0 66.5 -29.5t-18.5 -70.5l-99 -121q-38 -47 -100 -47h-50z" />
    <glyph glyph-name="Alpha" unicode="&#x391;" horiz-adv-x="1409" 
d="M1333 94q15 -42 -2.5 -68t-62.5 -26h-91q-72 0 -94 67l-96 279h-565l-96 -279q-22 -67 -94 -67h-91q-45 0 -62.5 26t-2.5 68l469 1274q24 66 94 66h131q70 0 94 -66zM494 555h421l-210 614z" />
    <glyph glyph-name="Beta" unicode="&#x392;" horiz-adv-x="1275" 
d="M246 0q-82 0 -82 82v1270q0 82 82 82h442q197 0 305.5 -103t108.5 -284q0 -104 -45 -174.5t-123 -106.5q107 -29 178.5 -122.5t71.5 -225.5q0 -188 -113.5 -303t-306.5 -115h-518zM856 1034q0 93 -50 142t-134 49h-266v-381h266q84 0 134 48.5t50 141.5zM938 426
q0 100 -54 158.5t-141 58.5h-337v-434h337q87 0 141 59t54 158z" />
    <glyph glyph-name="Gamma" unicode="&#x393;" horiz-adv-x="1056" 
d="M164 1352q0 82 82 82h688q82 0 82 -82v-45q0 -82 -82 -82h-528v-1143q0 -82 -82 -82h-78q-82 0 -82 82v1270z" />
    <glyph glyph-name="uni0394" unicode="&#x394;" horiz-adv-x="1409" 
d="M1333 94q15 -42 -2.5 -68t-62.5 -26h-1127q-45 0 -62.5 26t-2.5 68l469 1274q24 66 94 66h131q70 0 94 -66zM371 209h667l-333 960z" />
    <glyph glyph-name="Epsilon" unicode="&#x395;" horiz-adv-x="1167" 
d="M164 1352q0 82 82 82h708q82 0 82 -82v-45q0 -82 -82 -82h-548v-400h499q82 0 82 -82v-45q0 -82 -82 -82h-499v-407h567q82 0 82 -82v-45q0 -82 -82 -82h-727q-82 0 -82 82v1270z" />
    <glyph glyph-name="Zeta" unicode="&#x396;" horiz-adv-x="1243" 
d="M819 1225h-583q-82 0 -82 82v45q0 82 82 82h792q82 0 82 -82v-72q0 -54 -32 -101l-664 -970h635q81 0 81 -82v-45q0 -82 -81 -82h-844q-82 0 -82 82v72q0 54 32 101z" />
    <glyph glyph-name="Eta" unicode="&#x397;" horiz-adv-x="1441" 
d="M164 1352q0 82 82 82h78q82 0 82 -82v-527h630v527q0 82 82 82h78q82 0 82 -82v-1270q0 -82 -82 -82h-78q-82 0 -82 82v534h-630v-534q0 -82 -82 -82h-78q-82 0 -82 82v1270z" />
    <glyph glyph-name="Theta" unicode="&#x398;" horiz-adv-x="1691" 
d="M551 735q0 82 82 82h426q82 0 82 -82v-37q0 -82 -82 -82h-426q-82 0 -82 82v37zM846 188q143 0 261.5 69.5t187.5 191t69 268.5t-69 268.5t-187.5 190.5t-261.5 69t-261.5 -69t-187.5 -190.5t-69 -268.5t69 -268.5t187.5 -191t261.5 -69.5zM846 1458q159 0 301 -57.5
t243.5 -156t160.5 -236t59 -291.5t-59 -291.5t-160.5 -236.5t-243.5 -156.5t-301 -57.5t-301 57.5t-243.5 156.5t-160.5 236.5t-59 291.5t59 291.5t160.5 236t243.5 156t301 57.5z" />
    <glyph glyph-name="Iota" unicode="&#x399;" horiz-adv-x="589" 
d="M334 1434q82 0 82 -82v-1270q0 -82 -82 -82h-78q-82 0 -82 82v1270q0 82 82 82h78z" />
    <glyph glyph-name="Kappa" unicode="&#x39a;" horiz-adv-x="1245" 
d="M406 825h87l371 555q36 54 99 54h91q50 0 65.5 -29.5t-12.5 -70.5l-411 -609l483 -625q31 -41 16.5 -70.5t-66.5 -29.5h-94q-61 0 -100 49l-435 567h-94v-534q0 -82 -82 -82h-78q-82 0 -82 82v1270q0 82 82 82h78q82 0 82 -82v-527z" />
    <glyph glyph-name="Lambda" unicode="&#x39b;" horiz-adv-x="1409" 
d="M705 1149l-378 -1082q-22 -67 -95 -67h-91q-45 0 -62.5 26t-2.5 68l469 1274q24 66 94 66h131q70 0 94 -66l469 -1274q15 -42 -2.5 -68t-62.5 -26h-91q-73 0 -95 67z" />
    <glyph glyph-name="Mu" unicode="&#x39c;" horiz-adv-x="1753" 
d="M864 438q-64 0 -99 52l-368 548v-956q0 -82 -82 -82h-69q-82 0 -82 82v1270q0 82 82 82h80q62 0 98 -54l453 -675l452 675q36 54 98 54h80q82 0 82 -82v-1270q0 -82 -82 -82h-69q-82 0 -82 82v956l-368 -548q-35 -52 -99 -52h-25z" />
    <glyph glyph-name="Nu" unicode="&#x39d;" horiz-adv-x="1441" 
d="M164 1352q0 82 82 82h87q64 0 99 -55l612 -961v934q0 82 82 82h70q82 0 82 -82v-1270q0 -82 -82 -82h-87q-65 0 -99 54l-613 962v-934q0 -82 -82 -82h-69q-82 0 -82 82v1270z" />
    <glyph glyph-name="Xi" unicode="&#x39e;" horiz-adv-x="1198" 
d="M131 1352q0 82 82 82h772q82 0 82 -82v-45q0 -82 -82 -82h-772q-82 0 -82 82v45zM113 127q0 82 82 82h809q81 0 81 -82v-45q0 -82 -81 -82h-809q-82 0 -82 82v45zM262 616q-82 0 -82 82v45q0 82 82 82h653q82 0 82 -82v-45q0 -82 -82 -82h-653z" />
    <glyph glyph-name="Omicron" unicode="&#x39f;" horiz-adv-x="1691" 
d="M846 188q143 0 261.5 69.5t187.5 191t69 268.5t-69 268.5t-187.5 190.5t-261.5 69t-261.5 -69t-187.5 -190.5t-69 -268.5t69 -268.5t187.5 -191t261.5 -69.5zM846 1458q159 0 301 -57.5t243.5 -156t160.5 -236t59 -291.5t-59 -291.5t-160.5 -236.5t-243.5 -156.5
t-301 -57.5t-301 57.5t-243.5 156.5t-160.5 236.5t-59 291.5t59 291.5t160.5 236t243.5 156t301 57.5z" />
    <glyph glyph-name="Pi" unicode="&#x3a0;" horiz-adv-x="1388" 
d="M1225 82q0 -82 -82 -82h-78q-82 0 -82 82v1143h-577v-1143q0 -82 -82 -82h-78q-82 0 -82 82v1270q0 82 82 82h897q82 0 82 -82v-1270z" />
    <glyph glyph-name="Rho" unicode="&#x3a1;" horiz-adv-x="1214" 
d="M406 520v-438q0 -82 -82 -82h-78q-82 0 -82 82v1270q0 82 82 82h401q230 0 363 -124t133 -333t-133 -333t-363 -124h-241zM897 977q0 116 -67 182t-193 66h-231v-496h231q126 0 193 66t67 182z" />
    <glyph glyph-name="Sigma" unicode="&#x3a3;" horiz-adv-x="1198" 
d="M123 205l391 514l-391 510v205h952v-209h-657l354 -459v-96l-356 -461h659v-209h-952v205z" />
    <glyph glyph-name="Tau" unicode="&#x3a4;" horiz-adv-x="1134" 
d="M446 1225h-303q-82 0 -82 82v45q0 82 82 82h848q82 0 82 -82v-45q0 -82 -82 -82h-303v-1143q0 -82 -82 -82h-78q-82 0 -82 82v1143z" />
    <glyph glyph-name="Upsilon" unicode="&#x3a5;" horiz-adv-x="1323" 
d="M662 823l329 555q33 56 98 56h78q49 0 65.5 -28.5t-8.5 -70.5l-442 -747v-506q0 -82 -82 -82h-77q-82 0 -82 82v506l-442 747q-25 42 -8.5 70.5t65.5 28.5h78q65 0 98 -56z" />
    <glyph glyph-name="Phi" unicode="&#x3a6;" horiz-adv-x="1572" 
d="M666 197q-163 0 -299.5 68t-215.5 187t-79 263t79 263t215.5 187t299.5 68v119q0 82 82 82h77q82 0 82 -82v-119q163 0 299.5 -68t215.5 -187t79 -263t-79 -263t-215.5 -187t-299.5 -68v-115q0 -82 -82 -82h-77q-82 0 -82 82v115zM1255 715q0 128 -101 218.5t-247 90.5
v-618q146 0 247 90.5t101 218.5zM317 715q0 -128 101.5 -218.5t247.5 -90.5v618q-146 0 -247.5 -90.5t-101.5 -218.5z" />
    <glyph glyph-name="Chi" unicode="&#x3a7;" horiz-adv-x="1302" 
d="M651 555l-323 -502q-34 -53 -99 -53h-79q-50 0 -66.5 29t11.5 70l413 630l-394 605q-27 41 -12 70.5t65 29.5h81q62 0 98 -55l305 -476l305 476q36 55 99 55h81q50 0 65 -29.5t-12 -70.5l-394 -605l412 -630q28 -41 12 -70t-66 -29h-80q-64 0 -98 53z" />
    <glyph glyph-name="Psi" unicode="&#x3a8;" horiz-adv-x="1429" 
d="M836 548q98 38 158.5 128.5t60.5 204.5v471q0 82 82 82h77q82 0 82 -82v-486q0 -201 -129 -352t-331 -189v-243q0 -82 -82 -82h-78q-82 0 -82 82v243q-202 39 -331.5 189.5t-129.5 351.5v486q0 82 82 82h78q82 0 82 -82v-471q0 -114 60.5 -204.5t158.5 -128.5v804
q0 82 82 82h78q82 0 82 -82v-804z" />
    <glyph glyph-name="uni03A9" unicode="&#x3a9;" horiz-adv-x="1642" 
d="M1452 213q82 0 82 -82v-49q0 -82 -82 -82h-430q-82 0 -82 82v57q0 63 57 98q143 89 225.5 225.5t82.5 291.5q0 101 -38 192t-102.5 156.5t-154 104t-189.5 38.5q-202 0 -342.5 -142.5t-140.5 -348.5q0 -155 82 -291.5t225 -225.5q57 -35 57 -98v-57q0 -82 -81 -82h-431
q-81 0 -81 82v49q0 82 81 82h228q-157 103 -241.5 245.5t-84.5 315.5q0 141 56.5 267.5t153.5 218t232.5 145t286.5 53.5t286.5 -53.5t232.5 -145t153.5 -218t56.5 -267.5q0 -173 -84 -316t-241 -245h227z" />
    <glyph glyph-name="Iotadieresis" unicode="&#x3aa;" horiz-adv-x="589" 
d="M334 1434q82 0 82 -82v-1270q0 -82 -82 -82h-78q-82 0 -82 82v1270q0 82 82 82h78zM-29 1704q0 57 39 96t96 39t96.5 -39t39.5 -96t-39.5 -96t-96.5 -39t-96 39t-39 96zM348 1704q0 57 39 96t96 39t96 -39t39 -96t-39 -96t-96 -39t-96 39t-39 96z" />
    <glyph glyph-name="Upsilondieresis" unicode="&#x3ab;" horiz-adv-x="1323" 
d="M662 823l329 555q33 56 98 56h78q49 0 65.5 -28.5t-8.5 -70.5l-442 -747v-506q0 -82 -82 -82h-77q-82 0 -82 82v506l-442 747q-25 42 -8.5 70.5t65.5 28.5h78q65 0 98 -56zM338 1704q0 57 39 96t96 39t96 -39t39 -96t-39 -96t-96 -39t-96 39t-39 96zM715 1704q0 57 39 96
t96 39t96 -39t39 -96t-39 -96t-96 -39t-96 39t-39 96z" />
    <glyph glyph-name="alphatonos" unicode="&#x3ac;" horiz-adv-x="1419" 
d="M1292 0q-144 0 -213 28t-94 109q-138 -162 -371 -162q-154 0 -279 76t-194 202.5t-69 276.5t69 276.5t194 202.5t279 76q214 0 353 -139v33q0 82 82 82h69q82 0 82 -82v-655q0 -53 33.5 -86t87.5 -33q53 0 53 -82v-39q0 -40 -20.5 -62t-58.5 -22h-3zM655 184
q102 0 186 52t126 139v309q-42 87 -126 140t-186 53q-146 0 -246 -100.5t-100 -246.5t100 -246t246 -100zM696 1514q39 49 100 49h44q52 0 66 -30.5t-19 -70.5l-165 -202q-39 -48 -100 -48h-38q-52 0 -66 30t18 71z" />
    <glyph glyph-name="epsilontonos" unicode="&#x3ad;" horiz-adv-x="976" 
d="M305 326q0 -63 57.5 -106.5t143.5 -43.5q112 0 195 66q61 50 115 6l36 -30q32 -26 35.5 -56t-24.5 -59q-134 -128 -357 -128q-184 0 -309 96.5t-125 237.5q0 92 59.5 165.5t147.5 100.5q-76 26 -120 87t-44 133q0 123 110.5 206.5t274.5 83.5q211 0 322 -121
q27 -31 20 -61t-43 -52l-50 -31q-35 -18 -57 -13t-54 33q-54 45 -138 45q-65 0 -108.5 -31.5t-43.5 -77.5t43 -77t109 -31h75q82 0 82 -82v-29q0 -82 -82 -82h-69q-86 0 -143.5 -43t-57.5 -106zM532 1514q39 49 100 49h44q52 0 66 -30.5t-19 -70.5l-165 -202
q-39 -48 -100 -48h-38q-52 0 -66 30t18 71z" />
    <glyph glyph-name="etatonos" unicode="&#x3ae;" horiz-adv-x="1249" 
d="M377 82q0 -82 -82 -82h-70q-82 0 -82 82v897q0 82 82 82h70q82 0 82 -82v-41q60 67 144.5 107t172.5 40q193 0 312.5 -121.5t119.5 -320.5v-1036q0 -82 -82 -82h-69q-82 0 -82 82v1024q0 108 -68 177t-176 69q-75 0 -150.5 -51t-121.5 -121v-623zM705 1514q39 49 99 49
h44q52 0 66 -30.5t-19 -70.5l-165 -202q-39 -48 -100 -48h-38q-52 0 -66 30t18 71z" />
    <glyph glyph-name="iotatonos" unicode="&#x3af;" horiz-adv-x="565" 
d="M154 979q0 82 82 82h69q82 0 82 -82v-676q0 -98 98 -98q35 0 35 -82v-39q0 -81 -41 -83q-13 -1 -41 -1q-284 0 -284 240v739zM353 1514q39 49 100 49h44q52 0 66 -30.5t-19 -70.5l-165 -202q-39 -48 -100 -48h-38q-52 0 -66 30t18 71z" />
    <glyph glyph-name="upsilondieresistonos" unicode="&#x3b0;" horiz-adv-x="1175" 
d="M588 -25q-196 0 -330.5 128.5t-134.5 314.5v561q0 82 82 82h69q82 0 82 -82v-549q0 -104 67 -175t165 -71t164.5 71t66.5 175v549q0 82 82 82h70q82 0 82 -82v-561q0 -186 -134.5 -314.5t-330.5 -128.5zM260 1305q0 61 40 101t103 40t103.5 -40.5t40.5 -100.5
q0 -61 -40.5 -101.5t-103.5 -40.5q-62 0 -102.5 40.5t-40.5 101.5zM637 1305q0 61 40.5 101t102.5 40q63 0 103.5 -40.5t40.5 -100.5q0 -61 -41 -101.5t-103 -40.5t-102.5 40.5t-40.5 101.5zM569 1483q-45 0 -54.5 29.5t22.5 70.5l93 119q38 49 99 49h42q52 0 66 -29.5
t-19 -70.5l-98 -121q-38 -47 -100 -47h-51z" />
    <glyph glyph-name="alpha" unicode="&#x3b1;" horiz-adv-x="1419" 
d="M1292 0q-144 0 -213 28t-94 109q-138 -162 -371 -162q-154 0 -279 76t-194 202.5t-69 276.5t69 276.5t194 202.5t279 76q214 0 353 -139v33q0 82 82 82h69q82 0 82 -82v-655q0 -53 33.5 -86t87.5 -33q53 0 53 -82v-39q0 -40 -20.5 -62t-58.5 -22h-3zM655 184
q102 0 186 52t126 139v309q-42 87 -126 140t-186 53q-146 0 -246 -100.5t-100 -246.5t100 -246t246 -100z" />
    <glyph glyph-name="beta" unicode="&#x3b2;" horiz-adv-x="1239" 
d="M1034 1071q0 -91 -60 -167t-161 -113q142 -23 243 -130t101 -260q0 -181 -126.5 -303.5t-311.5 -122.5q-109 0 -198.5 47t-125.5 128v-543q0 -82 -82 -82h-77q-82 0 -82 82v1454q0 173 125 285t315 112q188 0 314 -111t126 -276zM788 1061q0 83 -56 137.5t-140 54.5
q-85 0 -141 -56.5t-56 -147.5v-586q0 -131 76 -205t193 -74q106 0 176.5 66.5t70.5 167.5t-72 166.5t-184 78.5q-44 5 -72 28t-28 57v43q0 35 25 54.5t84 39.5q62 22 93 69t31 107z" />
    <glyph glyph-name="gamma" unicode="&#x3b3;" horiz-adv-x="1081" 
d="M424 -4l-368 971q-16 42 2.5 68t63.5 26h71q69 0 93 -66l255 -700l255 700q24 66 93 66h70q45 0 63.5 -26t2.5 -68l-368 -971v-389q0 -82 -82 -82h-69q-82 0 -82 82v389z" />
    <glyph glyph-name="delta" unicode="&#x3b4;" horiz-adv-x="1163" 
d="M309 455q0 -116 80 -195.5t193 -79.5t192.5 79.5t79.5 195.5t-79.5 195t-192.5 79t-193 -79t-80 -195zM257 1195q-42 42 -42 101v56q0 82 82 82h580q81 0 81 -82v-45q0 -82 -81 -82h-363l455 -459q59 -59 91 -142.5t32 -168.5q0 -137 -72.5 -248.5t-190 -171.5
t-251.5 -60q-130 0 -245.5 60t-188 171.5t-72.5 248.5q0 96 36.5 180.5t98 145.5t143 100t170.5 49z" />
    <glyph glyph-name="epsilon" unicode="&#x3b5;" horiz-adv-x="976" 
d="M305 326q0 -63 57.5 -106.5t143.5 -43.5q112 0 195 66q61 50 115 6l36 -30q32 -26 35.5 -56t-24.5 -59q-134 -128 -357 -128q-184 0 -309 96.5t-125 237.5q0 92 59.5 165.5t147.5 100.5q-76 26 -120 87t-44 133q0 123 110.5 206.5t274.5 83.5q211 0 322 -121
q27 -31 20 -61t-43 -52l-50 -31q-35 -18 -57 -13t-54 33q-54 45 -138 45q-65 0 -108.5 -31.5t-43.5 -77.5t43 -77t109 -31h75q82 0 82 -82v-29q0 -82 -82 -82h-69q-86 0 -143.5 -43t-57.5 -106z" />
    <glyph glyph-name="zeta" unicode="&#x3b6;" horiz-adv-x="966" 
d="M72 377q0 97 48.5 189t135.5 198l377 461h-375q-82 0 -82 82v45q0 82 82 82h565q82 0 82 -82v-58q0 -57 -36 -101l-431 -536q-135 -165 -135 -280q0 -138 172 -215l248 -113q182 -81 182 -270q0 -103 -56 -200q-30 -54 -97 -54h-55q-47 0 -60.5 25.5t7.5 68.5
q30 68 30 125q0 46 -27.5 84t-71.5 57l-225 99q-134 58 -206 160.5t-72 232.5z" />
    <glyph glyph-name="eta" unicode="&#x3b7;" horiz-adv-x="1249" 
d="M377 82q0 -82 -82 -82h-70q-82 0 -82 82v897q0 82 82 82h70q82 0 82 -82v-41q60 67 144.5 107t172.5 40q193 0 312.5 -121.5t119.5 -320.5v-1036q0 -82 -82 -82h-69q-82 0 -82 82v1024q0 108 -68 177t-176 69q-75 0 -150.5 -51t-121.5 -121v-623z" />
    <glyph glyph-name="theta" unicode="&#x3b8;" horiz-adv-x="1310" 
d="M72 717q0 201 70.5 369t205 270t307.5 102t308 -102t205.5 -270t70.5 -369q0 -120 -26 -231t-77 -203.5t-121 -161.5t-163 -107.5t-197 -38.5q-173 0 -307.5 102t-205 270.5t-70.5 369.5zM655 184q91 0 164.5 58.5t117.5 155.5t58 218h-681q22 -186 113.5 -309
t227.5 -123zM655 1249q-136 0 -227.5 -123t-113.5 -309h681q-14 121 -58 218t-117.5 155.5t-164.5 58.5z" />
    <glyph glyph-name="iota" unicode="&#x3b9;" horiz-adv-x="565" 
d="M154 979q0 82 82 82h69q82 0 82 -82v-676q0 -98 98 -98q35 0 35 -82v-39q0 -81 -41 -83q-13 -1 -41 -1q-284 0 -284 240v739z" />
    <glyph glyph-name="kappa" unicode="&#x3ba;" horiz-adv-x="1064" 
d="M477 489h-100v-407q0 -82 -82 -82h-70q-82 0 -82 82v897q0 82 82 82h70q82 0 82 -82v-289h103l219 319q35 52 100 52h88q51 0 66 -29t-15 -70l-266 -372l326 -491q28 -42 13 -70.5t-65 -28.5h-84q-63 0 -98 53z" />
    <glyph glyph-name="lambda" unicode="&#x3bb;" horiz-adv-x="1081" 
d="M286 1401q-16 42 2 68t63 26h71q71 0 94 -64l509 -1337q16 -42 -2.5 -68t-63.5 -26h-70q-70 0 -94 65l-258 680l-250 -679q-24 -66 -94 -66h-71q-45 0 -63 25.5t-2 68.5l365 950z" />
    <glyph glyph-name="uni03BC" unicode="&#x3bc;" horiz-adv-x="1269" 
d="M143 979q0 82 82 82h70q82 0 82 -82v-631q23 -73 91.5 -118.5t152.5 -45.5q75 0 150.5 51t121.5 121v623q0 82 82 82h69q82 0 82 -82v-897q0 -82 -82 -82h-69q-82 0 -82 82v41q-56 -67 -134.5 -107.5t-162.5 -40.5q-63 0 -120.5 27.5t-98.5 73.5v-469q0 -82 -82 -82h-70
q-82 0 -82 82v1372z" />
    <glyph glyph-name="nu" unicode="&#x3bd;" horiz-adv-x="1081" 
d="M686 65q-23 -65 -94 -65h-103q-71 0 -94 65l-339 902q-16 42 2.5 68t63.5 26h71q69 0 93 -66l255 -692l255 692q24 66 93 66h70q45 0 63.5 -26t2.5 -68z" />
    <glyph glyph-name="xi" unicode="&#x3be;" horiz-adv-x="976" 
d="M313 385q0 -180 203 -256l191 -72q97 -37 152.5 -110t55.5 -168q0 -103 -56 -200q-30 -54 -97 -54h-54q-47 0 -61 25.5t7 68.5q30 68 30 125q0 104 -98 141l-180 66q-149 55 -236.5 172t-87.5 252q0 133 85.5 242t214.5 161q-105 41 -171 130t-66 192q0 152 118 255
t290 103q166 0 280 -86q64 -49 4 -115l-40 -43q-53 -56 -115 -1q-63 53 -129 53q-74 0 -124 -55t-50 -138t50 -137.5t124 -54.5h149q82 0 82 -82v-29q0 -82 -82 -82h-106q-121 0 -202 -88t-81 -215z" />
    <glyph glyph-name="omicron" unicode="&#x3bf;" horiz-adv-x="1310" 
d="M655 184q146 0 246 100t100 246t-100 246.5t-246 100.5t-246 -100.5t-100 -246.5t100 -246t246 -100zM655 1085q124 0 233 -43.5t185.5 -118t121 -177t44.5 -216.5t-44.5 -216.5t-121 -177t-185.5 -118t-233 -43.5q-165 0 -299 74t-209 201t-75 280t75 280t209 201
t299 74z" />
    <glyph glyph-name="pi" unicode="&#x3c0;" horiz-adv-x="1179" 
d="M430 82q0 -82 -82 -82h-69q-82 0 -82 82v770h-64q-82 0 -82 82v45q0 82 82 82h914q81 0 81 -82v-45q0 -82 -81 -82h-64v-770q0 -82 -82 -82h-70q-81 0 -81 82v770h-320v-770z" />
    <glyph glyph-name="rho" unicode="&#x3c1;" horiz-adv-x="1323" 
d="M123 530q0 154 71 280.5t201 200.5t293 74q122 0 227.5 -43.5t179 -118t115 -176.5t41.5 -217q0 -150 -69 -276.5t-194 -202.5t-279 -76q-213 0 -353 140v-508q0 -82 -82 -82h-69q-82 0 -82 82v923zM356 375q42 -87 126 -139t186 -52q146 0 246 100t100 246
q0 147 -93 247t-235 100q-143 0 -236.5 -99.5t-93.5 -247.5v-155z" />
    <glyph glyph-name="sigma1" unicode="&#x3c2;" horiz-adv-x="1105" 
d="M72 530q0 153 75 280t209 201t299 74q181 0 324 -89q67 -42 21 -112l-30 -46q-45 -66 -114 -22q-100 61 -201 61q-146 0 -246 -100.5t-100 -246.5q0 -113 59.5 -204t172.5 -142l297 -133q182 -81 182 -272q0 -103 -56 -200q-30 -54 -98 -54h-54q-47 0 -60.5 25.5
t7.5 68.5q29 66 29 125q0 46 -27 84t-71 57l-274 121q-158 69 -251 207t-93 317z" />
    <glyph glyph-name="sigma" unicode="&#x3c3;" horiz-adv-x="1361" 
d="M72 518q0 112 44.5 212.5t121 173t182 115t223.5 42.5h586q82 0 82 -82v-45q0 -82 -82 -82h-166q71 -69 111 -160.5t40 -193.5q0 -142 -75.5 -262t-207 -190.5t-288.5 -70.5q-118 0 -223.5 42.5t-182 115t-121 173t-44.5 212.5zM977 518q0 141 -96.5 237.5t-237.5 96.5
t-237.5 -96.5t-96.5 -237.5t96.5 -237.5t237.5 -96.5t237.5 96.5t96.5 237.5z" />
    <glyph glyph-name="tau" unicode="&#x3c4;" horiz-adv-x="1001" 
d="M373 852h-246q-82 0 -82 82v45q0 82 82 82h747q82 0 82 -82v-45q0 -82 -82 -82h-268v-492q0 -88 34 -123.5t108 -35.5q53 0 53 -82v-39q0 -81 -41 -83q-13 -1 -41 -1q-184 0 -265 85.5t-81 283.5v487z" />
    <glyph glyph-name="upsilon" unicode="&#x3c5;" horiz-adv-x="1175" 
d="M588 -25q-196 0 -330.5 128.5t-134.5 314.5v561q0 82 82 82h69q82 0 82 -82v-549q0 -104 67 -175t165 -71t164.5 71t66.5 175v549q0 82 82 82h70q82 0 82 -82v-561q0 -186 -134.5 -314.5t-330.5 -128.5z" />
    <glyph glyph-name="phi" unicode="&#x3c6;" horiz-adv-x="1433" 
d="M378 876q56 -50 7 -116q-76 -107 -76 -230q0 -131 83 -227t210 -115v816q0 81 82 81h94q124 0 233 -43.5t185.5 -118t121 -177t44.5 -216.5q0 -144 -67 -266t-187.5 -197.5t-271.5 -88.5v-371q0 -82 -82 -82h-70q-82 0 -82 82v371q-230 18 -380 175t-150 377t144 383
q52 58 116 3zM1124 530q0 130 -81.5 225.5t-206.5 115.5v-683q125 20 206.5 116t81.5 226z" />
    <glyph glyph-name="chi" unicode="&#x3c7;" horiz-adv-x="1052" 
d="M659 313l346 -691q22 -42 4 -69.5t-65 -27.5h-75q-67 0 -96 60l-247 503l-246 -503q-29 -60 -97 -60h-74q-47 0 -65 27.5t4 69.5l345 691l-324 651q-22 42 -4.5 69.5t64.5 27.5h75q67 0 96 -61l226 -463l227 463q29 61 96 61h75q47 0 64.5 -27.5t-4.5 -69.5z" />
    <glyph glyph-name="psi" unicode="&#x3c8;" horiz-adv-x="1409" 
d="M823 203q101 33 163.5 115.5t62.5 189.5v471q0 82 81 82h74q82 0 82 -82v-481q0 -191 -130.5 -333.5t-332.5 -178.5v-379q0 -82 -82 -82h-73q-82 0 -82 82v379q-202 36 -332.5 178.5t-130.5 333.5v481q0 82 82 82h74q81 0 81 -82v-471q0 -107 62 -189.5t164 -115.5v776
q0 82 82 82h73q82 0 82 -82v-776z" />
    <glyph glyph-name="omega" unicode="&#x3c9;" horiz-adv-x="1638" 
d="M936 520q0 -143 56.5 -239.5t140.5 -96.5t140 96.5t56 239.5q0 201 -125 445q-23 43 -7 69.5t65 26.5h58q65 0 97 -55q150 -256 150 -486q0 -151 -55 -276.5t-151 -197t-212 -71.5q-110 0 -197.5 64t-132.5 164q-45 -100 -132.5 -164t-197.5 -64q-116 0 -212 71.5
t-150.5 197t-54.5 276.5q0 231 149 486q32 55 97 55h59q49 0 64.5 -26.5t-7.5 -69.5q-125 -244 -125 -445q0 -143 56.5 -239.5t140.5 -96.5t140 96.5t56 239.5v236q0 82 82 82h70q82 0 82 -82v-236z" />
    <glyph glyph-name="iotadieresis" unicode="&#x3ca;" horiz-adv-x="565" 
d="M154 979q0 82 82 82h69q82 0 82 -82v-676q0 -98 98 -98q35 0 35 -82v-39q0 -81 -41 -83q-13 -1 -41 -1q-284 0 -284 240v739zM-53 1372q0 57 39 96t96 39t96 -39t39 -96t-39 -96t-96 -39t-96 39t-39 96zM324 1372q0 57 39 96t96 39t96 -39t39 -96t-39 -96t-96 -39t-96 39
t-39 96z" />
    <glyph glyph-name="upsilondieresis" unicode="&#x3cb;" horiz-adv-x="1175" 
d="M264 1372q0 57 39 96t96 39t96.5 -39t39.5 -96t-39.5 -96t-96.5 -39t-96 39t-39 96zM641 1372q0 57 39 96t96 39t96 -39t39 -96t-39 -96t-96 -39t-96 39t-39 96zM588 -25q-196 0 -330.5 128.5t-134.5 314.5v561q0 82 82 82h69q82 0 82 -82v-549q0 -104 67 -175t165 -71
t164.5 71t66.5 175v549q0 82 82 82h70q82 0 82 -82v-561q0 -186 -134.5 -314.5t-330.5 -128.5z" />
    <glyph glyph-name="omicrontonos" unicode="&#x3cc;" horiz-adv-x="1310" 
d="M655 184q146 0 246 100t100 246t-100 246.5t-246 100.5t-246 -100.5t-100 -246.5t100 -246t246 -100zM655 1085q124 0 233 -43.5t185.5 -118t121 -177t44.5 -216.5t-44.5 -216.5t-121 -177t-185.5 -118t-233 -43.5q-165 0 -299 74t-209 201t-75 280t75 280t209 201
t299 74zM732 1514q39 49 99 49h45q52 0 66 -30.5t-19 -70.5l-165 -202q-39 -48 -101 -48h-37q-52 0 -66.5 30t17.5 71z" />
    <glyph glyph-name="upsilontonos" unicode="&#x3cd;" horiz-adv-x="1175" 
d="M588 -25q-196 0 -330.5 128.5t-134.5 314.5v561q0 82 82 82h69q82 0 82 -82v-549q0 -104 67 -175t165 -71t164.5 71t66.5 175v549q0 82 82 82h70q82 0 82 -82v-561q0 -186 -134.5 -314.5t-330.5 -128.5zM653 1514q39 49 100 49h44q52 0 66 -30.5t-19 -70.5l-165 -202
q-39 -48 -100 -48h-38q-52 0 -66 30t18 71z" />
    <glyph glyph-name="omegatonos" unicode="&#x3ce;" horiz-adv-x="1638" 
d="M936 520q0 -143 56.5 -239.5t140.5 -96.5t140 96.5t56 239.5q0 201 -125 445q-23 43 -7 69.5t65 26.5h58q65 0 97 -55q150 -256 150 -486q0 -151 -55 -276.5t-151 -197t-212 -71.5q-110 0 -197.5 64t-132.5 164q-45 -100 -132.5 -164t-197.5 -64q-116 0 -212 71.5
t-150.5 197t-54.5 276.5q0 231 149 486q32 55 97 55h59q49 0 64.5 -26.5t-7.5 -69.5q-125 -244 -125 -445q0 -143 56.5 -239.5t140.5 -96.5t140 96.5t56 239.5v236q0 82 82 82h70q82 0 82 -82v-236zM907 1514q39 49 100 49h44q52 0 66 -30.5t-19 -70.5l-165 -202
q-39 -48 -100 -48h-38q-52 0 -66.5 30t17.5 71z" />
    <glyph glyph-name="uni0400" unicode="&#x400;" horiz-adv-x="1167" 
d="M164 1352q0 82 82 82h708q82 0 82 -82v-45q0 -82 -82 -82h-548v-400h499q82 0 82 -82v-45q0 -82 -82 -82h-499v-407h567q82 0 82 -82v-45q0 -82 -82 -82h-727q-82 0 -82 82v1270zM673 1645q32 -41 18 -71t-66 -30h-38q-63 0 -101 47l-164 203q-33 40 -19 70t66 30h44
q61 0 99 -48z" />
    <glyph glyph-name="afii10023" unicode="&#x401;" horiz-adv-x="1167" 
d="M164 1352q0 82 82 82h708q82 0 82 -82v-45q0 -82 -82 -82h-548v-400h499q82 0 82 -82v-45q0 -82 -82 -82h-499v-407h567q82 0 82 -82v-45q0 -82 -82 -82h-727q-82 0 -82 82v1270zM279 1704q0 57 39 96t96 39t96 -39t39 -96t-39 -96t-96 -39t-96 39t-39 96zM655 1704
q0 57 39.5 96t96.5 39t96 -39t39 -96t-39 -96t-96 -39t-96.5 39t-39.5 96z" />
    <glyph glyph-name="afii10051" unicode="&#x402;" horiz-adv-x="1470" 
d="M1399 401q0 -170 -120.5 -287.5t-295.5 -117.5h-2q-32 0 -56 23.5t-24 60.5v39q0 82 53 82q86 0 144.5 60t58.5 149v88q0 91 -61 153t-152 62q-177 0 -256 -152v-479q0 -82 -82 -82h-78q-82 0 -82 82v1143h-303q-82 0 -82 82v45q0 82 82 82h848q82 0 82 -82v-45
q0 -82 -82 -82h-303v-426q53 59 129 91t162 32q177 0 298.5 -119.5t121.5 -292.5v-109z" />
    <glyph glyph-name="afii10052" unicode="&#x403;" horiz-adv-x="1056" 
d="M164 1352q0 82 82 82h688q82 0 82 -82v-45q0 -82 -82 -82h-528v-1143q0 -82 -82 -82h-78q-82 0 -82 82v1270zM610 1846q38 48 100 48h44q52 0 66 -30t-19 -70l-165 -203q-38 -47 -100 -47h-38q-52 0 -66 30t18 71z" />
    <glyph glyph-name="afii10053" unicode="&#x404;" horiz-adv-x="1415" 
d="M1264 1172q-45 -64 -114 -19q-149 92 -304 92q-189 0 -331.5 -119t-177.5 -305h621q82 0 82 -82v-45q0 -82 -82 -82h-621q35 -186 177 -305t332 -119q145 0 292 86q70 41 113 -24l31 -47q46 -71 -21 -114q-186 -114 -415 -114q-159 0 -301 57.5t-243.5 156.5
t-160.5 236.5t-59 291.5t59 291.5t160.5 236t243.5 156t301 57.5q241 0 432 -125q66 -44 18 -113z" />
    <glyph glyph-name="afii10054" unicode="&#x405;" horiz-adv-x="1216" 
d="M196 310q53 57 115 3q144 -125 297 -125q126 0 203.5 55.5t77.5 149.5q0 89 -70 150.5t-244 97.5q-223 47 -333.5 154t-110.5 266q0 178 130 287.5t337 109.5q237 0 403 -129q63 -50 9 -115l-40 -48q-50 -61 -115 -10q-123 89 -247 89q-101 0 -166 -46t-65 -122
q0 -87 71 -144t230 -93q245 -57 351 -166t106 -281q0 -187 -138.5 -302.5t-378.5 -115.5q-130 0 -251 46t-212 129q-57 54 -1 115z" />
    <glyph glyph-name="afii10055" unicode="&#x406;" horiz-adv-x="589" 
d="M334 1434q82 0 82 -82v-1270q0 -82 -82 -82h-78q-82 0 -82 82v1270q0 82 82 82h78z" />
    <glyph glyph-name="afii10056" unicode="&#x407;" horiz-adv-x="589" 
d="M334 1434q82 0 82 -82v-1270q0 -82 -82 -82h-78q-82 0 -82 82v1270q0 82 82 82h78zM-29 1704q0 57 39 96t96 39t96.5 -39t39.5 -96t-39.5 -96t-96.5 -39t-96 39t-39 96zM348 1704q0 57 39 96t96 39t96 -39t39 -96t-39 -96t-96 -39t-96 39t-39 96z" />
    <glyph glyph-name="afii10057" unicode="&#x408;" horiz-adv-x="946" 
d="M551 1352q0 82 82 82h78q82 0 82 -82v-895q0 -249 -116.5 -365.5t-348.5 -116.5q-112 0 -215 37q-36 12 -46.5 41.5t3.5 65.5l19 50q27 72 106 44q72 -25 129 -25q113 0 170 63.5t57 205.5v895z" />
    <glyph glyph-name="afii10058" unicode="&#x409;" horiz-adv-x="2052" 
d="M1243 913h242q230 0 362.5 -123.5t132.5 -332.5t-132.5 -333t-362.5 -124h-402q-82 0 -82 82v1143h-520v-860q0 -197 -86 -283t-272 -86h-2q-32 0 -56 23.5t-24 60.5v43q0 82 57 82q74 0 108 36t34 124v987q0 82 82 82h839q82 0 82 -82v-439zM1735 457q0 116 -67 182
t-193 66h-232v-496h232q126 0 193 66t67 182z" />
    <glyph glyph-name="afii10059" unicode="&#x40a;" horiz-adv-x="2066" 
d="M1257 913h242q230 0 363 -124t133 -332q0 -209 -133 -333t-363 -124h-401q-82 0 -82 82v534h-610v-534q0 -82 -82 -82h-78q-82 0 -82 82v1270q0 82 82 82h78q82 0 82 -82v-527h610v527q0 82 82 82h78q81 0 81 -82v-439zM1749 457q0 116 -67 182t-193 66h-232v-496h232
q126 0 193 66t67 182z" />
    <glyph glyph-name="afii10060" unicode="&#x40b;" horiz-adv-x="1521" 
d="M1399 82q0 -82 -82 -82h-78q-82 0 -82 82v416q0 91 -61 153t-152 62q-177 0 -256 -152v-479q0 -82 -82 -82h-78q-82 0 -82 82v1143h-303q-82 0 -82 82v45q0 82 82 82h848q82 0 82 -82v-45q0 -82 -82 -82h-303v-426q53 59 129 91t162 32q177 0 298.5 -119.5t121.5 -292.5
v-428z" />
    <glyph glyph-name="afii10061" unicode="&#x40c;" horiz-adv-x="1245" 
d="M406 825h87l371 555q36 54 99 54h91q50 0 65.5 -29.5t-12.5 -70.5l-411 -609l483 -625q31 -41 16.5 -70.5t-66.5 -29.5h-94q-61 0 -100 49l-435 567h-94v-534q0 -82 -82 -82h-78q-82 0 -82 82v1270q0 82 82 82h78q82 0 82 -82v-527zM672 1846q38 48 99 48h44q52 0 66 -30
t-19 -70l-165 -203q-38 -47 -100 -47h-38q-52 0 -66 30t18 71z" />
    <glyph glyph-name="uni040D" unicode="&#x40d;" horiz-adv-x="1441" 
d="M1278 82q0 -82 -82 -82h-70q-82 0 -82 82v934l-612 -962q-34 -54 -99 -54h-87q-82 0 -82 82v1270q0 82 82 82h69q82 0 82 -82v-934l613 961q35 55 99 55h87q82 0 82 -82v-1270zM806 1645q32 -41 18 -71t-66 -30h-38q-62 0 -100 47l-165 203q-33 40 -19 70t66 30h44
q61 0 99 -48z" />
    <glyph glyph-name="afii10062" unicode="&#x40e;" horiz-adv-x="1323" 
d="M688 207q-101 -207 -311 -207h-88q-82 0 -82 82v45q0 82 82 82h53q91 0 139 94l60 121l-452 912q-21 42 -3.5 70t64.5 28h76q68 0 96 -61l344 -709l335 709q28 61 97 61h77q47 0 64 -27.5t-4 -69.5zM666 1524q-114 0 -205 63.5t-125 168.5q-12 40 9.5 64.5t64.5 24.5h42
q34 0 52.5 -16t36.5 -54q19 -37 52 -58t73 -21t73 21t52 58q18 38 36.5 54t52.5 16h42q43 0 64 -25t8 -66q-34 -104 -124.5 -167t-203.5 -63z" />
    <glyph glyph-name="afii10145" unicode="&#x40f;" horiz-adv-x="1388" 
d="M983 1352q0 82 82 82h78q82 0 82 -82v-1270q0 -82 -82 -82h-328v-205q0 -82 -82 -82h-78q-82 0 -82 82v205h-327q-82 0 -82 82v1270q0 82 82 82h78q82 0 82 -82v-1143h577v1143z" />
    <glyph glyph-name="afii10017" unicode="&#x410;" horiz-adv-x="1409" 
d="M1333 94q15 -42 -2.5 -68t-62.5 -26h-91q-72 0 -94 67l-96 279h-565l-96 -279q-22 -67 -94 -67h-91q-45 0 -62.5 26t-2.5 68l469 1274q24 66 94 66h131q70 0 94 -66zM494 555h421l-210 614z" />
    <glyph glyph-name="afii10018" unicode="&#x411;" horiz-adv-x="1224" 
d="M647 913q230 0 363 -124t133 -332q0 -209 -133 -333t-363 -124h-401q-82 0 -82 82v1270q0 82 82 82h702q82 0 82 -82v-45q0 -82 -82 -82h-542v-312h241zM897 457q0 116 -67 182t-193 66h-231v-496h231q126 0 193 66t67 182z" />
    <glyph glyph-name="afii10019" unicode="&#x412;" horiz-adv-x="1275" 
d="M246 0q-82 0 -82 82v1270q0 82 82 82h442q197 0 305.5 -103t108.5 -284q0 -104 -45 -174.5t-123 -106.5q107 -29 178.5 -122.5t71.5 -225.5q0 -188 -113.5 -303t-306.5 -115h-518zM856 1034q0 93 -50 142t-134 49h-266v-381h266q84 0 134 48.5t50 141.5zM938 426
q0 100 -54 158.5t-141 58.5h-337v-434h337q87 0 141 59t54 158z" />
    <glyph glyph-name="afii10020" unicode="&#x413;" horiz-adv-x="1056" 
d="M164 1352q0 82 82 82h688q82 0 82 -82v-45q0 -82 -82 -82h-528v-1143q0 -82 -82 -82h-78q-82 0 -82 82v1270z" />
    <glyph glyph-name="afii10021" unicode="&#x414;" horiz-adv-x="1361" 
d="M1300 -205q0 -82 -81 -82h-78q-82 0 -82 82v205h-756v-205q0 -82 -82 -82h-78q-82 0 -82 82v332q0 82 82 82h27q178 410 178 1061v82q0 82 82 82h666q82 0 82 -82v-1143h41q81 0 81 -82v-332zM936 209v1016h-350q0 -263 -42 -534.5t-120 -481.5h512z" />
    <glyph glyph-name="afii10022" unicode="&#x415;" horiz-adv-x="1167" 
d="M164 1352q0 82 82 82h708q82 0 82 -82v-45q0 -82 -82 -82h-548v-400h499q82 0 82 -82v-45q0 -82 -82 -82h-499v-407h567q82 0 82 -82v-45q0 -82 -82 -82h-727q-82 0 -82 82v1270z" />
    <glyph glyph-name="afii10024" unicode="&#x416;" horiz-adv-x="1839" 
d="M735 825h64v527q0 82 82 82h77q82 0 82 -82v-527h64l354 554q35 55 98 55h94q50 0 65.5 -29t-11.5 -71l-393 -609l465 -625q31 -41 16 -70.5t-67 -29.5h-96q-62 0 -99 50l-418 566h-72v-534q0 -82 -82 -82h-77q-82 0 -82 82v534h-72l-418 -566q-37 -50 -99 -50h-96
q-52 0 -67 29.5t16 70.5l465 625l-393 609q-27 42 -11.5 71t65.5 29h94q63 0 98 -55z" />
    <glyph glyph-name="afii10025" unicode="&#x417;" horiz-adv-x="1093" 
d="M178 1234q-61 63 1 116q128 108 333 108q188 0 307 -109.5t119 -273.5q0 -93 -54.5 -169.5t-142.5 -114.5q122 -45 196.5 -142.5t74.5 -220.5q0 -192 -144 -322.5t-356 -130.5q-119 0 -223.5 45.5t-179.5 127.5q-50 58 7 115l36 36q57 57 115 -6q103 -113 245 -113
q112 0 187 73t75 179q0 111 -82 181.5t-221 70.5h-61q-82 0 -82 82v33q0 82 82 82h61q108 0 173 52.5t65 135.5q0 79 -62 131.5t-155 52.5q-94 0 -168 -54q-65 -47 -115 4z" />
    <glyph glyph-name="afii10026" unicode="&#x418;" horiz-adv-x="1441" 
d="M1278 82q0 -82 -82 -82h-70q-82 0 -82 82v934l-612 -962q-34 -54 -99 -54h-87q-82 0 -82 82v1270q0 82 82 82h69q82 0 82 -82v-934l613 961q35 55 99 55h87q82 0 82 -82v-1270z" />
    <glyph glyph-name="afii10027" unicode="&#x419;" horiz-adv-x="1441" 
d="M721 1524q-114 0 -205 63.5t-125 168.5q-12 40 9.5 64.5t64.5 24.5h42q34 0 52.5 -16t36.5 -54q19 -37 52 -58t73 -21t73 21t52 58q18 38 36.5 54t52.5 16h42q43 0 64.5 -25t8.5 -66q-34 -104 -125 -167t-204 -63zM1278 82q0 -82 -82 -82h-70q-82 0 -82 82v934l-612 -962
q-34 -54 -99 -54h-87q-82 0 -82 82v1270q0 82 82 82h69q82 0 82 -82v-934l613 961q35 55 99 55h87q82 0 82 -82v-1270z" />
    <glyph glyph-name="afii10028" unicode="&#x41a;" horiz-adv-x="1245" 
d="M406 825h87l371 555q36 54 99 54h91q50 0 65.5 -29.5t-12.5 -70.5l-411 -609l483 -625q31 -41 16.5 -70.5t-66.5 -29.5h-94q-61 0 -100 49l-435 567h-94v-534q0 -82 -82 -82h-78q-82 0 -82 82v1270q0 82 82 82h78q82 0 82 -82v-527z" />
    <glyph glyph-name="afii10029" unicode="&#x41b;" horiz-adv-x="1443" 
d="M1280 82q0 -82 -82 -82h-78q-82 0 -82 82v1143h-557v-860q0 -197 -86 -283t-272 -86h-2q-32 0 -56 23.5t-24 60.5v43q0 82 57 82q74 0 108 36t34 124v987q0 82 82 82h876q82 0 82 -82v-1270z" />
    <glyph glyph-name="afii10030" unicode="&#x41c;" horiz-adv-x="1753" 
d="M864 438q-64 0 -99 52l-368 548v-956q0 -82 -82 -82h-69q-82 0 -82 82v1270q0 82 82 82h80q62 0 98 -54l453 -675l452 675q36 54 98 54h80q82 0 82 -82v-1270q0 -82 -82 -82h-69q-82 0 -82 82v956l-368 -548q-35 -52 -99 -52h-25z" />
    <glyph glyph-name="afii10031" unicode="&#x41d;" horiz-adv-x="1441" 
d="M164 1352q0 82 82 82h78q82 0 82 -82v-527h630v527q0 82 82 82h78q82 0 82 -82v-1270q0 -82 -82 -82h-78q-82 0 -82 82v534h-630v-534q0 -82 -82 -82h-78q-82 0 -82 82v1270z" />
    <glyph glyph-name="afii10032" unicode="&#x41e;" horiz-adv-x="1691" 
d="M846 188q143 0 261.5 69.5t187.5 191t69 268.5t-69 268.5t-187.5 190.5t-261.5 69t-261.5 -69t-187.5 -190.5t-69 -268.5t69 -268.5t187.5 -191t261.5 -69.5zM846 1458q159 0 301 -57.5t243.5 -156t160.5 -236t59 -291.5t-59 -291.5t-160.5 -236.5t-243.5 -156.5
t-301 -57.5t-301 57.5t-243.5 156.5t-160.5 236.5t-59 291.5t59 291.5t160.5 236t243.5 156t301 57.5z" />
    <glyph glyph-name="afii10033" unicode="&#x41f;" horiz-adv-x="1388" 
d="M1225 82q0 -82 -82 -82h-78q-82 0 -82 82v1143h-577v-1143q0 -82 -82 -82h-78q-82 0 -82 82v1270q0 82 82 82h897q82 0 82 -82v-1270z" />
    <glyph glyph-name="afii10034" unicode="&#x420;" horiz-adv-x="1214" 
d="M406 520v-438q0 -82 -82 -82h-78q-82 0 -82 82v1270q0 82 82 82h401q230 0 363 -124t133 -333t-133 -333t-363 -124h-241zM897 977q0 116 -67 182t-193 66h-231v-496h231q126 0 193 66t67 182z" />
    <glyph glyph-name="afii10035" unicode="&#x421;" horiz-adv-x="1415" 
d="M1296 214q49 -69 -18 -115q-191 -124 -432 -124q-159 0 -301 57.5t-243.5 156.5t-160.5 236.5t-59 291.5t59 291.5t160.5 236t243.5 156t301 57.5q230 0 415 -113q67 -43 21 -114l-31 -47q-43 -66 -113 -25q-147 86 -292 86q-143 0 -261.5 -69t-187.5 -190.5t-69 -268.5
t69 -268.5t187.5 -191t261.5 -69.5q154 0 304 93q68 44 114 -20z" />
    <glyph glyph-name="afii10036" unicode="&#x422;" horiz-adv-x="1134" 
d="M446 1225h-303q-82 0 -82 82v45q0 82 82 82h848q82 0 82 -82v-45q0 -82 -82 -82h-303v-1143q0 -82 -82 -82h-78q-82 0 -82 82v1143z" />
    <glyph glyph-name="afii10037" unicode="&#x423;" horiz-adv-x="1323" 
d="M688 207q-101 -207 -311 -207h-88q-82 0 -82 82v45q0 82 82 82h53q91 0 139 94l60 121l-452 912q-21 42 -3.5 70t64.5 28h76q68 0 96 -61l344 -709l335 709q28 61 97 61h77q47 0 64 -27.5t-4 -69.5z" />
    <glyph glyph-name="afii10038" unicode="&#x424;" horiz-adv-x="1572" 
d="M666 197q-163 0 -299.5 68t-215.5 187t-79 263t79 263t215.5 187t299.5 68v119q0 82 82 82h77q82 0 82 -82v-119q163 0 299.5 -68t215.5 -187t79 -263t-79 -263t-215.5 -187t-299.5 -68v-115q0 -82 -82 -82h-77q-82 0 -82 82v115zM1255 715q0 128 -101 218.5t-247 90.5
v-618q146 0 247 90.5t101 218.5zM317 715q0 -128 101.5 -218.5t247.5 -90.5v618q-146 0 -247.5 -90.5t-101.5 -218.5z" />
    <glyph glyph-name="afii10039" unicode="&#x425;" horiz-adv-x="1302" 
d="M651 555l-323 -502q-34 -53 -99 -53h-79q-50 0 -66.5 29t11.5 70l413 630l-394 605q-27 41 -12 70.5t65 29.5h81q62 0 98 -55l305 -476l305 476q36 55 99 55h81q50 0 65 -29.5t-12 -70.5l-394 -605l412 -630q28 -41 12 -70t-66 -29h-80q-64 0 -98 53z" />
    <glyph glyph-name="afii10040" unicode="&#x426;" horiz-adv-x="1409" 
d="M246 0q-82 0 -82 82v1270q0 82 82 82h78q82 0 82 -82v-1143h577v1143q0 82 82 82h78q82 0 82 -82v-1143h41q82 0 82 -82v-332q0 -82 -82 -82h-78q-82 0 -82 82v205h-860z" />
    <glyph glyph-name="afii10041" unicode="&#x427;" horiz-adv-x="1280" 
d="M123 1352q0 82 82 82h78q82 0 82 -82v-396q0 -100 66.5 -167.5t166.5 -67.5q89 0 163.5 45t112.5 117v469q0 82 82 82h78q82 0 82 -82v-1270q0 -82 -82 -82h-78q-82 0 -82 82v563q-53 -59 -138.5 -96t-172.5 -37q-186 0 -313 124.5t-127 307.5v408z" />
    <glyph glyph-name="afii10042" unicode="&#x428;" horiz-adv-x="1998" 
d="M1593 1352q0 82 82 82h78q82 0 82 -82v-1270q0 -82 -82 -82h-1507q-82 0 -82 82v1270q0 82 82 82h78q82 0 82 -82v-1143h473v1143q0 82 82 82h77q82 0 82 -82v-1143h473v1143z" />
    <glyph glyph-name="afii10043" unicode="&#x429;" horiz-adv-x="2019" 
d="M246 0q-82 0 -82 82v1270q0 82 82 82h78q82 0 82 -82v-1143h473v1143q0 82 82 82h77q82 0 82 -82v-1143h473v1143q0 82 82 82h78q82 0 82 -82v-1143h41q82 0 82 -82v-332q0 -82 -82 -82h-78q-82 0 -82 82v205h-1470z" />
    <glyph glyph-name="afii10044" unicode="&#x42a;" horiz-adv-x="1460" 
d="M893 913q230 0 363 -124t133 -332q0 -209 -133 -333t-363 -124h-401q-82 0 -82 82v1143h-267q-82 0 -82 82v45q0 82 82 82h426q82 0 82 -82v-439h242zM1143 457q0 116 -67 182t-193 66h-232v-496h232q126 0 193 66t67 182z" />
    <glyph glyph-name="afii10045" unicode="&#x42b;" horiz-adv-x="1705" 
d="M324 1434q82 0 82 -82v-439h241q230 0 363 -124t133 -332q0 -209 -133 -333t-363 -124h-401q-82 0 -82 82v1270q0 82 82 82h78zM897 457q0 116 -67 182t-193 66h-231v-496h231q126 0 193 66t67 182zM1460 1434q82 0 82 -82v-1270q0 -82 -82 -82h-78q-82 0 -82 82v1270
q0 82 82 82h78z" />
    <glyph glyph-name="afii10046" unicode="&#x42c;" horiz-adv-x="1214" 
d="M324 1434q82 0 82 -82v-439h241q230 0 363 -124t133 -332q0 -209 -133 -333t-363 -124h-401q-82 0 -82 82v1270q0 82 82 82h78zM897 457q0 116 -67 182t-193 66h-231v-496h231q126 0 193 66t67 182z" />
    <glyph glyph-name="afii10047" unicode="&#x42d;" horiz-adv-x="1415" 
d="M119 1220q-48 69 18 114q191 124 432 124q159 0 301 -57.5t243.5 -156t160.5 -236t59 -291.5t-59 -291.5t-160.5 -236.5t-243.5 -156.5t-301 -57.5q-228 0 -414 114q-68 44 -22 114l31 47q43 66 114 24q147 -86 291 -86q190 0 331.5 119t176.5 305h-620q-82 0 -82 82v45
q0 82 82 82h620q-35 185 -176.5 304.5t-331.5 119.5q-155 0 -304 -92q-68 -44 -113 19z" />
    <glyph glyph-name="afii10048" unicode="&#x42e;" horiz-adv-x="2193" 
d="M406 82q0 -82 -82 -82h-78q-82 0 -82 82v1270q0 82 82 82h78q82 0 82 -82v-527h185q26 180 130.5 324.5t268.5 226.5t358 82q213 0 388 -97.5t275 -267.5t100 -376q0 -154 -59 -291.5t-160 -236.5t-243 -156.5t-301 -57.5q-296 0 -508.5 181.5t-249.5 459.5h-184v-534z
M1348 188q143 0 261.5 69.5t187.5 191t69 268.5t-69 268.5t-187.5 190.5t-261.5 69q-107 0 -203 -41t-165.5 -111t-110 -168t-40.5 -208q0 -147 69 -268.5t188 -191t262 -69.5z" />
    <glyph glyph-name="afii10049" unicode="&#x42f;" horiz-adv-x="1243" 
d="M997 1434q82 0 82 -82v-1270q0 -82 -82 -82h-77q-82 0 -82 82v438h-143l-321 -468q-35 -52 -100 -52h-81q-51 0 -66.5 29t13.5 70l302 438q-162 38 -252 154t-90 286q0 209 133 333t363 124h401zM606 1225q-126 0 -193 -66t-67 -182t67 -182t193 -66h232v496h-232z" />
    <glyph glyph-name="afii10065" unicode="&#x430;" horiz-adv-x="1343" 
d="M655 184q102 0 186 52t126 139v309q-42 87 -126 140t-186 53q-146 0 -246 -100.5t-100 -246.5t100 -246t246 -100zM614 1085q214 0 353 -139v33q0 82 82 82h69q82 0 82 -82v-897q0 -82 -82 -82h-69q-82 0 -82 82v33q-140 -140 -353 -140q-154 0 -279 76t-194 202.5
t-69 276.5t69 276.5t194 202.5t279 76z" />
    <glyph glyph-name="afii10066" unicode="&#x431;" horiz-adv-x="1257" 
d="M346 842q65 63 154 100t186 37q138 0 253 -66t181 -181.5t66 -254.5q0 -218 -153.5 -360t-393.5 -142q-116 0 -215 39.5t-173.5 114.5t-116.5 192.5t-42 266.5q0 308 73.5 493.5t231 281t428.5 125.5q81 8 93 -72l7 -47q6 -40 -22 -64.5t-89 -32.5q-130 -19 -214 -50
t-137 -84.5t-78.5 -122t-38.5 -173.5zM330 588q0 -195 86 -299.5t223 -104.5q134 0 221.5 84t87.5 209q0 124 -86 208.5t-213 84.5q-97 0 -178.5 -49.5t-140.5 -132.5z" />
    <glyph glyph-name="afii10067" unicode="&#x432;" horiz-adv-x="1064" 
d="M225 0q-82 0 -82 82v897q0 82 82 82h353q148 0 247 -81.5t99 -203.5q0 -71 -40.5 -131t-105.5 -86q83 -20 139 -93t56 -161q0 -129 -104.5 -217t-258.5 -88h-385zM377 449v-248h221q61 0 101 35t40 88t-40 89t-101 36h-221zM561 641q57 0 93 31.5t36 79.5
q0 47 -36.5 77.5t-92.5 30.5h-184v-219h184z" />
    <glyph glyph-name="afii10068" unicode="&#x433;" horiz-adv-x="847" 
d="M377 852v-770q0 -82 -82 -82h-70q-82 0 -82 82v897q0 82 82 82h496q82 0 82 -82v-45q0 -82 -82 -82h-344z" />
    <glyph glyph-name="afii10069" unicode="&#x434;" horiz-adv-x="1136" 
d="M1092 -135q0 -82 -82 -82h-70q-82 0 -82 82v135h-579v-135q0 -82 -82 -82h-70q-82 0 -82 82v258q0 82 82 82h29q138 293 146 774q2 82 83 82h494q82 0 82 -82v-774h49q82 0 82 -82v-258zM731 205v651h-207q0 -157 -32.5 -334.5t-88.5 -316.5h328z" />
    <glyph glyph-name="afii10070" unicode="&#x435;" horiz-adv-x="1265" 
d="M310 455q20 -122 116 -200.5t227 -78.5q139 0 257 88q62 49 116 -1l40 -38q64 -61 1 -115q-170 -135 -408 -135q-172 0 -307 74.5t-207.5 200.5t-72.5 280q0 114 43.5 216.5t118.5 177t181.5 118t227.5 43.5q158 0 285 -72.5t196.5 -194t69.5 -267.5q0 -14 -1 -21
q-1 -37 -24 -56t-62 -19h-797zM643 885q-110 0 -200.5 -66.5t-123.5 -171.5h630q-28 105 -111 171.5t-195 66.5z" />
    <glyph glyph-name="afii10072" unicode="&#x436;" horiz-adv-x="1609" 
d="M1024 469h-102v-387q0 -82 -82 -82h-70q-82 0 -82 82v387h-104l-282 -417q-36 -52 -99 -52h-82q-51 0 -66 29t14 70l324 470l-269 393q-29 41 -14 70t66 29h90q64 0 99 -53l221 -338h102v309q0 82 82 82h70q82 0 82 -82v-309h100l223 338q35 53 98 53h91q51 0 66 -29
t-14 -70l-269 -393l324 -470q29 -41 14 -70t-66 -29h-82q-64 0 -99 52z" />
    <glyph glyph-name="afii10073" unicode="&#x437;" horiz-adv-x="1001" 
d="M676 326q0 63 -57.5 106t-143.5 43h-69q-82 0 -82 82v29q0 82 82 82h75q66 0 109 31t43 77t-43.5 77.5t-108.5 31.5q-84 0 -138 -45q-32 -28 -54 -33t-57 13l-50 31q-36 22 -43 52t20 61q111 121 322 121q164 0 274.5 -83.5t110.5 -206.5q0 -72 -44 -133t-120 -87
q88 -27 147.5 -100.5t59.5 -165.5q0 -141 -125 -237.5t-309 -96.5q-223 0 -357 128q-28 29 -24.5 59t35.5 56l36 30q54 44 115 -6q83 -66 195 -66q86 0 143.5 43.5t57.5 106.5z" />
    <glyph glyph-name="afii10074" unicode="&#x438;" horiz-adv-x="1269" 
d="M1126 82q0 -82 -82 -82h-61q-82 0 -82 82v653l-500 -685q-37 -50 -99 -50h-77q-82 0 -82 82v897q0 82 82 82h62q82 0 82 -82v-653l499 685q37 50 100 50h76q82 0 82 -82v-897z" />
    <glyph glyph-name="afii10075" unicode="&#x439;" horiz-adv-x="1269" 
d="M635 1192q-114 0 -205 63.5t-125 168.5q-12 40 9.5 64.5t64.5 24.5h42q34 0 52.5 -16t36.5 -54q19 -37 52 -58t73 -21t73 21t52 58q18 38 36.5 54t52.5 16h42q43 0 64.5 -25t8.5 -66q-34 -104 -125 -167t-204 -63zM1126 82q0 -82 -82 -82h-61q-82 0 -82 82v653l-500 -685
q-37 -50 -99 -50h-77q-82 0 -82 82v897q0 82 82 82h62q82 0 82 -82v-653l499 685q37 50 100 50h76q82 0 82 -82v-897z" />
    <glyph glyph-name="afii10076" unicode="&#x43a;" horiz-adv-x="1064" 
d="M477 489h-100v-407q0 -82 -82 -82h-70q-82 0 -82 82v897q0 82 82 82h70q82 0 82 -82v-289h103l219 319q35 52 100 52h88q51 0 66 -29t-15 -70l-266 -372l326 -491q28 -42 13 -70.5t-65 -28.5h-84q-63 0 -98 53z" />
    <glyph glyph-name="afii10077" unicode="&#x43b;" horiz-adv-x="1263" 
d="M1120 82q0 -82 -82 -82h-69q-82 0 -82 82v770h-430v-541q0 -135 -90.5 -227t-223.5 -92h-21q-38 1 -57.5 24t-19.5 62v47q0 82 51 82q56 0 91.5 35t35.5 90v647q0 82 82 82h733q82 0 82 -82v-897z" />
    <glyph glyph-name="afii10078" unicode="&#x43c;" horiz-adv-x="1394" 
d="M696 539l305 469q34 53 99 53h69q82 0 82 -82v-897q0 -82 -82 -82h-61q-82 0 -82 82v625l-225 -338q-36 -54 -99 -54h-10q-62 0 -98 54l-225 338v-625q0 -82 -82 -82h-62q-82 0 -82 82v897q0 82 82 82h70q64 0 98 -53z" />
    <glyph glyph-name="afii10079" unicode="&#x43d;" horiz-adv-x="1269" 
d="M1126 82q0 -82 -82 -82h-69q-82 0 -82 82v362h-516v-362q0 -82 -82 -82h-70q-82 0 -82 82v897q0 82 82 82h70q82 0 82 -82v-326h516v326q0 82 82 82h69q82 0 82 -82v-897z" />
    <glyph glyph-name="afii10080" unicode="&#x43e;" horiz-adv-x="1310" 
d="M655 184q146 0 246 100t100 246t-100 246.5t-246 100.5t-246 -100.5t-100 -246.5t100 -246t246 -100zM655 1085q124 0 233 -43.5t185.5 -118t121 -177t44.5 -216.5t-44.5 -216.5t-121 -177t-185.5 -118t-233 -43.5q-165 0 -299 74t-209 201t-75 280t75 280t209 201
t299 74z" />
    <glyph glyph-name="afii10081" unicode="&#x43f;" horiz-adv-x="1269" 
d="M1126 82q0 -82 -82 -82h-69q-82 0 -82 82v770h-516v-770q0 -82 -82 -82h-70q-82 0 -82 82v897q0 82 82 82h819q82 0 82 -82v-897z" />
    <glyph glyph-name="afii10082" unicode="&#x440;" horiz-adv-x="1343" 
d="M688 184q146 0 246 100t100 246t-100 246.5t-246 100.5q-102 0 -185.5 -53t-125.5 -140v-309q42 -87 125.5 -139t185.5 -52zM729 1085q154 0 279.5 -76t194.5 -202.5t69 -276.5t-69 -276.5t-194.5 -202.5t-279.5 -76q-212 0 -352 140v-508q0 -82 -82 -82h-70
q-82 0 -82 82v1372q0 82 82 82h70q82 0 82 -82v-33q139 139 352 139z" />
    <glyph glyph-name="afii10083" unicode="&#x441;" horiz-adv-x="1130" 
d="M655 -25q-165 0 -299 74t-209 201t-75 280t75 280t209 201t299 74q181 0 324 -89q67 -42 21 -112l-30 -46q-45 -66 -114 -22q-100 61 -201 61q-146 0 -246 -100.5t-100 -246.5t100 -246t246 -100q108 0 209 66q68 45 115 -13l35 -44q53 -67 -5 -110q-152 -108 -354 -108z
" />
    <glyph glyph-name="afii10084" unicode="&#x442;" horiz-adv-x="970" 
d="M127 852q-82 0 -82 82v45q0 82 82 82h717q82 0 82 -82v-45q0 -82 -82 -82h-242v-770q0 -82 -82 -82h-69q-82 0 -82 82v770h-242z" />
    <glyph glyph-name="afii10085" unicode="&#x443;" horiz-adv-x="1081" 
d="M420 0l-364 967q-16 42 2.5 68t63.5 26h71q69 0 93 -66l253 -700l257 700q24 66 93 66h70q45 0 63.5 -26t2.5 -68l-519 -1378q-23 -64 -94 -64h-71q-45 0 -63.5 26t-2.5 68z" />
    <glyph glyph-name="afii10086" unicode="&#x444;" horiz-adv-x="2166" 
d="M1511 184q146 0 246.5 100t100.5 246t-100.5 246.5t-246.5 100.5q-102 0 -185.5 -53t-125.5 -140v-309q42 -87 125.5 -139t185.5 -52zM655 184q102 0 186 52t126 139v309q-42 87 -126 140t-186 53q-146 0 -246 -100.5t-100 -246.5t100 -246t246 -100zM967 1413
q0 82 82 82h69q82 0 82 -82v-467q139 139 352 139q154 0 279.5 -76t194.5 -202.5t69 -276.5t-69 -276.5t-194.5 -202.5t-279.5 -76q-212 0 -352 140v-508q0 -82 -82 -82h-69q-82 0 -82 82v508q-140 -140 -353 -140q-154 0 -279 76t-194 202.5t-69 276.5t69 276.5t194 202.5
t279 76q214 0 353 -139v467z" />
    <glyph glyph-name="afii10087" unicode="&#x445;" horiz-adv-x="1081" 
d="M541 385l-227 -333q-35 -52 -99 -52h-74q-51 0 -66 29t14 70l304 442l-280 421q-28 42 -12.5 70.5t65.5 28.5h76q64 0 98 -53l201 -312l200 312q34 53 99 53h75q50 0 66 -28.5t-12 -70.5l-281 -421l304 -442q29 -41 14 -70t-66 -29h-74q-64 0 -99 52z" />
    <glyph glyph-name="afii10088" unicode="&#x446;" horiz-adv-x="1294" 
d="M1126 209h41q82 0 82 -82v-332q0 -82 -82 -82h-69q-82 0 -82 82v205h-791q-82 0 -82 82v897q0 82 82 82h70q82 0 82 -82v-770h516v770q0 82 82 82h69q82 0 82 -82v-770z" />
    <glyph glyph-name="afii10089" unicode="&#x447;" horiz-adv-x="1136" 
d="M760 426q-50 -62 -121.5 -96.5t-155.5 -34.5q-164 0 -277.5 116t-113.5 285v283q0 82 82 82h70q82 0 82 -82v-270q0 -88 57.5 -146.5t144.5 -58.5q80 0 138.5 42t93.5 109v324q0 82 82 82h69q82 0 82 -82v-897q0 -82 -82 -82h-69q-82 0 -82 82v344z" />
    <glyph glyph-name="afii10090" unicode="&#x448;" horiz-adv-x="1626" 
d="M1483 82q0 -82 -82 -82h-1176q-82 0 -82 82v897q0 82 82 82h70q82 0 82 -82v-770h319v770q0 82 82 82h70q82 0 82 -82v-770h319v770q0 82 82 82h70q82 0 82 -82v-897z" />
    <glyph glyph-name="afii10091" unicode="&#x449;" horiz-adv-x="1650" 
d="M225 0q-82 0 -82 82v897q0 82 82 82h70q82 0 82 -82v-770h319v770q0 82 82 82h70q82 0 82 -82v-770h319v770q0 82 82 82h70q82 0 82 -82v-770h41q82 0 82 -82v-332q0 -82 -82 -82h-70q-82 0 -82 82v205h-1147z" />
    <glyph glyph-name="afii10092" unicode="&#x44a;" horiz-adv-x="1232" 
d="M418 0q-82 0 -82 82v778h-209q-82 0 -82 82v37q0 82 82 82h360q82 0 82 -82v-250h213q165 0 277 -105.5t112 -258.5t-112 -259t-277 -106h-364zM938 365q0 70 -51 116.5t-125 46.5h-193v-327h193q74 0 125 47t51 117z" />
    <glyph glyph-name="afii10093" unicode="&#x44b;" horiz-adv-x="1482" 
d="M225 0q-82 0 -82 82v897q0 82 82 82h70q82 0 82 -82v-250h213q165 0 277 -105.5t112 -258.5t-112 -259t-277 -106h-365zM745 365q0 70 -51 116.5t-125 46.5h-192v-327h192q74 0 125 47t51 117zM1106 979q0 82 82 82h69q82 0 82 -82v-897q0 -82 -82 -82h-69q-82 0 -82 82
v897z" />
    <glyph glyph-name="afii10094" unicode="&#x44c;" horiz-adv-x="1040" 
d="M225 0q-82 0 -82 82v897q0 82 82 82h70q82 0 82 -82v-250h213q165 0 277 -105.5t112 -258.5t-112 -259t-277 -106h-365zM745 365q0 70 -51 116.5t-125 46.5h-192v-327h192q74 0 125 47t51 117z" />
    <glyph glyph-name="afii10095" unicode="&#x44d;" horiz-adv-x="1130" 
d="M475 -25q-194 0 -346 103q-32 23 -34.5 54t22.5 61l35 44q46 58 114 13q101 -66 209 -66q119 0 210.5 69t122.5 179h-388q-82 0 -82 82v29q0 82 82 82h389q-30 111 -122 181.5t-212 70.5q-101 0 -201 -61q-69 -43 -113 22l-31 46q-46 70 22 112q143 89 323 89
q124 0 233 -43.5t185.5 -118t121 -177t44.5 -216.5t-44.5 -216.5t-121 -177t-185.5 -118t-233 -43.5z" />
    <glyph glyph-name="afii10096" unicode="&#x44e;" horiz-adv-x="1751" 
d="M1096 1085q165 0 299 -74t209 -201t75 -280t-75 -280t-209 -201t-299 -74q-221 0 -380 127.5t-195 325.5h-144v-346q0 -82 -82 -82h-70q-82 0 -82 82v897q0 82 82 82h70q82 0 82 -82v-342h145q37 196 195.5 322t378.5 126zM1096 184q146 0 246 100t100 246t-100 246.5
t-246 100.5t-246 -100.5t-100 -246.5t100 -246t246 -100z" />
    <glyph glyph-name="afii10097" unicode="&#x44f;" horiz-adv-x="1128" 
d="M92 713q0 148 116 248t286 100h409q82 0 82 -82v-897q0 -82 -82 -82h-69q-82 0 -82 82v283h-143l-250 -317q-38 -48 -99 -48h-66q-52 0 -66.5 30t17.5 70l223 281q-124 33 -200 123.5t-76 208.5zM502 860q-76 0 -126 -41.5t-50 -105.5t50.5 -106t125.5 -42h250v295h-250z
" />
    <glyph glyph-name="uni0450" unicode="&#x450;" horiz-adv-x="1265" 
d="M310 455q20 -122 116 -200.5t227 -78.5q139 0 257 88q62 49 116 -1l40 -38q64 -61 1 -115q-170 -135 -408 -135q-172 0 -307 74.5t-207.5 200.5t-72.5 280q0 114 43.5 216.5t118.5 177t181.5 118t227.5 43.5q158 0 285 -72.5t196.5 -194t69.5 -267.5q0 -14 -1 -21
q-1 -37 -24 -56t-62 -19h-797zM643 885q-110 0 -200.5 -66.5t-123.5 -171.5h630q-28 105 -111 171.5t-195 66.5zM742 1313q32 -41 18 -71t-66 -30h-38q-61 0 -100 48l-165 202q-33 40 -19 70.5t66 30.5h44q61 0 100 -49z" />
    <glyph glyph-name="afii10071" unicode="&#x451;" horiz-adv-x="1265" 
d="M310 455q20 -122 116 -200.5t227 -78.5q139 0 257 88q62 49 116 -1l40 -38q64 -61 1 -115q-170 -135 -408 -135q-172 0 -307 74.5t-207.5 200.5t-72.5 280q0 114 43.5 216.5t118.5 177t181.5 118t227.5 43.5q158 0 285 -72.5t196.5 -194t69.5 -267.5q0 -14 -1 -21
q-1 -37 -24 -56t-62 -19h-797zM643 885q-110 0 -200.5 -66.5t-123.5 -171.5h630q-28 105 -111 171.5t-195 66.5zM309 1372q0 57 39 96t96 39t96.5 -39t39.5 -96t-39.5 -96t-96.5 -39t-96 39t-39 96zM686 1372q0 57 39 96t96 39t96 -39t39 -96t-39 -96t-96 -39t-96 39t-39 96
z" />
    <glyph glyph-name="afii10099" unicode="&#x452;" horiz-adv-x="1269" 
d="M20 1266q0 77 82 77h62v70q0 82 82 82h69q82 0 82 -82v-70h248q82 0 82 -81q0 -35 -21 -54.5t-61 -19.5h-248v-250q60 66 145 106.5t173 40.5q193 0 312.5 -121.5t119.5 -320.5v-743q0 -195 -97 -285t-305 -90q-23 0 -34 1q-38 1 -58 23.5t-20 61.5v39q0 40 12 61t34 20
q16 -1 46 -1q103 0 145.5 40.5t42.5 131.5v729q0 108 -67.5 177t-175.5 69q-75 0 -151 -51t-122 -121v-623q0 -82 -82 -82h-69q-82 0 -82 82v1106h-62q-40 0 -61 20t-21 58z" />
    <glyph glyph-name="afii10100" unicode="&#x453;" horiz-adv-x="847" 
d="M377 852v-770q0 -82 -82 -82h-70q-82 0 -82 82v897q0 82 82 82h496q82 0 82 -82v-45q0 -82 -82 -82h-344zM469 1514q39 49 99 49h44q52 0 66 -30.5t-19 -70.5l-164 -202q-39 -48 -101 -48h-38q-52 0 -66 30t18 71z" />
    <glyph glyph-name="afii10101" unicode="&#x454;" horiz-adv-x="1130" 
d="M649 -25q-165 0 -299 74t-209 201t-75 280t75 280t209 201t299 74q181 0 324 -89q67 -42 21 -112l-30 -46q-45 -66 -114 -22q-100 61 -201 61q-120 0 -212 -70.5t-122 -181.5h390q81 0 81 -82v-29q0 -82 -81 -82h-389q31 -110 122.5 -179t210.5 -69q108 0 209 66
q68 45 115 -13l35 -44q53 -67 -6 -110q-152 -108 -353 -108z" />
    <glyph glyph-name="afii10102" unicode="&#x455;" horiz-adv-x="964" 
d="M148 244q49 58 115 6q97 -74 214 -74q85 0 133.5 34t48.5 93q0 57 -45 92t-157 58q-177 35 -261.5 117.5t-84.5 215.5q0 131 101.5 215t270.5 84q163 0 303 -93q32 -22 35 -53t-22 -61l-24 -30q-48 -61 -116 -15q-80 52 -157 52q-69 0 -113.5 -28.5t-44.5 -74.5
q0 -106 188 -145q187 -38 274 -120t87 -218q0 -142 -107 -233t-292 -91q-106 0 -201.5 32t-165.5 90q-59 50 -5 115z" />
    <glyph glyph-name="afii10103" unicode="&#x456;" horiz-adv-x="540" 
d="M154 979q0 82 82 82h69q82 0 82 -82v-897q0 -82 -82 -82h-69q-82 0 -82 82v897zM125 1350q0 62 41.5 103.5t103.5 41.5t104 -42t42 -103q0 -62 -42 -104t-104 -42q-61 0 -103 42t-42 104z" />
    <glyph glyph-name="afii10104" unicode="&#x457;" horiz-adv-x="540" 
d="M154 979q0 82 82 82h69q82 0 82 -82v-897q0 -82 -82 -82h-69q-82 0 -82 82v897zM-53 1372q0 57 39 96t96 39t96 -39t39 -96t-39 -96t-96 -39t-96 39t-39 96zM324 1372q0 57 39 96t96 39t96 -39t39 -96t-39 -96t-96 -39t-96 39t-39 96z" />
    <glyph glyph-name="afii10105" unicode="&#x458;" horiz-adv-x="540" 
d="M154 979q0 82 82 82h69q82 0 82 -82v-1085q0 -198 -81 -283.5t-265 -85.5h-2q-32 0 -56 23.5t-24 60.5v39q0 82 53 82q74 0 108 35.5t34 123.5v1090zM125 1350q0 62 41.5 103.5t103.5 41.5t104 -42t42 -103q0 -62 -42 -104t-104 -42q-61 0 -103 42t-42 104z" />
    <glyph glyph-name="afii10106" unicode="&#x459;" horiz-adv-x="1742" 
d="M928 0q-82 0 -82 82v770h-389v-541q0 -135 -90.5 -227t-223.5 -92h-21q-38 1 -57.5 24t-19.5 62v47q0 82 51 82q56 0 91.5 35t35.5 90v647q0 82 82 82h692q82 0 82 -82v-250h213q165 0 277 -105.5t112 -258.5t-112 -259t-277 -106h-364zM1448 365q0 70 -51 116.5
t-125 46.5h-193v-327h193q74 0 125 47t51 117z" />
    <glyph glyph-name="afii10107" unicode="&#x45a;" horiz-adv-x="1748" 
d="M934 0q-82 0 -82 82v362h-475v-362q0 -82 -82 -82h-70q-82 0 -82 82v897q0 82 82 82h70q82 0 82 -82v-326h475v326q0 82 82 82h70q81 0 81 -82v-250h213q165 0 277.5 -105.5t112.5 -258.5t-112.5 -259t-277.5 -106h-364zM1454 365q0 70 -51 116.5t-125 46.5h-193v-327
h193q74 0 125 47t51 117z" />
    <glyph glyph-name="afii10108" unicode="&#x45b;" horiz-adv-x="1269" 
d="M20 1266q0 77 82 77h62v70q0 82 82 82h69q82 0 82 -82v-70h248q82 0 82 -81q0 -35 -21 -54.5t-61 -19.5h-248v-250q60 66 145 106.5t173 40.5q193 0 312.5 -121.5t119.5 -320.5v-561q0 -82 -82 -82h-70q-82 0 -82 82v549q0 108 -67.5 177t-175.5 69q-75 0 -151 -51
t-122 -121v-623q0 -82 -82 -82h-69q-82 0 -82 82v1106h-62q-40 0 -61 20t-21 58z" />
    <glyph glyph-name="afii10109" unicode="&#x45c;" horiz-adv-x="1064" 
d="M477 489h-100v-407q0 -82 -82 -82h-70q-82 0 -82 82v897q0 82 82 82h70q82 0 82 -82v-289h103l219 319q35 52 100 52h88q51 0 66 -29t-15 -70l-266 -372l326 -491q28 -42 13 -70.5t-65 -28.5h-84q-63 0 -98 53zM573 1514q39 49 100 49h44q52 0 66 -30.5t-19 -70.5
l-165 -202q-39 -48 -100 -48h-38q-52 0 -66 30t18 71z" />
    <glyph glyph-name="uni045D" unicode="&#x45d;" horiz-adv-x="1269" 
d="M1126 82q0 -82 -82 -82h-61q-82 0 -82 82v653l-500 -685q-37 -50 -99 -50h-77q-82 0 -82 82v897q0 82 82 82h62q82 0 82 -82v-653l499 685q37 50 100 50h76q82 0 82 -82v-897zM732 1313q32 -41 18 -71t-66 -30h-38q-61 0 -100 48l-165 202q-33 40 -19 70.5t66 30.5h44
q60 0 99 -49z" />
    <glyph glyph-name="afii10110" unicode="&#x45e;" horiz-adv-x="1081" 
d="M420 0l-364 967q-16 42 2.5 68t63.5 26h71q69 0 93 -66l253 -700l257 700q24 66 93 66h70q45 0 63.5 -26t2.5 -68l-519 -1378q-23 -64 -94 -64h-71q-45 0 -63.5 26t-2.5 68zM539 1192q-114 0 -205 63.5t-125 168.5q-12 40 9.5 64.5t64.5 24.5h42q34 0 52.5 -16t36.5 -54
q19 -37 52 -58t73 -21t73 21t52 58q18 38 36.5 54t52.5 16h42q43 0 64 -25t8 -66q-34 -104 -124.5 -167t-203.5 -63z" />
    <glyph glyph-name="afii10193" unicode="&#x45f;" horiz-adv-x="1269" 
d="M752 -205q0 -82 -82 -82h-70q-82 0 -82 82v205h-293q-82 0 -82 82v897q0 82 82 82h70q82 0 82 -82v-770h516v770q0 82 82 82h69q82 0 82 -82v-897q0 -82 -82 -82h-292v-205z" />
    <glyph glyph-name="afii10050" unicode="&#x490;" horiz-adv-x="1056" 
d="M774 1638q0 82 82 82h78q82 0 82 -82v-331q0 -82 -82 -82h-528v-1143q0 -82 -82 -82h-78q-82 0 -82 82v1270q0 82 82 82h528v204z" />
    <glyph glyph-name="afii10098" unicode="&#x491;" horiz-adv-x="847" 
d="M569 1266q0 82 82 82h70q82 0 82 -82v-332q0 -82 -82 -82h-344v-770q0 -82 -82 -82h-70q-82 0 -82 82v897q0 82 82 82h344v205z" />
    <glyph glyph-name="Wgrave" unicode="&#x1e80;" horiz-adv-x="2007" 
d="M1051 1434q71 0 91 -69l290 -1011l262 1009q18 71 91 71h86q43 0 61.5 -25t6.5 -68l-361 -1271q-20 -70 -91 -70h-94q-71 0 -91 69l-298 1033l-298 -1033q-20 -69 -92 -69h-94q-71 0 -91 70l-361 1271q-12 43 6.5 68t61.5 25h86q73 0 91 -71l262 -1009l290 1011
q19 69 91 69h95zM1091 1645q32 -41 17.5 -71t-66.5 -30h-37q-63 0 -101 47l-165 203q-33 40 -19 70t66 30h44q62 0 100 -48z" />
    <glyph glyph-name="wgrave" unicode="&#x1e81;" horiz-adv-x="1613" 
d="M856 1061q71 0 91 -70l192 -686l193 686q20 70 91 70h73q44 0 63 -25.5t6 -67.5l-282 -900q-21 -68 -92 -68h-99q-72 0 -92 70l-193 692l-194 -692q-20 -70 -91 -70h-99q-71 0 -92 68l-282 900q-13 42 6 67.5t63 25.5h72q72 0 92 -70l193 -686l192 686q20 70 91 70h98z
M878 1313q32 -41 17.5 -71t-66.5 -30h-37q-62 0 -101 48l-165 202q-33 40 -19 70.5t66 30.5h44q61 0 100 -49z" />
    <glyph glyph-name="Wacute" unicode="&#x1e82;" horiz-adv-x="2007" 
d="M1051 1434q71 0 91 -69l290 -1011l262 1009q18 71 91 71h86q43 0 61.5 -25t6.5 -68l-361 -1271q-20 -70 -91 -70h-94q-71 0 -91 69l-298 1033l-298 -1033q-20 -69 -92 -69h-94q-71 0 -91 70l-361 1271q-12 43 6.5 68t61.5 25h86q73 0 91 -71l262 -1009l290 1011
q19 69 91 69h95zM1082 1846q38 48 100 48h44q52 0 66 -30t-19 -70l-165 -203q-38 -47 -100 -47h-38q-52 0 -66 30t18 71z" />
    <glyph glyph-name="wacute" unicode="&#x1e83;" horiz-adv-x="1613" 
d="M856 1061q71 0 91 -70l192 -686l193 686q20 70 91 70h73q44 0 63 -25.5t6 -67.5l-282 -900q-21 -68 -92 -68h-99q-72 0 -92 70l-193 692l-194 -692q-20 -70 -91 -70h-99q-71 0 -92 68l-282 900q-13 42 6 67.5t63 25.5h72q72 0 92 -70l193 -686l192 686q20 70 91 70h98z
M888 1514q39 49 99 49h44q52 0 66 -30.5t-19 -70.5l-165 -202q-39 -48 -100 -48h-38q-52 0 -66 30t18 71z" />
    <glyph glyph-name="Wdieresis" unicode="&#x1e84;" horiz-adv-x="2007" 
d="M1051 1434q71 0 91 -69l290 -1011l262 1009q18 71 91 71h86q43 0 61.5 -25t6.5 -68l-361 -1271q-20 -70 -91 -70h-94q-71 0 -91 69l-298 1033l-298 -1033q-20 -69 -92 -69h-94q-71 0 -91 70l-361 1271q-12 43 6.5 68t61.5 25h86q73 0 91 -71l262 -1009l290 1011
q19 69 91 69h95zM680 1704q0 57 39 96t96 39t96 -39t39 -96t-39 -96t-96 -39t-96 39t-39 96zM1057 1704q0 57 39 96t96 39t96 -39t39 -96t-39 -96t-96 -39t-96 39t-39 96z" />
    </font>
</defs>
</svg>
